<?xml version="1.0"?>
<!--Icons from directory ""-->
<svg xmlns="http://www.w3.org/2000/svg" width="32" height="192" viewBox="0 0 32 192"><svg viewBox="0 0 40.58 25.73" width="32" height="32" id="camera" y="0"><defs><style>.a {        fill: #998379;      }</style></defs><title>camera</title><path transform="translate(-8906.2 -509.43)" class="a" d="m8920.8 513.09v-3.65h-14.62v25.74h40.57v-22.09h-26zm-3.08 5.31h-9.31v-6.4h9.31v6.37zm15.48 14.38a8.08 8.08 0 1 1 8.08 -8.08 8.08 8.08 0 0 1 -8.1 8.08z"/></svg><svg viewBox="0 0 19.01 39.23" width="32" height="32" id="favourite-2" y="32"><defs><style>.a {        fill: #9a8479;      }</style></defs><title>favourite-2</title><path transform="translate(-9220.1 -499.29)" class="a" d="m9220.1 499.29v39.23l9.51-15.22 9.51 15.22v-39.23h-19zm13.2 15.18-3.69-1.94-3.69 1.94 0.7-4.11-3-2.91 4.13-0.6 1.84-3.74 1.84 3.74 4.13 0.6-3 2.91z"/></svg><svg viewBox="0 0 43.74 41.6" width="32" height="32" id="star-full" y="64"><defs><style>.a {        fill: #ec1c24;        stroke: #ec1c24;        stroke-miterlimit: 10;        stroke-width: 3px;      }</style></defs><title>star-full</title><polygon points="21.87 3.39 27.63 15.07 40.52 16.94 31.2 26.03 33.4 38.86 21.87 32.8 10.35 38.86 12.55 26.03 3.22 16.94 16.11 15.07" class="a"/></svg><svg viewBox="0 0 43.75 41.6" width="32" height="32" id="star" y="96"><defs><style>.a {        fill: none;        stroke: #ec1c24;        stroke-miterlimit: 10;        stroke-width: 3px;      }</style></defs><title>star</title><polygon points="21.87 3.39 27.64 15.07 40.52 16.94 31.2 26.03 33.4 38.86 21.87 32.8 10.35 38.86 12.55 26.03 3.22 16.94 16.11 15.07" class="a"/></svg><svg viewBox="0 0 42.33 39.15" width="32" height="32" id="testimonial" y="128"><defs><style>.a {        fill: #d3cfba;      }</style></defs><title>testimonial</title><path transform="translate(-5961.8 -2121.6)" class="a" d="m5988.4 2138.6v-17h15.74v13.46q0 10.93-2.61 15.82a21.94 21.94 0 0 1 -10.85 9.87l-3.59-5.71a13.14 13.14 0 0 0 6.61 -5.59q2.12-3.71 2.37-10.81h-7.67zm-25.29 0v-17h15.74v13.46q0 10.93-2.61 15.82a22 22 0 0 1 -10.85 9.87l-3.59-5.71a13.14 13.14 0 0 0 6.61 -5.59q2.12-3.71 2.37-10.81h-7.67z"/></svg><svg viewBox="0 0 28.82 38.46" width="32" height="32" id="visualisator" y="160"><defs><style>.a {        fill: #9a8479;      }</style></defs><title>visualisator</title><path transform="translate(-9079 -501.51)" class="a" d="m9100.4 523.58h-14.32c-1-5.13-3.14-5.91-7.1-5.87v16.48h28.78v-16.48c-4.4-0.01-6.1 0.39-7.4 5.87z"/><path transform="translate(-9079 -501.51)" class="a" d="m9099.6 501.51h-12.26c-3.75 0-5.21 2.13-5.21 3.7v9.39c1.64 0 4.68 1.07 5.57 5.83h11.09c1-4.52 4.42-5.79 6-5.83v-9.4c0-1.56-1.5-3.69-5.2-3.69z"/><rect y="35.04" width="8.2" class="a" height="3.42"/><rect y="35.04" x="20.62" height="3.42" class="a" width="8.2"/></svg></svg>
