<?xml version="1.0" encoding="utf-8"?>
<!-- Generator: Adobe Illustrator 15.1.0, SVG Export Plug-In . SVG Version: 6.00 Build 0)  -->
<!DOCTYPE svg PUBLIC "-//W3C//DTD SVG 1.1//EN" "http://www.w3.org/Graphics/SVG/1.1/DTD/svg11.dtd">
<svg version="1.1" id="Layer_1" xmlns="http://www.w3.org/2000/svg" xmlns:xlink="http://www.w3.org/1999/xlink" x="0px" y="0px"
	 width="56.086px" height="25px" viewBox="71.541 87.402 56.086 25" enable-background="new 71.541 87.402 56.086 25"
	 xml:space="preserve">
<g id="Stena-Clacel_Logo_2_">
	<g id="Stena-Clavel-Logo_2_">
		<g id="Stena_2_">
			<polygon fill="#DFDFDF" points="71.541,93.977 72.418,112.402 118.645,108.509 118.645,93.977 			"/>
			<polygon fill="#BAB693" points="74.535,90.47 75.201,109.555 123.902,106.464 123.902,91.857 			"/>
			<polygon fill="#6C81BD" points="77.676,87.402 127.627,89.52 127.627,105.296 77.676,106.1 			"/>
			<path fill="#FFFFFF" d="M88.441,93.227c-0.367-1.343,0.567-2.414,1.67-2.168c0.108,0.025,1.688,0.526,1.406,2.196l0.35,0.233
				l1.406-1.784l-0.177-0.41c-2.887-1.981-5.006-0.868-5.854,0.117c-3.078,3.563,1.711,5.575,2.566,7.387
				c0.995,2.106-2.479,4.216-3.972-0.272c-0.688,0.295-1.35,1.314-1.553,1.933c0.424,2.618,5.717,3.264,7.611-0.117
				C93.783,96.979,88.875,94.792,88.441,93.227z"/>
			<path fill="#FFFFFF" d="M118.711,97.354c0.285-0.881,0.938-2.225,0.938-2.225c-0.51-0.051-1.129,0.049-1.463,0.264l-0.731,0.555
				c-1.897-2.549-6.106,0.668-6.353,4.625c-0.156,0.28-0.688,0.711-1.019,0.409c-0.987-0.896,2.051-5.104,0.549-5.794
				c-1.604-0.738-2.86,0.822-4.264,2.238c0.176-0.679,0.42-1.396,0.766-2.181l-0.061,0.003l-2.105,0.085
				c-0.686,1.715-1.02,3.099-1.18,4.394c-0.021,0.021-0.043,0.039-0.063,0.057c-2.285,1.94-3.697,1.813-3.792,0.722
				c3.06-1.592,5.267-4.812,1.857-5.317c-2.603-0.388-4.74,2.363-4.244,5.444c-0.67,0.405-2.074,1.063-2.371-0.088
				c-0.102-0.396,0.127-1.235,1.054-3.946l1.438-0.152l0.115-1.246l-1.074,0.011c0.295-0.856,0.643-1.851,1.045-3.011l-2.811,0.322
				c-0.107,0.375-0.422,1.459-0.771,2.709l-1.26,0.012l-0.063,1.715l0.871-0.094c-0.42,1.564-0.789,3.041-0.797,3.475
				c-0.059,3.016,2.17,2.534,4.89,1.258c0.266,0.815,2.262,2.192,5.864-0.457c-0.02,0.438-0.023,0.875-0.023,1.321
				c0.691,0.06,1.746-0.22,2.225-0.438c0.043-1.31,0.111-2.132,0.305-3.384c0.904-1.025,1.818-1.881,2.344-1.775
				c0.689,0.138-3.063,6.17,1.074,5.529c0.994-0.151,1.484-0.815,1.664-1.158c1.271,2.375,3.039,1.238,4.848-0.748
				c-0.176,1.965,1.172,3.404,4.332,0.234v-1.436C118.313,102.098,117.674,100.584,118.711,97.354z M99.656,99.521
				c-0.474-2.606,1.252-3.869,1.79-3.545C102.162,96.412,101.611,98.456,99.656,99.521z M113.557,99.607
				c0.307-3.762,3.332-4.42,2.969-2.16C116.137,99.852,113.361,102.005,113.557,99.607z"/>
		</g>
		<g id="Clavel_2_">
			<path fill="#FFFFFF" d="M107.6,93.704c-0.33-0.015-0.588-0.093-0.774-0.255c-0.188-0.161-0.308-0.387-0.326-0.688
				c-0.015-0.238,0.028-0.457,0.099-0.65c0.068-0.193,0.168-0.36,0.299-0.502c0.127-0.137,0.285-0.242,0.472-0.32
				c0.414-0.178,1.055-0.195,1.452,0.074l-0.104,0.617h-0.072c-0.307-0.228-0.604-0.256-0.857-0.176
				c-0.271,0.084-0.484,0.295-0.539,0.633c-0.092,0.569,0.443,0.93,1.26,0.469h0.057l-0.104,0.613
				C108.211,93.65,107.92,93.717,107.6,93.704L107.6,93.704z"/>
			<polygon fill="#FFFFFF" points="117.943,91.232 117.844,91.801 116.979,91.801 116.918,92.133 117.701,92.133 117.609,92.668 
				116.826,92.668 116.762,93.049 117.629,93.049 117.525,93.641 115.898,93.641 116.313,91.232 			"/>
			<polygon fill="#FFFFFF" points="119.475,93.641 117.887,93.641 118.303,91.232 119.066,91.232 118.752,93.063 119.572,93.063 			
				"/>
			<polygon fill="#FFFFFF" points="110.391,93.641 108.807,93.641 109.225,91.232 109.984,91.232 109.67,93.063 110.49,93.063 			
				"/>
			<polygon fill="#FFFFFF" points="112.043,91.232 112.836,91.232 113.41,93.641 112.689,93.641 112.652,93.488 112.197,94.098 
				112.615,93.328 112.578,93.174 111.928,94.1 112.531,92.973 112.492,92.811 111.645,94.1 112.441,92.596 112.4,92.421 
				111.357,94.102 112.35,92.195 112.291,91.963 111.375,93.641 110.623,93.641 			"/>
			<polygon fill="#FFFFFF" points="114.688,93.641 113.896,93.641 113.32,91.232 114.041,91.232 114.076,91.383 114.533,90.773 
				114.115,91.544 114.152,91.699 114.803,90.773 114.199,91.898 114.238,92.063 115.086,90.773 114.289,92.275 114.33,92.451 
				115.375,90.771 114.383,92.677 114.438,92.908 115.355,91.232 116.107,91.232 			"/>
		</g>
	</g>
</g>
</svg>
