<?xml version="1.0" encoding="utf-8"?>
<!-- Generator: Adobe Illustrator 15.1.0, SVG Export Plug-In . SVG Version: 6.00 Build 0)  -->
<!DOCTYPE svg PUBLIC "-//W3C//DTD SVG 1.1//EN" "http://www.w3.org/Graphics/SVG/1.1/DTD/svg11.dtd">
<svg version="1.1" id="Layer_1" xmlns="http://www.w3.org/2000/svg" xmlns:xlink="http://www.w3.org/1999/xlink" x="0px" y="0px"
	 width="167.967px" height="42.545px" viewBox="16.48 78.917 167.967 42.545" enable-background="new 16.48 78.917 167.967 42.545"
	 xml:space="preserve">
<g id="Stena-Clacel_Logo_1_">
	<g id="Stena-Clavel-Logo_1_">
		<g id="Stena_1_">
			<polygon fill="#DFDFDF" points="16.48,90.104 17.974,121.462 96.648,114.839 96.648,90.104 			"/>
			<polygon fill="#BAB693" points="21.576,84.137 22.711,116.615 105.6,111.357 105.6,86.499 			"/>
			<polygon fill="#6C81BD" points="26.922,78.917 111.936,82.52 111.936,109.37 26.922,110.736 			"/>
			<path fill="#FFFFFF" d="M45.246,88.826c-0.627-2.282,0.967-4.106,2.84-3.688c0.188,0.041,2.877,0.895,2.394,3.738l0.598,0.398
				l2.393-3.039l-0.299-0.699c-4.912-3.373-8.52-1.477-9.965,0.199c-5.24,6.065,2.91,9.486,4.367,12.572
				c1.694,3.587-4.219,7.175-6.758-0.464c-1.175,0.503-2.3,2.234-2.646,3.287c0.721,4.458,9.729,5.556,12.955-0.198
				C54.334,95.213,45.982,91.492,45.246,88.826z"/>
			<path fill="#FFFFFF" d="M96.762,95.85c0.486-1.498,1.597-3.783,1.597-3.783c-0.869-0.088-1.924,0.084-2.492,0.447l-1.244,0.947
				c-3.23-4.338-10.396,1.133-10.813,7.871c-0.265,0.477-1.166,1.211-1.73,0.697c-1.68-1.529,3.492-8.689,0.936-9.865
				c-2.733-1.256-4.868,1.402-7.258,3.811c0.299-1.156,0.717-2.377,1.306-3.711l-0.103,0.004l-3.588,0.146
				c-1.164,2.918-1.73,5.271-2.006,7.477c-0.035,0.033-0.074,0.064-0.111,0.096c-3.889,3.308-6.291,3.086-6.451,1.23
				c5.205-2.711,8.965-8.189,3.164-9.053c-4.43-0.658-8.069,4.023-7.225,9.268c-1.141,0.689-3.531,1.813-4.037-0.147
				c-0.172-0.677,0.217-2.104,1.791-6.715l2.447-0.262l0.197-2.117l-1.828,0.019c0.504-1.459,1.092-3.151,1.776-5.125l-4.782,0.549
				c-0.183,0.64-0.72,2.481-1.314,4.613l-2.143,0.021l-0.107,2.916l1.484-0.16c-0.718,2.666-1.343,5.176-1.357,5.915
				c-0.1,5.131,3.695,4.313,8.322,2.141c0.449,1.391,3.846,3.732,9.979-0.78c-0.032,0.745-0.041,1.491-0.041,2.25
				c1.179,0.101,2.972-0.371,3.783-0.748c0.072-2.228,0.191-3.629,0.521-5.758c1.541-1.748,3.092-3.203,3.987-3.022
				c1.174,0.231-5.215,10.5,1.83,9.41c1.691-0.26,2.525-1.389,2.832-1.971c2.164,4.043,5.172,2.105,8.244-1.271
				c-0.295,3.342,1.998,5.791,7.375,0.397v-2.442C96.082,103.927,94.996,101.348,96.762,95.85z M64.33,99.542
				c-0.801-4.438,2.133-6.588,3.045-6.033C68.597,94.247,67.66,97.727,64.33,99.542z M87.986,99.686
				c0.52-6.399,5.67-7.521,5.053-3.678C92.381,100.102,87.656,103.77,87.986,99.686z"/>
		</g>
		<g id="Декоративные_1_">
			<g>
				<path fill="#E7E7E8" d="M119.896,89.533c-0.465,0.38-1.006,0.57-1.621,0.57c-0.719,0-1.326-0.254-1.832-0.758
					c-0.51-0.508-0.762-1.117-0.762-1.832c0-0.715,0.252-1.324,0.762-1.832c0.506-0.504,1.113-0.758,1.832-0.758
					c0.707,0,1.316,0.254,1.828,0.758c0.506,0.508,0.76,1.117,0.76,1.832v2.57c0,0.223-0.035,0.432-0.104,0.629
					c-0.066,0.199-0.162,0.379-0.281,0.545c-0.119,0.164-0.264,0.313-0.426,0.445c-0.162,0.131-0.342,0.244-0.529,0.334
					c-0.189,0.092-0.387,0.162-0.594,0.211s-0.412,0.074-0.619,0.074c-0.246,0-0.488-0.031-0.729-0.094
					c-0.238-0.064-0.463-0.158-0.674-0.281c-0.215-0.121-0.41-0.275-0.586-0.457c-0.178-0.184-0.328-0.385-0.451-0.609
					c-0.049-0.07-0.072-0.158-0.072-0.26c0-0.139,0.045-0.254,0.141-0.346c0.094-0.09,0.207-0.135,0.348-0.135
					c0.092,0,0.168,0.021,0.229,0.063c0.063,0.043,0.143,0.139,0.248,0.286c0.104,0.146,0.195,0.261,0.275,0.336
					c0.354,0.354,0.775,0.529,1.271,0.529c0.498,0,0.922-0.174,1.268-0.52c0.211-0.258,0.318-0.51,0.318-0.754V89.533z
					 M118.275,85.891c-0.232,0-0.443,0.043-0.641,0.129s-0.371,0.203-0.516,0.351c-0.143,0.146-0.258,0.317-0.344,0.516
					c-0.084,0.197-0.127,0.406-0.127,0.63c0,0.223,0.043,0.432,0.127,0.629c0.086,0.198,0.201,0.369,0.344,0.516
					c0.145,0.146,0.316,0.264,0.516,0.35c0.195,0.086,0.406,0.129,0.641,0.129c0.225,0,0.434-0.043,0.633-0.129
					c0.195-0.086,0.369-0.203,0.514-0.352c0.148-0.148,0.266-0.32,0.35-0.516c0.086-0.195,0.127-0.404,0.127-0.627
					c0-0.224-0.041-0.431-0.127-0.627c-0.084-0.197-0.199-0.367-0.35-0.517c-0.145-0.147-0.316-0.267-0.514-0.353
					C118.709,85.934,118.5,85.891,118.275,85.891z"/>
				<path fill="#E7E7E8" d="M125.541,88.646c0.141,0,0.254,0.047,0.346,0.137c0.092,0.091,0.137,0.205,0.137,0.347
					c0,0.136-0.045,0.248-0.141,0.347c-0.477,0.42-1.041,0.629-1.689,0.629c-0.719,0-1.326-0.254-1.832-0.758
					c-0.504-0.509-0.756-1.117-0.756-1.832c0-0.716,0.252-1.324,0.756-1.832c0.506-0.504,1.113-0.759,1.832-0.759
					c0.709,0,1.316,0.255,1.83,0.759c0.254,0.25,0.441,0.528,0.566,0.836c0.127,0.307,0.189,0.639,0.189,0.996
					c0,0.139-0.049,0.254-0.143,0.344c-0.092,0.092-0.209,0.137-0.344,0.137h-3.662c0.053,0.17,0.131,0.326,0.232,0.467
					c0.102,0.139,0.219,0.26,0.355,0.359c0.139,0.102,0.289,0.178,0.453,0.232c0.164,0.057,0.338,0.084,0.518,0.084
					c0.205,0,0.389-0.031,0.559-0.093s0.328-0.153,0.473-0.278C125.316,88.689,125.42,88.65,125.541,88.646z M125.752,87.033
					c-0.055-0.17-0.133-0.325-0.234-0.467c-0.105-0.139-0.225-0.258-0.359-0.358s-0.289-0.179-0.453-0.231
					c-0.166-0.058-0.336-0.084-0.512-0.084s-0.348,0.026-0.514,0.084c-0.166,0.055-0.318,0.131-0.459,0.231
					c-0.139,0.103-0.26,0.222-0.359,0.358c-0.104,0.142-0.176,0.297-0.229,0.467H125.752z"/>
				<path fill="#E7E7E8" d="M127.506,85.406c0-0.063,0.014-0.127,0.037-0.188c0.025-0.057,0.063-0.109,0.104-0.154
					s0.092-0.078,0.149-0.102c0.06-0.025,0.121-0.039,0.188-0.039c0.07,0,0.129,0.014,0.188,0.039
					c0.062,0.023,0.111,0.057,0.152,0.102c0.043,0.045,0.077,0.099,0.104,0.154c0.022,0.061,0.036,0.123,0.036,0.188v1.636
					l2.356-1.996c0.089-0.08,0.195-0.121,0.318-0.121c0.069,0,0.131,0.015,0.188,0.039c0.058,0.022,0.108,0.058,0.151,0.103
					c0.045,0.045,0.078,0.098,0.104,0.153c0.026,0.062,0.039,0.123,0.039,0.188c0,0.131-0.045,0.246-0.144,0.342l-2.067,1.752
					l2.073,1.777c0.093,0.09,0.138,0.207,0.138,0.346c0,0.063-0.013,0.125-0.039,0.184c-0.024,0.059-0.06,0.111-0.104,0.154
					c-0.043,0.047-0.097,0.08-0.151,0.105c-0.06,0.024-0.119,0.037-0.188,0.037c-0.121,0-0.226-0.037-0.313-0.115l-2.162-1.852
					l-0.199,0.172v1.313c0,0.063-0.014,0.125-0.036,0.185c-0.025,0.059-0.062,0.11-0.104,0.153c-0.041,0.047-0.093,0.08-0.152,0.104
					c-0.06,0.025-0.118,0.037-0.188,0.037c-0.067,0-0.131-0.012-0.188-0.037c-0.058-0.024-0.108-0.059-0.149-0.104
					c-0.043-0.043-0.078-0.097-0.104-0.153c-0.025-0.059-0.037-0.121-0.037-0.185V85.406L127.506,85.406z"/>
				<path fill="#E7E7E8" d="M137.289,87.514c0,0.723-0.252,1.332-0.756,1.832c-0.514,0.504-1.125,0.758-1.834,0.758
					c-0.713,0-1.322-0.254-1.83-0.758c-0.506-0.508-0.758-1.117-0.758-1.832c0-0.715,0.252-1.324,0.758-1.832
					c0.508-0.504,1.117-0.758,1.83-0.758c0.709,0,1.32,0.254,1.834,0.758c0.25,0.254,0.438,0.533,0.563,0.838
					S137.287,87.156,137.289,87.514z M134.699,85.891c-0.229,0-0.438,0.043-0.641,0.129c-0.195,0.086-0.365,0.203-0.512,0.351
					c-0.145,0.147-0.26,0.317-0.344,0.516c-0.086,0.197-0.127,0.406-0.127,0.63c0,0.223,0.041,0.432,0.127,0.629
					c0.084,0.198,0.199,0.369,0.344,0.516c0.146,0.146,0.314,0.264,0.512,0.35c0.201,0.086,0.412,0.129,0.641,0.129
					c0.227,0,0.438-0.043,0.635-0.129c0.197-0.086,0.369-0.203,0.516-0.352c0.146-0.148,0.262-0.32,0.348-0.516
					c0.086-0.197,0.129-0.404,0.129-0.627c0-0.224-0.043-0.431-0.129-0.627c-0.086-0.197-0.199-0.367-0.348-0.517
					c-0.146-0.147-0.316-0.267-0.516-0.353S134.926,85.891,134.699,85.891z"/>
				<path fill="#E7E7E8" d="M140.619,90.104c-0.621,0-1.162-0.19-1.623-0.57v2.31c0,0.138-0.047,0.252-0.141,0.345
					c-0.098,0.092-0.209,0.137-0.348,0.137s-0.254-0.045-0.344-0.137c-0.092-0.093-0.137-0.207-0.137-0.345v-4.327
					c0-0.716,0.252-1.324,0.76-1.832c0.506-0.504,1.115-0.759,1.83-0.759c0.707,0,1.316,0.255,1.828,0.759
					c0.256,0.25,0.443,0.528,0.57,0.836c0.125,0.307,0.188,0.639,0.188,0.996c0,0.723-0.254,1.332-0.76,1.832
					c-0.26,0.254-0.537,0.444-0.844,0.569C141.298,90.042,140.973,90.104,140.619,90.104z M138.996,87.514
					c0,0.223,0.041,0.432,0.127,0.629c0.084,0.199,0.199,0.369,0.342,0.516c0.148,0.146,0.316,0.265,0.518,0.351
					c0.193,0.086,0.41,0.13,0.639,0.13c0.225,0,0.436-0.044,0.633-0.13c0.197-0.086,0.369-0.202,0.518-0.353
					c0.145-0.147,0.262-0.319,0.346-0.516c0.086-0.195,0.127-0.404,0.127-0.627c0-0.223-0.041-0.43-0.127-0.627
					c-0.084-0.197-0.201-0.367-0.346-0.516c-0.146-0.148-0.318-0.266-0.518-0.352c-0.197-0.086-0.408-0.129-0.633-0.129
					c-0.229,0-0.443,0.043-0.639,0.129c-0.199,0.086-0.367,0.203-0.518,0.35c-0.143,0.146-0.258,0.318-0.342,0.516
					C139.037,87.083,138.996,87.292,138.996,87.514z"/>
				<path fill="#E7E7E8" d="M148.158,89.624v-0.095c-0.23,0.187-0.482,0.328-0.754,0.427c-0.271,0.101-0.563,0.147-0.869,0.147
					c-0.713,0-1.324-0.254-1.83-0.758c-0.506-0.508-0.76-1.117-0.76-1.832c0-0.715,0.254-1.324,0.76-1.832
					c0.506-0.504,1.117-0.758,1.83-0.758c0.707,0,1.318,0.254,1.832,0.758c0.504,0.508,0.758,1.117,0.758,1.832v2.109
					c0,0.131-0.047,0.244-0.143,0.338c-0.096,0.096-0.207,0.143-0.338,0.143c-0.139,0-0.256-0.047-0.348-0.143
					C148.205,89.867,148.158,89.754,148.158,89.624z M146.535,85.891c-0.229,0-0.441,0.043-0.639,0.129
					c-0.199,0.086-0.367,0.203-0.514,0.351c-0.145,0.147-0.26,0.317-0.344,0.516c-0.088,0.197-0.129,0.406-0.129,0.63
					c0,0.223,0.041,0.432,0.129,0.629c0.084,0.198,0.199,0.369,0.344,0.516c0.146,0.146,0.314,0.264,0.514,0.35
					c0.196,0.086,0.408,0.129,0.639,0.129c0.225,0,0.438-0.043,0.633-0.129c0.199-0.086,0.369-0.203,0.52-0.352
					c0.146-0.148,0.262-0.32,0.346-0.516c0.084-0.197,0.127-0.404,0.127-0.627c0-0.224-0.043-0.431-0.127-0.627
					c-0.084-0.197-0.199-0.367-0.346-0.517c-0.148-0.147-0.318-0.267-0.52-0.353C146.975,85.934,146.76,85.891,146.535,85.891z"/>
				<path fill="#E7E7E8" d="M157.176,89.617c0,0.138-0.051,0.25-0.145,0.345c-0.092,0.097-0.205,0.144-0.338,0.144
					c-0.139,0-0.25-0.047-0.344-0.144c-0.094-0.095-0.137-0.207-0.137-0.345v-2.631c0-0.147-0.031-0.289-0.088-0.42
					c-0.055-0.133-0.135-0.25-0.232-0.35c-0.098-0.102-0.217-0.18-0.35-0.238s-0.281-0.088-0.434-0.088
					c-0.15,0-0.293,0.029-0.424,0.088c-0.137,0.06-0.25,0.137-0.352,0.236c-0.102,0.098-0.18,0.213-0.234,0.346
					c-0.058,0.133-0.086,0.273-0.086,0.426v2.631c0,0.138-0.049,0.25-0.143,0.345c-0.094,0.097-0.207,0.144-0.34,0.144
					c-0.137,0-0.25-0.047-0.346-0.144c-0.094-0.095-0.141-0.207-0.141-0.345v-2.631c0-0.151-0.027-0.293-0.09-0.426
					c-0.057-0.133-0.135-0.248-0.23-0.346c-0.102-0.1-0.219-0.178-0.352-0.236s-0.273-0.088-0.426-0.088
					c-0.148,0-0.291,0.029-0.424,0.086s-0.248,0.135-0.351,0.234c-0.101,0.102-0.179,0.217-0.235,0.35
					c-0.056,0.133-0.084,0.273-0.084,0.426v2.631c0,0.138-0.049,0.25-0.144,0.345c-0.095,0.097-0.207,0.144-0.341,0.144
					c-0.137,0-0.25-0.047-0.344-0.144c-0.096-0.095-0.142-0.207-0.142-0.345v-4.211c0-0.135,0.046-0.248,0.142-0.342
					c0.094-0.094,0.207-0.141,0.34-0.141c0.107,0,0.203,0.029,0.287,0.09c0.082,0.061,0.14,0.139,0.17,0.24
					c0.33-0.221,0.705-0.33,1.123-0.33c0.31,0,0.599,0.063,0.871,0.182c0.271,0.123,0.508,0.31,0.711,0.553
					c0.429-0.487,0.953-0.733,1.576-0.733c0.281,0,0.547,0.056,0.797,0.166c0.254,0.106,0.472,0.257,0.656,0.442
					c0.188,0.187,0.336,0.404,0.444,0.656c0.108,0.25,0.166,0.517,0.166,0.797v2.631H157.176z"/>
				<path fill="#E7E7E8" d="M162.338,90.104c-0.139,0-0.254-0.047-0.342-0.139c-0.09-0.094-0.137-0.207-0.139-0.338
					c-0.215,0.166-0.439,0.287-0.678,0.363c-0.236,0.076-0.496,0.113-0.771,0.113c-0.328,0-0.641-0.064-0.934-0.191
					c-0.295-0.129-0.551-0.303-0.766-0.521c-0.221-0.219-0.395-0.473-0.521-0.768c-0.129-0.293-0.19-0.604-0.19-0.934v-2.283
					c0-0.135,0.043-0.248,0.142-0.342c0.094-0.094,0.207-0.141,0.344-0.141c0.134,0,0.246,0.047,0.338,0.141
					c0.099,0.094,0.142,0.207,0.142,0.342v2.283c0,0.201,0.039,0.39,0.117,0.564c0.073,0.176,0.176,0.328,0.312,0.459
					c0.127,0.133,0.28,0.234,0.457,0.311c0.176,0.074,0.362,0.113,0.563,0.113c0.199,0,0.385-0.039,0.561-0.113
					c0.18-0.076,0.33-0.18,0.465-0.313c0.131-0.133,0.234-0.285,0.313-0.461c0.074-0.172,0.113-0.359,0.113-0.561v-2.283
					c0-0.135,0.047-0.248,0.141-0.342s0.209-0.141,0.344-0.141s0.246,0.047,0.34,0.141c0.098,0.094,0.145,0.207,0.145,0.342v4.218
					c0,0.131-0.047,0.243-0.145,0.338C162.589,90.056,162.475,90.104,162.338,90.104z"/>
				<path fill="#E7E7E8" d="M165.773,84.924c0.211,0,0.406,0.041,0.592,0.123c0.188,0.082,0.35,0.191,0.49,0.33
					c0.137,0.139,0.248,0.303,0.332,0.486c0.078,0.188,0.121,0.387,0.121,0.596c0,0.33-0.092,0.619-0.266,0.869
					c0.104,0.094,0.191,0.186,0.27,0.277c0.074,0.094,0.141,0.188,0.191,0.289c0.049,0.098,0.09,0.201,0.113,0.311
					c0.027,0.109,0.039,0.23,0.039,0.363c0,0.209-0.039,0.406-0.121,0.594c-0.078,0.186-0.188,0.35-0.326,0.488
					c-0.139,0.138-0.301,0.248-0.488,0.33c-0.186,0.082-0.385,0.123-0.598,0.123h-2.109c-0.064,0-0.131-0.013-0.188-0.037
					c-0.063-0.025-0.109-0.06-0.154-0.105c-0.045-0.043-0.078-0.096-0.104-0.154c-0.021-0.059-0.035-0.121-0.035-0.184v-4.217
					c0-0.063,0.014-0.127,0.035-0.188c0.023-0.057,0.059-0.109,0.104-0.154s0.094-0.078,0.154-0.102
					c0.057-0.025,0.121-0.039,0.188-0.039L165.773,84.924L165.773,84.924z M165.773,87.033c0.07,0,0.145-0.016,0.215-0.045
					c0.068-0.028,0.131-0.067,0.184-0.121c0.055-0.051,0.094-0.108,0.123-0.178c0.031-0.069,0.047-0.146,0.047-0.229
					c0-0.076-0.016-0.147-0.047-0.222c-0.029-0.065-0.068-0.129-0.123-0.18c-0.049-0.049-0.107-0.09-0.18-0.121
					c-0.068-0.031-0.143-0.047-0.219-0.047h-1.275v1.143H165.773z M166.125,89.137c0.076,0,0.15-0.016,0.219-0.045
					c0.068-0.027,0.133-0.068,0.184-0.121c0.051-0.053,0.092-0.113,0.121-0.18c0.029-0.068,0.049-0.143,0.049-0.223
					s-0.02-0.156-0.049-0.228c-0.029-0.069-0.074-0.131-0.123-0.183c-0.057-0.053-0.113-0.092-0.184-0.12
					c-0.068-0.027-0.145-0.046-0.217-0.046h-1.627v1.144L166.125,89.137L166.125,89.137z"/>
				<path fill="#E7E7E8" d="M169.309,87.995v1.629c0,0.063-0.013,0.125-0.035,0.185c-0.022,0.059-0.06,0.11-0.104,0.153
					c-0.045,0.047-0.096,0.08-0.153,0.104c-0.059,0.025-0.121,0.037-0.187,0.037s-0.129-0.012-0.188-0.037
					c-0.058-0.024-0.108-0.059-0.154-0.104c-0.045-0.043-0.077-0.097-0.104-0.153c-0.021-0.06-0.036-0.121-0.036-0.185v-4.218
					c0-0.063,0.016-0.127,0.036-0.188c0.027-0.057,0.062-0.109,0.104-0.154s0.099-0.078,0.154-0.102
					c0.062-0.025,0.123-0.039,0.188-0.039c0.063,0,0.127,0.014,0.187,0.039c0.06,0.023,0.108,0.057,0.153,0.102
					c0.047,0.045,0.082,0.099,0.104,0.154c0.022,0.061,0.035,0.123,0.035,0.188v1.627h2.375v-1.627c0-0.063,0.01-0.127,0.034-0.188
					c0.025-0.057,0.06-0.109,0.103-0.154s0.095-0.078,0.154-0.102c0.058-0.025,0.121-0.039,0.188-0.039
					c0.063,0,0.129,0.014,0.188,0.039c0.059,0.023,0.107,0.057,0.15,0.102s0.078,0.099,0.104,0.154
					c0.022,0.061,0.035,0.123,0.035,0.188v4.218c0,0.063-0.013,0.125-0.035,0.185c-0.024,0.059-0.062,0.11-0.104,0.153
					c-0.043,0.047-0.094,0.08-0.15,0.104c-0.06,0.025-0.123,0.037-0.188,0.037c-0.067,0-0.134-0.012-0.188-0.037
					c-0.062-0.024-0.111-0.059-0.154-0.104c-0.043-0.043-0.075-0.097-0.103-0.153c-0.024-0.059-0.034-0.121-0.034-0.185v-1.629
					H169.309z"/>
				<path fill="#E7E7E8" d="M174.299,87.033h1.447c0.209,0,0.408,0.041,0.594,0.123c0.188,0.082,0.352,0.189,0.488,0.33
					c0.14,0.14,0.248,0.302,0.33,0.488s0.123,0.385,0.123,0.594c0,0.213-0.041,0.412-0.123,0.601
					c-0.082,0.187-0.191,0.349-0.33,0.483c-0.139,0.142-0.303,0.25-0.488,0.33s-0.385,0.121-0.594,0.121h-1.928
					c-0.068,0-0.133-0.012-0.191-0.037c-0.057-0.024-0.107-0.059-0.152-0.104c-0.043-0.043-0.08-0.097-0.104-0.153
					c-0.024-0.059-0.037-0.121-0.037-0.185V85.4c0.004-0.063,0.015-0.125,0.041-0.182c0.024-0.059,0.062-0.107,0.103-0.15
					c0.045-0.043,0.096-0.078,0.151-0.104c0.058-0.024,0.119-0.039,0.19-0.039c0.063,0,0.125,0.015,0.185,0.039
					c0.06,0.022,0.108,0.058,0.156,0.103c0.043,0.045,0.077,0.098,0.104,0.154c0.023,0.061,0.035,0.122,0.035,0.188V87.033
					L174.299,87.033z M175.746,89.137c0.08,0,0.154-0.016,0.229-0.047c0.066-0.031,0.131-0.072,0.182-0.123
					c0.051-0.055,0.092-0.115,0.119-0.184c0.031-0.07,0.047-0.141,0.047-0.215c0-0.078-0.016-0.15-0.047-0.221
					c-0.031-0.068-0.072-0.13-0.127-0.183c-0.051-0.054-0.111-0.095-0.184-0.125c-0.068-0.029-0.143-0.048-0.219-0.048h-1.447v1.144
					L175.746,89.137L175.746,89.137z M177.729,89.617v-4.206c0-0.136,0.047-0.253,0.144-0.347c0.092-0.094,0.205-0.141,0.338-0.141
					c0.131,0,0.248,0.047,0.34,0.141c0.095,0.094,0.146,0.211,0.146,0.347v4.206c-0.002,0.138-0.053,0.25-0.146,0.345
					c-0.092,0.097-0.209,0.144-0.34,0.144c-0.133,0-0.246-0.047-0.338-0.144C177.775,89.867,177.729,89.754,177.729,89.617z"/>
				<path fill="#E7E7E8" d="M183.205,88.646c0.143,0,0.256,0.047,0.346,0.137c0.096,0.091,0.139,0.205,0.139,0.347
					c0,0.136-0.045,0.248-0.141,0.347c-0.477,0.42-1.043,0.629-1.689,0.629c-0.715,0-1.326-0.254-1.83-0.758
					c-0.506-0.509-0.758-1.117-0.758-1.832c0-0.716,0.252-1.324,0.758-1.832c0.504-0.504,1.115-0.759,1.83-0.759
					c0.711,0,1.316,0.255,1.83,0.759c0.254,0.25,0.443,0.528,0.568,0.836c0.125,0.307,0.189,0.639,0.189,0.996
					c0,0.139-0.051,0.254-0.145,0.344c-0.092,0.092-0.209,0.137-0.344,0.137h-3.662c0.053,0.17,0.131,0.326,0.23,0.467
					c0.104,0.139,0.223,0.26,0.357,0.359c0.141,0.102,0.289,0.178,0.453,0.232c0.166,0.057,0.338,0.084,0.518,0.084
					c0.201,0,0.389-0.031,0.561-0.093c0.17-0.062,0.326-0.153,0.471-0.278C182.982,88.689,183.088,88.65,183.205,88.646z
					 M183.414,87.033c-0.051-0.17-0.127-0.325-0.23-0.467c-0.104-0.139-0.227-0.258-0.361-0.358s-0.287-0.179-0.453-0.231
					c-0.164-0.058-0.332-0.084-0.51-0.084c-0.174,0-0.35,0.026-0.512,0.084c-0.168,0.055-0.32,0.131-0.459,0.231
					c-0.141,0.101-0.26,0.222-0.361,0.358c-0.104,0.142-0.176,0.297-0.229,0.467H183.414z"/>
				<path fill="#E7E7E8" d="M119.621,98.602c0.143,0,0.256,0.045,0.346,0.137c0.094,0.093,0.139,0.205,0.139,0.347
					c0,0.135-0.051,0.254-0.15,0.354c-0.479,0.418-1.043,0.629-1.688,0.629c-0.715,0-1.326-0.254-1.832-0.76
					c-0.506-0.504-0.761-1.115-0.761-1.83c0-0.717,0.255-1.326,0.761-1.83c0.506-0.506,1.116-0.76,1.832-0.76
					c0.649,0,1.211,0.211,1.688,0.631c0.111,0.098,0.166,0.221,0.166,0.365c0,0.137-0.049,0.254-0.137,0.346
					c-0.09,0.092-0.207,0.142-0.348,0.142c-0.115,0-0.221-0.039-0.313-0.113c-0.156-0.133-0.32-0.231-0.494-0.301
					c-0.172-0.065-0.359-0.103-0.563-0.103c-0.229,0-0.438,0.043-0.637,0.127c-0.195,0.086-0.371,0.199-0.518,0.349
					c-0.148,0.146-0.266,0.317-0.35,0.517c-0.086,0.196-0.131,0.407-0.131,0.633c0,0.225,0.045,0.436,0.131,0.633
					c0.084,0.197,0.199,0.369,0.35,0.516c0.146,0.146,0.318,0.262,0.518,0.348c0.197,0.084,0.408,0.127,0.637,0.127
					c0.201,0,0.391-0.033,0.563-0.1c0.174-0.066,0.334-0.166,0.49-0.299C119.404,98.639,119.508,98.605,119.621,98.602z"/>
				<path fill="#E7E7E8" d="M128.174,99.585c0,0.133-0.047,0.248-0.143,0.345c-0.094,0.092-0.207,0.141-0.342,0.141
					c-0.137,0-0.25-0.049-0.34-0.141c-0.094-0.097-0.141-0.212-0.141-0.345v-2.634c0-0.146-0.031-0.286-0.086-0.42
					c-0.057-0.133-0.135-0.25-0.234-0.35c-0.098-0.1-0.215-0.18-0.348-0.238c-0.135-0.059-0.279-0.088-0.432-0.088
					c-0.153,0-0.295,0.029-0.426,0.088c-0.137,0.06-0.25,0.138-0.352,0.236c-0.1,0.1-0.18,0.213-0.234,0.346
					c-0.058,0.133-0.088,0.275-0.088,0.427v2.633c0,0.133-0.045,0.248-0.141,0.345c-0.094,0.092-0.207,0.141-0.338,0.141
					c-0.137,0-0.252-0.049-0.346-0.141c-0.096-0.097-0.145-0.212-0.145-0.345v-2.633c0-0.15-0.025-0.294-0.086-0.427
					c-0.061-0.133-0.137-0.246-0.236-0.346c-0.099-0.1-0.213-0.178-0.348-0.236c-0.133-0.059-0.271-0.088-0.424-0.088
					s-0.293,0.029-0.426,0.086c-0.133,0.058-0.248,0.138-0.352,0.236c-0.1,0.1-0.178,0.215-0.234,0.348
					c-0.058,0.133-0.084,0.275-0.084,0.426v2.634c0,0.133-0.05,0.248-0.143,0.345c-0.094,0.092-0.209,0.141-0.342,0.141
					c-0.135,0-0.25-0.049-0.344-0.141c-0.094-0.097-0.143-0.212-0.143-0.345v-4.213c0-0.134,0.049-0.246,0.143-0.343
					c0.094-0.092,0.207-0.141,0.34-0.141c0.109,0,0.205,0.031,0.287,0.092c0.084,0.06,0.141,0.142,0.172,0.236
					c0.328-0.219,0.703-0.328,1.123-0.328c0.305,0,0.598,0.061,0.867,0.184c0.271,0.121,0.51,0.308,0.715,0.554
					c0.428-0.49,0.951-0.735,1.576-0.735c0.277,0,0.545,0.055,0.797,0.166c0.25,0.108,0.469,0.256,0.658,0.44
					c0.184,0.188,0.332,0.405,0.439,0.657c0.107,0.252,0.166,0.519,0.166,0.798v2.633H128.174L128.174,99.585z"/>
				<path fill="#E7E7E8" d="M132.939,98.613c0.139,0,0.252,0.043,0.344,0.134c0.09,0.092,0.137,0.207,0.137,0.346
					c0,0.138-0.047,0.252-0.139,0.349c-0.479,0.418-1.043,0.629-1.691,0.629c-0.717,0-1.326-0.254-1.832-0.76
					c-0.504-0.504-0.758-1.115-0.758-1.83c0-0.717,0.254-1.326,0.758-1.83c0.506-0.506,1.115-0.76,1.832-0.76
					c0.707,0,1.316,0.254,1.83,0.76c0.252,0.25,0.441,0.524,0.566,0.832c0.129,0.309,0.189,0.641,0.189,0.998
					c0,0.141-0.047,0.252-0.141,0.344c-0.094,0.092-0.211,0.137-0.346,0.137h-3.66c0.053,0.17,0.129,0.324,0.229,0.465
					c0.102,0.141,0.225,0.26,0.357,0.361c0.139,0.1,0.287,0.178,0.455,0.232c0.162,0.055,0.336,0.084,0.516,0.084
					c0.203,0,0.391-0.029,0.563-0.095c0.166-0.062,0.322-0.151,0.469-0.274C132.711,98.654,132.818,98.613,132.939,98.613z
					 M133.145,96.999c-0.052-0.17-0.129-0.324-0.231-0.466c-0.103-0.141-0.224-0.262-0.358-0.36
					c-0.137-0.099-0.289-0.178-0.453-0.231c-0.164-0.055-0.336-0.084-0.511-0.084c-0.178,0-0.35,0.028-0.514,0.084
					c-0.168,0.055-0.318,0.133-0.459,0.231c-0.138,0.101-0.259,0.222-0.361,0.36c-0.1,0.142-0.176,0.296-0.225,0.466H133.145z"/>
				<path fill="#E7E7E8" d="M135.869,97.96v1.629c0,0.063-0.012,0.125-0.037,0.185c-0.023,0.059-0.059,0.11-0.104,0.156
					c-0.047,0.043-0.1,0.077-0.154,0.104c-0.061,0.023-0.121,0.037-0.188,0.037s-0.129-0.014-0.188-0.037
					c-0.063-0.025-0.111-0.061-0.156-0.104c-0.047-0.046-0.08-0.099-0.104-0.156c-0.027-0.06-0.039-0.119-0.039-0.185v-4.217
					c0-0.065,0.012-0.127,0.039-0.187c0.021-0.059,0.057-0.109,0.104-0.156c0.045-0.043,0.096-0.077,0.156-0.104
					c0.059-0.023,0.121-0.037,0.188-0.037c0.064,0,0.127,0.014,0.188,0.037c0.057,0.025,0.107,0.061,0.154,0.104
					c0.045,0.048,0.076,0.099,0.104,0.156c0.025,0.059,0.037,0.119,0.037,0.187v1.627h2.371v-1.627c0-0.065,0.014-0.127,0.037-0.187
					c0.023-0.059,0.061-0.109,0.104-0.156c0.043-0.043,0.096-0.077,0.152-0.104c0.057-0.023,0.121-0.037,0.188-0.037
					s0.129,0.014,0.189,0.037c0.059,0.025,0.109,0.061,0.152,0.104c0.043,0.048,0.076,0.099,0.102,0.156
					c0.025,0.06,0.037,0.119,0.037,0.187v4.217c0,0.063-0.012,0.125-0.037,0.185c-0.023,0.059-0.059,0.11-0.102,0.156
					c-0.043,0.043-0.096,0.077-0.152,0.104c-0.063,0.023-0.123,0.037-0.189,0.037s-0.133-0.014-0.188-0.037
					c-0.061-0.025-0.109-0.061-0.152-0.104c-0.043-0.046-0.078-0.099-0.104-0.156c-0.023-0.06-0.037-0.119-0.037-0.185V97.96
					H135.869z"/>
				<path fill="#E7E7E8" d="M145.088,97.479c0,0.723-0.252,1.332-0.758,1.83c-0.512,0.506-1.121,0.76-1.83,0.76
					c-0.715,0-1.326-0.254-1.83-0.76c-0.508-0.504-0.758-1.115-0.758-1.83c0-0.717,0.25-1.326,0.758-1.83
					c0.504-0.506,1.115-0.76,1.83-0.76c0.709,0,1.318,0.254,1.83,0.76c0.252,0.252,0.443,0.531,0.568,0.836
					C145.021,96.79,145.086,97.122,145.088,97.479z M142.5,95.855c-0.229,0-0.439,0.045-0.639,0.129
					c-0.197,0.086-0.369,0.203-0.516,0.353c-0.145,0.146-0.26,0.315-0.344,0.515c-0.084,0.197-0.127,0.405-0.127,0.629
					c0,0.223,0.043,0.43,0.127,0.629c0.084,0.197,0.199,0.369,0.344,0.516c0.146,0.146,0.316,0.264,0.516,0.35
					c0.195,0.084,0.41,0.129,0.639,0.129c0.227,0,0.438-0.045,0.633-0.129c0.199-0.086,0.369-0.205,0.518-0.354
					c0.145-0.146,0.262-0.318,0.348-0.514c0.084-0.197,0.125-0.404,0.125-0.627c0-0.224-0.041-0.433-0.125-0.625
					c-0.086-0.197-0.203-0.369-0.348-0.519c-0.146-0.146-0.316-0.267-0.518-0.353C142.936,95.9,142.725,95.855,142.5,95.855z"/>
				<path fill="#E7E7E8" d="M148.051,94.889c0.209,0,0.41,0.043,0.598,0.123c0.188,0.082,0.348,0.191,0.486,0.332
					c0.139,0.137,0.248,0.301,0.33,0.486c0.08,0.188,0.123,0.385,0.123,0.596c0,0.33-0.086,0.619-0.266,0.869
					c0.102,0.09,0.189,0.184,0.27,0.277c0.076,0.092,0.143,0.188,0.191,0.285c0.051,0.1,0.09,0.203,0.115,0.313
					c0.025,0.109,0.039,0.23,0.039,0.361c0,0.211-0.039,0.41-0.119,0.596s-0.189,0.348-0.328,0.488
					c-0.141,0.139-0.301,0.248-0.488,0.328c-0.186,0.084-0.385,0.125-0.6,0.125h-2.107c-0.066,0-0.131-0.014-0.188-0.037
					c-0.061-0.025-0.109-0.062-0.152-0.104c-0.043-0.045-0.076-0.098-0.1-0.155c-0.025-0.06-0.039-0.119-0.039-0.185V95.37
					c0-0.065,0.014-0.128,0.039-0.187c0.021-0.059,0.057-0.109,0.1-0.156c0.043-0.043,0.094-0.078,0.152-0.104
					c0.059-0.023,0.121-0.037,0.188-0.037h1.756V94.889L148.051,94.889z M148.051,96.999c0.074,0,0.148-0.017,0.219-0.043
					c0.066-0.029,0.129-0.07,0.182-0.121c0.055-0.052,0.094-0.11,0.125-0.183c0.031-0.067,0.047-0.146,0.047-0.227
					c0-0.078-0.016-0.152-0.047-0.221c-0.031-0.07-0.07-0.129-0.123-0.18c-0.051-0.053-0.109-0.092-0.18-0.125
					c-0.068-0.029-0.145-0.045-0.223-0.045h-1.271v1.143L148.051,96.999L148.051,96.999z M148.402,99.102
					c0.078,0,0.15-0.016,0.221-0.045c0.068-0.027,0.129-0.068,0.18-0.121c0.053-0.053,0.096-0.113,0.125-0.18
					c0.029-0.07,0.043-0.143,0.043-0.225c0-0.08-0.014-0.156-0.043-0.225c-0.029-0.072-0.072-0.132-0.125-0.185
					c-0.053-0.052-0.113-0.091-0.184-0.119s-0.143-0.045-0.217-0.045h-1.625v1.144L148.402,99.102L148.402,99.102z"/>
				<path fill="#E7E7E8" d="M151.584,96.999h1.447c0.211,0,0.408,0.041,0.594,0.121c0.188,0.084,0.352,0.192,0.488,0.331
					c0.138,0.14,0.248,0.302,0.332,0.488c0.078,0.187,0.119,0.383,0.119,0.592c0,0.216-0.041,0.414-0.119,0.601
					c-0.084,0.188-0.193,0.351-0.332,0.488c-0.141,0.138-0.301,0.247-0.488,0.327c-0.186,0.08-0.383,0.121-0.594,0.121h-1.928
					c-0.068,0-0.135-0.014-0.189-0.037c-0.057-0.024-0.109-0.061-0.154-0.104c-0.045-0.045-0.078-0.098-0.105-0.156
					c-0.023-0.059-0.033-0.119-0.033-0.184v-4.223c0.002-0.064,0.016-0.125,0.041-0.184c0.025-0.058,0.059-0.105,0.1-0.148
					c0.045-0.043,0.098-0.078,0.152-0.104c0.057-0.027,0.121-0.041,0.191-0.041c0.063,0,0.127,0.014,0.184,0.036
					c0.061,0.024,0.111,0.062,0.156,0.104c0.045,0.047,0.08,0.098,0.104,0.156c0.023,0.059,0.035,0.119,0.035,0.186V96.999
					L151.584,96.999z M153.031,99.102c0.08,0,0.156-0.016,0.227-0.049c0.07-0.029,0.133-0.07,0.186-0.123
					c0.051-0.053,0.09-0.113,0.119-0.184c0.027-0.068,0.043-0.139,0.043-0.215c0-0.076-0.016-0.148-0.043-0.217
					c-0.031-0.07-0.076-0.131-0.129-0.185c-0.053-0.054-0.111-0.094-0.184-0.125c-0.066-0.03-0.141-0.047-0.219-0.047h-1.447v1.144
					L153.031,99.102L153.031,99.102z M155.016,99.585v-4.209c0-0.136,0.047-0.25,0.142-0.347c0.092-0.092,0.206-0.141,0.338-0.141
					c0.133,0,0.248,0.049,0.342,0.141c0.095,0.097,0.144,0.211,0.146,0.347v4.209c-0.002,0.133-0.051,0.248-0.146,0.345
					c-0.094,0.092-0.209,0.141-0.342,0.141c-0.132,0-0.246-0.049-0.338-0.141C155.063,99.833,155.016,99.717,155.016,99.585z"/>
				<path fill="#E7E7E8" d="M160.494,98.613c0.139,0,0.254,0.043,0.346,0.134c0.09,0.092,0.135,0.207,0.135,0.346
					c0,0.138-0.043,0.252-0.139,0.349c-0.477,0.418-1.043,0.629-1.691,0.629c-0.713,0-1.326-0.254-1.83-0.76
					c-0.506-0.504-0.758-1.115-0.758-1.83c0-0.717,0.252-1.326,0.758-1.83c0.504-0.506,1.117-0.76,1.83-0.76
					c0.711,0,1.318,0.254,1.83,0.76c0.254,0.25,0.443,0.524,0.568,0.832c0.125,0.309,0.189,0.641,0.189,0.998
					c0,0.141-0.049,0.252-0.143,0.344c-0.096,0.092-0.209,0.137-0.344,0.137h-3.662c0.051,0.17,0.129,0.324,0.23,0.465
					c0.101,0.141,0.221,0.26,0.357,0.361c0.139,0.1,0.285,0.178,0.451,0.232c0.164,0.055,0.338,0.084,0.518,0.084
					c0.201,0,0.391-0.029,0.559-0.095c0.172-0.062,0.328-0.151,0.473-0.274C160.266,98.654,160.375,98.613,160.494,98.613z
					 M160.701,96.999c-0.051-0.17-0.129-0.324-0.234-0.466c-0.102-0.141-0.223-0.262-0.357-0.36
					c-0.141-0.101-0.289-0.178-0.453-0.231c-0.166-0.056-0.336-0.084-0.512-0.084c-0.174,0-0.348,0.028-0.514,0.084
					c-0.168,0.055-0.318,0.133-0.459,0.231c-0.139,0.099-0.258,0.222-0.357,0.36c-0.104,0.142-0.176,0.296-0.229,0.466H160.701z"/>
				<path fill="#E7E7E8" d="M116.645,105.331c0.41-0.317,0.896-0.478,1.448-0.478c0.324,0,0.632,0.063,0.925,0.188
					c0.289,0.127,0.547,0.299,0.771,0.517c0.221,0.219,0.396,0.473,0.522,0.768c0.131,0.296,0.194,0.607,0.194,0.941v2.278
					c0,0.138-0.047,0.25-0.142,0.345c-0.094,0.094-0.206,0.143-0.338,0.143c-0.137,0-0.252-0.049-0.346-0.143
					c-0.097-0.095-0.142-0.207-0.142-0.345v-2.278c0-0.197-0.041-0.386-0.115-0.562c-0.077-0.177-0.185-0.328-0.313-0.459
					s-0.282-0.235-0.457-0.313c-0.178-0.076-0.362-0.115-0.562-0.115c-0.2,0-0.389,0.039-0.563,0.111
					c-0.174,0.077-0.325,0.182-0.459,0.313c-0.133,0.131-0.235,0.284-0.313,0.461c-0.073,0.176-0.112,0.362-0.112,0.562v2.278
					c0,0.138-0.045,0.25-0.14,0.345c-0.096,0.094-0.207,0.144-0.34,0.144c-0.138,0-0.25-0.05-0.345-0.144
					c-0.096-0.095-0.144-0.207-0.144-0.345v-4.207c0-0.133,0.048-0.248,0.144-0.344c0.095-0.095,0.207-0.144,0.345-0.144
					c0.133,0,0.244,0.049,0.34,0.144C116.6,105.093,116.645,105.206,116.645,105.331z"/>
				<path fill="#E7E7E8" d="M126.412,107.443c0,0.722-0.254,1.33-0.76,1.83c-0.514,0.506-1.121,0.76-1.832,0.76
					c-0.715,0-1.324-0.254-1.83-0.76c-0.504-0.506-0.758-1.115-0.758-1.83s0.254-1.326,0.758-1.832
					c0.506-0.504,1.115-0.758,1.83-0.758c0.711,0,1.318,0.254,1.832,0.758c0.252,0.254,0.439,0.533,0.566,0.838
					C126.344,106.755,126.408,107.087,126.412,107.443z M123.82,105.82c-0.229,0-0.439,0.043-0.637,0.129
					c-0.197,0.089-0.369,0.203-0.516,0.351c-0.146,0.146-0.26,0.317-0.344,0.517c-0.084,0.197-0.129,0.406-0.129,0.629
					c0,0.224,0.045,0.433,0.129,0.63c0.084,0.196,0.197,0.368,0.344,0.514c0.146,0.147,0.316,0.267,0.516,0.351
					c0.195,0.088,0.406,0.129,0.637,0.129c0.227,0,0.436-0.041,0.635-0.129c0.197-0.084,0.371-0.201,0.518-0.351
					c0.146-0.149,0.26-0.319,0.346-0.516c0.084-0.195,0.127-0.404,0.127-0.628c0-0.223-0.043-0.43-0.127-0.627
					c-0.086-0.194-0.199-0.366-0.346-0.514s-0.318-0.267-0.518-0.354C124.256,105.863,124.047,105.82,123.82,105.82z"/>
				<path fill="#E7E7E8" d="M127.137,105.335c0-0.063,0.016-0.127,0.037-0.187c0.025-0.058,0.059-0.108,0.104-0.151
					c0.041-0.046,0.093-0.08,0.15-0.104c0.059-0.022,0.122-0.037,0.188-0.037c0.067,0,0.131,0.015,0.19,0.037
					c0.06,0.024,0.108,0.062,0.149,0.104c0.043,0.043,0.078,0.096,0.103,0.151c0.024,0.06,0.034,0.123,0.034,0.187v1.64l2.361-2
					c0.088-0.08,0.194-0.119,0.317-0.119c0.067,0,0.129,0.015,0.188,0.037c0.06,0.024,0.108,0.062,0.151,0.104
					s0.078,0.096,0.104,0.151c0.027,0.06,0.039,0.123,0.039,0.187c0,0.133-0.045,0.248-0.144,0.345l-2.065,1.752l2.072,1.774
					c0.092,0.092,0.137,0.207,0.137,0.349c0,0.063-0.012,0.125-0.039,0.184c-0.024,0.06-0.062,0.109-0.104,0.154
					s-0.094,0.08-0.151,0.104c-0.062,0.022-0.121,0.036-0.188,0.036c-0.121,0-0.228-0.038-0.313-0.114l-2.164-1.851l-0.201,0.17
					v1.313c0,0.064-0.01,0.125-0.034,0.185c-0.022,0.06-0.06,0.109-0.103,0.154c-0.041,0.045-0.093,0.08-0.149,0.104
					c-0.062,0.022-0.123,0.037-0.19,0.037c-0.066,0-0.132-0.015-0.188-0.037c-0.06-0.024-0.109-0.062-0.15-0.104
					c-0.047-0.045-0.077-0.097-0.104-0.154c-0.021-0.06-0.037-0.119-0.037-0.185V105.335z"/>
				<path fill="#E7E7E8" d="M134.547,110.033c-0.619,0-1.16-0.19-1.621-0.569v2.31c0,0.14-0.047,0.254-0.143,0.343
					c-0.094,0.092-0.207,0.139-0.342,0.139c-0.141,0-0.256-0.047-0.35-0.139c-0.09-0.089-0.135-0.203-0.135-0.343v-4.328
					c0-0.715,0.25-1.325,0.758-1.832c0.504-0.504,1.115-0.758,1.83-0.758c0.709,0,1.32,0.254,1.832,0.758
					c0.252,0.25,0.439,0.529,0.568,0.837c0.127,0.307,0.191,0.639,0.191,0.995c0,0.722-0.258,1.33-0.762,1.83
					c-0.26,0.257-0.541,0.445-0.846,0.57C135.232,109.971,134.902,110.033,134.547,110.033z M132.926,107.443
					c0,0.224,0.039,0.433,0.125,0.629c0.088,0.197,0.199,0.369,0.348,0.515c0.145,0.147,0.313,0.267,0.512,0.351
					c0.199,0.088,0.412,0.129,0.639,0.129s0.438-0.041,0.633-0.129c0.199-0.084,0.369-0.201,0.52-0.351
					c0.145-0.147,0.262-0.319,0.348-0.517c0.082-0.194,0.125-0.403,0.125-0.627c0-0.223-0.043-0.43-0.125-0.627
					c-0.086-0.194-0.203-0.367-0.348-0.515c-0.148-0.147-0.318-0.266-0.52-0.354c-0.195-0.087-0.406-0.13-0.633-0.13
					s-0.438,0.043-0.639,0.13c-0.197,0.088-0.367,0.202-0.512,0.35c-0.146,0.146-0.262,0.318-0.348,0.517
					C132.965,107.014,132.926,107.223,132.926,107.443z"/>
				<path fill="#E7E7E8" d="M138.824,106.964h1.447c0.211,0,0.406,0.041,0.594,0.123c0.186,0.08,0.35,0.188,0.484,0.33
					c0.143,0.14,0.25,0.301,0.332,0.485c0.08,0.188,0.123,0.388,0.123,0.597c0,0.211-0.043,0.409-0.123,0.599
					c-0.082,0.187-0.189,0.351-0.332,0.487c-0.137,0.14-0.301,0.248-0.484,0.328c-0.186,0.079-0.383,0.12-0.594,0.12h-1.93
					c-0.064,0-0.131-0.014-0.189-0.036c-0.059-0.024-0.109-0.062-0.154-0.104c-0.043-0.045-0.078-0.097-0.104-0.153
					c-0.025-0.06-0.037-0.119-0.037-0.185v-4.224c0.004-0.063,0.019-0.125,0.043-0.183c0.022-0.058,0.058-0.106,0.103-0.151
					c0.041-0.041,0.093-0.076,0.149-0.104c0.056-0.024,0.121-0.039,0.19-0.039c0.064,0,0.128,0.015,0.185,0.037
					c0.062,0.025,0.111,0.062,0.156,0.105c0.043,0.043,0.078,0.096,0.104,0.152c0.022,0.059,0.034,0.123,0.034,0.186
					L138.824,106.964L138.824,106.964z M140.271,109.064c0.078,0,0.152-0.015,0.227-0.045c0.07-0.029,0.131-0.072,0.184-0.125
					c0.051-0.054,0.092-0.113,0.119-0.183c0.029-0.069,0.043-0.144,0.043-0.215c0-0.078-0.014-0.149-0.045-0.222
					c-0.031-0.069-0.07-0.129-0.125-0.185c-0.055-0.051-0.111-0.094-0.184-0.122c-0.07-0.031-0.143-0.048-0.219-0.048h-1.447v1.142
					h1.447V109.064z M142.256,109.548v-4.207c0-0.135,0.045-0.252,0.143-0.344c0.092-0.097,0.207-0.144,0.338-0.144
					c0.133,0,0.246,0.047,0.342,0.144c0.094,0.092,0.141,0.209,0.145,0.344v4.207c-0.004,0.138-0.051,0.25-0.145,0.345
					c-0.096,0.094-0.209,0.144-0.342,0.144c-0.131,0-0.246-0.05-0.338-0.144C142.301,109.798,142.256,109.686,142.256,109.548z"/>
				<path fill="#E7E7E8" d="M151.104,109.548c0,0.138-0.047,0.25-0.142,0.345c-0.094,0.094-0.209,0.144-0.342,0.144
					c-0.138,0-0.248-0.05-0.343-0.144c-0.092-0.095-0.137-0.207-0.137-0.345v-2.631c0-0.147-0.031-0.289-0.084-0.422
					c-0.06-0.132-0.138-0.248-0.236-0.349c-0.098-0.103-0.213-0.181-0.35-0.238c-0.134-0.059-0.277-0.088-0.433-0.088
					c-0.151,0-0.291,0.029-0.424,0.088c-0.136,0.06-0.25,0.138-0.351,0.236c-0.103,0.101-0.179,0.215-0.236,0.346
					c-0.057,0.134-0.086,0.273-0.086,0.427v2.631c0,0.138-0.047,0.25-0.142,0.345c-0.094,0.094-0.206,0.144-0.34,0.144
					c-0.133,0-0.25-0.05-0.344-0.144c-0.095-0.095-0.144-0.207-0.144-0.345v-2.631c0-0.151-0.027-0.293-0.086-0.427
					c-0.06-0.131-0.14-0.245-0.236-0.346c-0.096-0.101-0.213-0.179-0.346-0.236c-0.135-0.059-0.274-0.088-0.426-0.088
					c-0.152,0-0.296,0.029-0.427,0.086c-0.131,0.056-0.25,0.136-0.353,0.234c-0.099,0.102-0.177,0.219-0.233,0.35
					c-0.056,0.134-0.084,0.273-0.084,0.427v2.631c0,0.138-0.048,0.25-0.144,0.345c-0.095,0.094-0.207,0.144-0.34,0.144
					c-0.136,0-0.248-0.05-0.347-0.144c-0.093-0.095-0.14-0.207-0.14-0.345v-4.213c0-0.131,0.047-0.246,0.14-0.338
					c0.099-0.097,0.211-0.144,0.343-0.144c0.107,0,0.202,0.03,0.284,0.092c0.084,0.06,0.144,0.14,0.173,0.236
					c0.329-0.22,0.702-0.328,1.125-0.328c0.305,0,0.596,0.063,0.868,0.185c0.271,0.12,0.511,0.305,0.712,0.553
					c0.43-0.489,0.952-0.735,1.575-0.735c0.28,0,0.548,0.056,0.798,0.164c0.252,0.108,0.471,0.258,0.656,0.442
					c0.188,0.188,0.335,0.403,0.443,0.655c0.107,0.253,0.164,0.52,0.164,0.8v2.631H151.104z"/>
				<path fill="#E7E7E8" d="M156.27,110.033c-0.142,0-0.256-0.047-0.345-0.139c-0.09-0.095-0.137-0.205-0.141-0.34
					c-0.212,0.168-0.438,0.288-0.675,0.364c-0.235,0.074-0.493,0.113-0.771,0.113c-0.33,0-0.642-0.066-0.935-0.193
					s-0.549-0.301-0.768-0.521c-0.22-0.219-0.394-0.478-0.521-0.769c-0.13-0.293-0.192-0.604-0.192-0.935v-2.284
					c0-0.131,0.047-0.246,0.143-0.338c0.093-0.097,0.207-0.144,0.343-0.144c0.133,0,0.245,0.047,0.34,0.144
					c0.097,0.092,0.144,0.207,0.144,0.338v2.284c0,0.201,0.037,0.388,0.112,0.564c0.074,0.178,0.181,0.328,0.31,0.461
					c0.133,0.131,0.285,0.234,0.461,0.309c0.177,0.078,0.363,0.113,0.563,0.113c0.197,0,0.384-0.035,0.56-0.113
					c0.177-0.072,0.332-0.178,0.463-0.311c0.134-0.135,0.236-0.285,0.313-0.459c0.076-0.178,0.111-0.361,0.111-0.564v-2.284
					c0-0.131,0.049-0.246,0.144-0.338c0.096-0.097,0.209-0.144,0.346-0.144c0.134,0,0.244,0.047,0.338,0.144
					c0.095,0.092,0.144,0.207,0.144,0.338v4.219c0,0.132-0.049,0.244-0.144,0.339C156.52,109.984,156.404,110.033,156.27,110.033z"
					/>
				<path fill="#E7E7E8" d="M160.924,104.855c0.066,0,0.133,0.014,0.189,0.037c0.059,0.023,0.107,0.061,0.15,0.104
					s0.078,0.096,0.104,0.15c0.024,0.061,0.039,0.123,0.039,0.188v4.221c0,0.063-0.015,0.125-0.039,0.184s-0.062,0.109-0.104,0.154
					c-0.041,0.045-0.094,0.08-0.15,0.104c-0.061,0.021-0.123,0.036-0.189,0.036c-0.063,0-0.127-0.015-0.186-0.036
					c-0.061-0.023-0.111-0.063-0.154-0.104c-0.045-0.045-0.08-0.098-0.104-0.154c-0.025-0.059-0.037-0.119-0.037-0.184v-1.631h-0.92
					c-0.223,0-0.395,0.105-0.518,0.32l-0.801,1.495c-0.104,0.194-0.252,0.293-0.441,0.293c-0.066,0-0.129-0.015-0.188-0.036
					c-0.063-0.023-0.109-0.063-0.15-0.104c-0.045-0.045-0.08-0.098-0.104-0.154c-0.025-0.059-0.035-0.119-0.035-0.184
					c0-0.098,0.021-0.184,0.064-0.258l0.803-1.512c0.025-0.057,0.059-0.105,0.096-0.158c-0.1-0.092-0.188-0.186-0.268-0.273
					c-0.078-0.096-0.143-0.189-0.189-0.287c-0.053-0.102-0.092-0.205-0.117-0.314c-0.025-0.111-0.037-0.23-0.037-0.361
					c0-0.213,0.037-0.412,0.119-0.598c0.082-0.188,0.193-0.35,0.334-0.49c0.139-0.137,0.301-0.246,0.484-0.328
					c0.188-0.08,0.385-0.119,0.594-0.119H160.924L160.924,104.855z M160.443,106.964v-1.144h-1.273
					c-0.084,0-0.156,0.019-0.229,0.047c-0.072,0.033-0.131,0.078-0.184,0.132c-0.051,0.056-0.092,0.114-0.115,0.185
					c-0.027,0.065-0.043,0.14-0.043,0.207c0,0.077,0.016,0.147,0.045,0.221c0.028,0.068,0.068,0.13,0.123,0.183
					c0.051,0.052,0.109,0.095,0.18,0.125c0.07,0.031,0.146,0.047,0.225,0.047L160.443,106.964L160.443,106.964z"/>
			</g>
		</g>
		<g id="Clavel_1_">
			<path fill="#FFFFFF" d="M77.852,89.641c-0.563-0.023-1-0.16-1.322-0.434c-0.32-0.273-0.521-0.658-0.553-1.172
				c-0.023-0.404,0.051-0.779,0.168-1.107c0.114-0.328,0.282-0.613,0.506-0.854c0.217-0.234,0.483-0.412,0.801-0.547
				c0.705-0.301,1.795-0.332,2.471,0.127l-0.176,1.049h-0.121c-0.52-0.387-1.031-0.436-1.465-0.301
				c-0.457,0.145-0.824,0.504-0.914,1.078c-0.154,0.969,0.754,1.582,2.144,0.797h0.098l-0.182,1.045
				C78.89,89.549,78.396,89.663,77.852,89.641L77.852,89.641z"/>
			<polygon fill="#FFFFFF" points="95.455,85.432 95.285,86.402 93.813,86.402 93.711,86.967 95.043,86.967 94.887,87.878 
				93.556,87.878 93.445,88.525 94.92,88.525 94.746,89.533 91.974,89.533 92.681,85.432 			"/>
			<polygon fill="#FFFFFF" points="98.058,89.533 95.359,89.533 96.066,85.432 97.367,85.432 96.83,88.549 98.229,88.549 			"/>
			<polygon fill="#FFFFFF" points="82.599,89.533 79.902,89.533 80.611,85.432 81.912,85.432 81.373,88.549 82.771,88.549 			"/>
			<polygon fill="#FFFFFF" points="85.412,85.432 86.76,85.432 87.742,89.533 86.515,89.533 86.451,89.275 85.676,90.311 
				86.387,89.003 86.324,88.738 85.219,90.313 86.244,88.396 86.181,88.12 84.736,90.313 86.092,87.756 86.021,87.458 
				84.244,90.316 85.933,87.072 85.836,86.678 84.275,89.533 82.996,89.533 			"/>
			<polygon fill="#FFFFFF" points="89.912,89.533 88.564,89.533 87.586,85.432 88.813,85.432 88.873,85.691 89.652,84.652 
				88.941,85.965 89,86.229 90.109,84.652 89.082,86.568 89.148,86.844 90.59,84.652 89.234,87.211 89.306,87.51 91.082,84.65 
				89.395,87.893 89.488,88.29 91.051,85.432 92.328,85.432 			"/>
		</g>
	</g>
</g>
</svg>
