<?xml version="1.0" encoding="utf-8"?>
<!-- Generator: Adobe Illustrator 15.1.0, SVG Export Plug-In . SVG Version: 6.00 Build 0)  -->
<!DOCTYPE svg PUBLIC "-//W3C//DTD SVG 1.1//EN" "http://www.w3.org/Graphics/SVG/1.1/DTD/svg11.dtd">
<svg version="1.1" id="Layer_1" xmlns="http://www.w3.org/2000/svg" xmlns:xlink="http://www.w3.org/1999/xlink" x="0px" y="0px"
	 width="35.193px" height="27.502px" viewBox="0 0 35.193 27.502" enable-background="new 0 0 35.193 27.502" xml:space="preserve">
<circle fill="#F1F1F2" cx="15.434" cy="25.38" r="2.122"/>
<circle fill="#F1F1F2" cx="25.652" cy="25.38" r="2.122"/>
<path fill="#7B95CB" d="M17.623,6.438C16.52,2.715,13.082,0,8.998,0C4.027,0,0,4.029,0,8.998c0,4.768,3.705,8.656,8.39,8.971
	C8.595,17.982,8.796,18,8.998,18C13.972,18,18,13.971,18,8.998C18,8.109,17.863,7.25,17.623,6.438z"/>
<path fill="#F1F1F2" d="M33.671,8.147h-4.847c-0.707,0-1.299,0.481-1.473,1.138l-0.603,1.688h-7.094
	c0,0.002,0.002,0.004,0.002,0.005c0,4.301-3.016,7.889-7.047,8.783c0.264,0.563,0.643,1.248,1.088,1.686
	c0.777,0.767,2.354,0.734,2.354,0.734h7.727c0,0,1.289-0.031,2.015-0.791c0.729-0.766,1.057-1.664,1.057-1.664l3.115-8.529h3.705
	c0.842,0,1.522-0.685,1.522-1.523C35.193,8.83,34.512,8.147,33.671,8.147z"/>
</svg>
