<?xml version="1.0" encoding="utf-8"?>
<!-- Generator: Adobe Illustrator 15.1.0, SVG Export Plug-In . SVG Version: 6.00 Build 0)  -->
<!DOCTYPE svg PUBLIC "-//W3C//DTD SVG 1.1//EN" "http://www.w3.org/Graphics/SVG/1.1/DTD/svg11.dtd">
<svg version="1.1" id="Layer_1" xmlns="http://www.w3.org/2000/svg" xmlns:xlink="http://www.w3.org/1999/xlink" x="0px" y="0px"
	 width="32.952px" height="34.23px" viewBox="0 0 32.952 34.23" enable-background="new 0 0 32.952 34.23" xml:space="preserve">
<path fill="#BB90A9" d="M32.227,29.627l-4.324-4.324c2.104-2.663,3.369-6.018,3.369-9.665C31.271,7.015,24.258,0,15.635,0
	C7.014,0,0,7.015,0,15.638c0,8.621,7.014,15.635,15.635,15.635c3.004,0,5.801-0.864,8.187-2.338c0.059,0.074,0.11,0.151,0.182,0.222
	l4.348,4.35c0.967,0.966,2.533,0.966,3.498,0l0.379-0.381C33.193,32.16,33.193,30.594,32.227,29.627z M15.635,26.037
	c-5.734,0-10.397-4.666-10.397-10.398c0-5.734,4.663-10.4,10.397-10.4c5.736,0,10.4,4.666,10.4,10.4
	C26.034,21.371,21.371,26.037,15.635,26.037z"/>
</svg>
