<?xml version="1.0" encoding="utf-8"?>
<!-- Generator: Adobe Illustrator 15.1.0, SVG Export Plug-In . SVG Version: 6.00 Build 0)  -->
<!DOCTYPE svg PUBLIC "-//W3C//DTD SVG 1.1//EN" "http://www.w3.org/Graphics/SVG/1.1/DTD/svg11.dtd">
<svg version="1.1" id="Layer_1" xmlns="http://www.w3.org/2000/svg" xmlns:xlink="http://www.w3.org/1999/xlink" x="0px" y="0px"
	 width="92.955px" height="96.881px" viewBox="0 0 92.955 96.881" enable-background="new 0 0 92.955 96.881" xml:space="preserve">
<g id="Вверх_Hover_1_">
	<path opacity="0.5" fill="#767F91" enable-background="new    " d="M46.514,0C25.188,0,7.9,17.288,7.9,38.613
		c0,21.326,17.288,38.613,38.613,38.613c21.326,0,38.614-17.287,38.614-38.613C85.128,17.288,67.84,0,46.514,0z"/>
	<polygon fill="#767F91" points="50.213,23.63 46.514,19.637 42.814,23.63 20.096,48.168 27.491,48.168 46.514,27.625 
		65.537,48.168 72.934,48.168 	"/>
	<g>
		<path fill="#767F91" d="M0,96.881v-8.219h2.815c0.444,0,0.843,0.044,1.196,0.133c0.354,0.088,0.653,0.223,0.896,0.402
			c0.245,0.182,0.434,0.412,0.563,0.691c0.13,0.28,0.194,0.612,0.194,0.996c0,0.377-0.103,0.715-0.306,1.018
			c-0.203,0.301-0.501,0.533-0.892,0.699c0.236,0.063,0.441,0.156,0.618,0.279c0.175,0.122,0.318,0.266,0.435,0.432
			c0.114,0.166,0.2,0.349,0.257,0.547c0.057,0.201,0.084,0.408,0.084,0.621c0,0.396-0.063,0.742-0.193,1.043
			c-0.13,0.299-0.318,0.549-0.564,0.75c-0.247,0.201-0.546,0.354-0.896,0.455c-0.354,0.102-0.75,0.151-1.194,0.151L0,96.881
			L0,96.881z M1.428,92.123h1.4c0.442,0,0.791-0.102,1.041-0.303c0.25-0.2,0.375-0.485,0.375-0.854c0-0.405-0.115-0.7-0.348-0.881
			s-0.592-0.271-1.081-0.271H1.427L1.428,92.123L1.428,92.123z M1.428,93.172v2.568h1.586c0.233,0,0.439-0.029,0.618-0.09
			c0.179-0.062,0.328-0.146,0.449-0.258c0.12-0.111,0.211-0.244,0.271-0.397c0.062-0.154,0.091-0.325,0.091-0.515
			c0-0.406-0.106-0.726-0.321-0.959c-0.215-0.232-0.563-0.351-1.045-0.351L1.428,93.172L1.428,93.172z"/>
		<path fill="#767F91" d="M12.097,93.212H8.721v2.528h3.945v1.141H7.293v-8.219h5.334v1.15H8.721v2.271h3.376V93.212L12.097,93.212z
			"/>
		<path fill="#767F91" d="M15.258,93.828v3.054H13.83v-8.219h3.144c0.479,0,0.902,0.063,1.272,0.194
			c0.37,0.129,0.685,0.312,0.939,0.545c0.255,0.232,0.451,0.51,0.584,0.83c0.134,0.318,0.201,0.668,0.201,1.043
			c0,0.399-0.067,0.758-0.201,1.072c-0.133,0.316-0.328,0.584-0.584,0.803s-0.569,0.386-0.939,0.502
			c-0.37,0.117-0.795,0.176-1.272,0.176H15.258L15.258,93.828z M15.258,92.682h1.716c0.274,0,0.511-0.033,0.709-0.103
			c0.197-0.067,0.36-0.163,0.488-0.288c0.128-0.124,0.221-0.271,0.278-0.441c0.06-0.172,0.088-0.359,0.088-0.563
			c0-0.191-0.028-0.377-0.088-0.555c-0.059-0.176-0.15-0.334-0.278-0.471c-0.128-0.138-0.291-0.246-0.488-0.328
			c-0.198-0.08-0.436-0.121-0.709-0.121h-1.716V92.682z"/>
		<path fill="#767F91" d="M23.76,91.631l1.727-2.969h1.648l-2.483,4.074l2.54,4.145h-1.665l-1.767-3.016l-1.773,3.016h-1.658
			l2.546-4.145l-2.489-4.074h1.647L23.76,91.631z"/>
		<path fill="#767F91" d="M37.397,94.206c-0.038,0.401-0.132,0.774-0.282,1.114c-0.15,0.342-0.358,0.636-0.627,0.884
			c-0.268,0.249-0.594,0.442-0.979,0.582c-0.386,0.139-0.831,0.209-1.335,0.209s-0.961-0.093-1.369-0.274s-0.756-0.441-1.044-0.777
			c-0.288-0.338-0.509-0.744-0.663-1.223s-0.23-1.015-0.23-1.609v-0.666c0-0.59,0.079-1.127,0.235-1.605
			c0.158-0.479,0.385-0.889,0.678-1.229c0.295-0.338,0.648-0.6,1.064-0.784c0.415-0.185,0.881-0.276,1.396-0.276
			c0.488,0,0.922,0.07,1.299,0.213c0.376,0.141,0.694,0.336,0.957,0.586c0.261,0.25,0.466,0.549,0.614,0.896
			s0.243,0.726,0.285,1.135h-1.423c-0.03-0.26-0.082-0.493-0.155-0.7c-0.072-0.207-0.178-0.383-0.313-0.527
			c-0.135-0.143-0.308-0.254-0.515-0.33c-0.207-0.074-0.457-0.112-0.75-0.112c-0.323,0-0.606,0.062-0.851,0.185
			c-0.242,0.121-0.444,0.299-0.605,0.529c-0.162,0.23-0.283,0.518-0.364,0.855s-0.121,0.725-0.121,1.156v0.678
			c0,0.41,0.035,0.783,0.107,1.117c0.07,0.336,0.183,0.623,0.333,0.861c0.149,0.238,0.344,0.424,0.581,0.557
			c0.236,0.131,0.521,0.197,0.853,0.197c0.31,0,0.569-0.035,0.782-0.107c0.212-0.071,0.388-0.178,0.527-0.315
			c0.14-0.14,0.246-0.312,0.323-0.514c0.077-0.203,0.134-0.437,0.167-0.7h1.423V94.206z"/>
		<path fill="#767F91" d="M44.448,89.814h-2.563v7.066h-1.417v-7.066h-2.54v-1.151h6.521L44.448,89.814L44.448,89.814z"/>
		<path fill="#767F91" d="M46.955,93.828v3.054h-1.429v-8.219h3.145c0.479,0,0.901,0.063,1.272,0.194
			c0.37,0.129,0.685,0.312,0.939,0.545c0.255,0.232,0.451,0.51,0.584,0.83c0.134,0.318,0.201,0.668,0.201,1.043
			c0,0.399-0.067,0.758-0.201,1.072c-0.133,0.316-0.328,0.584-0.584,0.803s-0.569,0.386-0.939,0.502
			c-0.371,0.117-0.795,0.176-1.272,0.176H46.955L46.955,93.828z M46.955,92.682h1.716c0.273,0,0.511-0.033,0.709-0.103
			c0.196-0.067,0.359-0.163,0.487-0.288c0.129-0.124,0.222-0.271,0.279-0.441c0.059-0.172,0.087-0.359,0.087-0.563
			c0-0.191-0.027-0.377-0.087-0.555c-0.059-0.176-0.15-0.334-0.279-0.471c-0.128-0.138-0.291-0.246-0.487-0.328
			c-0.198-0.08-0.436-0.121-0.709-0.121h-1.716V92.682z"/>
		<path fill="#767F91" d="M56.512,94.967h-3.186l-0.666,1.914h-1.483l3.104-8.219h1.281l3.11,8.219h-1.49L56.512,94.967z
			 M53.729,93.816h2.382l-1.19-3.41L53.729,93.816z"/>
		<path fill="#767F91" d="M66.131,96.881h-1.423v-3.652h-3.676v3.652h-1.428v-8.219h1.428v3.421h3.676v-3.421h1.423V96.881z"/>
		<path fill="#767F91" d="M72.854,88.663h1.428v8.219h-1.428v-5.854l-3.607,5.854h-1.428v-8.219h1.428v5.858L72.854,88.663z"/>
		<path fill="#767F91" d="M75.98,88.663h1.428v7.077h3.619v-7.077h1.428v7.067h0.993l-0.111,3.133h-1.311v-1.981H75.98V88.663
			L75.98,88.663z"/>
		<path fill="#767F91" d="M86.091,91.807h1.677c0.467,0,0.883,0.061,1.248,0.18c0.364,0.121,0.673,0.291,0.926,0.51
			c0.252,0.218,0.444,0.482,0.578,0.793s0.2,0.652,0.2,1.029c0,0.381-0.066,0.728-0.2,1.041c-0.134,0.314-0.326,0.584-0.578,0.812
			c-0.253,0.226-0.562,0.399-0.926,0.524c-0.365,0.123-0.781,0.187-1.248,0.187h-3.104v-8.219h1.428L86.091,91.807L86.091,91.807z
			 M86.091,92.953v2.787h1.677c0.264,0,0.492-0.037,0.688-0.114c0.192-0.077,0.353-0.183,0.477-0.313s0.217-0.283,0.276-0.457
			c0.061-0.172,0.091-0.354,0.091-0.547c0-0.188-0.03-0.365-0.091-0.527c-0.061-0.164-0.152-0.307-0.276-0.43
			s-0.283-0.22-0.477-0.291c-0.194-0.072-0.424-0.106-0.688-0.106L86.091,92.953L86.091,92.953z M92.955,96.881h-1.423v-8.219h1.423
			V96.881z"/>
	</g>
</g>
</svg>
