<?xml version="1.0" encoding="utf-8"?>
<!-- Generator: Adobe Illustrator 15.1.0, SVG Export Plug-In . SVG Version: 6.00 Build 0)  -->
<!DOCTYPE svg PUBLIC "-//W3C//DTD SVG 1.1//EN" "http://www.w3.org/Graphics/SVG/1.1/DTD/svg11.dtd">
<svg version="1.1" id="Layer_1" xmlns="http://www.w3.org/2000/svg" xmlns:xlink="http://www.w3.org/1999/xlink" x="0px" y="0px"
	 width="26px" height="26px" viewBox="0 0 26 26" enable-background="new 0 0 26 26" xml:space="preserve">
<g id="Vkontakte_1_">
	<circle fill="#BEC7D3" cx="13.006" cy="13" r="13"/>
	<path fill="#4A5877" d="M10.176,8.946c0.385-0.781,1.68-0.751,2.93-0.679c0.377,0.022,0.896,0.086,1.084,0.244
		c0.414,0.342,0.244,1.418,0.244,2.226c0,0.546-0.205,2.043,0.354,2.116c0.244,0.031,0.569-0.336,0.707-0.489
		c0.526-0.599,1.162-1.765,1.572-2.685c0.135-0.307,0.272-0.813,0.487-0.924c0.381-0.195,1.427-0.055,1.98-0.055
		c0.565,0,1.555-0.17,1.735,0.217c0.188,0.4-0.271,1.115-0.436,1.385c-0.523,0.869-0.955,1.365-1.545,2.17
		c-0.197,0.268-0.693,0.684-0.681,1.168c0.015,0.438,0.365,0.64,0.681,0.947c0.549,0.541,1.041,0.963,1.572,1.684
		c0.219,0.293,0.541,0.722,0.381,1.111c-0.154,0.377-0.781,0.354-1.465,0.354c-1.082,0-1.886,0.124-2.496-0.244
		c-0.625-0.375-1-1.027-1.547-1.546c-0.15-0.144-0.351-0.39-0.623-0.38c-0.4,0.013-0.515,0.414-0.599,0.785
		c-0.076,0.334-0.01,0.914-0.217,1.168c-0.267,0.322-1.41,0.266-2.09,0.189c-1.379-0.154-2.33-0.811-3.146-1.52
		c-0.432-0.377-0.741-0.811-1.084-1.248c-1.16-1.486-2.125-3.219-3.014-5.156c-0.119-0.26-0.338-0.572-0.244-0.84
		c0.143-0.389,1.08-0.271,1.547-0.271c0.656,0,1.463-0.064,1.791,0.162c0.221,0.152,0.422,0.803,0.57,1.113
		c0.377,0.793,0.66,1.457,1.166,2.197c0.188,0.277,0.578,0.791,0.948,0.732c0.4-0.063,0.484-1.123,0.49-1.791
		c0.002-0.627-0.051-1.396-0.246-1.709C10.824,9.116,10.475,9.09,10.176,8.946z"/>
</g>
</svg>
