<?xml version="1.0" encoding="utf-8"?>
<!-- Generator: Adobe Illustrator 15.1.0, SVG Export Plug-In . SVG Version: 6.00 Build 0)  -->
<!DOCTYPE svg PUBLIC "-//W3C//DTD SVG 1.1//EN" "http://www.w3.org/Graphics/SVG/1.1/DTD/svg11.dtd">
<svg version="1.1" id="Layer_1" xmlns="http://www.w3.org/2000/svg" xmlns:xlink="http://www.w3.org/1999/xlink" x="0px" y="0px"
	 width="26px" height="26px" viewBox="0 0 26 26" enable-background="new 0 0 26 26" xml:space="preserve">
<g>
	<circle fill="#92AAD6" cx="13" cy="13" r="13"/>
	<path fill="#FFFFFF" d="M10.17,8.946c0.385-0.781,1.68-0.751,2.93-0.678c0.377,0.021,0.896,0.086,1.084,0.244
		c0.414,0.342,0.244,1.418,0.244,2.225c0,0.546-0.205,2.043,0.354,2.115c0.243,0.033,0.569-0.336,0.707-0.488
		c0.526-0.6,1.161-1.764,1.571-2.686c0.136-0.306,0.273-0.812,0.488-0.922c0.381-0.195,1.426-0.056,1.979-0.056
		c0.566,0,1.556-0.17,1.736,0.217c0.188,0.399-0.271,1.115-0.436,1.384c-0.523,0.871-0.955,1.366-1.545,2.172
		c-0.197,0.267-0.693,0.683-0.681,1.166c0.015,0.438,0.365,0.641,0.681,0.949c0.549,0.539,1.041,0.961,1.571,1.682
		c0.22,0.295,0.541,0.723,0.381,1.113c-0.153,0.377-0.78,0.353-1.465,0.353c-1.082,0-1.885,0.124-2.496-0.244
		c-0.625-0.375-1-1.028-1.547-1.546c-0.149-0.143-0.35-0.389-0.623-0.381c-0.399,0.014-0.514,0.416-0.598,0.787
		c-0.076,0.332-0.01,0.914-0.217,1.166c-0.267,0.324-1.41,0.267-2.091,0.19c-1.379-0.155-2.329-0.812-3.146-1.521
		c-0.432-0.375-0.742-0.809-1.084-1.248c-1.16-1.485-2.125-3.217-3.014-5.155c-0.119-0.261-0.339-0.573-0.244-0.84
		c0.143-0.39,1.08-0.271,1.547-0.271c0.656,0,1.463-0.065,1.791,0.162C8.271,8.988,8.473,9.64,8.62,9.949
		c0.377,0.793,0.66,1.457,1.166,2.196c0.189,0.277,0.578,0.791,0.949,0.732c0.4-0.061,0.484-1.123,0.49-1.789
		c0.002-0.629-0.051-1.398-0.246-1.709C10.816,9.116,10.469,9.091,10.17,8.946z"/>
</g>
</svg>
