<?xml version="1.0" encoding="utf-8"?>
<!-- Generator: Adobe Illustrator 15.1.0, SVG Export Plug-In . SVG Version: 6.00 Build 0)  -->
<!DOCTYPE svg PUBLIC "-//W3C//DTD SVG 1.1//EN" "http://www.w3.org/Graphics/SVG/1.1/DTD/svg11.dtd">
<svg version="1.1" id="Layer_1" xmlns="http://www.w3.org/2000/svg" xmlns:xlink="http://www.w3.org/1999/xlink" x="0px" y="0px"
	 width="26px" height="26px" viewBox="0 0 26 26" enable-background="new 0 0 26 26" xml:space="preserve">
<g id="facebook_1_">
	<path fill="#BEC7D3" d="M13,26c7.18,0,13-5.818,13-13c0-7.179-5.82-13-13-13C5.819,0,0,5.821,0,13C0,20.182,5.82,26,13,26"/>
	<path fill="#4A5877" d="M9.865,10.799h1.345V9.492c0-0.574,0.014-1.463,0.432-2.014c0.441-0.584,1.047-0.979,2.088-0.979
		c1.693,0,2.408,0.242,2.408,0.242L15.801,8.73c0,0-0.561-0.16-1.082-0.16c-0.523,0-0.99,0.188-0.99,0.71v1.519h2.142l-0.148,1.944
		H13.73v6.756h-2.521v-6.756H9.866L9.865,10.799L9.865,10.799z"/>
</g>
</svg>
