<?xml version="1.0" encoding="utf-8"?>
<!-- Generator: Adobe Illustrator 15.1.0, SVG Export Plug-In . SVG Version: 6.00 Build 0)  -->
<!DOCTYPE svg PUBLIC "-//W3C//DTD SVG 1.1//EN" "http://www.w3.org/Graphics/SVG/1.1/DTD/svg11.dtd">
<svg version="1.1" id="Layer_1" xmlns="http://www.w3.org/2000/svg" xmlns:xlink="http://www.w3.org/1999/xlink" x="0px" y="0px"
	 width="26px" height="26px" viewBox="0 0 26 26" enable-background="new 0 0 26 26" xml:space="preserve">
<path fill="#92AAD6" d="M13.001,25.999c7.181,0,13-5.819,13-13c0-7.179-5.819-13-13-13c-7.18,0-13,5.821-13,13
	C0.001,20.18,5.821,25.999,13.001,25.999"/>
<path fill="#FFFFFF" d="M9.866,10.799h1.345V9.491c0-0.574,0.014-1.463,0.432-2.015c0.441-0.582,1.047-0.979,2.088-0.979
	c1.693,0,2.408,0.242,2.408,0.242l-0.336,1.99c0,0-0.562-0.161-1.082-0.161c-0.523,0-0.99,0.188-0.99,0.71v1.518h2.143l-0.149,1.945
	h-1.992v6.756h-2.521v-6.756H9.867L9.866,10.799L9.866,10.799z"/>
</svg>
