<?xml version="1.0" encoding="utf-8"?>
<!-- Generator: Adobe Illustrator 15.1.0, SVG Export Plug-In . SVG Version: 6.00 Build 0)  -->
<!DOCTYPE svg PUBLIC "-//W3C//DTD SVG 1.1//EN" "http://www.w3.org/Graphics/SVG/1.1/DTD/svg11.dtd">
<svg version="1.1" id="Layer_1" xmlns="http://www.w3.org/2000/svg" xmlns:xlink="http://www.w3.org/1999/xlink" x="0px" y="0px"
	 width="26px" height="26px" viewBox="0 0 26 26" enable-background="new 0 0 26 26" xml:space="preserve">
<g id="google_x5F_plus_1_">
	<path fill="#BEC7D3" d="M13.001,26c7.179,0,13-5.82,13-13c0-7.179-5.821-13-13-13C5.821,0-0.001,5.821-0.001,13
		C-0.001,20.18,5.821,26,13.001,26"/>
	<path fill="#4A5877" d="M10.851,18.824c-1.547,0-2.664-0.979-2.664-2.152c0-1.152,1.385-2.111,2.932-2.095
		c0.359,0.004,0.695,0.063,1.002,0.16c0.838,0.584,1.439,0.913,1.609,1.577c0.031,0.136,0.049,0.273,0.049,0.414
		C13.778,17.906,13.022,18.824,10.851,18.824 M11.256,11.932c-1.037-0.029-2.023-1.16-2.201-2.521
		C8.874,8.047,9.57,7.004,10.607,7.035s2.022,1.124,2.201,2.486C12.989,10.885,12.292,11.963,11.256,11.932 M13.405,13.95
		c-0.363-0.259-1.059-0.884-1.059-1.251c0-0.436,0.123-0.646,0.772-1.152c0.664-0.521,1.137-1.253,1.137-2.104
		c0-1.014-0.45-1.998-1.299-2.325h1.277l0.9-0.651h-4.025c-1.805,0-3.504,1.367-3.504,2.951c0,1.618,1.229,2.926,3.066,2.926
		c0.129,0,0.252-0.002,0.373-0.012c-0.119,0.229-0.205,0.486-0.205,0.751c0,0.45,0.241,0.815,0.549,1.113
		c-0.232,0-0.455,0.008-0.697,0.008c-2.236,0-3.957,1.423-3.957,2.899c0,1.453,1.887,2.363,4.121,2.363
		c2.549,0,3.957-1.447,3.957-2.9C14.813,15.4,14.47,14.702,13.405,13.95 M19.265,12.051h-1.568v-1.568h-1.262v1.568h-1.566v1.262
		h1.566v1.568h1.262v-1.568h1.568V12.051z"/>
</g>
</svg>
