<?xml version="1.0" encoding="utf-8"?>
<!-- Generator: Adobe Illustrator 15.1.0, SVG Export Plug-In . SVG Version: 6.00 Build 0)  -->
<!DOCTYPE svg PUBLIC "-//W3C//DTD SVG 1.1//EN" "http://www.w3.org/Graphics/SVG/1.1/DTD/svg11.dtd">
<svg version="1.1" id="Layer_1" xmlns="http://www.w3.org/2000/svg" xmlns:xlink="http://www.w3.org/1999/xlink" x="0px" y="0px"
	 width="26px" height="26px" viewBox="0 0 26 26" enable-background="new 0 0 26 26" xml:space="preserve">
<path fill="#92AAD6" d="M12.999,26c7.179,0,13-5.821,13-13s-5.821-13-13-13C5.819,0-0.003,5.821-0.003,13S5.819,26,12.999,26"/>
<path fill="#FFFFFF" d="M10.849,18.824c-1.548,0-2.664-0.979-2.664-2.153c0-1.15,1.385-2.111,2.932-2.094
	c0.359,0.004,0.695,0.063,1.002,0.16c0.838,0.584,1.439,0.912,1.609,1.578c0.03,0.135,0.049,0.273,0.049,0.414
	C13.776,17.906,13.021,18.824,10.849,18.824 M11.253,11.931c-1.037-0.028-2.022-1.158-2.201-2.521
	c-0.18-1.362,0.517-2.405,1.554-2.375c1.037,0.032,2.022,1.124,2.201,2.485C12.987,10.884,12.29,11.964,11.253,11.931 M13.403,13.95
	c-0.363-0.258-1.06-0.885-1.06-1.251c0-0.435,0.123-0.646,0.773-1.153c0.664-0.52,1.137-1.252,1.137-2.104
	c0-1.012-0.451-1.997-1.299-2.324h1.277l0.899-0.65h-4.024c-1.806,0-3.504,1.366-3.504,2.95c0,1.618,1.229,2.925,3.065,2.925
	c0.129,0,0.252-0.002,0.373-0.011c-0.119,0.229-0.205,0.485-0.205,0.751c0,0.45,0.242,0.814,0.55,1.113
	c-0.232,0-0.455,0.008-0.697,0.008c-2.236,0-3.957,1.423-3.957,2.9c0,1.453,1.887,2.363,4.121,2.363
	c2.549,0,3.957-1.447,3.957-2.902C14.812,15.399,14.469,14.702,13.403,13.95 M19.262,12.052h-1.567v-1.568h-1.262v1.568h-1.566
	v1.262h1.566v1.566h1.262v-1.566h1.567V12.052z"/>
</svg>
