<?xml version="1.0" encoding="utf-8"?>
<!-- Generator: Adobe Illustrator 15.1.0, SVG Export Plug-In . SVG Version: 6.00 Build 0)  -->
<!DOCTYPE svg PUBLIC "-//W3C//DTD SVG 1.1//EN" "http://www.w3.org/Graphics/SVG/1.1/DTD/svg11.dtd">
<svg version="1.1" id="Layer_1" xmlns="http://www.w3.org/2000/svg" xmlns:xlink="http://www.w3.org/1999/xlink" x="0px" y="0px"
	 width="26px" height="26px" viewBox="0 0 26 26" enable-background="new 0 0 26 26" xml:space="preserve">
<g id="twitter_1_">
	<path fill="#BEC7D3" d="M13,26c7.182,0,13-5.818,13-13c0-7.179-5.818-13-13-13C5.819,0,0,5.821,0,13C0,20.182,5.82,26,13,26"/>
	<path fill="#4A5877" d="M19.523,9.596c-0.48,0.211-0.996,0.354-1.535,0.42c0.551-0.33,0.975-0.854,1.174-1.478
		c-0.518,0.306-1.088,0.526-1.697,0.647c-0.484-0.52-1.182-0.844-1.947-0.844c-1.477,0-2.672,1.196-2.672,2.67
		c0,0.211,0.021,0.414,0.068,0.608c-2.222-0.11-4.188-1.173-5.509-2.791c-0.229,0.396-0.36,0.854-0.36,1.345
		c0,0.926,0.474,1.743,1.188,2.225c-0.438-0.016-0.851-0.137-1.211-0.334v0.031c0,1.297,0.922,2.377,2.145,2.621
		c-0.225,0.063-0.459,0.094-0.703,0.094c-0.172,0-0.34-0.016-0.504-0.049c0.34,1.063,1.326,1.836,2.496,1.855
		c-0.914,0.717-2.066,1.145-3.316,1.145c-0.217,0-0.43-0.013-0.639-0.037c1.182,0.758,2.586,1.201,4.096,1.201
		c4.915,0,7.603-4.072,7.603-7.603c0-0.117-0.002-0.231-0.008-0.347C18.713,10.602,19.166,10.131,19.523,9.596"/>
</g>
</svg>
