<?xml version="1.0" encoding="utf-8"?>
<!-- Generator: Adobe Illustrator 15.1.0, SVG Export Plug-In . SVG Version: 6.00 Build 0)  -->
<!DOCTYPE svg PUBLIC "-//W3C//DTD SVG 1.1//EN" "http://www.w3.org/Graphics/SVG/1.1/DTD/svg11.dtd">
<svg version="1.1" id="Layer_1" xmlns="http://www.w3.org/2000/svg" xmlns:xlink="http://www.w3.org/1999/xlink" x="0px" y="0px"
	 width="26px" height="26px" viewBox="0 0 26 26" enable-background="new 0 0 26 26" xml:space="preserve">
<path fill="#92AAD6" d="M13,26c7.18,0,13-5.818,13-13c0-7.179-5.82-13-13-13C5.819,0,0,5.822,0,13C0,20.182,5.819,26,13,26"/>
<path fill="#FFFFFF" d="M19.523,9.595c-0.48,0.213-0.996,0.355-1.535,0.422c0.551-0.332,0.975-0.854,1.174-1.479
	c-0.518,0.307-1.088,0.525-1.697,0.646c-0.486-0.519-1.182-0.844-1.949-0.844c-1.475,0-2.669,1.197-2.669,2.672
	c0,0.209,0.021,0.414,0.068,0.607c-2.221-0.109-4.188-1.173-5.508-2.791c-0.229,0.396-0.361,0.854-0.361,1.344
	c0,0.928,0.473,1.744,1.188,2.225c-0.438-0.014-0.85-0.135-1.211-0.332v0.031c0,1.295,0.922,2.375,2.145,2.62
	c-0.225,0.063-0.459,0.094-0.702,0.094c-0.173,0-0.341-0.016-0.505-0.047c0.341,1.061,1.326,1.834,2.496,1.854
	c-0.914,0.717-2.065,1.145-3.315,1.145c-0.218,0-0.431-0.012-0.64-0.035c1.183,0.756,2.586,1.199,4.097,1.199
	c4.913,0,7.602-4.07,7.602-7.602c0-0.117-0.002-0.232-0.008-0.346C18.713,10.603,19.166,10.132,19.523,9.595"/>
</svg>
