<?xml version="1.0" encoding="utf-8"?>
<!-- Generator: Adobe Illustrator 15.1.0, SVG Export Plug-In . SVG Version: 6.00 Build 0)  -->
<!DOCTYPE svg PUBLIC "-//W3C//DTD SVG 1.1//EN" "http://www.w3.org/Graphics/SVG/1.1/DTD/svg11.dtd">
<svg version="1.1" xmlns="http://www.w3.org/2000/svg" xmlns:xlink="http://www.w3.org/1999/xlink" x="0px" y="0px" width="26px"
	 height="26px" viewBox="0 0 26 26" enable-background="new 0 0 26 26" xml:space="preserve">
<g id="Layer_2">
	<g id="Youtube_2_">
		<path fill="#BEC7D3" d="M13,25.97c7.18,0,13-5.82,13-13c0-7.179-5.82-13-13-13c-7.181,0-13,5.821-13,13
			C0,20.149,5.821,25.97,13,25.97"/>
		<path fill="#4A5877" d="M16.283,7.552v3.057c-0.074,0.09-0.162,0.164-0.25,0.221c-0.098,0.056-0.17,0.09-0.234,0.09
			c-0.072,0-0.131-0.025-0.162-0.064c-0.041-0.051-0.059-0.115-0.059-0.211V7.553h-0.824v3.366c0,0.24,0.049,0.419,0.146,0.54
			c0.096,0.12,0.242,0.179,0.428,0.179c0.164,0,0.316-0.042,0.486-0.121c0.16-0.089,0.314-0.211,0.469-0.381v0.443h0.824V7.553
			L16.283,7.552L16.283,7.552z M13.768,7.748c-0.219-0.202-0.5-0.3-0.84-0.3c-0.373,0-0.672,0.098-0.897,0.283
			c-0.219,0.187-0.332,0.428-0.332,0.744v2.086c0,0.348,0.113,0.614,0.322,0.814c0.221,0.203,0.512,0.309,0.866,0.309
			c0.371,0,0.672-0.098,0.881-0.3c0.22-0.192,0.324-0.461,0.324-0.81V8.5C14.092,8.192,13.979,7.942,13.768,7.748z M13.25,10.644
			c0,0.104-0.031,0.186-0.099,0.25c-0.063,0.063-0.151,0.096-0.266,0.096c-0.105,0-0.193-0.032-0.252-0.096
			c-0.055-0.059-0.088-0.146-0.088-0.25V8.442c0-0.088,0.033-0.162,0.096-0.209c0.059-0.058,0.146-0.082,0.244-0.082
			c0.105,0,0.193,0.024,0.266,0.082c0.066,0.047,0.099,0.121,0.099,0.209V10.644z M10.696,6.122l-0.574,2.183h-0.064l-0.6-2.183
			H8.521l1.108,3.3v2.158h0.931V9.315l1.073-3.193H10.696z M17.123,15.737c0.049,0.063,0.074,0.177,0.074,0.322v0.373h-0.641V16.06
			c0-0.146,0.016-0.259,0.074-0.322c0.049-0.065,0.129-0.104,0.252-0.104C16.994,15.632,17.076,15.672,17.123,15.737z M14.584,15.72
			c-0.047-0.064-0.129-0.098-0.225-0.098c-0.049,0-0.105,0.01-0.155,0.033c-0.049,0.022-0.104,0.063-0.153,0.113v2.278
			c0.057,0.058,0.121,0.104,0.178,0.13c0.059,0.023,0.113,0.041,0.17,0.041c0.1,0,0.162-0.023,0.201-0.082
			c0.041-0.048,0.064-0.129,0.064-0.251v-1.892C14.664,15.873,14.641,15.784,14.584,15.72z M14.584,15.72
			c-0.047-0.064-0.129-0.098-0.225-0.098c-0.049,0-0.105,0.01-0.155,0.033c-0.049,0.022-0.104,0.063-0.153,0.113v2.278
			c0.057,0.058,0.121,0.104,0.178,0.13c0.059,0.023,0.113,0.041,0.17,0.041c0.1,0,0.162-0.023,0.201-0.082
			c0.041-0.048,0.064-0.129,0.064-0.251v-1.892C14.664,15.873,14.641,15.784,14.584,15.72z M18.734,12.897H7.268
			c-1.254,0-2.288,1.035-2.288,2.299v2.336c0,1.262,1.034,2.289,2.288,2.289h11.467c1.254,0,2.287-1.027,2.287-2.289v-2.336
			C21.021,13.933,19.988,12.897,18.734,12.897z M10.358,14.507H9.499v4.236H8.675v-4.236h-0.85v-0.719h2.533V14.507z M12.766,18.745
			H12.03v-0.404c-0.129,0.152-0.275,0.268-0.42,0.339c-0.146,0.082-0.283,0.121-0.423,0.121c-0.168,0-0.297-0.056-0.387-0.169
			c-0.082-0.104-0.123-0.268-0.123-0.484v-3.064h0.729v2.814c0,0.078,0.018,0.146,0.049,0.185c0.024,0.042,0.082,0.057,0.146,0.057
			c0.056,0,0.121-0.024,0.203-0.079c0.088-0.05,0.16-0.113,0.226-0.195v-2.78h0.735V18.745z M15.418,17.985
			c0,0.258-0.057,0.461-0.17,0.597c-0.113,0.139-0.283,0.212-0.5,0.212c-0.148,0-0.27-0.023-0.383-0.08
			c-0.111-0.059-0.218-0.139-0.314-0.253v0.284h-0.736v-4.956h0.736v1.591c0.098-0.104,0.203-0.191,0.314-0.251
			c0.113-0.056,0.229-0.088,0.34-0.088c0.227,0,0.404,0.079,0.527,0.235c0.121,0.152,0.186,0.379,0.186,0.679V17.985L15.418,17.985z
			 M17.957,17.006h-1.4v0.687c0,0.193,0.018,0.326,0.066,0.396c0.047,0.081,0.137,0.111,0.25,0.111c0.121,0,0.203-0.03,0.25-0.096
			c0.049-0.058,0.074-0.203,0.074-0.412v-0.17h0.76v0.187c0,0.38-0.098,0.663-0.283,0.849c-0.178,0.194-0.453,0.283-0.814,0.283
			c-0.332,0-0.592-0.098-0.777-0.298c-0.188-0.203-0.281-0.478-0.281-0.834v-1.642c0-0.315,0.104-0.574,0.314-0.776
			c0.201-0.192,0.469-0.298,0.801-0.298s0.59,0.097,0.768,0.281c0.178,0.188,0.275,0.444,0.275,0.793v0.938H17.957z M14.361,15.623
			c-0.051,0-0.105,0.01-0.155,0.032c-0.049,0.023-0.105,0.064-0.154,0.113v2.279c0.057,0.059,0.121,0.105,0.179,0.13
			c0.057,0.022,0.113,0.041,0.17,0.041c0.098,0,0.162-0.024,0.201-0.082c0.041-0.048,0.064-0.129,0.064-0.251v-1.891
			c0-0.123-0.023-0.211-0.08-0.275C14.537,15.655,14.455,15.623,14.361,15.623z M14.584,15.72c-0.047-0.064-0.129-0.098-0.225-0.098
			c-0.049,0-0.105,0.01-0.155,0.033c-0.049,0.022-0.104,0.063-0.153,0.113v2.278c0.057,0.058,0.121,0.104,0.178,0.13
			c0.059,0.023,0.113,0.041,0.17,0.041c0.1,0,0.162-0.023,0.201-0.082c0.041-0.048,0.064-0.129,0.064-0.251v-1.892
			C14.664,15.873,14.641,15.784,14.584,15.72z M14.584,15.72c-0.047-0.064-0.129-0.098-0.225-0.098c-0.049,0-0.105,0.01-0.155,0.033
			c-0.049,0.022-0.104,0.063-0.153,0.113v2.278c0.057,0.058,0.121,0.104,0.178,0.13c0.059,0.023,0.113,0.041,0.17,0.041
			c0.1,0,0.162-0.023,0.201-0.082c0.041-0.048,0.064-0.129,0.064-0.251v-1.892C14.664,15.873,14.641,15.784,14.584,15.72z"/>
	</g>
</g>
<g id="Layer_3" display="none">
	<g display="inline">
		<path fill="#92AAD6" d="M13,25.97c7.182,0,13-5.821,13-13s-5.818-13-13-13c-7.18,0-13,5.821-13,13S5.821,25.97,13,25.97"/>
		<path fill="#FFFFFF" d="M16.285,7.552v3.058c-0.074,0.088-0.162,0.162-0.25,0.219c-0.098,0.057-0.17,0.091-0.234,0.091
			c-0.072,0-0.131-0.024-0.162-0.065c-0.041-0.05-0.059-0.113-0.059-0.209V7.553h-0.824v3.366c0,0.241,0.049,0.419,0.146,0.54
			c0.096,0.121,0.242,0.179,0.428,0.179c0.164,0,0.316-0.042,0.486-0.122c0.16-0.088,0.313-0.209,0.469-0.38v0.444h0.824V7.553
			L16.285,7.552L16.285,7.552z M13.769,7.748c-0.219-0.202-0.5-0.299-0.84-0.299c-0.373,0-0.672,0.097-0.897,0.283
			c-0.22,0.186-0.332,0.428-0.332,0.744v2.084c0,0.35,0.112,0.615,0.321,0.815c0.222,0.202,0.513,0.31,0.867,0.31
			c0.371,0,0.672-0.099,0.881-0.301c0.219-0.193,0.324-0.461,0.324-0.809V8.5C14.093,8.193,13.979,7.941,13.769,7.748z
			 M13.25,10.643c0,0.104-0.03,0.186-0.098,0.25c-0.063,0.063-0.152,0.096-0.266,0.096c-0.105,0-0.193-0.031-0.252-0.096
			c-0.055-0.058-0.088-0.146-0.088-0.25V8.443c0-0.088,0.033-0.162,0.096-0.211c0.059-0.057,0.146-0.08,0.244-0.08
			c0.105,0,0.193,0.023,0.266,0.08c0.066,0.049,0.098,0.123,0.098,0.211V10.643z M10.696,6.122l-0.573,2.183h-0.064l-0.6-2.183
			H8.521l1.109,3.3v2.158h0.93V9.316l1.074-3.195L10.696,6.122L10.696,6.122z M17.123,15.736c0.049,0.064,0.074,0.178,0.074,0.324
			v0.371h-0.641v-0.371c0-0.146,0.016-0.26,0.074-0.324c0.049-0.064,0.129-0.104,0.252-0.104
			C16.996,15.632,17.078,15.672,17.123,15.736z M14.584,15.72c-0.047-0.063-0.129-0.098-0.225-0.098
			c-0.049,0-0.104,0.01-0.154,0.032c-0.049,0.023-0.104,0.064-0.153,0.113v2.279c0.057,0.059,0.12,0.105,0.179,0.13
			c0.057,0.022,0.113,0.041,0.17,0.041c0.098,0,0.162-0.024,0.201-0.082c0.041-0.048,0.063-0.129,0.063-0.251v-1.891
			C14.664,15.873,14.643,15.785,14.584,15.72z M14.584,15.72c-0.047-0.063-0.129-0.098-0.225-0.098c-0.049,0-0.104,0.01-0.154,0.032
			c-0.049,0.023-0.104,0.064-0.153,0.113v2.279c0.057,0.059,0.12,0.105,0.179,0.13c0.057,0.022,0.113,0.041,0.17,0.041
			c0.098,0,0.162-0.024,0.201-0.082c0.041-0.048,0.063-0.129,0.063-0.251v-1.891C14.664,15.873,14.643,15.785,14.584,15.72z
			 M18.734,12.898H7.269c-1.254,0-2.289,1.035-2.289,2.297v2.336c0,1.263,1.035,2.289,2.289,2.289h11.466
			c1.254,0,2.289-1.026,2.289-2.289v-2.336C21.023,13.934,19.988,12.898,18.734,12.898z M10.358,14.507H9.5v4.237H8.676v-4.237
			h-0.85v-0.719h2.532V14.507z M12.767,18.744h-0.735v-0.403c-0.13,0.151-0.275,0.267-0.421,0.339
			c-0.146,0.082-0.282,0.121-0.422,0.121c-0.168,0-0.297-0.057-0.387-0.169c-0.082-0.104-0.123-0.269-0.123-0.485v-3.063h0.729
			v2.813c0,0.08,0.018,0.146,0.049,0.186c0.024,0.042,0.082,0.057,0.146,0.057c0.056,0,0.121-0.023,0.203-0.08
			c0.088-0.049,0.16-0.113,0.225-0.193v-2.781h0.736V18.744z M15.418,17.984c0,0.26-0.057,0.461-0.17,0.598
			c-0.111,0.139-0.281,0.212-0.5,0.212c-0.146,0-0.27-0.024-0.383-0.08c-0.111-0.06-0.217-0.14-0.313-0.253v0.283h-0.736v-4.955
			h0.736v1.591c0.098-0.104,0.202-0.192,0.313-0.251c0.113-0.055,0.23-0.088,0.34-0.088c0.229,0,0.404,0.08,0.527,0.234
			c0.121,0.153,0.186,0.381,0.186,0.68V17.984z M17.957,17.006h-1.398v0.688c0,0.192,0.016,0.324,0.064,0.396
			c0.047,0.081,0.139,0.112,0.25,0.112c0.121,0,0.203-0.031,0.25-0.096c0.049-0.059,0.074-0.203,0.074-0.414v-0.168h0.76v0.186
			c0,0.38-0.098,0.663-0.281,0.85c-0.18,0.193-0.453,0.282-0.816,0.282c-0.332,0-0.59-0.097-0.777-0.298
			c-0.186-0.203-0.281-0.479-0.281-0.834v-1.643c0-0.314,0.104-0.574,0.314-0.775c0.201-0.193,0.469-0.299,0.801-0.299
			s0.59,0.098,0.768,0.283c0.178,0.187,0.275,0.443,0.275,0.791v0.939H17.957z M14.361,15.623c-0.049,0-0.105,0.01-0.154,0.033
			c-0.05,0.022-0.105,0.063-0.154,0.113v2.278c0.057,0.058,0.121,0.104,0.178,0.13c0.057,0.023,0.113,0.041,0.17,0.041
			c0.098,0,0.162-0.023,0.201-0.082c0.041-0.048,0.064-0.129,0.064-0.251v-1.892c0-0.122-0.023-0.211-0.08-0.274
			C14.539,15.656,14.455,15.623,14.361,15.623z M14.584,15.72c-0.047-0.063-0.129-0.098-0.225-0.098
			c-0.049,0-0.104,0.01-0.154,0.032c-0.049,0.023-0.104,0.064-0.153,0.113v2.279c0.057,0.059,0.12,0.105,0.179,0.13
			c0.057,0.022,0.113,0.041,0.17,0.041c0.098,0,0.162-0.024,0.201-0.082c0.041-0.048,0.063-0.129,0.063-0.251v-1.891
			C14.664,15.873,14.643,15.785,14.584,15.72z M14.584,15.72c-0.047-0.063-0.129-0.098-0.225-0.098c-0.049,0-0.104,0.01-0.154,0.032
			c-0.049,0.023-0.104,0.064-0.153,0.113v2.279c0.057,0.059,0.12,0.105,0.179,0.13c0.057,0.022,0.113,0.041,0.17,0.041
			c0.098,0,0.162-0.024,0.201-0.082c0.041-0.048,0.063-0.129,0.063-0.251v-1.891C14.664,15.873,14.643,15.785,14.584,15.72z"/>
	</g>
</g>
<g id="Layer_4" display="none">
	<g id="Pinterest_1_" display="inline">
		<circle fill="#BEC7D3" cx="13" cy="12.97" r="13"/>
		<path fill="#4A5877" d="M11.361,18.405c0.111-0.405,0.641-2.502,0.641-2.502c0.316,0.604,1.24,1.136,2.221,1.136
			c2.926,0,4.912-2.666,4.912-6.237c0-2.697-2.287-5.214-5.762-5.214c-4.324,0-6.503,3.103-6.503,5.687
			c0,1.564,0.592,2.957,1.865,3.477c0.207,0.085,0.395,0.004,0.452-0.227c0.043-0.16,0.144-0.564,0.188-0.73
			c0.059-0.229,0.037-0.309-0.133-0.508c-0.365-0.434-0.599-0.992-0.599-1.786c0-2.298,1.719-4.354,4.479-4.354
			c2.444,0,3.788,1.49,3.788,3.484c0,2.624-1.162,4.839-2.885,4.839c-0.954,0-1.665-0.788-1.438-1.754
			c0.271-1.151,0.803-2.397,0.803-3.229c0-0.742-0.398-1.365-1.227-1.365c-0.975,0-1.754,1.007-1.754,2.357
			c0,0.857,0.289,1.438,0.289,1.438s-0.995,4.221-1.17,4.958c-0.162,0.691-0.185,1.455-0.158,2.091l1.075,0.392
			C10.791,19.808,11.166,19.106,11.361,18.405z"/>
	</g>
</g>
<g id="Layer_5" display="none">
	<g display="inline">
		<circle fill="#92AAD6" cx="13" cy="12.97" r="13"/>
		<path fill="#FFFFFF" d="M11.359,18.406C11.47,18,12,15.904,12,15.904c0.316,0.604,1.24,1.135,2.221,1.135
			c2.926,0,4.912-2.666,4.912-6.237c0-2.698-2.287-5.214-5.762-5.214c-4.324,0-6.503,3.104-6.503,5.688
			c0,1.563,0.592,2.955,1.864,3.476c0.207,0.085,0.396,0.004,0.453-0.228c0.043-0.16,0.144-0.563,0.188-0.729
			c0.059-0.229,0.037-0.31-0.134-0.509c-0.364-0.434-0.598-0.991-0.598-1.785c0-2.299,1.719-4.355,4.479-4.355
			c2.444,0,3.788,1.491,3.788,3.485c0,2.624-1.162,4.839-2.885,4.839c-0.954,0-1.665-0.787-1.438-1.754
			c0.271-1.15,0.803-2.396,0.803-3.229c0-0.744-0.398-1.365-1.229-1.365c-0.973,0-1.754,1.006-1.754,2.355
			c0,0.858,0.289,1.439,0.289,1.439s-0.993,4.221-1.169,4.958c-0.162,0.692-0.184,1.454-0.157,2.091l1.073,0.391
			C10.789,19.809,11.166,19.105,11.359,18.406z"/>
	</g>
</g>
</svg>
