<?xml version="1.0" encoding="utf-8"?>
<!-- Generator: Adobe Illustrator 15.1.0, SVG Export Plug-In . SVG Version: 6.00 Build 0)  -->
<!DOCTYPE svg PUBLIC "-//W3C//DTD SVG 1.1//EN" "http://www.w3.org/Graphics/SVG/1.1/DTD/svg11.dtd">
<svg version="1.1" id="Layer_1" xmlns="http://www.w3.org/2000/svg" xmlns:xlink="http://www.w3.org/1999/xlink" x="0px" y="0px"
	 width="73.371px" height="51.39px" viewBox="0 0 73.371 51.39" enable-background="new 0 0 73.371 51.39" xml:space="preserve">
<g>
	<circle fill="#6C81BD" cx="54.336" cy="38.314" r="13.076"/>
	<g display="none">
		<path display="inline" fill="#FFFFFF" d="M53.724,38.99c0,0.707-0.076,1.313-0.229,1.819c-0.151,0.507-0.367,0.923-0.646,1.25
			s-0.611,0.567-1.002,0.72c-0.39,0.153-0.821,0.229-1.295,0.229c-0.475,0-0.905-0.076-1.295-0.229
			c-0.392-0.152-0.727-0.393-1.005-0.72c-0.28-0.327-0.498-0.743-0.652-1.25c-0.155-0.506-0.233-1.112-0.233-1.819v-1.634
			c0-0.706,0.077-1.313,0.229-1.819s0.369-0.92,0.648-1.246c0.28-0.324,0.614-0.563,1.002-0.717
			c0.389-0.152,0.818-0.229,1.292-0.229c0.475,0,0.905,0.077,1.296,0.229c0.39,0.152,0.725,0.393,1.005,0.717
			c0.279,0.326,0.497,0.74,0.651,1.246c0.155,0.508,0.232,1.113,0.232,1.819L53.724,38.99L53.724,38.99z M51.856,37.09
			c0-0.416-0.028-0.768-0.087-1.053c-0.06-0.283-0.146-0.514-0.259-0.688c-0.114-0.175-0.253-0.301-0.416-0.379
			c-0.164-0.077-0.351-0.116-0.557-0.116c-0.207,0-0.391,0.039-0.553,0.116c-0.161,0.078-0.298,0.204-0.41,0.379
			c-0.112,0.174-0.197,0.402-0.255,0.688c-0.059,0.285-0.088,0.637-0.088,1.053v2.146c0,0.422,0.03,0.777,0.091,1.065
			c0.062,0.288,0.146,0.522,0.259,0.7c0.111,0.18,0.249,0.308,0.413,0.386c0.164,0.077,0.349,0.116,0.556,0.116
			s0.393-0.039,0.557-0.116c0.163-0.078,0.301-0.206,0.41-0.386c0.108-0.178,0.192-0.412,0.252-0.7
			c0.059-0.288,0.087-0.644,0.087-1.065V37.09L51.856,37.09z"/>
		<path display="inline" fill="#FFFFFF" d="M60.507,39.34h1.065v1.505h-1.065v2.034H58.64v-2.034h-3.856l-0.084-1.177l3.922-6.194
			h1.887L60.507,39.34L60.507,39.34z M56.56,39.34h2.08v-3.321l-0.122,0.214L56.56,39.34z"/>
	</g>
	<g>
		<polygon fill="#6C81BD" points="0,0 73.371,3.109 73.371,26.279 0,27.461 		"/>
		<path fill="#FFFFFF" d="M15.815,8.553c-0.543-1.971,0.834-3.545,2.451-3.184c0.16,0.037,2.48,0.771,2.063,3.227l0.517,0.344
			l2.064-2.623l-0.259-0.602c-4.239-2.912-7.353-1.275-8.599,0.172c-4.522,5.234,2.512,8.188,3.769,10.85
			c1.462,3.094-3.64,6.191-5.832-0.4c-1.013,0.433-1.983,1.931-2.281,2.836c0.622,3.849,8.396,4.796,11.181-0.172
			C23.659,14.062,16.45,10.851,15.815,8.553z"/>
		<path fill="#FFFFFF" d="M60.276,14.615c0.417-1.295,1.376-3.269,1.376-3.269c-0.75-0.074-1.661,0.071-2.15,0.388l-1.074,0.815
			c-2.787-3.742-8.973,0.979-9.33,6.793c-0.229,0.411-1.008,1.045-1.494,0.604c-1.449-1.32,3.014-7.5,0.808-8.515
			c-2.359-1.086-4.202,1.209-6.265,3.287c0.259-0.996,0.618-2.05,1.126-3.203l-0.088,0.006l-3.095,0.123
			c-1.008,2.521-1.495,4.554-1.731,6.455c-0.031,0.026-0.063,0.056-0.097,0.082c-3.356,2.854-5.43,2.662-5.568,1.062
			c4.493-2.34,7.737-7.068,2.73-7.812c-3.822-0.567-6.965,3.472-6.234,7.996c-0.984,0.596-3.047,1.563-3.483-0.13
			c-0.148-0.581,0.188-1.813,1.548-5.795l2.108-0.225l0.171-1.828l-1.578,0.016c0.437-1.258,0.943-2.719,1.534-4.422l-4.127,0.474
			c-0.157,0.554-0.621,2.146-1.135,3.979l-1.849,0.019l-0.093,2.519l1.279-0.138c-0.618,2.3-1.158,4.466-1.171,5.103
			c-0.087,4.43,3.188,3.723,7.181,1.85c0.391,1.197,3.321,3.221,8.615-0.674c-0.028,0.643-0.037,1.285-0.037,1.941
			c1.019,0.086,2.565-0.32,3.268-0.646c0.063-1.923,0.165-3.132,0.446-4.972c1.331-1.508,2.67-2.762,3.441-2.608
			c1.015,0.2-4.5,9.063,1.58,8.123c1.46-0.228,2.18-1.199,2.443-1.703c1.867,3.492,4.464,1.817,7.116-1.097
			c-0.254,2.886,1.725,4.998,6.364,0.345v-2.106C59.688,21.584,58.75,19.359,60.276,14.615z M32.285,17.799
			c-0.69-3.83,1.841-5.684,2.628-5.207C35.966,13.229,35.158,16.231,32.285,17.799z M52.701,17.924
			c0.448-5.525,4.895-6.492,4.36-3.174C56.494,18.283,52.416,21.445,52.701,17.924z"/>
	</g>
</g>
</svg>
