<svg id="_01_Notebook_1366" data-name="01_Notebook_1366" xmlns="http://www.w3.org/2000/svg" viewBox="0 0 28.98 20"><defs><style>.cls-1{fill:#f1f1f2;}</style></defs><title>personal</title><g id="Полупрозрачный_хэдер_1920" data-name="Полупрозрачный хэдер 1920"><path class="cls-1" d="M8139.28,2024.07a10,10,0,1,0,10,10A10,10,0,0,0,8139.28,2024.07Zm0,17.2a7.2,7.2,0,0,1-6-3.22c0-2,4-3.08,6-3.08s6,1.1,6,3.08A7.2,7.2,0,0,1,8139.28,2041.27Zm0-14.2a3,3,0,1,1-3,3A3,3,0,0,1,8139.28,2027.07Z" transform="translate(-8129.28 -2024.07)"/><polygon class="cls-1" points="25.89 12.84 22.82 7.16 28.98 7.16 25.89 12.84"/></g></svg>