<svg id="_01_Notebook_1366" data-name="01_Notebook_1366" xmlns="http://www.w3.org/2000/svg" viewBox="0 0 18.49 18.49"><defs><style>.cls-1{fill:#c4c4c4;}</style></defs><title>44_Phone</title><g id="Footer_1920"><path id="Телефон_иконка" data-name="Телефон иконка" class="cls-1" d="M6867.44,6031.83a2.6,2.6,0,0,0-1.59-1.5l-2.43-.67a2.38,2.38,0,0,0-2.08.55l-0.88.88a9.33,9.33,0,0,1-6.56-6.57l0.88-.88a2.39,2.39,0,0,0,.54-2.08l-0.66-2.43a2.59,2.59,0,0,0-1.5-1.59l-0.28-.09a2.19,2.19,0,0,0-2.05.49l-1.32,1.31a2.47,2.47,0,0,0-.38.9,15.52,15.52,0,0,0,15.66,15.7,2.43,2.43,0,0,0,.95-0.38l1.32-1.32a2.2,2.2,0,0,0,.48-2.05Z" transform="translate(-6849.13 -6017.37)"/></g></svg>