<svg id="_01_Notebook_1366" data-name="01_Notebook_1366" xmlns="http://www.w3.org/2000/svg" viewBox="0 0 32.2 47.23"><defs><style>.cls-1{fill:#fff;}</style></defs><title>46_Man</title><g id="Footer_1920"><g id="Вход_для_дилеров" data-name="Вход для дилеров"><g id="Dealer"><path class="cls-1" d="M8043.81,5710.14c0.47,1,2.32,2.55,2.71,3.61a7,7,0,0,1,.08,1.56s3.57,2.29,4.92,2.21,4.51-2.71,4.51-2.71a9.35,9.35,0,0,1,.12-1.54c0.16-.54.88-1.46,1.11-2a22.6,22.6,0,0,0,1.15-3.36,34.28,34.28,0,0,0,.41-4.67c0-1.15-.61-3.53-0.16-4.59,0.12-.28.78-0.54,0.9-0.82a1.47,1.47,0,0,0,0-1.07c-0.27-.36-1.36-0.24-1.72-0.49-0.6-.42-1.2-1.86-1.72-2.38a10.78,10.78,0,0,0-3.53-2.46,10.24,10.24,0,0,0-4.34.66c-1,.36-2.52,1.78-3.44,2.21-0.56.26-1.95,0.29-2.38,0.74-0.79.81-1.22,3.21-1.23,4.34,0,1.29,1,3.75,1.31,5C8042.84,5705.83,8043.19,5708.8,8043.81,5710.14Z" transform="translate(-8035.36 -5691.38)"/><path class="cls-1" d="M8067.09,5722.45a17.58,17.58,0,0,0-2.84-2.87c-1.09-.88-4.7-3-4.7-3l-5.47,11.71s-1.41-5.6-1.6-7.51a3.26,3.26,0,0,1,0-1,6.67,6.67,0,0,1,.89-1.25l-4.24,0a6.93,6.93,0,0,1,1,1.31,3,3,0,0,1,0,.89c-0.12,1.9-1.08,7.53-1.08,7.53l-5.59-11.56s-1.7.79-2.24,1.1c-0.7.4-2,1.32-2.67,1.8a20.73,20.73,0,0,0-2,1.7,5.49,5.49,0,0,0-1.1,1.5,4.15,4.15,0,0,0,.1,1.74,10.79,10.79,0,0,0,1.1,2c0.49,0.77,1.56,2.26,2.14,3s2.13,2.45,2.9,3.2a39.83,39.83,0,0,0,3.8,3.27,25.83,25.83,0,0,0,4,2.17,11.25,11.25,0,0,0,2,.5,6.4,6.4,0,0,0,1.37,0,10,10,0,0,0,2-.7,29.73,29.73,0,0,0,4.44-2.87,41.88,41.88,0,0,0,4.67-4.87,30.94,30.94,0,0,0,3.17-5,4.59,4.59,0,0,0,.4-1.54A3.34,3.34,0,0,0,8067.09,5722.45Zm-3,4.31h-6v-1.86h6v1.86Z" transform="translate(-8035.36 -5691.38)"/></g></g></g></svg>