<svg id="_01_Notebook_1366" data-name="01_Notebook_1366" xmlns="http://www.w3.org/2000/svg" viewBox="0 0 18.22 18.22"><defs><style>.cls-1{fill:#e6e7e8;}</style></defs><title>47_Phone</title><g id="Header_1920_03_Tranparent"><path id="Телефон_иконка" data-name="Телефон иконка" class="cls-1" d="M7510.15,1390.5a2.57,2.57,0,0,0-1.57-1.48l-2.39-.66a2.34,2.34,0,0,0-2,.54l-0.87.86a9.19,9.19,0,0,1-6.47-6.47l0.87-.86a2.35,2.35,0,0,0,.54-2.05l-0.65-2.39a2.55,2.55,0,0,0-1.48-1.57l-0.27-.09a2.16,2.16,0,0,0-2,.48l-1.3,1.3a2.42,2.42,0,0,0-.38.89,15.29,15.29,0,0,0,15.43,15.47,2.38,2.38,0,0,0,.93-0.38l1.3-1.3a2.17,2.17,0,0,0,.48-2Z" transform="translate(-7492.1 -1376.25)"/></g></svg>