<svg id="_01_Notebook_1366" data-name="01_Notebook_1366" xmlns="http://www.w3.org/2000/svg" viewBox="0 0 18.67 18.67"><defs><style>.cls-1{fill:#404041;}</style></defs><title>48_Close</title><g id="Menu"><path class="cls-1" d="M8440,1477.71l-14.59-14.59a1.53,1.53,0,0,0-2.17,0l-1,1a1.53,1.53,0,0,0,0,2.17l14.59,14.59a1.54,1.54,0,0,0,2.17,0l1-1A1.53,1.53,0,0,0,8440,1477.71Z" transform="translate(-8421.76 -1462.67)"/><path class="cls-1" d="M8436.8,1463.12l-14.59,14.59a1.53,1.53,0,0,0,0,2.17l1,1a1.54,1.54,0,0,0,2.17,0L8440,1466.3a1.53,1.53,0,0,0,0-2.17l-1-1A1.53,1.53,0,0,0,8436.8,1463.12Z" transform="translate(-8421.76 -1462.67)"/></g></svg>