<svg id="_01_Notebook_1366" data-name="01_Notebook_1366" xmlns="http://www.w3.org/2000/svg" viewBox="0 0 23.7 20"><defs><style>.cls-1{fill:#fff;}</style></defs><title>49_Menu</title><g id="Header_1920_03_Tranparent"><rect class="cls-1" y="7.75" width="23.7" height="4.5" rx="1.53" ry="1.53"/><path class="cls-1" d="M1.54,0H22.17A1.53,1.53,0,0,1,23.7,1.53V3A1.53,1.53,0,0,1,22.17,4.5H1.53A1.53,1.53,0,0,1,0,3V1.54A1.54,1.54,0,0,1,1.54,0Z"/><path class="cls-1" d="M1.53,15.5H22.17A1.53,1.53,0,0,1,23.7,17v1.43A1.54,1.54,0,0,1,22.16,20H1.53A1.53,1.53,0,0,1,0,18.47V17A1.53,1.53,0,0,1,1.53,15.5Z"/></g></svg>