<?xml version="1.0" encoding="utf-8"?><!DOCTYPE svg PUBLIC "-//W3C//DTD SVG 1.1//EN" "http://www.w3.org/Graphics/SVG/1.1/DTD/svg11.dtd"><svg xmlns="http://www.w3.org/2000/svg" xmlns:xlink="http://www.w3.org/1999/xlink"><symbol viewBox="71.541 87.402 56.086 25" id="02_Logo"><path fill="#DFDFDF" d="M71.541 93.977l.877 18.425 46.227-3.893V93.977z"/><path fill="#BAB693" d="M74.535 90.47l.666 19.085 48.701-3.091V91.857z"/><path fill="#6C81BD" d="M77.676 87.402l49.951 2.118v15.776l-49.951.804z"/><path fill="#FFF" d="M88.441 93.227c-.367-1.343.567-2.414 1.67-2.168.108.025 1.688.526 1.406 2.196l.35.233 1.406-1.784-.177-.41c-2.887-1.981-5.006-.868-5.854.117-3.078 3.563 1.711 5.575 2.566 7.387.995 2.106-2.479 4.216-3.972-.272-.688.295-1.35 1.314-1.553 1.933.424 2.618 5.717 3.264 7.611-.117 1.889-3.363-3.019-5.55-3.453-7.115z"/><path fill="#FFF" d="M118.711 97.354c.285-.881.938-2.225.938-2.225-.51-.051-1.129.049-1.463.264l-.731.555c-1.897-2.549-6.106.668-6.353 4.625-.156.28-.688.711-1.019.409-.987-.896 2.051-5.104.549-5.794-1.604-.738-2.86.822-4.264 2.238.176-.679.42-1.396.766-2.181l-.061.003-2.105.085c-.686 1.715-1.02 3.099-1.18 4.394-.021.021-.043.039-.063.057-2.285 1.94-3.697 1.813-3.792.722 3.06-1.592 5.267-4.812 1.857-5.317-2.603-.388-4.74 2.363-4.244 5.444-.67.405-2.074 1.063-2.371-.088-.102-.396.127-1.235 1.054-3.946l1.438-.152.115-1.246-1.074.011c.295-.856.643-1.851 1.045-3.011l-2.811.322c-.107.375-.422 1.459-.771 2.709l-1.26.012-.063 1.715.871-.094c-.42 1.564-.789 3.041-.797 3.475-.059 3.016 2.17 2.534 4.89 1.258.266.815 2.262 2.192 5.864-.457a28.9 28.9 0 0 0-.023 1.321c.691.06 1.746-.22 2.225-.438.043-1.31.111-2.132.305-3.384.904-1.025 1.818-1.881 2.344-1.775.689.138-3.063 6.17 1.074 5.529a2.233 2.233 0 0 0 1.664-1.158c1.271 2.375 3.039 1.238 4.848-.748-.176 1.965 1.172 3.404 4.332.234v-1.436c-2.132 2.812-2.771 1.298-1.734-1.932zm-19.055 2.167c-.474-2.606 1.252-3.869 1.79-3.545.716.436.165 2.48-1.79 3.545zm13.901.086c.307-3.762 3.332-4.42 2.969-2.16-.389 2.405-3.165 4.558-2.969 2.16z"/><g fill="#FFF"><path d="M107.6 93.704c-.33-.015-.588-.093-.774-.255a.942.942 0 0 1-.326-.688 1.585 1.585 0 0 1 .099-.65 1.329 1.329 0 0 1 .771-.822c.414-.178 1.055-.195 1.452.074l-.104.617h-.072c-.307-.228-.604-.256-.857-.176a.76.76 0 0 0-.539.633c-.092.569.443.93 1.26.469h.057l-.104.613a1.702 1.702 0 0 1-.863.185zM117.943 91.232l-.099.569h-.865l-.061.332h.783l-.092.535h-.783l-.064.381h.867l-.104.592h-1.627l.415-2.409zM119.475 93.641h-1.588l.416-2.409h.763l-.314 1.831h.82zM110.391 93.641h-1.584l.418-2.409h.759l-.314 1.831h.82zM112.043 91.232h.793l.574 2.409h-.721l-.037-.153-.455.61.418-.77-.037-.154-.65.926.603-1.127-.039-.162-.847 1.289.796-1.504-.041-.175-1.043 1.681.993-1.907-.059-.232-.916 1.678h-.752zM114.688 93.641h-.792l-.576-2.409h.721l.035.151.457-.61-.418.771.037.155.651-.926-.604 1.125.039.165.848-1.29-.797 1.502.041.176 1.045-1.68-.992 1.906.055.231.917-1.676h.752z"/></g></symbol><symbol viewBox="16.48 78.917 167.967 42.545" id="03_Logo"><path fill="#DFDFDF" d="M16.48 90.104l1.494 31.358 78.674-6.623V90.104z"/><path fill="#BAB693" d="M21.576 84.137l1.135 32.478 82.889-5.258V86.499z"/><path fill="#6C81BD" d="M26.922 78.917l85.014 3.603v26.85l-85.014 1.366z"/><path fill="#FFF" d="M45.246 88.826c-.627-2.282.967-4.106 2.84-3.688.188.041 2.877.895 2.394 3.738l.598.398 2.393-3.039-.299-.699c-4.912-3.373-8.52-1.477-9.965.199-5.24 6.065 2.91 9.486 4.367 12.572 1.694 3.587-4.219 7.175-6.758-.464-1.175.503-2.3 2.234-2.646 3.287.721 4.458 9.729 5.556 12.955-.198 3.209-5.719-5.143-9.44-5.879-12.106z"/><path fill="#FFF" d="M96.762 95.85c.486-1.498 1.597-3.783 1.597-3.783-.869-.088-1.924.084-2.492.447l-1.244.947c-3.23-4.338-10.396 1.133-10.813 7.871-.265.477-1.166 1.211-1.73.697-1.68-1.529 3.492-8.689.936-9.865-2.733-1.256-4.868 1.402-7.258 3.811a24.035 24.035 0 0 1 1.306-3.711l-.103.004-3.588.146c-1.164 2.918-1.73 5.271-2.006 7.477-.035.033-.074.064-.111.096-3.889 3.308-6.291 3.086-6.451 1.23 5.205-2.711 8.965-8.189 3.164-9.053-4.43-.658-8.069 4.023-7.225 9.268-1.141.689-3.531 1.813-4.037-.147-.172-.677.217-2.104 1.791-6.715l2.447-.262.197-2.117-1.828.019c.504-1.459 1.092-3.151 1.776-5.125l-4.782.549c-.183.64-.72 2.481-1.314 4.613l-2.143.021-.107 2.916 1.484-.16c-.718 2.666-1.343 5.176-1.357 5.915-.1 5.131 3.695 4.313 8.322 2.141.449 1.391 3.846 3.732 9.979-.78a52.348 52.348 0 0 0-.041 2.25c1.179.101 2.972-.371 3.783-.748.072-2.228.191-3.629.521-5.758 1.541-1.748 3.092-3.203 3.987-3.022 1.174.231-5.215 10.5 1.83 9.41a3.815 3.815 0 0 0 2.832-1.971c2.164 4.043 5.172 2.105 8.244-1.271-.295 3.342 1.998 5.791 7.375.397v-2.442c-3.621 4.782-4.707 2.203-2.941-3.295zM64.33 99.542c-.801-4.438 2.133-6.588 3.045-6.033 1.222.738.285 4.218-3.045 6.033zm23.656.144c.52-6.399 5.67-7.521 5.053-3.678-.658 4.094-5.383 7.762-5.053 3.678z"/><g><g fill="#E7E7E8"><path d="M119.896 89.533c-.465.38-1.006.57-1.621.57a2.497 2.497 0 0 1-1.832-.758 2.487 2.487 0 0 1-.762-1.832c0-.715.252-1.324.762-1.832a2.497 2.497 0 0 1 1.832-.758c.707 0 1.316.254 1.828.758.506.508.76 1.117.76 1.832v2.57a2.026 2.026 0 0 1-.385 1.174 2.388 2.388 0 0 1-.426.445 2.854 2.854 0 0 1-1.742.619 2.753 2.753 0 0 1-1.989-.832 2.828 2.828 0 0 1-.451-.609.445.445 0 0 1-.072-.26c0-.139.045-.254.141-.346a.479.479 0 0 1 .348-.135c.092 0 .168.021.229.063.063.043.143.139.248.286.104.146.195.261.275.336.354.354.775.529 1.271.529.498 0 .922-.174 1.268-.52.211-.258.318-.51.318-.754v-.546zm-1.621-3.642a1.616 1.616 0 0 0-1.501.996 1.586 1.586 0 0 0-.127.63c0 .223.043.432.127.629a1.624 1.624 0 0 0 2.648.514c.148-.148.266-.32.35-.516.086-.195.127-.404.127-.627a1.603 1.603 0 0 0-.477-1.144 1.63 1.63 0 0 0-.514-.353 1.572 1.572 0 0 0-.633-.129zM125.541 88.646c.141 0 .254.047.346.137a.464.464 0 0 1 .137.347.474.474 0 0 1-.141.347 2.474 2.474 0 0 1-1.689.629 2.497 2.497 0 0 1-1.832-.758 2.507 2.507 0 0 1-.756-1.832c0-.716.252-1.324.756-1.832a2.498 2.498 0 0 1 1.832-.759c.709 0 1.316.255 1.83.759.254.25.441.528.566.836.127.307.189.639.189.996a.458.458 0 0 1-.143.344.47.47 0 0 1-.344.137h-3.662a1.632 1.632 0 0 0 .587.826c.139.102.289.178.453.232.164.057.338.084.518.084.205 0 .389-.031.559-.093s.328-.153.473-.278a.512.512 0 0 1 .321-.122zm.211-1.613a1.705 1.705 0 0 0-.234-.467c-.105-.139-.225-.258-.359-.358s-.289-.179-.453-.231c-.166-.058-.336-.084-.512-.084s-.348.026-.514.084a1.72 1.72 0 0 0-.459.231 1.562 1.562 0 0 0-.588.825h3.119zM127.506 85.406c0-.063.014-.127.037-.188.025-.057.063-.109.104-.154s.092-.078.149-.102a.48.48 0 0 1 .668.444v1.636l2.356-1.996a.478.478 0 0 1 .761.174.476.476 0 0 1-.105.53l-2.067 1.752 2.073 1.777c.093.09.138.207.138.346a.454.454 0 0 1-.039.184.456.456 0 0 1-.104.154.468.468 0 0 1-.339.142.452.452 0 0 1-.313-.115l-2.162-1.852-.199.172v1.313a.538.538 0 0 1-.036.185.5.5 0 0 1-.256.257.467.467 0 0 1-.188.037.467.467 0 0 1-.441-.294.47.47 0 0 1-.037-.185v-4.217zM137.289 87.514a2.48 2.48 0 0 1-.756 1.832 2.531 2.531 0 0 1-1.834.758 2.506 2.506 0 0 1-1.83-.758 2.5 2.5 0 0 1-.758-1.832 2.5 2.5 0 0 1 .758-1.832 2.506 2.506 0 0 1 1.83-.758c.709 0 1.32.254 1.834.758.25.254.438.533.563.838s.191.636.193.994zm-2.59-1.623a1.61 1.61 0 0 0-1.497.996 1.553 1.553 0 0 0-.127.63 1.636 1.636 0 0 0 .983 1.495c.201.086.412.129.641.129.227 0 .438-.043.635-.129.197-.086.369-.203.516-.352a1.7 1.7 0 0 0 .348-.516c.086-.197.129-.404.129-.627 0-.224-.043-.431-.129-.627a1.664 1.664 0 0 0-.864-.87 1.578 1.578 0 0 0-.635-.129zM140.619 90.104c-.621 0-1.162-.19-1.623-.57v2.31a.464.464 0 0 1-.141.345c-.098.092-.209.137-.348.137s-.254-.045-.344-.137a.469.469 0 0 1-.137-.345v-4.327c0-.716.252-1.324.76-1.832a2.5 2.5 0 0 1 1.83-.759c.707 0 1.316.255 1.828.759.256.25.443.528.57.836.125.307.188.639.188.996 0 .723-.254 1.332-.76 1.832-.26.254-.537.444-.844.569-.3.124-.625.186-.979.186zm-1.623-2.59a1.654 1.654 0 0 0 .469 1.145c.148.146.316.265.518.351.193.086.41.13.639.13.225 0 .436-.044.633-.13a1.637 1.637 0 0 0 .864-.869c.086-.195.127-.404.127-.627 0-.223-.041-.43-.127-.627a1.677 1.677 0 0 0-.346-.516 1.617 1.617 0 0 0-1.151-.481c-.229 0-.443.043-.639.129a1.697 1.697 0 0 0-.518.35 1.654 1.654 0 0 0-.469 1.145zM148.158 89.624v-.095c-.23.187-.482.328-.754.427a2.475 2.475 0 0 1-.869.147 2.502 2.502 0 0 1-1.83-.758 2.501 2.501 0 0 1-.76-1.832c0-.715.254-1.324.76-1.832a2.502 2.502 0 0 1 1.83-.758 2.53 2.53 0 0 1 1.832.758c.504.508.758 1.117.758 1.832v2.109a.456.456 0 0 1-.143.338.459.459 0 0 1-.338.143.462.462 0 0 1-.348-.143.466.466 0 0 1-.138-.336zm-1.623-3.733a1.619 1.619 0 0 0-1.497.996 1.521 1.521 0 0 0-.129.63c0 .223.041.432.129.629a1.636 1.636 0 0 0 .858.866c.196.086.408.129.639.129.225 0 .438-.043.633-.129.199-.086.369-.203.52-.352a1.66 1.66 0 0 0 .346-.516c.084-.197.127-.404.127-.627 0-.224-.043-.431-.127-.627a1.644 1.644 0 0 0-.866-.87 1.551 1.551 0 0 0-.633-.129zM157.176 89.617c0 .138-.051.25-.145.345a.447.447 0 0 1-.338.144.454.454 0 0 1-.344-.144.464.464 0 0 1-.137-.345v-2.631a1.114 1.114 0 0 0-.32-.77 1.086 1.086 0 0 0-1.208-.238c-.137.06-.25.137-.352.236a.99.99 0 0 0-.234.346 1.047 1.047 0 0 0-.086.426v2.631a.47.47 0 0 1-.143.345.454.454 0 0 1-.34.144.464.464 0 0 1-.346-.144.468.468 0 0 1-.141-.345v-2.631a.979.979 0 0 0-.09-.426 1.137 1.137 0 0 0-.23-.346c-.102-.1-.219-.178-.352-.236s-.273-.088-.426-.088c-.148 0-.291.029-.424.086s-.248.135-.351.234a1.094 1.094 0 0 0-.319.776v2.631c0 .138-.049.25-.144.345a.457.457 0 0 1-.341.144.457.457 0 0 1-.344-.144.461.461 0 0 1-.142-.345v-4.211c0-.135.046-.248.142-.342a.463.463 0 0 1 .34-.141c.107 0 .203.029.287.09.082.061.14.139.17.24.33-.221.705-.33 1.123-.33.31 0 .599.063.871.182.271.123.508.31.711.553.429-.487.953-.733 1.576-.733.281 0 .547.056.797.166.254.106.472.257.656.442.188.187.336.404.444.656.108.25.166.517.166.797v2.631h.014zM162.338 90.104a.454.454 0 0 1-.342-.139.484.484 0 0 1-.139-.338 2.19 2.19 0 0 1-.678.363 2.517 2.517 0 0 1-.771.113 2.33 2.33 0 0 1-.934-.191 2.434 2.434 0 0 1-.766-.521 2.39 2.39 0 0 1-.521-.768 2.288 2.288 0 0 1-.19-.934v-2.283c0-.135.043-.248.142-.342a.465.465 0 0 1 .344-.141c.134 0 .246.047.338.141a.447.447 0 0 1 .142.342v2.283c0 .201.039.39.117.564.073.176.176.328.312.459a1.433 1.433 0 0 0 1.02.424 1.46 1.46 0 0 0 1.452-1.448v-2.283c0-.135.047-.248.141-.342s.209-.141.344-.141.246.047.34.141a.453.453 0 0 1 .145.342v4.218a.452.452 0 0 1-.145.338.489.489 0 0 1-.351.143zM165.773 84.924c.211 0 .406.041.592.123.188.082.35.191.49.33.137.139.248.303.332.486.078.188.121.387.121.596 0 .33-.092.619-.266.869.104.094.191.186.27.277.074.094.141.188.191.289.049.098.09.201.113.311.027.109.039.23.039.363 0 .209-.039.406-.121.594a1.514 1.514 0 0 1-.814.818 1.465 1.465 0 0 1-.598.123h-2.109a.496.496 0 0 1-.188-.037.481.481 0 0 1-.258-.259.551.551 0 0 1-.035-.184v-4.217a.466.466 0 0 1 .293-.444.468.468 0 0 1 .188-.039l1.76.001zm0 2.109c.07 0 .145-.016.215-.045a.545.545 0 0 0 .184-.121.555.555 0 0 0 .123-.629.545.545 0 0 0-.123-.18.558.558 0 0 0-.18-.121.529.529 0 0 0-.219-.047h-1.275v1.143h1.275zm.352 2.104c.076 0 .15-.016.219-.045a.526.526 0 0 0 .184-.121.606.606 0 0 0 .17-.403.61.61 0 0 0-.172-.411.607.607 0 0 0-.401-.166h-1.627v1.144l1.627.002zM169.309 87.995v1.629a.537.537 0 0 1-.035.185.425.425 0 0 1-.104.153.473.473 0 0 1-.34.141.478.478 0 0 1-.482-.479v-4.218c0-.063.016-.127.036-.188a.465.465 0 0 1 .258-.256.494.494 0 0 1 .188-.039.49.49 0 0 1 .444.295.55.55 0 0 1 .035.188v1.627h2.375v-1.627c0-.063.01-.127.034-.188.025-.057.06-.109.103-.154s.095-.078.154-.102a.472.472 0 0 1 .526.102.588.588 0 0 1 .104.154.55.55 0 0 1 .035.188v4.218a.537.537 0 0 1-.035.185.482.482 0 0 1-.104.153.427.427 0 0 1-.15.104.485.485 0 0 1-.376 0 .416.416 0 0 1-.154-.104.58.58 0 0 1-.103-.153.486.486 0 0 1-.034-.185v-1.629h-2.375zM174.299 87.033h1.447c.209 0 .408.041.594.123.188.082.352.189.488.33.14.14.248.302.33.488s.123.385.123.594c0 .213-.041.412-.123.601a1.496 1.496 0 0 1-.33.483 1.514 1.514 0 0 1-1.082.451h-1.928a.482.482 0 0 1-.343-.141.5.5 0 0 1-.104-.153.489.489 0 0 1-.037-.185V85.4a.483.483 0 0 1 .144-.332.484.484 0 0 1 .682-.001.596.596 0 0 1 .104.154.523.523 0 0 1 .035.188v1.624zm1.447 2.104a.587.587 0 0 0 .411-.17.582.582 0 0 0 .119-.184.524.524 0 0 0 0-.436.59.59 0 0 0-.127-.183.518.518 0 0 0-.184-.125.563.563 0 0 0-.219-.048h-1.447v1.144l1.447.002zm1.983.48v-4.206c0-.136.047-.253.144-.347a.455.455 0 0 1 .338-.141c.131 0 .248.047.34.141a.474.474 0 0 1 .146.347v4.206a.484.484 0 0 1-.146.345.454.454 0 0 1-.34.144.447.447 0 0 1-.338-.144.457.457 0 0 1-.144-.345zM183.205 88.646c.143 0 .256.047.346.137a.451.451 0 0 1 .139.347.474.474 0 0 1-.141.347 2.477 2.477 0 0 1-1.689.629 2.496 2.496 0 0 1-1.83-.758 2.5 2.5 0 0 1-.758-1.832c0-.716.252-1.324.758-1.832a2.497 2.497 0 0 1 1.83-.759c.711 0 1.316.255 1.83.759.254.25.443.528.568.836.125.307.189.639.189.996a.46.46 0 0 1-.145.344.47.47 0 0 1-.344.137h-3.662c.053.17.131.326.23.467a1.633 1.633 0 0 0 .81.591c.166.057.338.084.518.084.201 0 .389-.031.561-.093.17-.062.326-.153.471-.278a.516.516 0 0 1 .319-.122zm.209-1.613a1.542 1.542 0 0 0-.591-.825 1.515 1.515 0 0 0-.453-.231 1.508 1.508 0 0 0-.51-.084c-.174 0-.35.026-.512.084a1.635 1.635 0 0 0-.82.589 1.562 1.562 0 0 0-.229.467h3.115zM119.621 98.602c.143 0 .256.045.346.137a.461.461 0 0 1 .139.347.49.49 0 0 1-.15.354 2.49 2.49 0 0 1-1.688.629 2.498 2.498 0 0 1-1.832-.76 2.491 2.491 0 0 1-.761-1.83c0-.717.255-1.326.761-1.83a2.496 2.496 0 0 1 1.832-.76c.649 0 1.211.211 1.688.631a.469.469 0 0 1 .166.365.487.487 0 0 1-.137.346.47.47 0 0 1-.348.142.491.491 0 0 1-.313-.113 1.777 1.777 0 0 0-.494-.301 1.61 1.61 0 0 0-1.718.373 1.576 1.576 0 0 0-.35.517 1.56 1.56 0 0 0-.131.633c0 .225.045.436.131.633a1.639 1.639 0 0 0 1.505.991 1.547 1.547 0 0 0 1.053-.399.49.49 0 0 1 .301-.105zM128.174 99.585a.473.473 0 0 1-.143.345.472.472 0 0 1-.342.141.458.458 0 0 1-.34-.141.479.479 0 0 1-.141-.345v-2.634a1.099 1.099 0 0 0-.32-.77 1.099 1.099 0 0 0-.78-.326c-.153 0-.295.029-.426.088-.137.06-.25.138-.352.236-.1.1-.18.213-.234.346a1.056 1.056 0 0 0-.088.427v2.633a.471.471 0 0 1-.141.345.47.47 0 0 1-.338.141.478.478 0 0 1-.346-.141.475.475 0 0 1-.145-.345v-2.633c0-.15-.025-.294-.086-.427a1.179 1.179 0 0 0-.236-.346 1.082 1.082 0 0 0-.348-.236c-.133-.059-.271-.088-.424-.088s-.293.029-.426.086a1.078 1.078 0 0 0-.67 1.01v2.634a.485.485 0 1 1-.972 0v-4.213c0-.134.049-.246.143-.343a.47.47 0 0 1 .34-.141c.109 0 .205.031.287.092.084.06.141.142.172.236a1.977 1.977 0 0 1 1.123-.328c.305 0 .598.061.867.184.271.121.51.308.715.554.428-.49.951-.735 1.576-.735.277 0 .545.055.797.166.25.108.469.256.658.44a2.108 2.108 0 0 1 .605 1.455v2.633h.015zM132.939 98.613a.465.465 0 0 1 .481.48.486.486 0 0 1-.139.349 2.492 2.492 0 0 1-1.691.629 2.495 2.495 0 0 1-1.832-.76 2.496 2.496 0 0 1-.758-1.83c0-.717.254-1.326.758-1.83a2.495 2.495 0 0 1 1.832-.76c.707 0 1.316.254 1.83.76a2.478 2.478 0 0 1 .755 1.83.478.478 0 0 1-.487.481h-3.66c.053.17.129.324.229.465a1.616 1.616 0 0 0 .812.593c.162.055.336.084.516.084a1.56 1.56 0 0 0 1.032-.369.48.48 0 0 1 .322-.122zm.206-1.614a1.586 1.586 0 0 0-.589-.826 1.629 1.629 0 0 0-.453-.231 1.605 1.605 0 0 0-1.025 0 1.75 1.75 0 0 0-.459.231 1.688 1.688 0 0 0-.361.36c-.1.142-.176.296-.225.466h3.112zM135.869 97.96v1.629a.477.477 0 0 1-.141.341.673.673 0 0 1-.154.104.512.512 0 0 1-.376 0 .474.474 0 0 1-.26-.26.436.436 0 0 1-.039-.185v-4.217c0-.065.012-.127.039-.187a.42.42 0 0 1 .104-.156.546.546 0 0 1 .156-.104.512.512 0 0 1 .376 0 .565.565 0 0 1 .154.104.616.616 0 0 1 .104.156.466.466 0 0 1 .037.187v1.627h2.371v-1.627a.52.52 0 0 1 .037-.187.507.507 0 0 1 .104-.156.554.554 0 0 1 .152-.104.504.504 0 0 1 .377 0 .478.478 0 0 1 .291.447v4.217a.49.49 0 0 1-.139.341.554.554 0 0 1-.152.104.5.5 0 0 1-.377 0 .456.456 0 0 1-.152-.104.583.583 0 0 1-.104-.156.504.504 0 0 1-.037-.185V97.96h-2.371zM145.088 97.479c0 .723-.252 1.332-.758 1.83a2.513 2.513 0 0 1-1.83.76 2.49 2.49 0 0 1-1.83-.76 2.48 2.48 0 0 1-.758-1.83c0-.717.25-1.326.758-1.83a2.49 2.49 0 0 1 1.83-.76c.709 0 1.318.254 1.83.76.252.252.443.531.568.836.123.305.188.637.19.994zm-2.588-1.624c-.229 0-.439.045-.639.129a1.623 1.623 0 0 0-.86.868 1.582 1.582 0 0 0-.127.629 1.648 1.648 0 0 0 .471 1.145 1.607 1.607 0 0 0 1.155.479c.227 0 .438-.045.633-.129a1.685 1.685 0 0 0 .866-.868c.084-.197.125-.404.125-.627 0-.224-.041-.433-.125-.625a1.745 1.745 0 0 0-.348-.519 1.599 1.599 0 0 0-1.151-.482zM148.051 94.889a1.52 1.52 0 0 1 1.084.455c.139.137.248.301.33.486.08.188.123.385.123.596 0 .33-.086.619-.266.869.102.09.189.184.27.277.076.092.143.188.191.285.051.1.09.203.115.313a1.617 1.617 0 0 1-.08.957c-.08.186-.189.348-.328.488a1.558 1.558 0 0 1-.488.328 1.437 1.437 0 0 1-.6.125h-2.107a.472.472 0 0 1-.44-.296.468.468 0 0 1-.039-.185V95.37c0-.065.014-.128.039-.187a.463.463 0 0 1 .44-.297h1.756v.003zm0 2.11a.641.641 0 0 0 .219-.043.629.629 0 0 0 .182-.121.523.523 0 0 0 .125-.183.546.546 0 0 0 0-.448.554.554 0 0 0-.123-.18.58.58 0 0 0-.18-.125.573.573 0 0 0-.223-.045h-1.271v1.143l1.271.002zm.351 2.103a.574.574 0 0 0 .526-.346.575.575 0 0 0 .043-.225.55.55 0 0 0-.352-.529.59.59 0 0 0-.217-.045h-1.625v1.144l1.625.001zM151.584 96.999h1.447c.211 0 .408.041.594.121a1.565 1.565 0 0 1 .82.819c.078.187.119.383.119.592 0 .216-.041.414-.119.601a1.58 1.58 0 0 1-.332.488 1.573 1.573 0 0 1-.488.327c-.186.08-.383.121-.594.121h-1.928a.494.494 0 0 1-.189-.037.517.517 0 0 1-.154-.104.535.535 0 0 1-.105-.156.496.496 0 0 1-.033-.184v-4.223a.508.508 0 0 1 .141-.332.595.595 0 0 1 .152-.104.442.442 0 0 1 .191-.041.52.52 0 0 1 .184.036.496.496 0 0 1 .156.104c.045.047.08.098.104.156a.5.5 0 0 1 .035.186v1.63h-.001zm1.447 2.103c.08 0 .156-.016.227-.049a.57.57 0 0 0 .186-.123.572.572 0 0 0-.194-.926.53.53 0 0 0-.219-.047h-1.447v1.144l1.447.001zm1.985.483v-4.209c0-.136.047-.25.142-.347a.465.465 0 0 1 .338-.141.487.487 0 0 1 .488.488v4.209a.488.488 0 0 1-.488.486.465.465 0 0 1-.338-.141.478.478 0 0 1-.142-.345zM160.494 98.613a.47.47 0 0 1 .346.134c.09.092.135.207.135.346a.47.47 0 0 1-.139.349 2.488 2.488 0 0 1-1.691.629 2.493 2.493 0 0 1-1.83-.76 2.488 2.488 0 0 1-.758-1.83c0-.717.252-1.326.758-1.83a2.493 2.493 0 0 1 1.83-.76 2.51 2.51 0 0 1 1.83.76c.254.25.443.524.568.832.125.309.189.641.189.998a.476.476 0 0 1-.487.481h-3.662a1.63 1.63 0 0 0 1.556 1.142c.201 0 .391-.029.559-.095.172-.062.328-.151.473-.274a.487.487 0 0 1 .323-.122zm.207-1.614a1.626 1.626 0 0 0-2.07-1.057 1.75 1.75 0 0 0-.459.231 1.544 1.544 0 0 0-.357.36 1.557 1.557 0 0 0-.229.466h3.115zM116.645 105.331c.41-.317.896-.478 1.448-.478.324 0 .632.063.925.188.289.127.547.299.771.517.221.219.396.473.522.768.131.296.194.607.194.941v2.278c0 .138-.047.25-.142.345a.462.462 0 0 1-.338.143.472.472 0 0 1-.346-.143.457.457 0 0 1-.142-.345v-2.278c0-.197-.041-.386-.115-.562-.077-.177-.185-.328-.313-.459s-.282-.235-.457-.313a1.464 1.464 0 0 0-1.125-.004 1.545 1.545 0 0 0-.459.313 1.464 1.464 0 0 0-.313.461 1.45 1.45 0 0 0-.112.562v2.278c0 .138-.045.25-.14.345a.469.469 0 0 1-.34.144.47.47 0 0 1-.345-.144.463.463 0 0 1-.144-.345v-4.207a.47.47 0 0 1 .144-.344.466.466 0 0 1 .345-.144c.133 0 .244.049.34.144a.474.474 0 0 1 .142.339zM126.412 107.443c0 .722-.254 1.33-.76 1.83-.514.506-1.121.76-1.832.76a2.493 2.493 0 0 1-1.83-.76 2.5 2.5 0 0 1-.758-1.83c0-.715.254-1.326.758-1.832a2.5 2.5 0 0 1 1.83-.758c.711 0 1.318.254 1.832.758.252.254.439.533.566.838.126.306.19.638.194.994zm-2.592-1.623c-.229 0-.439.043-.637.129a1.702 1.702 0 0 0-.516.351c-.146.146-.26.317-.344.517a1.587 1.587 0 0 0 0 1.259c.084.196.197.368.344.514.146.147.316.267.516.351.195.088.406.129.637.129.227 0 .436-.041.635-.129.197-.084.371-.201.518-.351.146-.149.26-.319.346-.516a1.57 1.57 0 0 0 .127-.628c0-.223-.043-.43-.127-.627a1.65 1.65 0 0 0-.864-.868 1.543 1.543 0 0 0-.635-.131zM127.137 105.335a.453.453 0 0 1 .141-.338.413.413 0 0 1 .15-.104.538.538 0 0 1 .188-.037c.067 0 .131.015.19.037a.519.519 0 0 1 .252.255.5.5 0 0 1 .034.187v1.64l2.361-2a.455.455 0 0 1 .317-.119.462.462 0 0 1 .339.141.528.528 0 0 1 .104.151c.027.06.039.123.039.187a.462.462 0 0 1-.144.345l-2.065 1.752 2.072 1.774a.47.47 0 0 1 .137.349.498.498 0 0 1-.294.442.546.546 0 0 1-.188.036.457.457 0 0 1-.313-.114l-2.164-1.851-.201.17v1.313a.448.448 0 0 1-.137.339.431.431 0 0 1-.149.104.558.558 0 0 1-.19.037.525.525 0 0 1-.188-.037.499.499 0 0 1-.254-.258.55.55 0 0 1-.037-.185v-4.216zM134.547 110.033c-.619 0-1.16-.19-1.621-.569v2.31c0 .14-.047.254-.143.343a.47.47 0 0 1-.342.139.479.479 0 0 1-.35-.139.461.461 0 0 1-.135-.343v-4.328c0-.715.25-1.325.758-1.832a2.496 2.496 0 0 1 1.83-.758c.709 0 1.32.254 1.832.758.252.25.439.529.568.837.127.307.191.639.191.995 0 .722-.258 1.33-.762 1.83a2.499 2.499 0 0 1-1.826.757zm-1.621-2.59c0 .224.039.433.125.629.088.197.199.369.348.515.145.147.313.267.512.351.199.088.412.129.639.129s.438-.041.633-.129a1.624 1.624 0 0 0 .868-2.122 1.74 1.74 0 0 0-.348-.515 1.68 1.68 0 0 0-.52-.354c-.195-.087-.406-.13-.633-.13s-.438.043-.639.13a1.64 1.64 0 0 0-.985 1.496zM138.824 106.964h1.447c.211 0 .406.041.594.123.186.08.35.188.484.33a1.515 1.515 0 0 1 .332 1.681 1.478 1.478 0 0 1-.332.487 1.524 1.524 0 0 1-1.078.448h-1.93a.547.547 0 0 1-.189-.036.51.51 0 0 1-.154-.104.467.467 0 0 1-.141-.338v-4.224a.575.575 0 0 1 .043-.183.428.428 0 0 1 .103-.151.575.575 0 0 1 .149-.104.484.484 0 0 1 .635.255.537.537 0 0 1 .034.186l.003 1.63zm1.447 2.1a.566.566 0 0 0 .403-.975.563.563 0 0 0-.184-.122.537.537 0 0 0-.219-.048h-1.447v1.142h1.447v.003zm1.985.484v-4.207c0-.135.045-.252.143-.344a.45.45 0 0 1 .338-.144c.133 0 .246.047.342.144a.485.485 0 0 1 .145.344v4.207a.487.487 0 0 1-.145.345.473.473 0 0 1-.68 0 .455.455 0 0 1-.143-.345zM151.104 109.548c0 .138-.047.25-.142.345a.47.47 0 0 1-.342.144.466.466 0 0 1-.343-.144.472.472 0 0 1-.137-.345v-2.631c0-.147-.031-.289-.084-.422a1.22 1.22 0 0 0-.236-.349 1.007 1.007 0 0 0-.35-.238 1.058 1.058 0 0 0-.433-.088c-.151 0-.291.029-.424.088-.136.06-.25.138-.351.236a1.075 1.075 0 0 0-.322.773v2.631c0 .138-.047.25-.142.345a.475.475 0 0 1-.684 0 .466.466 0 0 1-.144-.345v-2.631c0-.151-.027-.293-.086-.427a1.262 1.262 0 0 0-.236-.346 1.033 1.033 0 0 0-.346-.236 1.042 1.042 0 0 0-.426-.088c-.152 0-.296.029-.427.086-.131.056-.25.136-.353.234a1.084 1.084 0 0 0-.317.777v2.631c0 .138-.048.25-.144.345a.485.485 0 0 1-.827-.345v-4.213c0-.131.047-.246.14-.338a.47.47 0 0 1 .343-.144c.107 0 .202.03.284.092.084.06.144.14.173.236.329-.22.702-.328 1.125-.328.305 0 .596.063.868.185.271.12.511.305.712.553.43-.489.952-.735 1.575-.735a2 2 0 0 1 .798.164 2.06 2.06 0 0 1 1.263 1.897v2.631h.015zM156.27 110.033a.458.458 0 0 1-.345-.139.494.494 0 0 1-.141-.34 2.128 2.128 0 0 1-.675.364 2.56 2.56 0 0 1-.771.113c-.33 0-.642-.066-.935-.193s-.549-.301-.768-.521a2.472 2.472 0 0 1-.521-.769 2.275 2.275 0 0 1-.192-.935v-2.284c0-.131.047-.246.143-.338a.455.455 0 0 1 .343-.144c.133 0 .245.047.34.144a.45.45 0 0 1 .144.338v2.284c0 .201.037.388.112.564.074.178.181.328.31.461.133.131.285.234.461.309.177.078.363.113.563.113.197 0 .384-.035.56-.113.177-.072.332-.178.463-.311a1.402 1.402 0 0 0 .424-1.023v-2.284c0-.131.049-.246.144-.338a.464.464 0 0 1 .346-.144c.134 0 .244.047.338.144a.457.457 0 0 1 .144.338v4.219a.463.463 0 0 1-.144.339.46.46 0 0 1-.343.146zM160.924 104.855a.51.51 0 0 1 .189.037c.059.023.107.061.15.104s.078.096.104.15a.51.51 0 0 1 .039.188v4.221a.49.49 0 0 1-.293.442.576.576 0 0 1-.189.036.465.465 0 0 1-.34-.14.462.462 0 0 1-.141-.338v-1.631h-.92c-.223 0-.395.105-.518.32l-.801 1.495c-.104.194-.252.293-.441.293a.56.56 0 0 1-.188-.036.411.411 0 0 1-.15-.104.46.46 0 0 1-.139-.338c0-.098.021-.184.064-.258l.803-1.512c.025-.057.059-.105.096-.158a4.526 4.526 0 0 1-.268-.273 1.418 1.418 0 0 1-.189-.287 1.31 1.31 0 0 1-.117-.314 1.634 1.634 0 0 1-.037-.361c0-.213.037-.412.119-.598a1.56 1.56 0 0 1 .818-.818c.188-.08.385-.119.594-.119h1.755v-.001zm-.481 2.109v-1.144h-1.273a.62.62 0 0 0-.229.047.613.613 0 0 0-.184.132.505.505 0 0 0-.115.185.56.56 0 0 0-.043.207.59.59 0 0 0 .168.404.553.553 0 0 0 .405.172l1.271-.003z"/></g></g><g fill="#FFF"><path d="M77.852 89.641c-.563-.023-1-.16-1.322-.434-.32-.273-.521-.658-.553-1.172a2.814 2.814 0 0 1 .168-1.107c.114-.328.282-.613.506-.854.217-.234.483-.412.801-.547.705-.301 1.795-.332 2.471.127l-.176 1.049h-.121c-.52-.387-1.031-.436-1.465-.301a1.297 1.297 0 0 0-.914 1.078c-.154.969.754 1.582 2.144.797h.098l-.182 1.045a2.782 2.782 0 0 1-1.455.319zM95.455 85.432l-.17.97h-1.472l-.102.565h1.332l-.156.911h-1.331l-.111.647h1.475l-.174 1.008h-2.772l.707-4.101zM98.058 89.533h-2.699l.707-4.101h1.301l-.537 3.117h1.399zM82.599 89.533h-2.697l.709-4.101h1.301l-.539 3.117h1.398zM85.412 85.432h1.348l.982 4.101h-1.227l-.064-.258-.775 1.036.711-1.308-.063-.265-1.105 1.575 1.025-1.917-.063-.276-1.445 2.193 1.356-2.557-.071-.298-1.777 2.858 1.689-3.244-.097-.394-1.561 2.855h-1.279zM89.912 89.533h-1.348l-.978-4.101h1.227l.06.259.779-1.039-.711 1.313.059.264 1.109-1.577-1.027 1.916.066.276 1.442-2.192-1.356 2.559.072.299 1.776-2.86-1.687 3.243.093.397 1.563-2.858h1.277z"/></g></symbol><symbol viewBox="0 0 17.998 18.695" id="06_search"><path fill="#F1F1F2" d="M17.603 16.18l-2.36-2.36a8.5 8.5 0 0 0 1.84-5.276C17.082 3.832 13.252 0 8.541 0 3.832 0 0 3.83 0 8.543c0 4.707 3.832 8.537 8.541 8.537a8.509 8.509 0 0 0 4.471-1.275c.033.039.061.082.1.123l2.375 2.373a1.353 1.353 0 0 0 1.91 0l.207-.207a1.357 1.357 0 0 0-.001-1.914zM8.54 14.221a5.688 5.688 0 0 1-5.683-5.68A5.689 5.689 0 0 1 8.54 2.858a5.689 5.689 0 0 1 5.682 5.683 5.687 5.687 0 0 1-5.682 5.68z"/></symbol><symbol viewBox="0 0 35.193 27.502" id="07_cabinet"><circle fill="#F1F1F2" cx="15.434" cy="25.38" r="2.122"/><circle fill="#F1F1F2" cx="25.652" cy="25.38" r="2.122"/><path fill="#7B95CB" d="M17.623 6.438A8.994 8.994 0 0 0 8.998 0 8.997 8.997 0 0 0 0 8.998c0 4.768 3.705 8.656 8.39 8.971.205.013.406.031.608.031A9 9 0 0 0 18 8.998c0-.889-.137-1.748-.377-2.56z"/><path fill="#F1F1F2" d="M33.671 8.147h-4.847c-.707 0-1.299.481-1.473 1.138l-.603 1.688h-7.094l.002.005c0 4.301-3.016 7.889-7.047 8.783.264.563.643 1.248 1.088 1.686.777.767 2.354.734 2.354.734h7.727s1.289-.031 2.015-.791c.729-.766 1.057-1.664 1.057-1.664l3.115-8.529h3.705c.842 0 1.522-.685 1.522-1.523a1.522 1.522 0 0 0-1.521-1.527z"/></symbol><symbol viewBox="0 0 23.687 31.419" id="08_favorites"><path fill="#C52C2E" d="M14.687-.091c-4.713 0-8.578 3.631-8.963 8.242-.021.25-.037.5-.037.759 0 4.323 3.055 7.933 7.121 8.8a9 9 0 0 0 10.879-8.801 9 9 0 0 0-9-9z"/><path fill="#F1F1F2" d="M4.524 11.106H0v20.313l5.688-7.883 5.688 7.883V19.243c-3.758-.914-6.59-4.17-6.852-8.137z"/></symbol><symbol viewBox="0 0 32.952 34.23" id="10_search"><path fill="#BB90A9" d="M32.227 29.627l-4.324-4.324a15.542 15.542 0 0 0 3.369-9.665C31.271 7.015 24.258 0 15.635 0 7.014 0 0 7.015 0 15.638c0 8.621 7.014 15.635 15.635 15.635a15.52 15.52 0 0 0 8.187-2.338c.059.074.11.151.182.222l4.348 4.35a2.473 2.473 0 0 0 3.498 0l.379-.381a2.476 2.476 0 0 0-.002-3.499zm-16.592-3.59c-5.734 0-10.397-4.666-10.397-10.398 0-5.734 4.663-10.4 10.397-10.4 5.736 0 10.4 4.666 10.4 10.4-.001 5.732-4.664 10.398-10.4 10.398z"/></symbol><symbol viewBox="0 0 92.955 96.881" id="11_up"><g fill="#767F91"><path opacity=".5" d="M46.514 0C25.188 0 7.9 17.288 7.9 38.613c0 21.326 17.288 38.613 38.613 38.613 21.326 0 38.614-17.287 38.614-38.613C85.128 17.288 67.84 0 46.514 0z"/><path d="M50.213 23.63l-3.699-3.993-3.7 3.993-22.718 24.538h7.395l19.023-20.543 19.023 20.543h7.397zM0 96.881v-8.219h2.815c.444 0 .843.044 1.196.133.354.088.653.223.896.402.245.182.434.412.563.691.13.28.194.612.194.996 0 .377-.103.715-.306 1.018-.203.301-.501.533-.892.699.236.063.441.156.618.279a1.751 1.751 0 0 1 .692.979c.057.201.084.408.084.621 0 .396-.063.742-.193 1.043-.13.299-.318.549-.564.75a2.501 2.501 0 0 1-.896.455c-.354.102-.75.151-1.194.151L0 96.881zm1.428-4.758h1.4c.442 0 .791-.102 1.041-.303.25-.2.375-.485.375-.854 0-.405-.115-.7-.348-.881s-.592-.271-1.081-.271H1.427l.001 2.309zm0 1.049v2.568h1.586c.233 0 .439-.029.618-.09a1.25 1.25 0 0 0 .449-.258c.12-.111.211-.244.271-.397.062-.154.091-.325.091-.515 0-.406-.106-.726-.321-.959-.215-.232-.563-.351-1.045-.351l-1.649.002zM12.097 93.212H8.721v2.528h3.945v1.141H7.293v-8.219h5.334v1.15H8.721v2.271h3.376v1.129zM15.258 93.828v3.054H13.83v-8.219h3.144a3.8 3.8 0 0 1 1.272.194c.37.129.685.312.939.545.255.232.451.51.584.83.134.318.201.668.201 1.043 0 .399-.067.758-.201 1.072-.133.316-.328.584-.584.803s-.569.386-.939.502c-.37.117-.795.176-1.272.176h-1.716zm0-1.146h1.716c.274 0 .511-.033.709-.103.197-.067.36-.163.488-.288.128-.124.221-.271.278-.441.06-.172.088-.359.088-.563 0-.191-.028-.377-.088-.555a1.273 1.273 0 0 0-.766-.799 1.895 1.895 0 0 0-.709-.121h-1.716v2.87zM23.76 91.631l1.727-2.969h1.648l-2.483 4.074 2.54 4.145h-1.665l-1.767-3.016-1.773 3.016h-1.658l2.546-4.145-2.489-4.074h1.647l1.727 2.969zM37.397 94.206a3.585 3.585 0 0 1-.282 1.114c-.15.342-.358.636-.627.884a2.844 2.844 0 0 1-.979.582c-.386.139-.831.209-1.335.209s-.961-.093-1.369-.274-.756-.441-1.044-.777c-.288-.338-.509-.744-.663-1.223s-.23-1.015-.23-1.609v-.666c0-.59.079-1.127.235-1.605.158-.479.385-.889.678-1.229.295-.338.648-.6 1.064-.784a3.394 3.394 0 0 1 1.396-.276c.488 0 .922.07 1.299.213.376.141.694.336.957.586.261.25.466.549.614.896s.243.726.285 1.135h-1.423a3.21 3.21 0 0 0-.155-.7 1.466 1.466 0 0 0-.313-.527 1.326 1.326 0 0 0-.515-.33 2.236 2.236 0 0 0-.75-.112 1.87 1.87 0 0 0-.851.185 1.616 1.616 0 0 0-.605.529c-.162.23-.283.518-.364.855s-.121.725-.121 1.156v.678c0 .41.035.783.107 1.117.07.336.183.623.333.861.149.238.344.424.581.557.236.131.521.197.853.197.31 0 .569-.035.782-.107.212-.071.388-.178.527-.315.14-.14.246-.312.323-.514.077-.203.134-.437.167-.7h1.423v-.006zM44.448 89.814h-2.563v7.066h-1.417v-7.066h-2.54v-1.151h6.521l-.001 1.151zM46.955 93.828v3.054h-1.429v-8.219h3.145c.479 0 .901.063 1.272.194.37.129.685.312.939.545.255.232.451.51.584.83.134.318.201.668.201 1.043 0 .399-.067.758-.201 1.072-.133.316-.328.584-.584.803s-.569.386-.939.502a4.228 4.228 0 0 1-1.272.176h-1.716zm0-1.146h1.716c.273 0 .511-.033.709-.103.196-.067.359-.163.487-.288.129-.124.222-.271.279-.441.059-.172.087-.359.087-.563 0-.191-.027-.377-.087-.555a1.262 1.262 0 0 0-.279-.471 1.375 1.375 0 0 0-.487-.328 1.895 1.895 0 0 0-.709-.121h-1.716v2.87zM56.512 94.967h-3.186l-.666 1.914h-1.483l3.104-8.219h1.281l3.11 8.219h-1.49l-.67-1.914zm-2.783-1.151h2.382l-1.19-3.41-1.192 3.41zM66.131 96.881h-1.423v-3.652h-3.676v3.652h-1.428v-8.219h1.428v3.421h3.676v-3.421h1.423v8.219zM72.854 88.663h1.428v8.219h-1.428v-5.854l-3.607 5.854h-1.428v-8.219h1.428v5.858l3.607-5.858zM75.98 88.663h1.428v7.077h3.619v-7.077h1.428v7.067h.993l-.111 3.133h-1.311v-1.981H75.98v-8.219zM86.091 91.807h1.677c.467 0 .883.061 1.248.18.364.121.673.291.926.51.252.218.444.482.578.793s.2.652.2 1.029c0 .381-.066.728-.2 1.041a2.295 2.295 0 0 1-.578.812 2.67 2.67 0 0 1-.926.524 3.898 3.898 0 0 1-1.248.187h-3.104v-8.219h1.428l-.001 3.143zm0 1.146v2.787h1.677c.264 0 .492-.037.688-.114.192-.077.353-.183.477-.313s.217-.283.276-.457a1.623 1.623 0 0 0 0-1.074c-.061-.164-.152-.307-.276-.43s-.283-.22-.477-.291a1.982 1.982 0 0 0-.688-.106l-1.677-.002zm6.864 3.928h-1.423v-8.219h1.423v8.219z"/></g></symbol><symbol viewBox="0 0 26 26" id="13_vk"><circle fill="#BEC7D3" cx="13.006" cy="13" r="13"/><path fill="#4A5877" d="M10.176 8.946c.385-.781 1.68-.751 2.93-.679.377.022.896.086 1.084.244.414.342.244 1.418.244 2.226 0 .546-.205 2.043.354 2.116.244.031.569-.336.707-.489.526-.599 1.162-1.765 1.572-2.685.135-.307.272-.813.487-.924.381-.195 1.427-.055 1.98-.055.565 0 1.555-.17 1.735.217.188.4-.271 1.115-.436 1.385-.523.869-.955 1.365-1.545 2.17-.197.268-.693.684-.681 1.168.015.438.365.64.681.947.549.541 1.041.963 1.572 1.684.219.293.541.722.381 1.111-.154.377-.781.354-1.465.354-1.082 0-1.886.124-2.496-.244-.625-.375-1-1.027-1.547-1.546-.15-.144-.351-.39-.623-.38-.4.013-.515.414-.599.785-.076.334-.01.914-.217 1.168-.267.322-1.41.266-2.09.189-1.379-.154-2.33-.811-3.146-1.52-.432-.377-.741-.811-1.084-1.248-1.16-1.486-2.125-3.219-3.014-5.156-.119-.26-.338-.572-.244-.84.143-.389 1.08-.271 1.547-.271.656 0 1.463-.064 1.791.162.221.152.422.803.57 1.113.377.793.66 1.457 1.166 2.197.188.277.578.791.948.732.4-.063.484-1.123.49-1.791.002-.627-.051-1.396-.246-1.709-.158-.261-.507-.287-.806-.431z"/></symbol><symbol viewBox="0 0 26 26" id="13_vk_hover"><circle fill="#92AAD6" cx="13" cy="13" r="13"/><path fill="#FFF" d="M10.17 8.946c.385-.781 1.68-.751 2.93-.678.377.021.896.086 1.084.244.414.342.244 1.418.244 2.225 0 .546-.205 2.043.354 2.115.243.033.569-.336.707-.488.526-.6 1.161-1.764 1.571-2.686.136-.306.273-.812.488-.922.381-.195 1.426-.056 1.979-.056.566 0 1.556-.17 1.736.217.188.399-.271 1.115-.436 1.384-.523.871-.955 1.366-1.545 2.172-.197.267-.693.683-.681 1.166.015.438.365.641.681.949.549.539 1.041.961 1.571 1.682.22.295.541.723.381 1.113-.153.377-.78.353-1.465.353-1.082 0-1.885.124-2.496-.244-.625-.375-1-1.028-1.547-1.546-.149-.143-.35-.389-.623-.381-.399.014-.514.416-.598.787-.076.332-.01.914-.217 1.166-.267.324-1.41.267-2.091.19-1.379-.155-2.329-.812-3.146-1.521-.432-.375-.742-.809-1.084-1.248-1.16-1.485-2.125-3.217-3.014-5.155-.119-.261-.339-.573-.244-.84.143-.39 1.08-.271 1.547-.271.656 0 1.463-.065 1.791.162.224.153.426.805.573 1.114.377.793.66 1.457 1.166 2.196.189.277.578.791.949.732.4-.061.484-1.123.49-1.789.002-.629-.051-1.398-.246-1.709-.163-.263-.51-.288-.809-.433z"/></symbol><symbol viewBox="0 0 26 26" id="14_facebook"><path fill="#BEC7D3" d="M13 26c7.18 0 13-5.818 13-13 0-7.179-5.82-13-13-13C5.819 0 0 5.821 0 13c0 7.182 5.82 13 13 13"/><path fill="#4A5877" d="M9.865 10.799h1.345V9.492c0-.574.014-1.463.432-2.014.441-.584 1.047-.979 2.088-.979 1.693 0 2.408.242 2.408.242l-.337 1.989s-.561-.16-1.082-.16c-.523 0-.99.188-.99.71v1.519h2.142l-.148 1.944H13.73v6.756h-2.521v-6.756H9.866l-.001-1.944z"/></symbol><symbol viewBox="0 0 26 26" id="14_facebook_hover"><path fill="#92AAD6" d="M13.001 25.999c7.181 0 13-5.819 13-13 0-7.179-5.819-13-13-13-7.18 0-13 5.821-13 13 0 7.181 5.82 13 13 13"/><path fill="#FFF" d="M9.866 10.799h1.345V9.491c0-.574.014-1.463.432-2.015.441-.582 1.047-.979 2.088-.979 1.693 0 2.408.242 2.408.242l-.336 1.99s-.562-.161-1.082-.161c-.523 0-.99.188-.99.71v1.518h2.143l-.149 1.945h-1.992v6.756h-2.521v-6.756H9.867l-.001-1.942z"/></symbol><symbol viewBox="0 0 26 26" id="15_google"><path fill="#BEC7D3" d="M13.001 26c7.179 0 13-5.82 13-13 0-7.179-5.821-13-13-13C5.821 0-.001 5.821-.001 13c0 7.18 5.822 13 13.002 13"/><path fill="#4A5877" d="M10.851 18.824c-1.547 0-2.664-.979-2.664-2.152 0-1.152 1.385-2.111 2.932-2.095.359.004.695.063 1.002.16.838.584 1.439.913 1.609 1.577.031.136.049.273.049.414-.001 1.178-.757 2.096-2.928 2.096m.405-6.892c-1.037-.029-2.023-1.16-2.201-2.521-.181-1.364.515-2.407 1.552-2.376s2.022 1.124 2.201 2.486c.181 1.364-.516 2.442-1.552 2.411m2.149 2.018c-.363-.259-1.059-.884-1.059-1.251 0-.436.123-.646.772-1.152.664-.521 1.137-1.253 1.137-2.104 0-1.014-.45-1.998-1.299-2.325h1.277l.9-.651h-4.025c-1.805 0-3.504 1.367-3.504 2.951 0 1.618 1.229 2.926 3.066 2.926.129 0 .252-.002.373-.012a1.649 1.649 0 0 0-.205.751c0 .45.241.815.549 1.113-.232 0-.455.008-.697.008-2.236 0-3.957 1.423-3.957 2.899 0 1.453 1.887 2.363 4.121 2.363 2.549 0 3.957-1.447 3.957-2.9.002-1.166-.341-1.864-1.406-2.616m5.86-1.899h-1.568v-1.568h-1.262v1.568h-1.566v1.262h1.566v1.568h1.262v-1.568h1.568v-1.262z"/></symbol><symbol viewBox="0 0 26 26" id="15_google_hover"><path fill="#92AAD6" d="M12.999 26c7.179 0 13-5.821 13-13s-5.821-13-13-13C5.819 0-.003 5.821-.003 13s5.822 13 13.002 13"/><path fill="#FFF" d="M10.849 18.824c-1.548 0-2.664-.979-2.664-2.153 0-1.15 1.385-2.111 2.932-2.094.359.004.695.063 1.002.16.838.584 1.439.912 1.609 1.578.03.135.049.273.049.414-.001 1.177-.756 2.095-2.928 2.095m.404-6.893c-1.037-.028-2.022-1.158-2.201-2.521-.18-1.362.517-2.405 1.554-2.375 1.037.032 2.022 1.124 2.201 2.485.18 1.364-.517 2.444-1.554 2.411m2.15 2.019c-.363-.258-1.06-.885-1.06-1.251 0-.435.123-.646.773-1.153.664-.52 1.137-1.252 1.137-2.104 0-1.012-.451-1.997-1.299-2.324h1.277l.899-.65h-4.024c-1.806 0-3.504 1.366-3.504 2.95 0 1.618 1.229 2.925 3.065 2.925.129 0 .252-.002.373-.011a1.645 1.645 0 0 0-.205.751c0 .45.242.814.55 1.113-.232 0-.455.008-.697.008-2.236 0-3.957 1.423-3.957 2.9 0 1.453 1.887 2.363 4.121 2.363 2.549 0 3.957-1.447 3.957-2.902.003-1.166-.34-1.863-1.406-2.615m5.859-1.898h-1.567v-1.568h-1.262v1.568h-1.566v1.262h1.566v1.566h1.262v-1.566h1.567v-1.262z"/></symbol><symbol viewBox="0 0 26 26" id="16_twitter"><path fill="#BEC7D3" d="M13 26c7.182 0 13-5.818 13-13 0-7.179-5.818-13-13-13C5.819 0 0 5.821 0 13c0 7.182 5.82 13 13 13"/><path fill="#4A5877" d="M19.523 9.596a5.46 5.46 0 0 1-1.535.42c.551-.33.975-.854 1.174-1.478a5.394 5.394 0 0 1-1.697.647 2.67 2.67 0 0 0-4.551 2.434 7.582 7.582 0 0 1-5.509-2.791 2.684 2.684 0 0 0 .828 3.57 2.73 2.73 0 0 1-1.211-.334v.031c0 1.297.922 2.377 2.145 2.621a2.593 2.593 0 0 1-.703.094c-.172 0-.34-.016-.504-.049a2.668 2.668 0 0 0 2.496 1.855 5.356 5.356 0 0 1-3.955 1.108 7.56 7.56 0 0 0 4.096 1.201c4.915 0 7.603-4.072 7.603-7.603a6.67 6.67 0 0 0-.008-.347 5.355 5.355 0 0 0 1.331-1.379"/></symbol><symbol viewBox="0 0 26 26" id="16_twitter_hover"><path fill="#92AAD6" d="M13 26c7.18 0 13-5.818 13-13 0-7.179-5.82-13-13-13C5.819 0 0 5.822 0 13c0 7.182 5.819 13 13 13"/><path fill="#FFF" d="M19.523 9.595a5.43 5.43 0 0 1-1.535.422 2.682 2.682 0 0 0 1.174-1.479 5.368 5.368 0 0 1-1.697.646 2.67 2.67 0 0 0-4.618 1.828c0 .209.021.414.068.607a7.576 7.576 0 0 1-5.508-2.791 2.678 2.678 0 0 0 .827 3.569 2.706 2.706 0 0 1-1.211-.332v.031c0 1.295.922 2.375 2.145 2.62a2.71 2.71 0 0 1-1.207.047 2.672 2.672 0 0 0 2.496 1.854 5.353 5.353 0 0 1-3.315 1.145c-.218 0-.431-.012-.64-.035a7.58 7.58 0 0 0 4.097 1.199c4.913 0 7.602-4.07 7.602-7.602 0-.117-.002-.232-.008-.346.52-.375.973-.846 1.33-1.383"/></symbol><symbol viewBox="0 0 26 26" id="17_Youtube"><path fill="#BEC7D3" d="M13 25.97c7.18 0 13-5.82 13-13 0-7.179-5.82-13-13-13-7.181 0-13 5.821-13 13s5.821 13 13 13"/><path fill="#4A5877" d="M16.283 7.552v3.057c-.074.09-.162.164-.25.221-.098.056-.17.09-.234.09-.072 0-.131-.025-.162-.064-.041-.051-.059-.115-.059-.211V7.553h-.824v3.366c0 .24.049.419.146.54.096.12.242.179.428.179.164 0 .316-.042.486-.121a1.85 1.85 0 0 0 .469-.381v.443h.824V7.553l-.824-.001zm-2.515.196c-.219-.202-.5-.3-.84-.3-.373 0-.672.098-.897.283a.923.923 0 0 0-.332.744v2.086c0 .348.113.614.322.814.221.203.512.309.866.309.371 0 .672-.098.881-.3.22-.192.324-.461.324-.81V8.5a.98.98 0 0 0-.324-.752zm-.518 2.896a.323.323 0 0 1-.099.25.36.36 0 0 1-.266.096.332.332 0 0 1-.252-.096.361.361 0 0 1-.088-.25V8.442a.25.25 0 0 1 .096-.209c.059-.058.146-.082.244-.082a.41.41 0 0 1 .266.082.245.245 0 0 1 .099.209v2.202zm-2.554-4.522l-.574 2.183h-.064l-.6-2.183h-.937l1.108 3.3v2.158h.931V9.315l1.073-3.193h-.937zm6.427 9.615c.049.063.074.177.074.322v.373h-.641v-.372c0-.146.016-.259.074-.322.049-.065.129-.104.252-.104.112-.002.194.038.241.103zm-2.539-.017c-.047-.064-.129-.098-.225-.098a.38.38 0 0 0-.155.033.537.537 0 0 0-.153.113v2.278a.629.629 0 0 0 .178.13.47.47 0 0 0 .17.041c.1 0 .162-.023.201-.082.041-.048.064-.129.064-.251v-1.892c0-.119-.023-.208-.08-.272zm0 0c-.047-.064-.129-.098-.225-.098a.38.38 0 0 0-.155.033.537.537 0 0 0-.153.113v2.278a.629.629 0 0 0 .178.13.47.47 0 0 0 .17.041c.1 0 .162-.023.201-.082.041-.048.064-.129.064-.251v-1.892c0-.119-.023-.208-.08-.272zm4.15-2.823H7.268a2.303 2.303 0 0 0-2.288 2.299v2.336a2.296 2.296 0 0 0 2.288 2.289h11.467a2.295 2.295 0 0 0 2.287-2.289v-2.336a2.305 2.305 0 0 0-2.288-2.299zm-8.376 1.61h-.859v4.236h-.824v-4.236h-.85v-.719h2.533v.719zm2.408 4.238h-.736v-.404a1.339 1.339 0 0 1-.42.339.849.849 0 0 1-.423.121.465.465 0 0 1-.387-.169c-.082-.104-.123-.268-.123-.484v-3.064h.729v2.814a.31.31 0 0 0 .049.185c.024.042.082.057.146.057a.378.378 0 0 0 .203-.079.777.777 0 0 0 .226-.195v-2.78h.735v3.659zm2.652-.76c0 .258-.057.461-.17.597-.113.139-.283.212-.5.212a.82.82 0 0 1-.383-.08 1.046 1.046 0 0 1-.314-.253v.284h-.736v-4.956h.736v1.591c.098-.104.203-.191.314-.251a.775.775 0 0 1 .34-.088c.227 0 .404.079.527.235.121.152.186.379.186.679v2.03zm2.539-.979h-1.4v.687c0 .193.018.326.066.396.047.081.137.111.25.111.121 0 .203-.03.25-.096.049-.058.074-.203.074-.412v-.17h.76v.187c0 .38-.098.663-.283.849-.178.194-.453.283-.814.283-.332 0-.592-.098-.777-.298-.188-.203-.281-.478-.281-.834v-1.642c0-.315.104-.574.314-.776.201-.192.469-.298.801-.298s.59.097.768.281c.178.188.275.444.275.793v.938h-.003zm-3.596-1.383a.388.388 0 0 0-.155.032.582.582 0 0 0-.154.113v2.279a.583.583 0 0 0 .179.13.48.48 0 0 0 .17.041c.098 0 .162-.024.201-.082.041-.048.064-.129.064-.251v-1.891c0-.123-.023-.211-.08-.275-.049-.064-.131-.096-.225-.096zm.223.097c-.047-.064-.129-.098-.225-.098a.38.38 0 0 0-.155.033.537.537 0 0 0-.153.113v2.278a.629.629 0 0 0 .178.13.47.47 0 0 0 .17.041c.1 0 .162-.023.201-.082.041-.048.064-.129.064-.251v-1.892c0-.119-.023-.208-.08-.272zm0 0c-.047-.064-.129-.098-.225-.098a.38.38 0 0 0-.155.033.537.537 0 0 0-.153.113v2.278a.629.629 0 0 0 .178.13.47.47 0 0 0 .17.041c.1 0 .162-.023.201-.082.041-.048.064-.129.064-.251v-1.892c0-.119-.023-.208-.08-.272z"/></symbol><symbol viewBox="0 0 26 26" id="17_Youtube_hover"><path fill="#92AAD6" d="M13 25.97c7.182 0 13-5.821 13-13s-5.818-13-13-13c-7.18 0-13 5.821-13 13s5.821 13 13 13"/><path fill="#FFF" d="M16.285 7.552v3.058a1.137 1.137 0 0 1-.25.219c-.098.057-.17.091-.234.091-.072 0-.131-.024-.162-.065-.041-.05-.059-.113-.059-.209V7.553h-.824v3.366c0 .241.049.419.146.54.096.121.242.179.428.179.164 0 .316-.042.486-.122.16-.088.313-.209.469-.38v.444h.824V7.553l-.824-.001zm-2.516.196c-.219-.202-.5-.299-.84-.299-.373 0-.672.097-.897.283a.919.919 0 0 0-.332.744v2.084c0 .35.112.615.321.815.222.202.513.31.867.31.371 0 .672-.099.881-.301.219-.193.324-.461.324-.809V8.5a.983.983 0 0 0-.324-.752zm-.519 2.895c0 .104-.03.186-.098.25a.36.36 0 0 1-.266.096c-.105 0-.193-.031-.252-.096a.36.36 0 0 1-.088-.25v-2.2c0-.088.033-.162.096-.211.059-.057.146-.08.244-.08.105 0 .193.023.266.08a.25.25 0 0 1 .098.211v2.2zm-2.554-4.521l-.573 2.183h-.064l-.6-2.183h-.938l1.109 3.3v2.158h.93V9.316l1.074-3.195-.938.001zm6.427 9.614c.049.064.074.178.074.324v.371h-.641v-.371c0-.146.016-.26.074-.324.049-.064.129-.104.252-.104.114 0 .196.04.241.104zm-2.539-.016c-.047-.063-.129-.098-.225-.098a.39.39 0 0 0-.154.032.578.578 0 0 0-.153.113v2.279c.057.059.12.105.179.13a.48.48 0 0 0 .17.041c.098 0 .162-.024.201-.082.041-.048.063-.129.063-.251v-1.891c-.001-.12-.022-.208-.081-.273zm0 0c-.047-.063-.129-.098-.225-.098a.39.39 0 0 0-.154.032.578.578 0 0 0-.153.113v2.279c.057.059.12.105.179.13a.48.48 0 0 0 .17.041c.098 0 .162-.024.201-.082.041-.048.063-.129.063-.251v-1.891c-.001-.12-.022-.208-.081-.273zm4.15-2.822H7.269a2.304 2.304 0 0 0-2.289 2.297v2.336a2.296 2.296 0 0 0 2.289 2.289h11.466a2.296 2.296 0 0 0 2.289-2.289v-2.336a2.306 2.306 0 0 0-2.29-2.297zm-8.376 1.609H9.5v4.237h-.824v-4.237h-.85v-.719h2.532v.719zm2.409 4.237h-.735v-.403a1.37 1.37 0 0 1-.421.339.845.845 0 0 1-.422.121.468.468 0 0 1-.387-.169c-.082-.104-.123-.269-.123-.485v-3.063h.729v2.813c0 .08.018.146.049.186.024.042.082.057.146.057a.365.365 0 0 0 .203-.08.768.768 0 0 0 .225-.193v-2.781h.736v3.658zm2.651-.76c0 .26-.057.461-.17.598-.111.139-.281.212-.5.212a.84.84 0 0 1-.383-.08 1.074 1.074 0 0 1-.313-.253v.283h-.736v-4.955h.736v1.591c.098-.104.202-.192.313-.251a.792.792 0 0 1 .34-.088c.229 0 .404.08.527.234.121.153.186.381.186.68v2.029zm2.539-.978h-1.398v.688c0 .192.016.324.064.396.047.081.139.112.25.112.121 0 .203-.031.25-.096.049-.059.074-.203.074-.414v-.168h.76v.186c0 .38-.098.663-.281.85-.18.193-.453.282-.816.282-.332 0-.59-.097-.777-.298-.186-.203-.281-.479-.281-.834v-1.643c0-.314.104-.574.314-.775.201-.193.469-.299.801-.299s.59.098.768.283c.178.187.275.443.275.791v.939h-.003zm-3.596-1.383a.372.372 0 0 0-.154.033.527.527 0 0 0-.154.113v2.278a.629.629 0 0 0 .178.13.46.46 0 0 0 .17.041c.098 0 .162-.023.201-.082.041-.048.064-.129.064-.251v-1.892c0-.122-.023-.211-.08-.274-.047-.063-.131-.096-.225-.096zm.223.097c-.047-.063-.129-.098-.225-.098a.39.39 0 0 0-.154.032.578.578 0 0 0-.153.113v2.279c.057.059.12.105.179.13a.48.48 0 0 0 .17.041c.098 0 .162-.024.201-.082.041-.048.063-.129.063-.251v-1.891c-.001-.12-.022-.208-.081-.273zm0 0c-.047-.063-.129-.098-.225-.098a.39.39 0 0 0-.154.032.578.578 0 0 0-.153.113v2.279c.057.059.12.105.179.13a.48.48 0 0 0 .17.041c.098 0 .162-.024.201-.082.041-.048.063-.129.063-.251v-1.891c-.001-.12-.022-.208-.081-.273z"/></symbol><symbol viewBox="0 0 26 26" id="18_Pinterest"><circle fill="#BEC7D3" cx="13" cy="12.97" r="13"/><path fill="#4A5877" d="M11.361 18.405c.111-.405.641-2.502.641-2.502.316.604 1.24 1.136 2.221 1.136 2.926 0 4.912-2.666 4.912-6.237 0-2.697-2.287-5.214-5.762-5.214-4.324 0-6.503 3.103-6.503 5.687 0 1.564.592 2.957 1.865 3.477.207.085.395.004.452-.227.043-.16.144-.564.188-.73.059-.229.037-.309-.133-.508-.365-.434-.599-.992-.599-1.786 0-2.298 1.719-4.354 4.479-4.354 2.444 0 3.788 1.49 3.788 3.484 0 2.624-1.162 4.839-2.885 4.839-.954 0-1.665-.788-1.438-1.754.271-1.151.803-2.397.803-3.229 0-.742-.398-1.365-1.227-1.365-.975 0-1.754 1.007-1.754 2.357 0 .857.289 1.438.289 1.438s-.995 4.221-1.17 4.958c-.162.691-.185 1.455-.158 2.091l1.075.392c.346-.55.721-1.252.916-1.953z"/></symbol><symbol viewBox="0 0 26 26" id="19_Pinterest_hover"><circle fill="#92AAD6" cx="13" cy="12.97" r="13"/><path fill="#FFF" d="M11.359 18.406C11.47 18 12 15.904 12 15.904c.316.604 1.24 1.135 2.221 1.135 2.926 0 4.912-2.666 4.912-6.237 0-2.698-2.287-5.214-5.762-5.214-4.324 0-6.503 3.104-6.503 5.688 0 1.563.592 2.955 1.864 3.476.207.085.396.004.453-.228.043-.16.144-.563.188-.729.059-.229.037-.31-.134-.509-.364-.434-.598-.991-.598-1.785 0-2.299 1.719-4.355 4.479-4.355 2.444 0 3.788 1.491 3.788 3.485 0 2.624-1.162 4.839-2.885 4.839-.954 0-1.665-.787-1.438-1.754.271-1.15.803-2.396.803-3.229 0-.744-.398-1.365-1.229-1.365-.973 0-1.754 1.006-1.754 2.355 0 .858.289 1.439.289 1.439s-.993 4.221-1.169 4.958c-.162.692-.184 1.454-.157 2.091l1.073.391c.348-.547.725-1.251.918-1.95z"/></symbol><symbol viewBox="0 0 73.371 51.39" id="20_Geomarker"><circle fill="#6C81BD" cx="54.336" cy="38.314" r="13.076"/><path fill="#6C81BD" d="M0 0l73.371 3.109v23.17L0 27.461z"/><path fill="#FFF" d="M15.815 8.553c-.543-1.971.834-3.545 2.451-3.184.16.037 2.48.771 2.063 3.227l.517.344 2.064-2.623-.259-.602c-4.239-2.912-7.353-1.275-8.599.172-4.522 5.234 2.512 8.188 3.769 10.85 1.462 3.094-3.64 6.191-5.832-.4-1.013.433-1.983 1.931-2.281 2.836.622 3.849 8.396 4.796 11.181-.172 2.77-4.939-4.439-8.15-5.074-10.448z"/><path fill="#FFF" d="M60.276 14.615c.417-1.295 1.376-3.269 1.376-3.269-.75-.074-1.661.071-2.15.388l-1.074.815c-2.787-3.742-8.973.979-9.33 6.793-.229.411-1.008 1.045-1.494.604-1.449-1.32 3.014-7.5.808-8.515-2.359-1.086-4.202 1.209-6.265 3.287.259-.996.618-2.05 1.126-3.203l-.088.006-3.095.123c-1.008 2.521-1.495 4.554-1.731 6.455-.031.026-.063.056-.097.082-3.356 2.854-5.43 2.662-5.568 1.062 4.493-2.34 7.737-7.068 2.73-7.812-3.822-.567-6.965 3.472-6.234 7.996-.984.596-3.047 1.563-3.483-.13-.148-.581.188-1.813 1.548-5.795l2.108-.225.171-1.828-1.578.016 1.534-4.422-4.127.474c-.157.554-.621 2.146-1.135 3.979l-1.849.019-.093 2.519 1.279-.138c-.618 2.3-1.158 4.466-1.171 5.103-.087 4.43 3.188 3.723 7.181 1.85.391 1.197 3.321 3.221 8.615-.674a44.486 44.486 0 0 0-.037 1.941c1.019.086 2.565-.32 3.268-.646.063-1.923.165-3.132.446-4.972 1.331-1.508 2.67-2.762 3.441-2.608 1.015.2-4.5 9.063 1.58 8.123a3.29 3.29 0 0 0 2.443-1.703c1.867 3.492 4.464 1.817 7.116-1.097-.254 2.886 1.725 4.998 6.364.345v-2.106c-3.123 4.132-4.061 1.907-2.535-2.837zm-27.991 3.184c-.69-3.83 1.841-5.684 2.628-5.207 1.053.637.245 3.639-2.628 5.207zm20.416.125c.448-5.525 4.895-6.492 4.36-3.174-.567 3.533-4.645 6.695-4.36 3.174z"/></symbol><symbol id="42_Personal" viewBox="0 0 28.98 20"><defs><style>.aucls-1{fill:#f1f1f2}</style></defs><title>personal</title><g id="auПолупрозрачный_хэдер_1920" data-name="Полупрозрачный хэдер 1920"><path class="aucls-1" d="M8139.28 2024.07a10 10 0 1 0 10 10 10 10 0 0 0-10-10zm0 17.2a7.2 7.2 0 0 1-6-3.22c0-2 4-3.08 6-3.08s6 1.1 6 3.08a7.2 7.2 0 0 1-6 3.22zm0-14.2a3 3 0 1 1-3 3 3 3 0 0 1 3-3z" transform="translate(-8129.28 -2024.07)"/><path class="aucls-1" d="M25.89 12.84l-3.07-5.68h6.16l-3.09 5.68z"/></g></symbol><symbol id="43_Slider_Arrow" viewBox="0 0 30 69"><defs><style>.avcls-1{opacity:.4}.avcls-2{fill:#fff}</style></defs><title>slider-arrow</title><g id="avСтрелки_Банеров" data-name="Стрелки Банеров" class="avcls-1"><path class="avcls-2" d="M30 0L15 34.5 30 69H15L0 34.5 15 0h15z"/></g></symbol><symbol id="44_Phone" viewBox="0 0 18.49 18.49"><defs><style>.awcls-1{fill:#c4c4c4}</style></defs><title>44_Phone</title><g id="awFooter_1920"><path id="awТелефон_иконка" data-name="Телефон иконка" class="awcls-1" d="M6867.44 6031.83a2.6 2.6 0 0 0-1.59-1.5l-2.43-.67a2.38 2.38 0 0 0-2.08.55l-.88.88a9.33 9.33 0 0 1-6.56-6.57l.88-.88a2.39 2.39 0 0 0 .54-2.08l-.66-2.43a2.59 2.59 0 0 0-1.5-1.59l-.28-.09a2.19 2.19 0 0 0-2.05.49l-1.32 1.31a2.47 2.47 0 0 0-.38.9 15.52 15.52 0 0 0 15.66 15.7 2.43 2.43 0 0 0 .95-.38l1.32-1.32a2.2 2.2 0 0 0 .48-2.05z" transform="translate(-6849.13 -6017.37)"/></g></symbol><symbol id="45_Arrow" viewBox="0 0 12.2 10.27"><defs><style>.axcls-1{fill:#2f4259}</style></defs><title>45_Arrow</title><g id="axFooter_1920"><path class="axcls-1" d="M0 0v10.27l12.2-5.13L0 0z" id="axКнопка_Стать_Дилером_-_Hover" data-name="Кнопка Стать Дилером - Hover"/></g></symbol><symbol id="46_Man" viewBox="0 0 32.2 47.23"><defs><style>.aycls-1{fill:#fff}</style></defs><title>46_Man</title><g id="ayFooter_1920"><g id="ayВход_для_дилеров" data-name="Вход для дилеров"><g id="ayDealer"><path class="aycls-1" d="M8043.81 5710.14c.47 1 2.32 2.55 2.71 3.61a7 7 0 0 1 .08 1.56s3.57 2.29 4.92 2.21 4.51-2.71 4.51-2.71a9.35 9.35 0 0 1 .12-1.54c.16-.54.88-1.46 1.11-2a22.6 22.6 0 0 0 1.15-3.36 34.28 34.28 0 0 0 .41-4.67c0-1.15-.61-3.53-.16-4.59.12-.28.78-.54.9-.82a1.47 1.47 0 0 0 0-1.07c-.27-.36-1.36-.24-1.72-.49-.6-.42-1.2-1.86-1.72-2.38a10.78 10.78 0 0 0-3.53-2.46 10.24 10.24 0 0 0-4.34.66c-1 .36-2.52 1.78-3.44 2.21-.56.26-1.95.29-2.38.74-.79.81-1.22 3.21-1.23 4.34 0 1.29 1 3.75 1.31 5 .33 1.45.68 4.42 1.3 5.76z" transform="translate(-8035.36 -5691.38)"/><path class="aycls-1" d="M8067.09 5722.45a17.58 17.58 0 0 0-2.84-2.87c-1.09-.88-4.7-3-4.7-3l-5.47 11.71s-1.41-5.6-1.6-7.51a3.26 3.26 0 0 1 0-1 6.67 6.67 0 0 1 .89-1.25h-4.24a6.93 6.93 0 0 1 1 1.31 3 3 0 0 1 0 .89c-.12 1.9-1.08 7.53-1.08 7.53l-5.59-11.56s-1.7.79-2.24 1.1c-.7.4-2 1.32-2.67 1.8a20.73 20.73 0 0 0-2 1.7 5.49 5.49 0 0 0-1.1 1.5 4.15 4.15 0 0 0 .1 1.74 10.79 10.79 0 0 0 1.1 2c.49.77 1.56 2.26 2.14 3s2.13 2.45 2.9 3.2a39.83 39.83 0 0 0 3.8 3.27 25.83 25.83 0 0 0 4 2.17 11.25 11.25 0 0 0 2 .5 6.4 6.4 0 0 0 1.37 0 10 10 0 0 0 2-.7 29.73 29.73 0 0 0 4.44-2.87 41.88 41.88 0 0 0 4.67-4.87 30.94 30.94 0 0 0 3.17-5 4.59 4.59 0 0 0 .4-1.54 3.34 3.34 0 0 0-.45-1.25zm-3 4.31h-6v-1.86h6v1.86z" transform="translate(-8035.36 -5691.38)"/></g></g></g></symbol><symbol id="47_Phone" viewBox="0 0 18.22 18.22"><defs><style>.azcls-1{fill:#e6e7e8}</style></defs><title>47_Phone</title><g id="azHeader_1920_03_Tranparent"><path id="azТелефон_иконка" data-name="Телефон иконка" class="azcls-1" d="M7510.15 1390.5a2.57 2.57 0 0 0-1.57-1.48l-2.39-.66a2.34 2.34 0 0 0-2 .54l-.87.86a9.19 9.19 0 0 1-6.47-6.47l.87-.86a2.35 2.35 0 0 0 .54-2.05l-.65-2.39a2.55 2.55 0 0 0-1.48-1.57l-.27-.09a2.16 2.16 0 0 0-2 .48l-1.3 1.3a2.42 2.42 0 0 0-.38.89 15.29 15.29 0 0 0 15.43 15.47 2.38 2.38 0 0 0 .93-.38l1.3-1.3a2.17 2.17 0 0 0 .48-2z" transform="translate(-7492.1 -1376.25)"/></g></symbol><symbol id="48_Close" viewBox="0 0 18.67 18.67"><defs><style>.bacls-1{fill:#404041}</style></defs><title>48_Close</title><g id="baMenu"><path class="bacls-1" d="M8440 1477.71l-14.59-14.59a1.53 1.53 0 0 0-2.17 0l-1 1a1.53 1.53 0 0 0 0 2.17l14.59 14.59a1.54 1.54 0 0 0 2.17 0l1-1a1.53 1.53 0 0 0 0-2.17z" transform="translate(-8421.76 -1462.67)"/><path class="bacls-1" d="M8436.8 1463.12l-14.59 14.59a1.53 1.53 0 0 0 0 2.17l1 1a1.54 1.54 0 0 0 2.17 0l14.62-14.58a1.53 1.53 0 0 0 0-2.17l-1-1a1.53 1.53 0 0 0-2.2-.01z" transform="translate(-8421.76 -1462.67)"/></g></symbol><symbol id="49_Menu" viewBox="0 0 23.7 20"><defs><style>.bbcls-1{fill:#fff}</style></defs><title>49_Menu</title><g id="bbHeader_1920_03_Tranparent"><rect class="bbcls-1" y="7.75" width="23.7" height="4.5" rx="1.53" ry="1.53"/><path class="bbcls-1" d="M1.54 0h20.63a1.53 1.53 0 0 1 1.53 1.53V3a1.53 1.53 0 0 1-1.53 1.5H1.53A1.53 1.53 0 0 1 0 3V1.54A1.54 1.54 0 0 1 1.54 0zM1.53 15.5h20.64A1.53 1.53 0 0 1 23.7 17v1.43A1.54 1.54 0 0 1 22.16 20H1.53A1.53 1.53 0 0 1 0 18.47V17a1.53 1.53 0 0 1 1.53-1.5z"/></g></symbol><symbol id="50_Plus" viewBox="0 0 14.05 14.5"><defs><style>.bccls-1{fill:#705f5a}</style></defs><title>50_Plus</title><path class="bccls-1" d="M8427.27 1716.13h6v2h-6v6.23h-2v-6.23h-6v-2h6v-6.26h2v6.26z" transform="translate(-8419.25 -1709.88)" id="bcMenu"/></symbol><symbol id="51_Arrow_white" viewBox="0 0 12.2 10.27"><defs><style>.bdcls-1{fill:#fff}</style></defs><title>45_Arrow</title><g id="bdFooter_1920"><path class="bdcls-1" d="M0 0v10.27l12.2-5.13L0 0z" id="bdКнопка_Стать_Дилером_-_Hover" data-name="Кнопка Стать Дилером - Hover"/></g></symbol><symbol viewBox="0 0 11.93 11.93" id="52_close"><defs><style>.beb{fill:#fff}</style></defs><title>52_close</title><g class="bea"><path class="beb" d="M10.37 0L5.96 4.41 1.56 0 0 1.56l4.41 4.4L0 10.37l1.56 1.56 4.4-4.41 4.41 4.41 1.56-1.56-4.41-4.41 4.41-4.4L10.37 0z"/></g></symbol><symbol viewBox="0 0 31.54 20" id="53_camera"><defs><style>.bfa{fill:#fff}</style></defs><title>53_camera</title><path class="bfa" d="M11.36 2.84V0H0v20h31.53V2.84H11.35zM8.97 6.96H1.75V2.01h7.24v4.95zm12 11.18a6.28 6.28 0 1 1 6.28-6.28 6.28 6.28 0 0 1-6.24 6.28z"/></symbol></svg>