<?xml version="1.0" encoding="utf-8"?>
<!-- Generator: Adobe Illustrator 15.1.0, SVG Export Plug-In . SVG Version: 6.00 Build 0)  -->
<!DOCTYPE svg PUBLIC "-//W3C//DTD SVG 1.1//EN" "http://www.w3.org/Graphics/SVG/1.1/DTD/svg11.dtd">
<svg version="1.1" id="Layer_1" xmlns="http://www.w3.org/2000/svg" xmlns:xlink="http://www.w3.org/1999/xlink" x="0px" y="0px"
	 width="18.67px" height="18.673px" viewBox="72.709 90.112 18.67 18.673" enable-background="new 72.709 90.112 18.67 18.673"
	 xml:space="preserve">
<g>
	<path fill="#424243" d="M90.93,105.15L76.34,90.561c-0.599-0.598-1.568-0.6-2.169,0l-1.011,1.014
		c-0.602,0.598-0.602,1.568-0.002,2.168l14.59,14.592c0.6,0.599,1.568,0.599,2.169,0l1.013-1.015
		C91.529,106.721,91.527,105.75,90.93,105.15z"/>
	<path fill="#424243" d="M87.748,90.563l-14.59,14.587c-0.601,0.602-0.6,1.57,0.002,2.173l1.011,1.013c0.601,0.6,1.57,0.6,2.169,0
		l14.59-14.591c0.6-0.6,0.6-1.571,0-2.17l-1.013-1.012C89.316,89.962,88.348,89.964,87.748,90.563z"/>
</g>
</svg>
