<?xml version="1.0" encoding="utf-8"?>
<!-- Generator: Adobe Illustrator 15.1.0, SVG Export Plug-In . SVG Version: 6.00 Build 0)  -->
<!DOCTYPE svg PUBLIC "-//W3C//DTD SVG 1.1//EN" "http://www.w3.org/Graphics/SVG/1.1/DTD/svg11.dtd">
<svg version="1.1" id="Layer_1" xmlns="http://www.w3.org/2000/svg" xmlns:xlink="http://www.w3.org/1999/xlink" x="0px" y="0px"
	 width="17.958px" height="18.695px" viewBox="0 0 17.958 18.695" enable-background="new 0 0 17.958 18.695" xml:space="preserve">
<path fill="#F1F1F2" d="M17.563,16.18l-2.36-2.36c1.147-1.455,1.84-3.287,1.84-5.276C17.042,3.832,13.212,0,8.501,0
	C3.792,0-0.04,3.83-0.04,8.543c0,4.707,3.832,8.537,8.541,8.537c1.641,0,3.168-0.474,4.471-1.275c0.033,0.039,0.061,0.082,0.1,0.123
	l2.375,2.373c0.527,0.526,1.383,0.526,1.91,0l0.207-0.207C18.09,17.565,18.09,16.709,17.563,16.18z M8.5,14.221
	c-3.134,0-5.683-2.549-5.683-5.68c0-3.134,2.549-5.683,5.683-5.683c3.133,0,5.682,2.549,5.682,5.683
	C14.182,11.674,11.633,14.221,8.5,14.221z"/>
</svg>
