<?xml version="1.0" encoding="utf-8"?>
<!-- Generator: Adobe Illustrator 15.1.0, SVG Export Plug-In . SVG Version: 6.00 Build 0)  -->
<!DOCTYPE svg PUBLIC "-//W3C//DTD SVG 1.1//EN" "http://www.w3.org/Graphics/SVG/1.1/DTD/svg11.dtd">
<svg version="1.1" id="Layer_1" xmlns="http://www.w3.org/2000/svg" xmlns:xlink="http://www.w3.org/1999/xlink" x="0px" y="0px"
	 width="209.75px" height="45.334px" viewBox="0 0 209.75 45.334" enable-background="new 0 0 209.75 45.334" xml:space="preserve">
<g id="Кнопка_Стать_Дилером_-_Hover_1_">
	<rect x="0.531" y="0.57" fill="#8A9FB5" width="208.715" height="44.218"/>
	<g id="Вход_для_дилеров_6_">
		<g>
			<path fill="#4A5877" d="M35.999,23.732c-0.07,0.652-0.224,1.238-0.459,1.758c-0.234,0.518-0.552,0.957-0.949,1.314
				c-0.396,0.359-0.875,0.635-1.432,0.826c-0.556,0.191-1.188,0.287-1.895,0.287c-0.729,0-1.394-0.139-1.987-0.415
				c-0.595-0.276-1.104-0.67-1.527-1.181c-0.425-0.508-0.751-1.119-0.979-1.832c-0.23-0.713-0.346-1.502-0.346-2.366v-1.617
				c0-0.864,0.114-1.655,0.346-2.371c0.229-0.716,0.558-1.325,0.983-1.833c0.427-0.506,0.943-0.898,1.55-1.179
				s1.287-0.421,2.041-0.421c0.684,0,1.299,0.096,1.847,0.283c0.548,0.188,1.018,0.463,1.409,0.826
				c0.391,0.361,0.706,0.803,0.943,1.324c0.239,0.521,0.392,1.111,0.455,1.771h-1.095c-0.065-0.518-0.183-0.981-0.354-1.391
				c-0.171-0.41-0.401-0.752-0.692-1.029c-0.292-0.276-0.646-0.488-1.061-0.637c-0.416-0.146-0.899-0.221-1.453-0.221
				c-0.601,0-1.137,0.116-1.606,0.35c-0.473,0.231-0.872,0.561-1.201,0.984c-0.33,0.424-0.582,0.936-0.756,1.532
				s-0.262,1.262-0.262,1.991v1.635c0,0.706,0.084,1.357,0.248,1.956c0.164,0.598,0.406,1.112,0.725,1.546s0.71,0.77,1.175,1.011
				c0.465,0.242,0.998,0.362,1.599,0.362c1.138,0,1.993-0.271,2.57-0.816s0.934-1.361,1.069-2.451h1.095V23.732z"/>
			<path fill="#4A5877" d="M45.256,19.086h-3.479v8.656h-1.061v-8.656h-3.348v-0.9h7.888V19.086L45.256,19.086z"/>
			<path fill="#4A5877" d="M52.877,27.742c-0.059-0.166-0.104-0.366-0.137-0.605c-0.032-0.238-0.055-0.48-0.066-0.729
				c-0.157,0.205-0.347,0.4-0.563,0.582c-0.219,0.184-0.463,0.343-0.733,0.479c-0.271,0.135-0.567,0.244-0.893,0.326
				c-0.323,0.083-0.674,0.124-1.051,0.124c-0.466,0-0.889-0.067-1.269-0.203s-0.703-0.325-0.972-0.569s-0.476-0.531-0.622-0.861
				c-0.146-0.329-0.222-0.688-0.222-1.077c0-0.466,0.101-0.886,0.301-1.259c0.2-0.375,0.488-0.691,0.865-0.953
				c0.377-0.264,0.835-0.463,1.374-0.602s1.144-0.207,1.813-0.207h1.961V21.1c0-0.683-0.21-1.22-0.631-1.611
				c-0.421-0.391-1.035-0.588-1.842-0.588c-0.371,0-0.713,0.051-1.024,0.15c-0.313,0.102-0.582,0.238-0.809,0.415
				s-0.403,0.382-0.53,0.614c-0.126,0.232-0.188,0.48-0.188,0.746l-1.061-0.01c0-0.358,0.088-0.707,0.266-1.041
				c0.177-0.336,0.426-0.635,0.745-0.896c0.321-0.264,0.707-0.473,1.157-0.632s0.949-0.238,1.497-0.238
				c0.507,0,0.973,0.063,1.4,0.194c0.427,0.13,0.793,0.322,1.1,0.583c0.306,0.259,0.544,0.583,0.715,0.972s0.257,0.842,0.257,1.359
				v4.629c0,0.164,0.006,0.336,0.019,0.513c0.012,0.177,0.029,0.347,0.058,0.513c0.026,0.164,0.057,0.321,0.093,0.473
				c0.035,0.15,0.076,0.281,0.123,0.393v0.105H52.877L52.877,27.742z M49.558,26.982c0.383,0,0.736-0.049,1.063-0.146
				c0.326-0.098,0.622-0.23,0.888-0.402c0.266-0.17,0.494-0.369,0.688-0.596c0.193-0.227,0.351-0.473,0.468-0.736v-2.104h-1.811
				c-0.543,0-1.026,0.049-1.453,0.146c-0.428,0.098-0.787,0.236-1.082,0.42c-0.294,0.183-0.521,0.404-0.677,0.666
				c-0.154,0.262-0.232,0.559-0.232,0.889c0,0.259,0.05,0.502,0.149,0.729c0.101,0.227,0.242,0.424,0.429,0.592
				c0.186,0.168,0.411,0.301,0.676,0.397S49.227,26.982,49.558,26.982z"/>
			<path fill="#4A5877" d="M63.257,19.086h-3.479v8.656h-1.061v-8.656h-3.348v-0.9h7.888V19.086L63.257,19.086z"/>
			<path fill="#4A5877" d="M66.153,21.656h2.738c0.564,0,1.064,0.076,1.501,0.229c0.436,0.153,0.803,0.364,1.1,0.633
				c0.298,0.269,0.521,0.588,0.672,0.957c0.149,0.371,0.226,0.774,0.226,1.211s-0.075,0.84-0.226,1.211
				c-0.149,0.371-0.374,0.692-0.672,0.967c-0.297,0.273-0.664,0.488-1.1,0.645c-0.437,0.156-0.937,0.234-1.501,0.234h-3.789v-9.557
				h1.051V21.656L66.153,21.656z M66.153,22.557v4.293h2.738c0.44,0,0.815-0.061,1.126-0.182c0.309-0.12,0.561-0.279,0.755-0.477
				c0.193-0.199,0.336-0.426,0.424-0.686c0.089-0.26,0.133-0.527,0.133-0.804c0-0.267-0.044-0.526-0.133-0.782
				c-0.088-0.256-0.229-0.484-0.424-0.688c-0.195-0.203-0.446-0.367-0.755-0.49c-0.311-0.124-0.686-0.186-1.126-0.186H66.153
				L66.153,22.557z"/>
			<path fill="#4A5877" d="M78.847,26.85c0.164-0.207,0.343-0.438,0.533-0.697c0.191-0.26,0.371-0.586,0.539-0.98
				s0.314-0.876,0.441-1.443c0.127-0.568,0.208-1.266,0.243-2.09l0.159-3.453h5.644v8.664h0.989v3.701h-1.051v-2.809h-7.183v2.809
				h-1.016l0.009-3.701H78.847L78.847,26.85z M81.654,21.639c-0.029,0.666-0.09,1.266-0.181,1.801
				c-0.093,0.537-0.209,1.017-0.351,1.44c-0.141,0.425-0.303,0.796-0.485,1.117c-0.183,0.319-0.373,0.604-0.573,0.853h5.282v-7.676
				H81.77L81.654,21.639z"/>
			<path fill="#4A5877" d="M95.716,18.186h1.061v9.557h-1.061v-7.854l-5.157,7.854h-1.053v-9.557h1.053v7.859L95.716,18.186z"/>
			<path fill="#4A5877" d="M106.95,18.186v9.557h-1.061v-8.646h-3.912l-0.134,3.313c-0.041,0.918-0.113,1.714-0.221,2.385
				c-0.104,0.671-0.267,1.225-0.48,1.66c-0.216,0.438-0.497,0.76-0.849,0.972c-0.351,0.212-0.791,0.317-1.319,0.317h-0.38
				l0.018-0.944l0.327-0.009c0.316,0,0.586-0.073,0.804-0.221c0.218-0.148,0.398-0.391,0.543-0.729s0.255-0.787,0.331-1.347
				c0.076-0.561,0.133-1.256,0.168-2.086l0.177-4.221H106.95z"/>
			<path fill="#4A5877" d="M113.486,27.919c-0.625,0-1.198-0.116-1.724-0.349c-0.524-0.233-0.976-0.557-1.354-0.973
				c-0.379-0.414-0.676-0.908-0.888-1.479c-0.212-0.571-0.318-1.198-0.318-1.883v-0.379c0-0.735,0.11-1.402,0.331-2
				c0.221-0.599,0.521-1.107,0.896-1.528c0.377-0.421,0.813-0.746,1.304-0.976c0.491-0.23,1.012-0.346,1.56-0.346
				c0.606,0,1.146,0.107,1.616,0.326s0.867,0.521,1.188,0.91c0.32,0.389,0.563,0.851,0.729,1.387
				c0.164,0.536,0.247,1.122,0.247,1.758v0.645h-6.819v0.203c0,0.524,0.08,1.019,0.239,1.479c0.158,0.463,0.382,0.864,0.671,1.206
				c0.288,0.342,0.633,0.609,1.033,0.809c0.399,0.197,0.845,0.295,1.334,0.295c0.564,0,1.063-0.103,1.497-0.309
				c0.433-0.206,0.826-0.535,1.179-0.988l0.663,0.502c-0.159,0.23-0.344,0.448-0.553,0.654s-0.451,0.387-0.729,0.538
				c-0.275,0.153-0.589,0.274-0.936,0.362C114.306,27.875,113.916,27.919,113.486,27.919z M113.292,18.908
				c-0.4,0-0.771,0.078-1.113,0.23c-0.342,0.152-0.644,0.37-0.904,0.653c-0.263,0.282-0.478,0.622-0.646,1.021
				c-0.168,0.397-0.281,0.838-0.34,1.32h5.731v-0.115c-0.013-0.399-0.076-0.787-0.194-1.16c-0.117-0.375-0.29-0.705-0.517-0.994
				c-0.228-0.289-0.509-0.52-0.844-0.693S113.739,18.908,113.292,18.908z"/>
			<path fill="#4A5877" d="M126.814,23.061c0,0.719-0.081,1.375-0.243,1.969c-0.162,0.596-0.399,1.105-0.711,1.533
				c-0.313,0.428-0.693,0.76-1.145,0.998s-0.965,0.357-1.542,0.357c-0.683,0-1.272-0.122-1.771-0.366
				c-0.498-0.245-0.908-0.582-1.232-1.012v4.876h-1.051v-13.23h0.979l0.054,1.352c0.323-0.479,0.732-0.852,1.228-1.122
				s1.084-0.406,1.767-0.406c0.583,0,1.104,0.114,1.561,0.345c0.456,0.229,0.84,0.557,1.152,0.98
				c0.312,0.424,0.549,0.936,0.711,1.531c0.162,0.598,0.242,1.269,0.242,2.01L126.814,23.061L126.814,23.061z M125.754,22.875
				c0-0.553-0.057-1.07-0.172-1.555c-0.115-0.482-0.288-0.9-0.521-1.254c-0.232-0.354-0.528-0.631-0.889-0.834
				c-0.357-0.205-0.779-0.307-1.263-0.307c-0.383,0-0.722,0.051-1.016,0.15c-0.295,0.101-0.552,0.234-0.772,0.402
				c-0.222,0.168-0.41,0.361-0.564,0.582c-0.156,0.221-0.284,0.453-0.385,0.693v4.584c0.111,0.241,0.252,0.465,0.42,0.671
				s0.364,0.386,0.592,0.534c0.227,0.15,0.484,0.27,0.771,0.354c0.289,0.086,0.612,0.129,0.973,0.129c0.481,0,0.9-0.103,1.254-0.305
				c0.354-0.203,0.646-0.482,0.879-0.84c0.233-0.355,0.406-0.775,0.521-1.259c0.114-0.481,0.172-1.005,0.172-1.563L125.754,22.875
				L125.754,22.875z"/>
			<path fill="#4A5877" d="M128.572,22.822c0-0.694,0.102-1.338,0.305-1.926s0.49-1.098,0.861-1.523s0.817-0.762,1.343-1.002
				c0.523-0.242,1.106-0.362,1.749-0.362c0.653,0,1.243,0.12,1.771,0.362c0.526,0.24,0.976,0.574,1.347,1.002
				c0.371,0.427,0.657,0.936,0.857,1.523c0.199,0.588,0.3,1.23,0.3,1.926v0.291c0,0.695-0.101,1.336-0.3,1.926
				c-0.2,0.589-0.486,1.097-0.857,1.523c-0.371,0.428-0.818,0.76-1.343,0.998c-0.523,0.238-1.109,0.357-1.757,0.357
				c-0.648,0-1.234-0.119-1.759-0.357c-0.523-0.238-0.974-0.57-1.348-0.998s-0.662-0.936-0.865-1.523s-0.305-1.23-0.305-1.926
				V22.822z M129.632,23.113c0,0.523,0.071,1.022,0.212,1.498c0.143,0.474,0.349,0.889,0.619,1.244
				c0.271,0.356,0.606,0.642,1.007,0.854c0.401,0.212,0.859,0.316,1.379,0.316c0.518,0,0.976-0.104,1.373-0.316
				c0.396-0.212,0.73-0.496,1.003-0.854c0.271-0.355,0.477-0.771,0.618-1.244c0.141-0.476,0.212-0.975,0.212-1.498v-0.291
				c0-0.512-0.071-1.006-0.212-1.479c-0.143-0.474-0.349-0.892-0.618-1.25c-0.271-0.358-0.608-0.646-1.013-0.86
				c-0.402-0.215-0.863-0.322-1.382-0.322c-0.513,0-0.968,0.107-1.364,0.322c-0.397,0.215-0.731,0.502-1.002,0.86
				c-0.271,0.358-0.479,0.776-0.619,1.25c-0.142,0.476-0.213,0.968-0.213,1.479V23.113L129.632,23.113z"/>
			<path fill="#4A5877" d="M144.577,26.311l3.798-8.125h1.308v9.557h-1.061v-7.844l-3.674,7.844h-0.751l-3.745-8.021v8.021h-1.051
				v-9.557h1.387L144.577,26.311z"/>
		</g>
	</g>
	<polygon fill="#304359" points="162.199,17.563 162.199,27.835 174.398,22.697 	"/>
</g>
<g id="Кнопка_Стать_дилером_1_" display="none">
	<rect x="0.531" y="0.57" display="inline" fill="none" stroke="#8A9FB5" stroke-miterlimit="10" width="208.715" height="44.219"/>
	<g id="Вход_для_дилеров_5_" display="inline">
		<g>
			<path fill="#8A9FB5" d="M52.688,23.719c-0.07,0.652-0.224,1.238-0.459,1.758c-0.234,0.518-0.552,0.957-0.949,1.314
				c-0.396,0.359-0.875,0.635-1.433,0.826c-0.555,0.191-1.188,0.287-1.895,0.287c-0.729,0-1.393-0.139-1.986-0.416
				c-0.596-0.275-1.104-0.67-1.526-1.18c-0.427-0.508-0.752-1.119-0.98-1.832c-0.229-0.713-0.346-1.502-0.346-2.367v-1.615
				c0-0.865,0.115-1.656,0.346-2.371c0.229-0.717,0.558-1.326,0.984-1.834c0.426-0.506,0.942-0.898,1.549-1.18
				c0.607-0.279,1.287-0.42,2.041-0.42c0.684,0,1.299,0.096,1.846,0.283c0.549,0.189,1.019,0.463,1.41,0.826
				c0.392,0.361,0.705,0.803,0.943,1.324c0.239,0.521,0.391,1.111,0.455,1.771h-1.095c-0.065-0.518-0.184-0.98-0.354-1.391
				c-0.172-0.41-0.402-0.752-0.693-1.029c-0.293-0.277-0.645-0.488-1.061-0.637s-0.9-0.221-1.453-0.221
				c-0.6,0-1.137,0.115-1.607,0.35c-0.47,0.232-0.871,0.561-1.201,0.984s-0.582,0.936-0.756,1.531
				c-0.174,0.598-0.26,1.264-0.26,1.992v1.635c0,0.705,0.082,1.357,0.248,1.955c0.164,0.6,0.406,1.113,0.723,1.547
				c0.318,0.434,0.711,0.77,1.177,1.012c0.465,0.24,0.998,0.361,1.598,0.361c1.137,0,1.994-0.271,2.57-0.816
				c0.577-0.545,0.934-1.361,1.069-2.451h1.095V23.719z"/>
			<path fill="#8A9FB5" d="M61.945,19.072h-3.48v8.656h-1.061v-8.656h-3.349v-0.9h7.89V19.072z"/>
			<path fill="#8A9FB5" d="M69.566,27.729c-0.059-0.166-0.105-0.367-0.137-0.605c-0.033-0.238-0.055-0.48-0.066-0.729
				c-0.158,0.205-0.348,0.4-0.564,0.582c-0.219,0.184-0.463,0.342-0.732,0.479c-0.271,0.135-0.569,0.244-0.894,0.326
				c-0.321,0.082-0.674,0.123-1.051,0.123c-0.465,0-0.887-0.066-1.268-0.201c-0.379-0.137-0.703-0.326-0.972-0.57
				c-0.268-0.244-0.477-0.531-0.623-0.861c-0.146-0.33-0.221-0.688-0.221-1.078c0-0.465,0.101-0.885,0.301-1.258
				c0.199-0.375,0.488-0.691,0.865-0.953c0.377-0.264,0.834-0.463,1.373-0.602s1.146-0.207,1.814-0.207h1.961v-1.088
				c0-0.684-0.209-1.219-0.631-1.611c-0.42-0.391-1.036-0.588-1.842-0.588c-0.371,0-0.714,0.051-1.023,0.15
				c-0.313,0.102-0.582,0.238-0.809,0.416c-0.228,0.176-0.404,0.381-0.531,0.613c-0.125,0.232-0.189,0.48-0.189,0.746l-1.059-0.01
				c0-0.359,0.088-0.707,0.264-1.041c0.179-0.336,0.427-0.635,0.746-0.896c0.322-0.264,0.707-0.473,1.158-0.633
				c0.449-0.158,0.949-0.236,1.496-0.236c0.508,0,0.973,0.063,1.401,0.193c0.426,0.129,0.793,0.322,1.1,0.582
				s0.545,0.584,0.715,0.973c0.172,0.389,0.258,0.842,0.258,1.359v4.629c0,0.164,0.006,0.336,0.018,0.514
				c0.012,0.176,0.029,0.346,0.057,0.512c0.029,0.164,0.057,0.322,0.094,0.473c0.035,0.15,0.076,0.281,0.123,0.393v0.105H69.566
				L69.566,27.729z M66.246,26.969c0.383,0,0.736-0.049,1.063-0.146c0.326-0.098,0.622-0.23,0.887-0.402
				c0.266-0.17,0.494-0.369,0.689-0.596c0.193-0.227,0.35-0.473,0.467-0.736v-2.104h-1.811c-0.541,0-1.025,0.049-1.453,0.146
				c-0.426,0.098-0.787,0.236-1.082,0.42c-0.293,0.182-0.52,0.404-0.676,0.666c-0.154,0.262-0.232,0.559-0.232,0.889
				c0,0.258,0.049,0.502,0.15,0.729c0.1,0.227,0.242,0.424,0.428,0.592c0.187,0.168,0.41,0.301,0.676,0.398
				C65.617,26.92,65.916,26.969,66.246,26.969z"/>
			<path fill="#8A9FB5" d="M79.945,19.072h-3.48v8.656h-1.059v-8.656h-3.348v-0.9h7.887V19.072z"/>
			<path fill="#8A9FB5" d="M82.841,21.643h2.738c0.566,0,1.066,0.076,1.502,0.229c0.438,0.152,0.803,0.363,1.102,0.633
				c0.297,0.268,0.52,0.588,0.672,0.957c0.146,0.371,0.225,0.773,0.225,1.211c0,0.436-0.076,0.84-0.225,1.211
				c-0.15,0.371-0.375,0.693-0.672,0.967c-0.299,0.273-0.664,0.488-1.102,0.645c-0.436,0.156-0.936,0.234-1.502,0.234h-3.789v-9.557
				h1.053v3.471H82.841z M82.841,22.543v4.293h2.738c0.441,0,0.816-0.061,1.127-0.182c0.311-0.119,0.563-0.279,0.754-0.477
				c0.195-0.197,0.336-0.426,0.424-0.686c0.092-0.26,0.135-0.527,0.135-0.805c0-0.266-0.043-0.525-0.135-0.781
				c-0.088-0.256-0.229-0.484-0.424-0.688c-0.191-0.203-0.443-0.367-0.754-0.49c-0.311-0.125-0.686-0.186-1.127-0.186H82.841
				L82.841,22.543z"/>
			<path fill="#8A9FB5" d="M95.535,26.836c0.164-0.207,0.342-0.439,0.533-0.697c0.191-0.26,0.371-0.586,0.539-0.98
				s0.314-0.875,0.441-1.443s0.209-1.266,0.244-2.09l0.158-3.453h5.645v8.664h0.988v3.701h-1.051v-2.809h-7.182v2.809h-1.018
				l0.01-3.701H95.535L95.535,26.836z M98.343,21.625c-0.027,0.666-0.09,1.266-0.182,1.801c-0.092,0.537-0.207,1.016-0.35,1.441
				c-0.141,0.424-0.303,0.795-0.484,1.115c-0.184,0.32-0.375,0.605-0.574,0.854h5.281V19.16h-3.576L98.343,21.625z"/>
			<path fill="#8A9FB5" d="M112.404,18.172h1.061v9.557h-1.061v-7.854l-5.158,7.854h-1.051v-9.557h1.051v7.859L112.404,18.172z"/>
			<path fill="#8A9FB5" d="M123.641,18.172v9.557h-1.061v-8.646h-3.914l-0.133,3.313c-0.041,0.918-0.113,1.713-0.221,2.385
				c-0.105,0.672-0.266,1.225-0.48,1.66c-0.215,0.438-0.498,0.76-0.848,0.973c-0.352,0.211-0.791,0.316-1.32,0.316h-0.381
				l0.02-0.943l0.326-0.01c0.316,0,0.588-0.072,0.805-0.221c0.219-0.148,0.396-0.391,0.543-0.729
				c0.145-0.34,0.256-0.787,0.332-1.348s0.133-1.256,0.168-2.086l0.176-4.221H123.641z"/>
			<path fill="#8A9FB5" d="M130.176,27.904c-0.625,0-1.197-0.115-1.723-0.348S127.477,27,127.1,26.584
				c-0.383-0.414-0.678-0.908-0.891-1.479c-0.211-0.57-0.316-1.197-0.316-1.883v-0.379c0-0.736,0.109-1.402,0.332-2
				c0.221-0.598,0.52-1.107,0.895-1.529c0.377-0.42,0.813-0.746,1.303-0.975c0.492-0.23,1.014-0.346,1.561-0.346
				c0.605,0,1.145,0.107,1.615,0.326c0.473,0.219,0.867,0.521,1.189,0.91c0.32,0.389,0.563,0.852,0.729,1.387
				c0.164,0.535,0.248,1.121,0.248,1.758v0.645h-6.82v0.203c0,0.525,0.08,1.02,0.24,1.48c0.158,0.463,0.381,0.863,0.67,1.205
				s0.633,0.609,1.033,0.809c0.4,0.197,0.846,0.295,1.334,0.295c0.566,0,1.064-0.102,1.498-0.309
				c0.432-0.205,0.826-0.535,1.178-0.988l0.664,0.502c-0.16,0.23-0.344,0.449-0.553,0.654c-0.209,0.207-0.451,0.387-0.729,0.539
				s-0.59,0.273-0.938,0.361C130.994,27.861,130.605,27.904,130.176,27.904z M129.98,18.895c-0.4,0-0.771,0.078-1.113,0.23
				s-0.643,0.371-0.904,0.652c-0.262,0.283-0.477,0.623-0.645,1.021c-0.168,0.396-0.281,0.838-0.34,1.32h5.73v-0.115
				c-0.012-0.4-0.076-0.787-0.193-1.16c-0.117-0.375-0.291-0.705-0.518-0.994s-0.508-0.52-0.842-0.693
				C130.82,18.982,130.428,18.895,129.98,18.895z"/>
			<path fill="#8A9FB5" d="M143.504,23.047c0,0.719-0.082,1.375-0.244,1.969c-0.16,0.596-0.396,1.105-0.711,1.533
				c-0.313,0.428-0.691,0.76-1.143,0.998s-0.965,0.357-1.543,0.357c-0.682,0-1.273-0.123-1.77-0.365
				c-0.498-0.246-0.908-0.582-1.232-1.014v4.877h-1.051v-13.23h0.98l0.053,1.352c0.324-0.479,0.732-0.852,1.227-1.123
				c0.496-0.27,1.084-0.404,1.768-0.404c0.582,0,1.104,0.113,1.561,0.344c0.457,0.229,0.84,0.557,1.15,0.98
				c0.314,0.424,0.549,0.936,0.711,1.531c0.162,0.598,0.244,1.27,0.244,2.01V23.047L143.504,23.047z M142.443,22.861
				c0-0.553-0.057-1.07-0.172-1.555c-0.115-0.482-0.289-0.9-0.521-1.254c-0.23-0.354-0.529-0.631-0.889-0.834
				c-0.357-0.205-0.779-0.307-1.262-0.307c-0.383,0-0.723,0.051-1.016,0.15c-0.295,0.102-0.553,0.234-0.773,0.402
				s-0.41,0.361-0.564,0.582c-0.156,0.221-0.285,0.453-0.385,0.693v4.584c0.111,0.24,0.252,0.465,0.42,0.672
				c0.168,0.205,0.365,0.385,0.592,0.533c0.229,0.15,0.484,0.27,0.771,0.354c0.289,0.086,0.613,0.129,0.973,0.129
				c0.482,0,0.9-0.102,1.254-0.305c0.355-0.203,0.646-0.482,0.879-0.84c0.234-0.357,0.406-0.775,0.521-1.26
				c0.115-0.48,0.172-1.004,0.172-1.563V22.861L142.443,22.861z"/>
			<path fill="#8A9FB5" d="M145.262,22.809c0-0.695,0.104-1.338,0.307-1.926s0.49-1.098,0.859-1.523
				c0.371-0.426,0.818-0.762,1.344-1.002c0.521-0.242,1.105-0.361,1.75-0.361c0.65,0,1.24,0.119,1.77,0.361
				c0.527,0.24,0.977,0.574,1.348,1.002s0.656,0.936,0.857,1.523c0.199,0.588,0.299,1.23,0.299,1.926V23.1
				c0,0.695-0.1,1.336-0.299,1.926c-0.201,0.588-0.486,1.098-0.857,1.523c-0.371,0.428-0.818,0.76-1.344,0.998
				c-0.523,0.238-1.109,0.357-1.756,0.357c-0.648,0-1.234-0.119-1.758-0.357c-0.525-0.238-0.975-0.57-1.348-0.998
				c-0.375-0.428-0.662-0.936-0.865-1.523s-0.307-1.23-0.307-1.926V22.809z M146.32,23.1c0,0.523,0.072,1.023,0.213,1.498
				c0.141,0.473,0.348,0.889,0.619,1.244c0.27,0.355,0.605,0.641,1.006,0.854c0.402,0.213,0.859,0.316,1.379,0.316
				s0.977-0.105,1.373-0.316c0.396-0.213,0.73-0.496,1.002-0.854c0.273-0.357,0.479-0.771,0.619-1.244
				c0.141-0.475,0.211-0.975,0.211-1.498v-0.291c0-0.512-0.068-1.006-0.211-1.479c-0.143-0.475-0.348-0.893-0.619-1.25
				c-0.27-0.359-0.605-0.646-1.012-0.861c-0.402-0.215-0.863-0.322-1.381-0.322c-0.514,0-0.969,0.107-1.365,0.322
				s-0.732,0.502-1.002,0.861c-0.27,0.357-0.479,0.775-0.619,1.25s-0.213,0.967-0.213,1.479V23.1L146.32,23.1z"/>
			<path fill="#8A9FB5" d="M161.266,26.297l3.799-8.125h1.307v9.557h-1.061v-7.844l-3.674,7.844h-0.75l-3.746-8.021v8.021h-1.051
				v-9.557h1.387L161.266,26.297z"/>
		</g>
	</g>
</g>
</svg>
