<?xml version="1.0" encoding="utf-8"?>
<!-- Generator: Adobe Illustrator 15.1.0, SVG Export Plug-In . SVG Version: 6.00 Build 0)  -->
<!DOCTYPE svg PUBLIC "-//W3C//DTD SVG 1.1//EN" "http://www.w3.org/Graphics/SVG/1.1/DTD/svg11.dtd">
<svg version="1.1" id="Layer_1" xmlns="http://www.w3.org/2000/svg" xmlns:xlink="http://www.w3.org/1999/xlink" x="0px" y="0px"
	 width="56.927px" height="70.164px" viewBox="0 0 56.927 70.164" enable-background="new 0 0 56.927 70.164" xml:space="preserve">
<g id="Другие_эффекты_1_">
	<g>
		<rect y="44.27" fill="none" width="76.976" height="28.727"/>
		<path fill="#CBCDCF" d="M9.628,56.529H8.074v-2.318H1.865v2.318h-1.58l-0.051-3.625h0.758c0.115-0.113,0.248-0.27,0.397-0.471
			c0.148-0.199,0.289-0.467,0.421-0.799c0.131-0.334,0.246-0.742,0.344-1.229c0.096-0.484,0.156-1.07,0.178-1.758l0.239-3.863h5.942
			v8.117h1.197L9.628,56.529z M3.97,48.65c-0.018,0.514-0.058,0.98-0.119,1.404c-0.063,0.424-0.144,0.811-0.239,1.158
			c-0.097,0.35-0.21,0.664-0.337,0.941c-0.127,0.279-0.265,0.527-0.411,0.748h4.021v-6.797H4.126L3.97,48.65z"/>
		<path fill="#CBCDCF" d="M16.924,50.779c0,0.51-0.059,0.982-0.178,1.418c-0.119,0.438-0.294,0.813-0.524,1.131
			c-0.23,0.316-0.517,0.564-0.854,0.744c-0.339,0.18-0.727,0.27-1.162,0.27c-0.4,0-0.754-0.064-1.056-0.193
			c-0.302-0.131-0.565-0.318-0.79-0.564v3.322h-1.572v-9.699h1.449l0.064,0.713c0.225-0.271,0.491-0.479,0.801-0.625
			c0.309-0.145,0.67-0.217,1.084-0.217c0.443,0,0.838,0.086,1.178,0.26c0.342,0.172,0.627,0.414,0.857,0.729
			c0.23,0.313,0.405,0.688,0.524,1.127c0.119,0.438,0.178,0.922,0.178,1.453V50.779L16.924,50.779z M15.357,50.645
			c0-0.314-0.031-0.611-0.095-0.889c-0.063-0.275-0.157-0.518-0.288-0.725c-0.13-0.207-0.296-0.369-0.498-0.488
			c-0.203-0.119-0.446-0.178-0.731-0.178c-0.345,0-0.63,0.07-0.854,0.213c-0.226,0.143-0.401,0.336-0.531,0.582v3.107
			c0.13,0.246,0.306,0.443,0.527,0.594c0.223,0.146,0.514,0.223,0.87,0.223c0.285,0,0.527-0.061,0.729-0.184s0.366-0.289,0.496-0.5
			c0.129-0.209,0.224-0.453,0.284-0.734s0.091-0.576,0.091-0.887L15.357,50.645L15.357,50.645z"/>
		<path fill="#CBCDCF" d="M20.633,51.959l1.426-4.752h1.677l-2.783,8.066c-0.064,0.176-0.15,0.367-0.256,0.572
			s-0.244,0.396-0.414,0.572c-0.172,0.178-0.379,0.324-0.625,0.443s-0.54,0.178-0.881,0.178c-0.134,0-0.267-0.012-0.398-0.035
			c-0.131-0.023-0.252-0.051-0.358-0.08v-1.219c0.039,0.01,0.09,0.016,0.151,0.018c0.063,0.002,0.111,0.004,0.146,0.004
			c0.193,0,0.363-0.018,0.508-0.049c0.146-0.033,0.271-0.088,0.379-0.162c0.107-0.076,0.2-0.174,0.277-0.291
			c0.078-0.119,0.146-0.268,0.207-0.443l0.227-0.602l-2.459-6.975h1.695L20.633,51.959z"/>
		<path fill="#CBCDCF" d="M29.304,48.475h-3.043v5.736h-1.567v-7.006h4.61V48.475z"/>
		<path fill="#CBCDCF" d="M34.565,47.207h1.566v7.004h-1.566v-4.674l-2.745,4.674h-1.566v-7.004h1.566v4.674L34.565,47.207z"/>
		<path fill="#CBCDCF" d="M40.891,54.342c-0.519,0-0.984-0.088-1.398-0.26s-0.766-0.41-1.056-0.713
			c-0.289-0.301-0.512-0.66-0.667-1.074c-0.154-0.414-0.232-0.859-0.232-1.34v-0.26c0-0.551,0.082-1.051,0.246-1.498
			s0.389-0.826,0.673-1.139c0.285-0.314,0.62-0.557,1.007-0.727c0.388-0.17,0.802-0.256,1.246-0.256c0.51,0,0.951,0.086,1.327,0.256
			s0.688,0.408,0.933,0.715c0.246,0.309,0.431,0.672,0.551,1.096c0.12,0.422,0.182,0.887,0.182,1.393v0.672h-4.577
			c0.021,0.271,0.078,0.523,0.172,0.752c0.092,0.229,0.219,0.426,0.379,0.592c0.159,0.166,0.349,0.297,0.566,0.393
			c0.217,0.096,0.465,0.143,0.74,0.143c0.389,0,0.727-0.078,1.014-0.232s0.536-0.369,0.748-0.641l0.848,0.809
			c-0.111,0.17-0.252,0.332-0.418,0.49c-0.166,0.156-0.358,0.297-0.582,0.42c-0.223,0.123-0.474,0.223-0.754,0.299
			C41.554,54.303,41.24,54.342,40.891,54.342z M40.703,48.34c-0.432,0-0.781,0.15-1.046,0.453c-0.266,0.303-0.436,0.725-0.509,1.264
			h2.998v-0.117c-0.015-0.207-0.047-0.406-0.102-0.6c-0.054-0.191-0.138-0.361-0.249-0.512c-0.111-0.148-0.258-0.268-0.438-0.355
			C41.181,48.385,40.961,48.34,40.703,48.34z"/>
		<path fill="#CBCDCF" d="M3.322,61.598c-0.182,0-0.353,0.029-0.508,0.088c-0.158,0.059-0.297,0.141-0.418,0.246
			s-0.216,0.23-0.285,0.379c-0.068,0.146-0.104,0.307-0.104,0.479H0.525c0-0.338,0.073-0.654,0.223-0.953
			c0.149-0.297,0.354-0.557,0.609-0.777c0.256-0.225,0.555-0.398,0.893-0.529c0.34-0.129,0.697-0.193,1.072-0.193
			c0.51,0,0.96,0.094,1.354,0.279s0.724,0.438,0.99,0.76c0.269,0.322,0.469,0.695,0.605,1.123c0.135,0.428,0.202,0.881,0.202,1.359
			v0.227c0,0.48-0.067,0.934-0.207,1.359c-0.139,0.428-0.34,0.801-0.604,1.121c-0.265,0.318-0.594,0.57-0.984,0.758
			c-0.391,0.184-0.84,0.277-1.35,0.277c-0.41,0-0.786-0.064-1.129-0.193c-0.344-0.131-0.64-0.311-0.887-0.541
			c-0.249-0.23-0.441-0.508-0.58-0.828c-0.14-0.322-0.207-0.678-0.207-1.064h1.481c0,0.189,0.031,0.367,0.095,0.533
			c0.063,0.166,0.151,0.311,0.27,0.434c0.115,0.123,0.255,0.223,0.417,0.295c0.161,0.074,0.342,0.109,0.54,0.109
			c0.255,0,0.476-0.053,0.66-0.154c0.185-0.104,0.342-0.242,0.467-0.414c0.125-0.174,0.224-0.373,0.291-0.6
			c0.069-0.227,0.115-0.463,0.138-0.709H2.683v-1.088h2.193c-0.025-0.236-0.074-0.465-0.146-0.68
			c-0.071-0.217-0.17-0.404-0.295-0.566s-0.279-0.291-0.464-0.389C3.789,61.646,3.572,61.598,3.322,61.598z"/>
		<path fill="#CBCDCF" d="M7.563,64.064c0-0.543,0.055-1.045,0.165-1.502c0.109-0.457,0.271-0.852,0.484-1.182
			c0.215-0.33,0.48-0.588,0.801-0.771c0.319-0.184,0.689-0.275,1.112-0.275c0.328,0,0.626,0.063,0.895,0.184v-2.992h1.565v3.018
			c0.276-0.139,0.601-0.207,0.972-0.207c0.424,0,0.795,0.092,1.114,0.275c0.318,0.182,0.587,0.439,0.803,0.77
			c0.216,0.332,0.378,0.727,0.488,1.184c0.109,0.457,0.164,0.957,0.164,1.502v0.135c0,0.496-0.055,0.953-0.164,1.369
			c-0.11,0.418-0.272,0.775-0.488,1.076c-0.217,0.299-0.482,0.533-0.801,0.701c-0.315,0.168-0.686,0.254-1.104,0.254
			c-0.194,0-0.373-0.02-0.534-0.053c-0.162-0.035-0.312-0.082-0.45-0.143v2.758H11.02v-2.732c-0.265,0.111-0.565,0.17-0.906,0.17
			c-0.414,0-0.781-0.086-1.101-0.254c-0.32-0.168-0.586-0.402-0.801-0.701c-0.213-0.301-0.375-0.658-0.484-1.076
			c-0.11-0.416-0.165-0.873-0.165-1.369V64.064z M9.129,64.201c0,0.297,0.023,0.576,0.071,0.838s0.125,0.488,0.233,0.684
			c0.106,0.193,0.25,0.348,0.428,0.455c0.176,0.111,0.396,0.166,0.653,0.166c0.193,0,0.361-0.021,0.505-0.064v-4.615
			c-0.074-0.021-0.15-0.037-0.23-0.049c-0.079-0.01-0.166-0.018-0.262-0.018c-0.259,0-0.479,0.066-0.657,0.197
			c-0.179,0.133-0.322,0.313-0.434,0.535c-0.11,0.225-0.188,0.486-0.236,0.783s-0.07,0.615-0.07,0.951L9.129,64.201L9.129,64.201z
			 M14.554,64.064c0-0.336-0.025-0.654-0.077-0.951c-0.053-0.297-0.136-0.561-0.249-0.783c-0.114-0.225-0.265-0.402-0.446-0.535
			c-0.185-0.131-0.405-0.197-0.664-0.197c-0.104,0-0.199,0.01-0.288,0.023c-0.089,0.016-0.169,0.035-0.243,0.061v4.598
			c0.144,0.043,0.324,0.064,0.544,0.064c0.26,0,0.479-0.055,0.661-0.166c0.181-0.107,0.327-0.262,0.439-0.455
			c0.111-0.193,0.193-0.422,0.245-0.684c0.053-0.262,0.078-0.541,0.078-0.838V64.064L14.554,64.064z"/>
		<path fill="#CBCDCF" d="M17.215,64.064c0-0.543,0.056-1.045,0.166-1.502c0.109-0.457,0.271-0.852,0.484-1.182
			c0.215-0.33,0.479-0.588,0.801-0.771c0.318-0.184,0.689-0.275,1.113-0.275c0.328,0,0.625,0.063,0.893,0.184v-2.992h1.566v3.018
			c0.277-0.139,0.601-0.207,0.972-0.207c0.424,0,0.794,0.092,1.114,0.275c0.318,0.184,0.586,0.439,0.803,0.77
			c0.216,0.33,0.378,0.727,0.488,1.184c0.109,0.457,0.165,0.957,0.165,1.502v0.135c0,0.496-0.056,0.953-0.165,1.369
			c-0.11,0.418-0.272,0.775-0.488,1.076c-0.217,0.299-0.481,0.533-0.801,0.701c-0.315,0.168-0.685,0.254-1.104,0.254
			c-0.193,0-0.372-0.02-0.533-0.053c-0.162-0.035-0.313-0.082-0.451-0.143v2.758h-1.566v-2.732c-0.263,0.111-0.563,0.17-0.905,0.17
			c-0.414,0-0.781-0.086-1.101-0.254s-0.586-0.402-0.801-0.701c-0.213-0.301-0.375-0.658-0.484-1.076
			c-0.11-0.416-0.166-0.873-0.166-1.369V64.064z M18.781,64.201c0,0.297,0.024,0.576,0.072,0.838
			c0.047,0.262,0.125,0.488,0.231,0.684c0.107,0.195,0.25,0.348,0.429,0.455c0.177,0.111,0.395,0.166,0.653,0.166
			c0.193,0,0.361-0.021,0.504-0.064v-4.615c-0.072-0.021-0.148-0.037-0.229-0.049c-0.079-0.01-0.167-0.018-0.263-0.018
			c-0.259,0-0.479,0.066-0.656,0.197c-0.18,0.133-0.324,0.313-0.434,0.535c-0.11,0.225-0.189,0.486-0.236,0.783
			c-0.048,0.297-0.072,0.615-0.072,0.951V64.201L18.781,64.201z M24.207,64.064c0-0.336-0.024-0.654-0.078-0.951
			c-0.051-0.297-0.135-0.561-0.248-0.783c-0.114-0.225-0.264-0.402-0.446-0.535c-0.185-0.131-0.404-0.197-0.664-0.197
			c-0.104,0-0.199,0.01-0.287,0.023c-0.09,0.016-0.17,0.035-0.244,0.061v4.598c0.143,0.043,0.324,0.064,0.545,0.064
			c0.259,0,0.479-0.055,0.66-0.166c0.182-0.107,0.328-0.262,0.439-0.455c0.112-0.193,0.194-0.422,0.245-0.684
			c0.054-0.262,0.078-0.541,0.078-0.838V64.064z"/>
		<path fill="#CBCDCF" d="M30.215,67.6c-0.518,0-0.983-0.086-1.397-0.26c-0.414-0.172-0.766-0.408-1.055-0.713
			c-0.289-0.301-0.513-0.66-0.668-1.072c-0.154-0.416-0.232-0.861-0.232-1.342v-0.26c0-0.551,0.082-1.051,0.246-1.498
			s0.389-0.826,0.674-1.139c0.285-0.314,0.62-0.555,1.006-0.727c0.387-0.17,0.803-0.256,1.246-0.256c0.51,0,0.952,0.086,1.328,0.256
			c0.375,0.172,0.686,0.408,0.932,0.717c0.246,0.307,0.43,0.67,0.551,1.094c0.121,0.422,0.183,0.887,0.183,1.393v0.672h-4.578
			c0.021,0.271,0.079,0.523,0.172,0.752S28.84,65.643,29,65.811c0.16,0.166,0.349,0.295,0.566,0.391s0.465,0.143,0.741,0.143
			c0.389,0,0.726-0.076,1.013-0.232c0.287-0.154,0.537-0.369,0.748-0.641l0.848,0.809c-0.11,0.17-0.251,0.332-0.417,0.49
			c-0.166,0.156-0.359,0.297-0.583,0.42c-0.222,0.123-0.473,0.223-0.754,0.299C30.88,67.563,30.564,67.6,30.215,67.6z
			 M30.027,61.598c-0.433,0-0.78,0.15-1.045,0.453c-0.267,0.303-0.437,0.725-0.509,1.264h2.996v-0.117
			c-0.013-0.207-0.046-0.406-0.1-0.6c-0.055-0.191-0.138-0.361-0.25-0.512c-0.111-0.148-0.258-0.268-0.438-0.355
			C30.506,61.643,30.286,61.598,30.027,61.598z"/>
		<path fill="#CBCDCF" d="M36.734,64.699h-0.797v2.771h-1.572v-7.006h1.572v2.797h0.692l1.937-2.797h1.94l-2.53,3.355l2.746,3.65
			h-2.048L36.734,64.699z"/>
		<path fill="#CBCDCF" d="M47.099,61.715h-2.272v5.756h-1.572v-5.756h-2.247v-1.25H47.1L47.099,61.715L47.099,61.715z"/>
		<path fill="#CBCDCF" d="M49.838,62.693h1.533c0.453,0,0.855,0.059,1.205,0.178c0.35,0.117,0.646,0.281,0.883,0.492
			c0.24,0.209,0.422,0.459,0.545,0.75s0.185,0.611,0.185,0.961c0,0.342-0.062,0.658-0.185,0.949s-0.305,0.543-0.545,0.758
			c-0.237,0.213-0.532,0.381-0.883,0.504s-0.752,0.186-1.205,0.186h-3.106v-7.006h1.573V62.693L49.838,62.693z M49.838,63.955v2.26
			h1.533c0.229,0,0.422-0.031,0.58-0.094c0.157-0.063,0.285-0.145,0.385-0.246c0.101-0.102,0.171-0.219,0.214-0.354
			s0.065-0.271,0.065-0.414c0-0.145-0.022-0.283-0.065-0.422s-0.113-0.262-0.214-0.367c-0.1-0.109-0.228-0.195-0.385-0.264
			c-0.158-0.066-0.351-0.102-0.58-0.102h-1.533V63.955z M56.927,67.471h-1.572v-7.006h1.572V67.471z"/>
	</g>
	<g id="Иконка_Другие_Эффекты_1_">
		<polygon fill="#CBCDCF" points="1.45,26.652 6.325,26.652 6.325,0.064 6.325,0 1.45,0 		"/>
		<polygon fill="#CBCDCF" points="19.827,4.205 15.114,2.961 14.267,6.182 8.313,28.73 13.026,29.975 19.829,4.205 		"/>
		<polygon fill="#CBCDCF" points="26.81,8.453 26.403,9.326 15.546,32.607 19.966,34.666 31.228,10.516 31.229,10.516 		"/>
	</g>
</g>
</svg>
