<?xml version="1.0" encoding="utf-8"?>
<!-- Generator: Adobe Illustrator 15.1.0, SVG Export Plug-In . SVG Version: 6.00 Build 0)  -->
<!DOCTYPE svg PUBLIC "-//W3C//DTD SVG 1.1//EN" "http://www.w3.org/Graphics/SVG/1.1/DTD/svg11.dtd">
<svg version="1.1" id="Layer_1" xmlns="http://www.w3.org/2000/svg" xmlns:xlink="http://www.w3.org/1999/xlink" x="0px" y="0px"
	 width="67.058px" height="73.869px" viewBox="0 0 67.058 73.869" enable-background="new 0 0 67.058 73.869" xml:space="preserve">
<g id="Другие_интерьеры_1_">
	<g>
		<g>
			<path fill="#CBCDCF" d="M9.395,60.232H7.841v-2.316H1.632v2.316H0.053L0,56.607h0.759c0.115-0.111,0.249-0.27,0.396-0.469
				c0.149-0.201,0.289-0.469,0.422-0.801c0.131-0.332,0.246-0.74,0.344-1.227c0.097-0.486,0.155-1.072,0.178-1.758l0.238-3.865H8.28
				v8.119h1.197L9.395,60.232z M3.736,52.354c-0.018,0.514-0.057,0.982-0.119,1.406c-0.062,0.422-0.143,0.809-0.24,1.158
				c-0.097,0.35-0.209,0.662-0.336,0.941c-0.128,0.277-0.265,0.527-0.412,0.748H6.65v-6.799H3.893L3.736,52.354z"/>
			<path fill="#CBCDCF" d="M16.691,54.484c0,0.51-0.061,0.98-0.178,1.418c-0.119,0.436-0.296,0.813-0.525,1.129
				c-0.229,0.318-0.516,0.566-0.854,0.744c-0.34,0.18-0.727,0.27-1.161,0.27c-0.402,0-0.755-0.064-1.058-0.193
				c-0.301-0.129-0.563-0.316-0.789-0.563v3.32h-1.572v-9.697h1.449l0.064,0.711c0.225-0.27,0.491-0.479,0.8-0.623
				c0.31-0.145,0.67-0.219,1.085-0.219c0.443,0,0.837,0.088,1.178,0.26c0.342,0.172,0.627,0.416,0.857,0.729
				s0.406,0.688,0.525,1.127c0.117,0.438,0.178,0.924,0.178,1.453L16.691,54.484L16.691,54.484z M15.125,54.348
				c0-0.314-0.032-0.609-0.095-0.887s-0.158-0.518-0.288-0.725c-0.129-0.209-0.295-0.371-0.498-0.49
				c-0.203-0.117-0.447-0.178-0.731-0.178c-0.346,0-0.63,0.072-0.854,0.213c-0.225,0.143-0.402,0.338-0.531,0.584v3.107
				c0.129,0.244,0.306,0.441,0.527,0.592c0.223,0.148,0.513,0.223,0.871,0.223c0.285,0,0.526-0.061,0.729-0.184
				c0.2-0.123,0.365-0.289,0.495-0.498s0.225-0.455,0.284-0.734c0.062-0.281,0.092-0.576,0.092-0.889V54.348z"/>
			<path fill="#CBCDCF" d="M20.4,55.662l1.424-4.752h1.678l-2.784,8.066c-0.064,0.176-0.148,0.367-0.256,0.572
				c-0.106,0.205-0.243,0.396-0.414,0.572c-0.171,0.178-0.379,0.324-0.625,0.443s-0.54,0.178-0.88,0.178
				c-0.135,0-0.268-0.012-0.397-0.035c-0.132-0.023-0.252-0.051-0.359-0.08v-1.219c0.039,0.01,0.09,0.016,0.152,0.018
				c0.062,0.002,0.11,0.004,0.146,0.004c0.194,0,0.363-0.018,0.509-0.049c0.145-0.033,0.271-0.088,0.379-0.162
				c0.107-0.076,0.199-0.174,0.277-0.291c0.078-0.119,0.146-0.268,0.207-0.443l0.228-0.604l-2.46-6.973h1.695L20.4,55.662z"/>
			<path fill="#CBCDCF" d="M29.069,52.18h-3.043v5.734h-1.567V50.91h4.61V52.18z"/>
			<path fill="#CBCDCF" d="M34.332,50.91h1.567v7.004h-1.567V53.24l-2.744,4.674h-1.565V50.91h1.565v4.674L34.332,50.91z"/>
			<path fill="#CBCDCF" d="M40.657,58.045c-0.518,0-0.982-0.088-1.396-0.26c-0.415-0.172-0.768-0.41-1.058-0.713
				c-0.289-0.301-0.511-0.66-0.666-1.074s-0.232-0.859-0.232-1.34v-0.26c0-0.551,0.082-1.051,0.245-1.498
				c0.164-0.447,0.39-0.826,0.674-1.139c0.285-0.314,0.621-0.557,1.008-0.727c0.386-0.17,0.801-0.256,1.246-0.256
				c0.509,0,0.951,0.086,1.326,0.256c0.376,0.17,0.688,0.408,0.934,0.715c0.245,0.309,0.429,0.672,0.549,1.096
				c0.121,0.422,0.182,0.887,0.182,1.393v0.672h-4.575c0.021,0.271,0.077,0.523,0.171,0.752c0.093,0.229,0.22,0.426,0.379,0.592
				s0.349,0.297,0.566,0.393s0.465,0.143,0.74,0.143c0.39,0,0.728-0.078,1.015-0.232c0.286-0.154,0.534-0.369,0.747-0.641
				l0.849,0.809c-0.113,0.17-0.252,0.332-0.418,0.49c-0.166,0.156-0.36,0.297-0.582,0.42c-0.224,0.123-0.476,0.223-0.755,0.299
				C41.322,58.006,41.007,58.045,40.657,58.045z M40.47,52.043c-0.433,0-0.78,0.15-1.047,0.453
				c-0.266,0.303-0.435,0.725-0.508,1.262h2.998v-0.115c-0.014-0.207-0.047-0.406-0.102-0.6c-0.054-0.191-0.138-0.361-0.248-0.512
				c-0.113-0.148-0.26-0.268-0.438-0.355C40.947,52.088,40.729,52.043,40.47,52.043z"/>
			<path fill="#CBCDCF" d="M4.947,64.168h1.566v7.006H4.947V66.5l-2.745,4.674H0.636v-7.006h1.566v4.674L4.947,64.168z"/>
			<path fill="#CBCDCF" d="M14.121,71.174h-1.573v-2.828H9.822v2.828H8.249v-7.006h1.573v2.92h2.726v-2.92h1.573V71.174z"/>
			<path fill="#CBCDCF" d="M21.307,65.418h-2.271v5.756h-1.574v-5.756h-2.245v-1.25h6.092L21.307,65.418L21.307,65.418z"/>
			<path fill="#CBCDCF" d="M25.022,71.303c-0.518,0-0.983-0.086-1.397-0.26c-0.415-0.172-0.767-0.408-1.057-0.711
				c-0.289-0.303-0.511-0.66-0.666-1.074c-0.155-0.416-0.233-0.861-0.233-1.342v-0.258c0-0.553,0.082-1.053,0.246-1.498
				c0.164-0.447,0.39-0.828,0.673-1.141c0.285-0.314,0.621-0.557,1.009-0.727c0.386-0.17,0.801-0.256,1.246-0.256
				c0.509,0,0.95,0.086,1.325,0.256c0.376,0.17,0.688,0.408,0.935,0.717c0.245,0.307,0.429,0.672,0.549,1.094
				c0.121,0.424,0.182,0.887,0.182,1.393v0.674h-4.576c0.021,0.271,0.078,0.521,0.172,0.75c0.093,0.229,0.22,0.426,0.379,0.594
				c0.158,0.166,0.349,0.295,0.565,0.391c0.218,0.096,0.465,0.145,0.741,0.145c0.389,0,0.727-0.078,1.014-0.232
				c0.287-0.156,0.535-0.369,0.747-0.641l0.85,0.809c-0.113,0.168-0.252,0.33-0.418,0.488c-0.166,0.156-0.36,0.299-0.582,0.422
				c-0.224,0.123-0.476,0.221-0.755,0.297C25.689,71.268,25.372,71.303,25.022,71.303z M24.835,65.303
				c-0.432,0-0.779,0.15-1.046,0.451c-0.266,0.305-0.435,0.727-0.508,1.266h2.998v-0.117c-0.014-0.207-0.047-0.406-0.103-0.6
				c-0.053-0.191-0.137-0.361-0.248-0.512c-0.112-0.148-0.259-0.268-0.438-0.355C25.313,65.346,25.093,65.303,24.835,65.303z"/>
			<path fill="#CBCDCF" d="M35.187,67.742c0,0.51-0.061,0.982-0.178,1.418c-0.119,0.438-0.295,0.814-0.524,1.129
				c-0.23,0.318-0.517,0.566-0.854,0.744c-0.339,0.18-0.727,0.271-1.162,0.271c-0.4,0-0.753-0.064-1.056-0.193
				c-0.302-0.131-0.564-0.318-0.789-0.564v3.322H29.05V64.17h1.45l0.064,0.713c0.225-0.271,0.49-0.48,0.799-0.625
				s0.67-0.217,1.085-0.217c0.444,0,0.837,0.086,1.179,0.26c0.34,0.172,0.627,0.414,0.857,0.727
				c0.229,0.314,0.405,0.689,0.524,1.127c0.117,0.439,0.178,0.924,0.178,1.453V67.742z M33.62,67.605
				c0-0.314-0.032-0.609-0.095-0.887c-0.063-0.275-0.158-0.518-0.287-0.725c-0.13-0.207-0.296-0.369-0.498-0.488
				c-0.203-0.119-0.447-0.178-0.732-0.178c-0.346,0-0.63,0.07-0.854,0.213s-0.401,0.336-0.53,0.582v3.107
				c0.129,0.246,0.305,0.441,0.527,0.594c0.223,0.148,0.512,0.223,0.871,0.223c0.283,0,0.526-0.061,0.728-0.184
				s0.366-0.289,0.495-0.5c0.13-0.209,0.225-0.453,0.285-0.734c0.06-0.281,0.091-0.576,0.091-0.887L33.62,67.605L33.62,67.605z"/>
			<path fill="#CBCDCF" d="M38.087,66.396h1.534c0.453,0,0.854,0.059,1.204,0.178c0.35,0.117,0.646,0.281,0.884,0.492
				c0.24,0.209,0.421,0.459,0.544,0.75s0.186,0.611,0.186,0.961c0,0.342-0.063,0.658-0.186,0.949s-0.304,0.543-0.544,0.758
				c-0.238,0.213-0.534,0.381-0.884,0.504s-0.751,0.186-1.204,0.186h-3.106v-7.006h1.572V66.396z M38.087,67.658v2.26h1.534
				c0.229,0,0.422-0.029,0.58-0.094c0.156-0.063,0.285-0.145,0.385-0.246c0.101-0.1,0.171-0.219,0.214-0.354
				c0.043-0.133,0.064-0.271,0.064-0.414s-0.021-0.283-0.064-0.422c-0.043-0.137-0.113-0.26-0.214-0.367
				c-0.1-0.109-0.229-0.195-0.385-0.264c-0.158-0.066-0.352-0.1-0.58-0.1H38.087L38.087,67.658z"/>
			<path fill="#CBCDCF" d="M46.781,71.303c-0.518,0-0.984-0.086-1.397-0.26c-0.414-0.172-0.767-0.408-1.056-0.711
				s-0.512-0.66-0.667-1.074c-0.155-0.416-0.232-0.861-0.232-1.342v-0.258c0-0.553,0.082-1.053,0.245-1.498
				c0.164-0.447,0.39-0.828,0.675-1.141c0.284-0.314,0.619-0.557,1.006-0.727s0.803-0.256,1.246-0.256
				c0.51,0,0.951,0.086,1.327,0.256c0.375,0.17,0.687,0.408,0.933,0.717c0.246,0.307,0.43,0.672,0.551,1.094
				c0.121,0.424,0.182,0.887,0.182,1.393v0.674h-4.578c0.021,0.271,0.079,0.521,0.173,0.75c0.093,0.229,0.219,0.426,0.379,0.594
				c0.16,0.166,0.349,0.295,0.565,0.391c0.218,0.096,0.465,0.145,0.741,0.145c0.39,0,0.726-0.078,1.013-0.232
				c0.287-0.156,0.537-0.369,0.748-0.641l0.849,0.809c-0.111,0.168-0.251,0.33-0.417,0.488c-0.166,0.156-0.36,0.299-0.583,0.422
				s-0.474,0.221-0.754,0.297C47.446,71.266,47.132,71.303,46.781,71.303z M46.593,65.303c-0.432,0-0.779,0.15-1.045,0.451
				c-0.266,0.305-0.436,0.727-0.509,1.266h2.997v-0.117c-0.013-0.207-0.046-0.406-0.1-0.6c-0.056-0.191-0.139-0.361-0.25-0.512
				c-0.111-0.148-0.259-0.268-0.438-0.355C47.072,65.346,46.853,65.303,46.593,65.303z"/>
			<path fill="#CBCDCF" d="M56.945,67.742c0,0.51-0.059,0.982-0.178,1.418c-0.119,0.438-0.293,0.814-0.523,1.129
				c-0.23,0.318-0.517,0.566-0.854,0.744c-0.338,0.18-0.728,0.271-1.162,0.271c-0.4,0-0.753-0.064-1.055-0.193
				c-0.304-0.131-0.566-0.318-0.791-0.564v3.322H50.81V64.17h1.449l0.065,0.713c0.224-0.271,0.49-0.48,0.799-0.625
				c0.31-0.145,0.67-0.217,1.084-0.217c0.445,0,0.838,0.086,1.179,0.26c0.342,0.172,0.627,0.414,0.858,0.727
				c0.229,0.314,0.404,0.689,0.522,1.127c0.119,0.439,0.179,0.924,0.179,1.453V67.742L56.945,67.742z M55.379,67.605
				c0-0.314-0.03-0.609-0.094-0.887c-0.063-0.275-0.158-0.518-0.288-0.725s-0.296-0.369-0.498-0.488
				c-0.203-0.119-0.445-0.178-0.73-0.178c-0.346,0-0.631,0.07-0.855,0.213c-0.224,0.143-0.399,0.336-0.529,0.582v3.107
				c0.13,0.246,0.306,0.441,0.527,0.594c0.223,0.148,0.512,0.223,0.87,0.223c0.284,0,0.527-0.061,0.728-0.184
				c0.201-0.123,0.367-0.289,0.496-0.5c0.129-0.209,0.226-0.453,0.285-0.734c0.061-0.281,0.09-0.576,0.09-0.887L55.379,67.605
				L55.379,67.605z"/>
			<path fill="#CBCDCF" d="M59.968,66.396h1.534c0.453,0,0.854,0.059,1.204,0.178c0.351,0.117,0.646,0.281,0.885,0.492
				c0.238,0.209,0.421,0.459,0.543,0.75c0.123,0.291,0.186,0.611,0.186,0.961c0,0.342-0.063,0.658-0.186,0.949
				s-0.305,0.543-0.543,0.758c-0.239,0.213-0.534,0.381-0.885,0.504c-0.35,0.123-0.751,0.186-1.204,0.186h-3.106v-7.006h1.572
				V66.396z M59.968,67.658v2.26h1.534c0.229,0,0.423-0.029,0.579-0.094c0.158-0.063,0.286-0.145,0.387-0.246
				c0.099-0.102,0.171-0.219,0.214-0.354c0.043-0.133,0.063-0.271,0.063-0.414s-0.021-0.283-0.063-0.422
				c-0.043-0.137-0.115-0.26-0.214-0.367c-0.101-0.109-0.229-0.195-0.387-0.264c-0.156-0.066-0.35-0.1-0.579-0.1H59.968
				L59.968,67.658z M67.058,71.174h-1.573v-7.006h1.573V71.174z"/>
		</g>
	</g>
	<g id="Иконка_Другие_интерьеры_1_">
		<path fill="#CBCDCF" d="M23.402,21.805h-8.449h-2.285H9.255c-0.438-2.219-1.084-3.613-2.002-4.479l-0.052-0.043
			c-0.045-0.041-0.094-0.074-0.137-0.111c-1.164-0.975-2.736-1.191-4.83-1.17v16.275h28.433V16.002
			C26.3,15.998,24.662,16.395,23.402,21.805z"/>
		<path fill="#CBCDCF" d="M10.35,17.006c0.184,0.506,0.34,1.061,0.454,1.689h10.957c0.99-4.467,4.371-5.717,5.945-5.768V3.65
			c0-0.758-0.346-1.646-1.131-2.357l-0.316-0.26l-0.037-0.025l0,0C25.4,0.414,24.204,0,22.566,0H10.449
			C6.746,0,5.304,2.102,5.304,3.65v9.277C6.713,12.973,9.156,13.736,10.35,17.006z"/>
		<polygon fill="#CBCDCF" points="2.193,34.615 2.193,37.998 10.3,37.998 10.3,34.615 5.145,34.615 		"/>
		<rect x="22.561" y="34.615" fill="#CBCDCF" width="8.104" height="3.383"/>
	</g>
</g>
</svg>
