<?xml version="1.0" encoding="utf-8"?>
<!-- Generator: Adobe Illustrator 15.1.0, SVG Export Plug-In . SVG Version: 6.00 Build 0)  -->
<!DOCTYPE svg PUBLIC "-//W3C//DTD SVG 1.1//EN" "http://www.w3.org/Graphics/SVG/1.1/DTD/svg11.dtd">
<svg version="1.1" id="Layer_1" xmlns="http://www.w3.org/2000/svg" xmlns:xlink="http://www.w3.org/1999/xlink" x="0px" y="0px"
	 width="42.656px" height="70.225px" viewBox="0 0 42.656 70.225" enable-background="new 0 0 42.656 70.225" xml:space="preserve">
<g id="Расчет_сметы_1_">
	<g>
		<g>
			<path fill="#CBCDCF" d="M2.083,53.334v3.502H0.444V47.41h3.606c0.548,0,1.034,0.074,1.459,0.223
				c0.426,0.15,0.785,0.357,1.078,0.625c0.294,0.27,0.518,0.586,0.67,0.953c0.154,0.365,0.229,0.766,0.229,1.197
				c0,0.457-0.075,0.867-0.229,1.23C7.105,52,6.882,52.307,6.588,52.557c-0.293,0.25-0.652,0.441-1.078,0.576
				c-0.425,0.135-0.911,0.201-1.459,0.201H2.083L2.083,53.334z M2.083,52.021h1.969c0.313,0,0.586-0.039,0.813-0.117
				c0.228-0.078,0.413-0.189,0.561-0.33c0.146-0.143,0.253-0.313,0.321-0.508c0.065-0.197,0.1-0.412,0.1-0.646
				c0-0.219-0.033-0.432-0.1-0.633c-0.068-0.203-0.174-0.385-0.321-0.541c-0.146-0.158-0.333-0.283-0.561-0.375
				c-0.227-0.094-0.498-0.141-0.813-0.141H2.083V52.021z"/>
			<path fill="#CBCDCF" d="M12.882,56.836c-0.043-0.082-0.078-0.178-0.106-0.291c-0.027-0.111-0.054-0.232-0.074-0.361
				c-0.104,0.107-0.22,0.209-0.347,0.305c-0.127,0.094-0.268,0.178-0.421,0.248c-0.153,0.072-0.318,0.129-0.499,0.17
				c-0.179,0.041-0.369,0.061-0.572,0.061c-0.35,0-0.672-0.053-0.965-0.158s-0.545-0.252-0.754-0.439s-0.373-0.408-0.492-0.664
				c-0.118-0.254-0.178-0.531-0.178-0.828c0-0.375,0.07-0.707,0.213-0.998c0.144-0.289,0.351-0.529,0.622-0.725
				c0.272-0.195,0.604-0.342,1-0.443c0.396-0.1,0.845-0.15,1.352-0.15h0.989V52.1c0-0.361-0.102-0.652-0.305-0.869
				c-0.203-0.219-0.512-0.328-0.926-0.328c-0.187,0-0.354,0.023-0.505,0.074c-0.151,0.051-0.28,0.115-0.387,0.201
				c-0.104,0.084-0.188,0.186-0.246,0.301c-0.058,0.117-0.087,0.242-0.087,0.375H8.621c0-0.275,0.068-0.541,0.204-0.799
				c0.137-0.258,0.329-0.486,0.579-0.688s0.555-0.361,0.91-0.482c0.355-0.119,0.754-0.182,1.194-0.182
				c0.393,0,0.755,0.051,1.087,0.152c0.333,0.102,0.619,0.254,0.861,0.453c0.241,0.201,0.43,0.451,0.563,0.752
				c0.134,0.301,0.2,0.65,0.2,1.053v3.105c0,0.631,0.089,1.135,0.266,1.51v0.109h-1.604V56.836z M11.153,55.703
				c0.183,0,0.352-0.021,0.509-0.07s0.301-0.109,0.428-0.188s0.238-0.168,0.334-0.27c0.094-0.102,0.17-0.203,0.227-0.309v-1.32
				h-0.849c-0.583,0-1.021,0.102-1.313,0.305c-0.294,0.203-0.44,0.49-0.44,0.861c0,0.143,0.023,0.273,0.071,0.395
				s0.118,0.227,0.214,0.313c0.096,0.09,0.211,0.158,0.347,0.209C10.813,55.678,10.972,55.703,11.153,55.703z"/>
			<path fill="#CBCDCF" d="M18.746,55.709c0.19,0,0.369-0.027,0.535-0.086s0.312-0.141,0.435-0.246s0.223-0.23,0.297-0.379
				c0.076-0.146,0.118-0.307,0.127-0.479h1.481c-0.013,0.336-0.096,0.652-0.248,0.949c-0.153,0.299-0.358,0.559-0.615,0.781
				s-0.557,0.396-0.896,0.523s-0.706,0.191-1.095,0.191c-0.539,0-1.008-0.094-1.408-0.277c-0.397-0.188-0.729-0.439-0.996-0.76
				c-0.266-0.318-0.463-0.691-0.593-1.119s-0.193-0.881-0.193-1.359v-0.227c0-0.479,0.063-0.934,0.193-1.359
				c0.13-0.428,0.327-0.801,0.593-1.123c0.267-0.322,0.597-0.574,0.994-0.76c0.396-0.188,0.865-0.279,1.404-0.279
				c0.423,0,0.809,0.064,1.155,0.193c0.348,0.131,0.646,0.313,0.894,0.545s0.442,0.512,0.582,0.834
				c0.142,0.324,0.218,0.68,0.23,1.068H20.14c-0.009-0.186-0.047-0.361-0.113-0.529c-0.065-0.17-0.159-0.316-0.277-0.441
				c-0.119-0.125-0.263-0.225-0.432-0.297c-0.168-0.074-0.357-0.111-0.569-0.111c-0.318,0-0.582,0.066-0.789,0.197
				c-0.207,0.133-0.371,0.305-0.492,0.516s-0.204,0.453-0.249,0.727c-0.046,0.27-0.067,0.545-0.067,0.822v0.227
				c0,0.285,0.021,0.563,0.067,0.832c0.045,0.27,0.128,0.51,0.249,0.721s0.283,0.383,0.488,0.514
				C18.159,55.646,18.424,55.709,18.746,55.709z"/>
			<path fill="#CBCDCF" d="M28.427,56.836h-1.574V54.5c-0.203,0.047-0.41,0.082-0.625,0.105c-0.213,0.023-0.432,0.037-0.656,0.037
				c-0.452,0-0.861-0.057-1.227-0.162c-0.365-0.107-0.675-0.273-0.931-0.492c-0.254-0.221-0.45-0.498-0.589-0.832
				c-0.138-0.334-0.207-0.729-0.207-1.182v-2.15h1.573v2.15c0,0.51,0.113,0.869,0.34,1.08c0.228,0.213,0.572,0.316,1.039,0.316
				c0.232,0,0.453-0.012,0.66-0.037s0.414-0.063,0.621-0.109V49.83h1.574L28.427,56.836L28.427,56.836z"/>
			<path fill="#CBCDCF" d="M33.185,56.967c-0.518,0-0.984-0.088-1.397-0.26c-0.414-0.172-0.767-0.41-1.057-0.713
				c-0.289-0.301-0.511-0.66-0.667-1.074c-0.154-0.414-0.231-0.859-0.231-1.34v-0.26c0-0.551,0.082-1.051,0.245-1.498
				c0.164-0.447,0.39-0.826,0.673-1.139c0.285-0.314,0.62-0.557,1.008-0.727c0.387-0.17,0.802-0.256,1.246-0.256
				c0.51,0,0.95,0.086,1.326,0.256s0.688,0.408,0.934,0.715c0.246,0.309,0.43,0.672,0.55,1.096c0.121,0.422,0.182,0.887,0.182,1.393
				v0.672h-4.577c0.021,0.271,0.078,0.523,0.173,0.752c0.092,0.229,0.219,0.426,0.379,0.592c0.159,0.166,0.348,0.297,0.565,0.393
				s0.465,0.143,0.74,0.143c0.389,0,0.728-0.078,1.014-0.232c0.287-0.154,0.536-0.369,0.748-0.641l0.849,0.809
				c-0.112,0.17-0.252,0.332-0.418,0.49c-0.166,0.156-0.359,0.297-0.582,0.42c-0.224,0.123-0.474,0.223-0.754,0.299
				C33.849,56.928,33.534,56.967,33.185,56.967z M32.996,50.965c-0.432,0-0.78,0.15-1.046,0.453s-0.435,0.725-0.509,1.264h2.998
				v-0.117c-0.014-0.207-0.047-0.406-0.101-0.6c-0.054-0.191-0.138-0.361-0.249-0.512c-0.112-0.148-0.258-0.268-0.438-0.355
				C33.475,51.01,33.255,50.965,32.996,50.965z"/>
			<path fill="#CBCDCF" d="M42.655,51.082h-2.271v5.754h-1.574v-5.754h-2.246v-1.25h6.092L42.655,51.082L42.655,51.082z"/>
			<path fill="#CBCDCF" d="M3.171,68.969c0.188,0,0.368-0.027,0.534-0.088c0.166-0.059,0.311-0.141,0.434-0.246
				c0.123-0.104,0.223-0.229,0.298-0.379c0.076-0.145,0.117-0.305,0.127-0.479h1.482c-0.015,0.336-0.098,0.654-0.25,0.951
				c-0.152,0.299-0.357,0.559-0.615,0.781c-0.256,0.223-0.555,0.396-0.896,0.523C3.943,70.16,3.58,70.225,3.19,70.225
				c-0.539,0-1.009-0.096-1.407-0.277c-0.398-0.188-0.731-0.439-0.997-0.758c-0.266-0.32-0.464-0.693-0.594-1.121
				C0.063,67.641,0,67.188,0,66.709v-0.227c0-0.48,0.063-0.934,0.192-1.359c0.13-0.428,0.328-0.801,0.594-1.123
				s0.597-0.574,0.993-0.76c0.397-0.186,0.865-0.281,1.405-0.281c0.422,0,0.809,0.066,1.154,0.195
				c0.348,0.131,0.646,0.313,0.896,0.545c0.248,0.23,0.44,0.512,0.582,0.834c0.141,0.324,0.217,0.68,0.229,1.068H4.563
				c-0.01-0.188-0.047-0.361-0.112-0.529c-0.067-0.17-0.16-0.316-0.279-0.441s-0.262-0.225-0.43-0.297
				c-0.17-0.074-0.359-0.111-0.57-0.111c-0.319,0-0.582,0.066-0.789,0.197c-0.208,0.133-0.372,0.305-0.492,0.516
				c-0.121,0.211-0.205,0.453-0.25,0.725s-0.067,0.547-0.067,0.822v0.227c0,0.285,0.022,0.564,0.067,0.832
				c0.045,0.27,0.129,0.51,0.25,0.723c0.12,0.213,0.283,0.383,0.488,0.514C2.583,68.904,2.847,68.969,3.171,68.969z"/>
			<path fill="#CBCDCF" d="M11.393,68.16l2.071-5.07h1.969v7.006h-1.573v-4.637l-1.929,4.637h-1.068l-1.936-4.66v4.66H7.353V63.09
				h1.981L11.393,68.16z"/>
			<path fill="#CBCDCF" d="M20.281,70.225c-0.518,0-0.982-0.086-1.396-0.26c-0.415-0.172-0.768-0.408-1.057-0.711
				s-0.512-0.66-0.666-1.074c-0.155-0.416-0.233-0.861-0.233-1.342V66.58c0-0.553,0.082-1.053,0.246-1.498
				c0.164-0.447,0.389-0.828,0.673-1.141c0.285-0.314,0.621-0.555,1.008-0.727c0.386-0.17,0.801-0.256,1.246-0.256
				c0.509,0,0.951,0.086,1.326,0.256c0.376,0.172,0.688,0.408,0.934,0.717c0.245,0.307,0.43,0.672,0.549,1.094
				c0.121,0.424,0.183,0.887,0.183,1.393v0.674h-4.576c0.021,0.271,0.078,0.521,0.171,0.75s0.22,0.426,0.379,0.594
				c0.159,0.166,0.35,0.295,0.566,0.391s0.465,0.145,0.74,0.145c0.39,0,0.728-0.078,1.015-0.232
				c0.287-0.156,0.535-0.369,0.747-0.641l0.849,0.809c-0.113,0.168-0.252,0.33-0.418,0.488s-0.36,0.299-0.582,0.422
				c-0.223,0.123-0.475,0.221-0.755,0.297S20.631,70.225,20.281,70.225z M20.094,64.223c-0.432,0-0.78,0.152-1.046,0.453
				c-0.267,0.303-0.436,0.725-0.509,1.264h2.998v-0.117c-0.014-0.207-0.047-0.406-0.102-0.6c-0.053-0.191-0.137-0.361-0.248-0.51
				c-0.113-0.15-0.259-0.268-0.438-0.357C20.571,64.268,20.353,64.223,20.094,64.223z"/>
			<path fill="#CBCDCF" d="M29.753,64.34H27.48v5.758h-1.573V64.34h-2.245v-1.25h6.092L29.753,64.34L29.753,64.34z"/>
			<path fill="#CBCDCF" d="M32.491,65.318h1.534c0.453,0,0.854,0.059,1.204,0.178c0.351,0.117,0.646,0.281,0.884,0.492
				c0.239,0.209,0.422,0.459,0.544,0.75c0.123,0.291,0.186,0.611,0.186,0.961c0,0.342-0.063,0.658-0.186,0.949
				s-0.305,0.543-0.544,0.758c-0.238,0.213-0.533,0.381-0.884,0.504c-0.35,0.123-0.751,0.186-1.204,0.186h-3.106V63.09h1.572V65.318
				z M32.491,66.58v2.26h1.534c0.229,0,0.422-0.029,0.579-0.094c0.158-0.063,0.286-0.145,0.386-0.246s0.172-0.219,0.215-0.354
				c0.043-0.133,0.063-0.271,0.063-0.414s-0.021-0.283-0.063-0.422c-0.043-0.137-0.115-0.26-0.215-0.367
				c-0.1-0.109-0.228-0.195-0.386-0.264c-0.157-0.066-0.35-0.1-0.579-0.1H32.491L32.491,66.58z M39.58,70.098h-1.573V63.09h1.573
				V70.098z"/>
		</g>
	</g>
	<path id="Иконка_расчет_Сметы_1_" fill="#CBCDCF" d="M26.016,0.545c-0.149-0.223-0.355-0.387-0.595-0.475
		L25.312,0L25.11,0.006C25.089,0.006,25.067,0,25.045,0H1.659C0.988,0,0.442,0.604,0.442,1.352v35.301
		c0,0.477,0.224,0.891,0.558,1.133c0.189,0.135,0.416,0.217,0.659,0.217h23.386c0.671,0,1.216-0.604,1.216-1.35V1.352
		C26.26,1.047,26.167,0.77,26.016,0.545z M5.44,20.307h3.404c0.24,0,0.432,0.221,0.432,0.494v2.451c0,0.275-0.19,0.496-0.432,0.496
		H5.44c-0.24,0-0.436-0.221-0.436-0.496v-2.451C5.005,20.527,5.2,20.307,5.44,20.307z M5.005,17.764v-2.453
		c0-0.271,0.194-0.494,0.436-0.494h3.404c0.24,0,0.432,0.223,0.432,0.494v2.453c0,0.275-0.19,0.496-0.432,0.496H5.44
		C5.2,18.26,5.005,18.039,5.005,17.764z M5.44,25.797h3.404c0.24,0,0.432,0.219,0.432,0.49v2.455c0,0.273-0.19,0.494-0.432,0.494
		H5.44c-0.24,0-0.436-0.221-0.436-0.494v-2.455C5.005,26.016,5.2,25.797,5.44,25.797z M5.44,31.283h3.404
		c0.24,0,0.432,0.223,0.432,0.496v2.451c0,0.271-0.19,0.496-0.432,0.496H5.44c-0.24,0-0.436-0.225-0.436-0.496v-2.451
		C5.005,31.504,5.2,31.283,5.44,31.283z M11.615,20.307h3.404c0.24,0,0.434,0.221,0.434,0.494v2.451
		c0,0.275-0.192,0.496-0.434,0.496h-3.404c-0.238,0-0.433-0.221-0.433-0.496v-2.451C11.183,20.527,11.376,20.307,11.615,20.307z
		 M11.183,17.764v-2.453c0-0.271,0.193-0.494,0.433-0.494h3.404c0.24,0,0.434,0.223,0.434,0.494v2.453
		c0,0.275-0.192,0.496-0.434,0.496h-3.404C11.376,18.26,11.183,18.039,11.183,17.764z M11.615,25.797h3.404
		c0.24,0,0.434,0.219,0.434,0.49v2.455c0,0.273-0.192,0.494-0.434,0.494h-3.404c-0.238,0-0.433-0.221-0.433-0.494v-2.455
		C11.183,26.016,11.376,25.797,11.615,25.797z M11.615,31.283h3.404c0.24,0,0.434,0.223,0.434,0.496v2.451
		c0,0.271-0.192,0.496-0.434,0.496h-3.404c-0.238,0-0.433-0.225-0.433-0.496v-2.451C11.183,31.504,11.376,31.283,11.615,31.283z
		 M17.789,20.307h3.405c0.24,0,0.436,0.221,0.436,0.494v2.451c0,0.275-0.194,0.496-0.436,0.496h-3.405
		c-0.238,0-0.434-0.221-0.434-0.496v-2.451C17.356,20.527,17.551,20.307,17.789,20.307z M17.356,17.764v-2.453
		c0-0.271,0.194-0.494,0.433-0.494h3.406c0.24,0,0.436,0.223,0.436,0.494v2.453c0,0.275-0.194,0.496-0.436,0.496h-3.406
		C17.551,18.26,17.356,18.039,17.356,17.764z M17.789,25.797h3.405c0.24,0,0.436,0.219,0.436,0.49v2.455
		c0,0.273-0.194,0.494-0.436,0.494h-3.405c-0.238,0-0.434-0.221-0.434-0.494v-2.455C17.356,26.016,17.551,25.797,17.789,25.797z
		 M17.789,31.283h3.405c0.24,0,0.436,0.223,0.436,0.496v2.451c0,0.271-0.194,0.496-0.436,0.496h-3.405
		c-0.238,0-0.434-0.225-0.434-0.496v-2.451C17.356,31.504,17.551,31.283,17.789,31.283z M23.436,9.422
		c0,0.75-0.547,1.357-1.223,1.357H4.211c-0.678,0-1.227-0.607-1.227-1.357V4.307c0-0.75,0.549-1.357,1.227-1.357h18.002
		c0.676,0,1.223,0.607,1.223,1.357V9.422z"/>
</g>
</svg>
