<?xml version="1.0" encoding="utf-8"?>
<!-- Generator: Adobe Illustrator 15.1.0, SVG Export Plug-In . SVG Version: 6.00 Build 0)  -->
<!DOCTYPE svg PUBLIC "-//W3C//DTD SVG 1.1//EN" "http://www.w3.org/Graphics/SVG/1.1/DTD/svg11.dtd">
<svg version="1.1" id="Layer_1" xmlns="http://www.w3.org/2000/svg" xmlns:xlink="http://www.w3.org/1999/xlink" x="0px" y="0px"
	 width="59.755px" height="72.74px" viewBox="0 0 59.755 72.74" enable-background="new 0 0 59.755 72.74" xml:space="preserve">
<g id="Описание_продукта_1_">
	<g>
		<g>
			<path fill="#CBCDCF" d="M7.82,52.365c0,0.715-0.094,1.357-0.281,1.926c-0.187,0.568-0.452,1.049-0.793,1.441
				c-0.342,0.396-0.752,0.699-1.229,0.91c-0.479,0.211-1.01,0.318-1.593,0.318c-0.578,0-1.106-0.107-1.587-0.318
				c-0.479-0.211-0.893-0.514-1.238-0.91c-0.349-0.395-0.617-0.875-0.812-1.441C0.097,53.723,0,53.08,0,52.365v-0.48
				c0-0.715,0.097-1.359,0.287-1.928c0.193-0.57,0.461-1.055,0.804-1.451c0.344-0.396,0.755-0.701,1.233-0.912
				c0.479-0.213,1.008-0.318,1.586-0.318c0.582,0,1.114,0.105,1.597,0.318c0.479,0.211,0.894,0.516,1.235,0.912
				c0.344,0.396,0.609,0.881,0.797,1.451c0.188,0.568,0.281,1.213,0.281,1.928V52.365L7.82,52.365z M6.182,51.873
				c0-0.527-0.052-0.992-0.151-1.396c-0.102-0.402-0.249-0.742-0.443-1.014c-0.193-0.271-0.433-0.479-0.716-0.617
				c-0.281-0.141-0.604-0.211-0.961-0.211c-0.35,0-0.665,0.07-0.944,0.211c-0.281,0.141-0.521,0.346-0.715,0.617
				c-0.197,0.271-0.349,0.609-0.453,1.014c-0.106,0.404-0.159,0.869-0.159,1.396v0.492c0,0.525,0.053,0.99,0.159,1.396
				c0.104,0.406,0.258,0.746,0.455,1.021c0.198,0.273,0.438,0.48,0.723,0.621c0.283,0.141,0.599,0.211,0.948,0.211
				c0.726,0,1.281-0.277,1.674-0.83c0.39-0.553,0.585-1.359,0.585-2.42L6.182,51.873L6.182,51.873z"/>
			<path fill="#CBCDCF" d="M15.24,56.832h-1.574v-5.736h-2.73v5.736H9.362v-7.006h5.879L15.24,56.832L15.24,56.832z"/>
			<path fill="#CBCDCF" d="M21.286,49.826h1.567v7.006h-1.567v-4.674l-2.745,4.674h-1.565v-7.006h1.565V54.5L21.286,49.826z"/>
			<path fill="#CBCDCF" d="M27.404,55.705c0.189,0,0.367-0.029,0.533-0.088s0.311-0.141,0.434-0.246s0.224-0.23,0.299-0.379
				c0.075-0.146,0.117-0.307,0.126-0.479h1.482c-0.013,0.336-0.097,0.652-0.249,0.951c-0.153,0.297-0.358,0.557-0.615,0.779
				s-0.556,0.396-0.896,0.523c-0.342,0.127-0.706,0.191-1.094,0.191c-0.541,0-1.011-0.094-1.408-0.277
				c-0.399-0.186-0.732-0.438-0.998-0.758s-0.463-0.693-0.592-1.121c-0.13-0.428-0.194-0.881-0.194-1.357v-0.229
				c0-0.479,0.064-0.932,0.194-1.359c0.129-0.428,0.326-0.801,0.592-1.123c0.266-0.32,0.598-0.574,0.994-0.76
				s0.864-0.279,1.404-0.279c0.424,0,0.809,0.064,1.155,0.193c0.349,0.131,0.646,0.313,0.895,0.545s0.441,0.512,0.583,0.834
				c0.14,0.324,0.217,0.682,0.229,1.068h-1.482c-0.009-0.186-0.046-0.361-0.112-0.529c-0.067-0.17-0.159-0.314-0.278-0.439
				s-0.262-0.227-0.431-0.299s-0.358-0.109-0.569-0.109c-0.32,0-0.583,0.064-0.79,0.197c-0.208,0.131-0.372,0.303-0.492,0.514
				c-0.12,0.213-0.204,0.453-0.249,0.727c-0.045,0.271-0.067,0.547-0.067,0.822v0.227c0,0.285,0.022,0.563,0.067,0.832
				s0.129,0.51,0.249,0.723c0.12,0.211,0.284,0.381,0.489,0.512C26.816,55.641,27.08,55.705,27.404,55.705z"/>
			<path fill="#CBCDCF" d="M35.651,56.832c-0.043-0.082-0.079-0.18-0.105-0.291c-0.028-0.113-0.054-0.234-0.074-0.363
				c-0.104,0.107-0.221,0.209-0.348,0.305c-0.128,0.096-0.268,0.178-0.421,0.248c-0.153,0.072-0.318,0.129-0.498,0.17
				s-0.371,0.063-0.573,0.063c-0.35,0-0.671-0.055-0.965-0.16c-0.294-0.104-0.545-0.252-0.754-0.439
				c-0.21-0.188-0.374-0.408-0.492-0.662c-0.117-0.256-0.179-0.531-0.179-0.83c0-0.375,0.072-0.707,0.215-0.996
				c0.144-0.289,0.351-0.531,0.621-0.727c0.271-0.193,0.605-0.342,1-0.441c0.396-0.102,0.845-0.152,1.351-0.152h0.989v-0.461
				c0-0.361-0.102-0.65-0.304-0.869c-0.203-0.219-0.511-0.328-0.926-0.328c-0.187,0-0.354,0.025-0.505,0.074
				c-0.151,0.051-0.279,0.117-0.386,0.201c-0.105,0.084-0.188,0.186-0.245,0.301c-0.06,0.117-0.089,0.242-0.089,0.375h-1.572
				c0-0.273,0.066-0.541,0.204-0.799c0.136-0.256,0.329-0.486,0.579-0.686c0.25-0.201,0.554-0.361,0.908-0.482
				c0.357-0.121,0.755-0.182,1.195-0.182c0.393,0,0.755,0.051,1.088,0.15c0.332,0.104,0.619,0.254,0.86,0.453
				c0.24,0.201,0.43,0.451,0.563,0.752c0.134,0.301,0.201,0.65,0.201,1.053v3.107c0,0.629,0.088,1.133,0.266,1.508v0.109H35.651
				L35.651,56.832z M33.923,55.699c0.182,0,0.351-0.023,0.509-0.072c0.157-0.047,0.299-0.109,0.427-0.188s0.239-0.168,0.333-0.27
				c0.096-0.102,0.171-0.203,0.228-0.307v-1.322H34.57c-0.582,0-1.021,0.102-1.313,0.305s-0.439,0.49-0.439,0.861
				c0,0.143,0.023,0.273,0.07,0.395c0.048,0.121,0.119,0.227,0.215,0.314c0.094,0.088,0.209,0.158,0.346,0.207
				C33.583,55.674,33.742,55.699,33.923,55.699z"/>
			<path fill="#CBCDCF" d="M44.572,56.832H43v-2.83h-2.726v2.83h-1.573v-7.006h1.573v2.92H43v-2.92h1.572V56.832z"/>
			<path fill="#CBCDCF" d="M50.619,49.826h1.567v7.006h-1.567v-4.674l-2.744,4.674H46.31v-7.006h1.565V54.5L50.619,49.826z"/>
			<path fill="#CBCDCF" d="M56.944,56.961c-0.518,0-0.983-0.086-1.396-0.26c-0.416-0.172-0.768-0.408-1.058-0.711
				c-0.289-0.303-0.511-0.66-0.666-1.074c-0.155-0.416-0.233-0.861-0.233-1.342v-0.26c0-0.551,0.082-1.051,0.246-1.496
				c0.164-0.447,0.39-0.828,0.674-1.141s0.62-0.555,1.008-0.727c0.386-0.17,0.801-0.256,1.246-0.256
				c0.509,0,0.951,0.086,1.326,0.256c0.375,0.172,0.688,0.41,0.934,0.717c0.245,0.307,0.429,0.67,0.549,1.094
				c0.121,0.422,0.182,0.887,0.182,1.393v0.674h-4.576c0.021,0.27,0.078,0.521,0.172,0.75c0.093,0.229,0.22,0.426,0.379,0.594
				c0.159,0.166,0.349,0.295,0.565,0.391c0.219,0.096,0.466,0.143,0.741,0.143c0.389,0,0.728-0.076,1.014-0.232
				c0.287-0.154,0.535-0.369,0.747-0.641l0.85,0.809c-0.113,0.17-0.252,0.332-0.418,0.49c-0.166,0.156-0.36,0.297-0.582,0.42
				c-0.224,0.123-0.476,0.223-0.755,0.299C57.609,56.924,57.294,56.961,56.944,56.961z M56.757,50.959
				c-0.433,0-0.78,0.152-1.047,0.453c-0.266,0.303-0.435,0.725-0.508,1.264H58.2v-0.117c-0.014-0.207-0.047-0.406-0.102-0.6
				c-0.054-0.191-0.138-0.361-0.248-0.51c-0.113-0.15-0.26-0.27-0.438-0.357C57.234,51.004,57.016,50.959,56.757,50.959z"/>
			<path fill="#CBCDCF" d="M6.087,70.09H4.513v-5.736H1.781v5.736H0.208v-7.004h5.88L6.087,70.09L6.087,70.09z"/>
			<path fill="#CBCDCF" d="M13.893,66.658c0,0.51-0.06,0.982-0.179,1.418c-0.118,0.438-0.293,0.813-0.523,1.131
				c-0.231,0.316-0.518,0.564-0.854,0.744c-0.339,0.18-0.727,0.27-1.161,0.27c-0.401,0-0.755-0.064-1.057-0.193
				c-0.302-0.131-0.564-0.318-0.79-0.564v3.322H7.756v-9.699h1.449l0.065,0.713c0.224-0.271,0.49-0.479,0.8-0.625
				c0.309-0.145,0.67-0.217,1.084-0.217c0.444,0,0.838,0.086,1.178,0.26c0.342,0.172,0.627,0.414,0.858,0.729
				c0.229,0.313,0.404,0.688,0.523,1.127c0.119,0.438,0.179,0.922,0.179,1.453V66.658L13.893,66.658z M12.326,66.523
				c0-0.314-0.03-0.609-0.094-0.887s-0.158-0.518-0.289-0.725c-0.129-0.209-0.295-0.371-0.498-0.49
				c-0.203-0.117-0.446-0.178-0.73-0.178c-0.346,0-0.63,0.07-0.854,0.213s-0.4,0.338-0.531,0.584v3.105
				c0.131,0.246,0.307,0.443,0.528,0.594c0.222,0.148,0.513,0.223,0.87,0.223c0.285,0,0.527-0.061,0.729-0.184
				c0.202-0.123,0.366-0.289,0.496-0.498c0.129-0.209,0.225-0.455,0.284-0.734c0.062-0.281,0.091-0.576,0.091-0.889L12.326,66.523
				L12.326,66.523z"/>
			<path fill="#CBCDCF" d="M14.928,66.523c0-0.51,0.074-0.98,0.225-1.414c0.147-0.434,0.361-0.811,0.641-1.131
				c0.278-0.318,0.618-0.568,1.021-0.75s0.855-0.271,1.365-0.271c0.514,0,0.974,0.09,1.379,0.271
				c0.406,0.182,0.748,0.432,1.026,0.75c0.277,0.32,0.49,0.697,0.638,1.131c0.146,0.434,0.221,0.904,0.221,1.414v0.137
				c0,0.51-0.074,0.98-0.221,1.418c-0.146,0.436-0.359,0.813-0.638,1.129s-0.62,0.564-1.022,0.744
				c-0.404,0.18-0.859,0.27-1.369,0.27c-0.514,0-0.973-0.09-1.376-0.27s-0.744-0.428-1.022-0.744s-0.491-0.693-0.641-1.129
				c-0.148-0.438-0.225-0.908-0.225-1.418L14.928,66.523L14.928,66.523z M16.503,66.658c0,0.314,0.031,0.613,0.097,0.895
				c0.064,0.281,0.166,0.525,0.304,0.734c0.139,0.209,0.314,0.375,0.528,0.496c0.214,0.119,0.468,0.18,0.761,0.18
				c0.289,0,0.541-0.059,0.754-0.18c0.214-0.121,0.389-0.287,0.524-0.496s0.237-0.453,0.305-0.734
				c0.066-0.281,0.101-0.578,0.101-0.895v-0.137c0-0.311-0.033-0.604-0.101-0.883c-0.067-0.277-0.169-0.521-0.308-0.73
				c-0.14-0.209-0.314-0.377-0.527-0.502c-0.214-0.125-0.468-0.189-0.762-0.189c-0.293,0-0.545,0.064-0.754,0.189
				s-0.383,0.293-0.521,0.502c-0.138,0.209-0.238,0.453-0.304,0.73c-0.063,0.277-0.097,0.572-0.097,0.883V66.658L16.503,66.658z"/>
			<path fill="#CBCDCF" d="M22.334,68.828c0.183-0.199,0.341-0.396,0.478-0.592c0.136-0.197,0.252-0.42,0.346-0.664
				c0.096-0.246,0.171-0.527,0.228-0.846c0.057-0.316,0.096-0.699,0.116-1.148l0.071-2.492h4.862v5.748h0.971v3.342h-1.566V70.09
				h-4.492v2.086h-1.594l0.006-3.348H22.334L22.334,68.828z M25.073,65.578c-0.039,0.75-0.138,1.393-0.298,1.922
				c-0.16,0.531-0.36,0.977-0.603,1.334h2.692v-4.396h-1.761L25.073,65.578z"/>
			<path fill="#CBCDCF" d="M32.979,67.838l1.424-4.752h1.677l-2.784,8.064c-0.063,0.178-0.148,0.369-0.256,0.574
				c-0.104,0.205-0.243,0.396-0.414,0.572c-0.17,0.178-0.379,0.324-0.625,0.443c-0.245,0.117-0.538,0.178-0.88,0.178
				c-0.134,0-0.267-0.012-0.397-0.035c-0.132-0.023-0.251-0.051-0.358-0.08v-1.219c0.038,0.01,0.089,0.016,0.151,0.018
				c0.062,0.002,0.11,0.002,0.146,0.002c0.194,0,0.363-0.016,0.508-0.047c0.146-0.033,0.271-0.088,0.38-0.162
				c0.107-0.076,0.2-0.174,0.278-0.293c0.077-0.117,0.146-0.266,0.207-0.441l0.228-0.604l-2.461-6.973h1.696L32.979,67.838z"/>
			<path fill="#CBCDCF" d="M39.472,67.32h-0.796v2.771h-1.574v-7.006h1.574v2.797h0.691l1.937-2.797h1.941l-2.53,3.354l2.743,3.652
				h-2.045L39.472,67.32z"/>
			<path fill="#CBCDCF" d="M49.837,64.336h-2.271v5.754h-1.574v-5.754h-2.246v-1.25h6.093L49.837,64.336L49.837,64.336z"/>
			<path fill="#CBCDCF" d="M54.964,70.09c-0.043-0.082-0.078-0.178-0.105-0.291c-0.029-0.111-0.054-0.232-0.075-0.363
				c-0.104,0.109-0.22,0.211-0.347,0.307c-0.127,0.094-0.268,0.178-0.42,0.248c-0.154,0.07-0.32,0.129-0.499,0.17
				c-0.18,0.041-0.37,0.061-0.573,0.061c-0.35,0-0.671-0.053-0.965-0.158c-0.293-0.105-0.545-0.252-0.754-0.439
				c-0.209-0.189-0.373-0.408-0.492-0.664c-0.118-0.254-0.178-0.531-0.178-0.828c0-0.375,0.07-0.707,0.214-0.998
				c0.143-0.289,0.35-0.529,0.622-0.725c0.271-0.193,0.604-0.342,1-0.443c0.395-0.102,0.844-0.152,1.35-0.152h0.99v-0.459
				c0-0.361-0.103-0.652-0.305-0.869c-0.203-0.219-0.512-0.328-0.927-0.328c-0.186,0-0.354,0.023-0.504,0.074
				c-0.151,0.051-0.28,0.115-0.386,0.201c-0.106,0.084-0.188,0.186-0.246,0.301s-0.087,0.24-0.087,0.375h-1.574
				c0-0.275,0.068-0.543,0.205-0.799c0.135-0.258,0.328-0.486,0.579-0.688c0.25-0.201,0.554-0.361,0.909-0.482
				s0.754-0.182,1.194-0.182c0.394,0,0.754,0.051,1.088,0.152c0.332,0.102,0.618,0.254,0.859,0.453
				c0.242,0.201,0.43,0.451,0.564,0.75c0.133,0.303,0.199,0.652,0.199,1.055v3.105c0,0.631,0.09,1.133,0.267,1.508v0.111h-1.604
				V70.09z M53.234,68.957c0.182,0,0.353-0.023,0.509-0.07c0.157-0.049,0.301-0.109,0.428-0.188c0.128-0.078,0.238-0.168,0.334-0.27
				c0.095-0.102,0.17-0.205,0.227-0.309v-1.32h-0.848c-0.583,0-1.021,0.102-1.314,0.305s-0.439,0.49-0.439,0.861
				c0,0.143,0.023,0.273,0.07,0.395c0.047,0.123,0.119,0.227,0.215,0.313c0.095,0.09,0.209,0.158,0.347,0.209
				C52.895,68.932,53.054,68.957,53.234,68.957z"/>
		</g>
	</g>
	<path id="Иконка_Описание_продукта_1_" fill="#CBCDCF" d="M0.503,0v38h27.738V0H0.503z M4.682,4.01h6.23
		v9.617h-6.23V4.01z M23.212,33.668H4.452v-3.525h18.76V33.668z M23.212,27.418H4.452v-3.527h18.76V27.418z M23.212,21.162H4.452
		v-3.527h18.76V21.162z M23.212,13.789h-9.28V10.26h9.28V13.789z M23.212,7.375h-9.28V3.848h9.28V7.375z"/>
</g>
</svg>
