<?xml version="1.0" encoding="utf-8"?>
<!-- Generator: Adobe Illustrator 15.1.0, SVG Export Plug-In . SVG Version: 6.00 Build 0)  -->
<!DOCTYPE svg PUBLIC "-//W3C//DTD SVG 1.1//EN" "http://www.w3.org/Graphics/SVG/1.1/DTD/svg11.dtd">
<svg version="1.1" id="Layer_1" xmlns="http://www.w3.org/2000/svg" xmlns:xlink="http://www.w3.org/1999/xlink" x="0px" y="0px"
	 width="64.9px" height="70.217px" viewBox="0 0 64.9 70.217" enable-background="new 0 0 64.9 70.217" xml:space="preserve">
<g id="Техника_нанесения_1_">
	<g>
		<g>
			<path fill="#CBCDCF" d="M7.476,48.725H4.538v8.105H2.913v-8.105H0v-1.318h7.477L7.476,48.725L7.476,48.725z"/>
			<path fill="#CBCDCF" d="M11.068,56.961c-0.518,0-0.983-0.088-1.397-0.26s-0.766-0.41-1.055-0.713
				c-0.289-0.301-0.513-0.66-0.667-1.074c-0.155-0.414-0.233-0.861-0.233-1.34v-0.26c0-0.551,0.082-1.051,0.246-1.498
				c0.164-0.445,0.389-0.826,0.674-1.139s0.62-0.555,1.006-0.727c0.387-0.17,0.803-0.256,1.246-0.256
				c0.51,0,0.952,0.086,1.328,0.256c0.375,0.172,0.686,0.408,0.932,0.717c0.246,0.307,0.431,0.67,0.552,1.094
				c0.12,0.422,0.182,0.887,0.182,1.393v0.674H9.303c0.021,0.27,0.079,0.521,0.172,0.75s0.219,0.426,0.379,0.592
				s0.35,0.297,0.566,0.393c0.218,0.096,0.465,0.143,0.741,0.143c0.389,0,0.726-0.076,1.013-0.232
				c0.287-0.154,0.537-0.369,0.748-0.641l0.848,0.809c-0.11,0.17-0.251,0.332-0.417,0.49c-0.166,0.156-0.359,0.297-0.583,0.42
				c-0.222,0.123-0.473,0.223-0.754,0.299C11.734,56.922,11.419,56.961,11.068,56.961z M10.882,50.959
				c-0.432,0-0.78,0.15-1.045,0.453C9.57,51.715,9.4,52.137,9.328,52.676h2.996v-0.117c-0.013-0.207-0.046-0.406-0.1-0.6
				c-0.055-0.191-0.138-0.361-0.25-0.51c-0.111-0.15-0.258-0.27-0.437-0.357C11.361,51.004,11.141,50.959,10.882,50.959z"/>
			<path fill="#CBCDCF" d="M17.614,52.131l1.334-2.305h1.748l-2.144,3.449l2.214,3.555h-1.734l-1.398-2.395l-1.392,2.395h-1.748
				l2.214-3.555l-2.137-3.449h1.734L17.614,52.131z"/>
			<path fill="#CBCDCF" d="M27.7,56.83h-1.572v-2.828h-2.726v2.828h-1.573v-7.004h1.573v2.92h2.726v-2.92H27.7V56.83z"/>
			<path fill="#CBCDCF" d="M33.747,49.826h1.566v7.004h-1.566v-4.672l-2.744,4.672h-1.566v-7.004h1.566V54.5L33.747,49.826z"/>
			<path fill="#CBCDCF" d="M39.478,54.061h-0.797v2.77h-1.573v-7.004h1.573v2.797h0.693l1.936-2.797h1.941L40.72,53.18l2.745,3.652
				h-2.046L39.478,54.061z"/>
			<path fill="#CBCDCF" d="M48.515,56.83c-0.043-0.082-0.079-0.178-0.106-0.291c-0.027-0.111-0.053-0.232-0.074-0.363
				c-0.104,0.109-0.219,0.211-0.346,0.305c-0.129,0.098-0.269,0.18-0.422,0.25c-0.152,0.07-0.318,0.127-0.498,0.168
				c-0.181,0.041-0.371,0.064-0.572,0.064c-0.35,0-0.672-0.055-0.965-0.16c-0.295-0.105-0.545-0.252-0.754-0.439
				c-0.211-0.188-0.375-0.408-0.492-0.664c-0.119-0.254-0.18-0.531-0.18-0.828c0-0.375,0.071-0.707,0.215-0.998
				c0.143-0.289,0.35-0.529,0.621-0.725c0.271-0.193,0.604-0.342,1-0.443s0.846-0.152,1.351-0.152h0.989v-0.459
				c0-0.363-0.102-0.652-0.303-0.871c-0.203-0.217-0.513-0.326-0.927-0.326c-0.187,0-0.354,0.023-0.506,0.074
				c-0.149,0.049-0.279,0.115-0.385,0.201c-0.105,0.084-0.188,0.184-0.246,0.301c-0.058,0.115-0.088,0.24-0.088,0.375h-1.572
				c0-0.275,0.067-0.543,0.203-0.799c0.137-0.258,0.33-0.486,0.58-0.688s0.553-0.361,0.909-0.482
				c0.355-0.121,0.755-0.182,1.193-0.182c0.393,0,0.756,0.051,1.088,0.152s0.619,0.252,0.861,0.453
				c0.241,0.201,0.43,0.451,0.563,0.75c0.136,0.301,0.201,0.652,0.201,1.053v3.109c0,0.629,0.088,1.133,0.267,1.508v0.109h-1.605
				V56.83z M46.786,55.697c0.182,0,0.35-0.023,0.508-0.07c0.158-0.049,0.3-0.111,0.428-0.188c0.127-0.078,0.238-0.168,0.333-0.27
				c0.096-0.104,0.172-0.203,0.228-0.309v-1.32h-0.849c-0.582,0-1.021,0.102-1.313,0.305s-0.44,0.49-0.44,0.861
				c0,0.143,0.023,0.271,0.071,0.395c0.048,0.121,0.118,0.227,0.214,0.314s0.21,0.158,0.346,0.207
				C46.445,55.672,46.605,55.697,46.786,55.697z"/>
			<path fill="#CBCDCF" d="M6.445,70.09H4.874v-2.83H2.147v2.83H0.575v-7.006h1.572v2.92h2.727v-2.92h1.571V70.09z"/>
			<path fill="#CBCDCF" d="M12.306,70.09c-0.043-0.082-0.078-0.18-0.105-0.291c-0.028-0.113-0.054-0.234-0.075-0.363
				c-0.104,0.107-0.219,0.209-0.346,0.307c-0.127,0.094-0.269,0.178-0.421,0.248c-0.153,0.07-0.319,0.129-0.499,0.17
				s-0.369,0.061-0.572,0.061c-0.35,0-0.672-0.053-0.965-0.158s-0.545-0.252-0.754-0.441c-0.209-0.188-0.373-0.408-0.492-0.662
				c-0.119-0.256-0.178-0.531-0.178-0.83c0-0.375,0.069-0.707,0.213-0.996c0.143-0.289,0.35-0.531,0.622-0.725
				c0.271-0.195,0.604-0.342,1-0.443c0.396-0.1,0.845-0.152,1.351-0.152h0.99V65.35c0-0.359-0.103-0.65-0.306-0.869
				c-0.202-0.219-0.512-0.328-0.926-0.328c-0.186,0-0.354,0.025-0.505,0.074c-0.151,0.051-0.28,0.117-0.386,0.201
				c-0.106,0.084-0.188,0.186-0.246,0.301c-0.058,0.117-0.087,0.242-0.087,0.375H8.046c0-0.273,0.068-0.541,0.204-0.799
				c0.136-0.256,0.329-0.486,0.579-0.686c0.25-0.201,0.554-0.361,0.91-0.482c0.354-0.121,0.754-0.182,1.193-0.182
				c0.394,0,0.755,0.051,1.087,0.152c0.333,0.102,0.619,0.252,0.861,0.453s0.43,0.451,0.563,0.75c0.135,0.301,0.2,0.652,0.2,1.053
				v3.107c0,0.631,0.089,1.133,0.267,1.508v0.111H12.306L12.306,70.09z M10.577,68.957c0.182,0,0.351-0.023,0.508-0.072
				c0.158-0.047,0.301-0.109,0.428-0.188s0.238-0.168,0.334-0.268c0.095-0.102,0.17-0.205,0.228-0.309v-1.32h-0.85
				c-0.583,0-1.021,0.102-1.313,0.305c-0.294,0.203-0.441,0.49-0.441,0.861c0,0.141,0.024,0.273,0.072,0.395
				c0.047,0.121,0.118,0.225,0.213,0.313c0.096,0.09,0.211,0.158,0.348,0.209C10.236,68.932,10.396,68.957,10.577,68.957z"/>
			<path fill="#CBCDCF" d="M21.228,70.09h-1.573v-2.83h-2.726v2.83h-1.573v-7.006h1.573v2.92h2.726v-2.92h1.573V70.09z"/>
			<path fill="#CBCDCF" d="M25.986,70.219c-0.519,0-0.984-0.086-1.398-0.26c-0.414-0.172-0.766-0.408-1.055-0.711
				s-0.513-0.66-0.667-1.074c-0.155-0.416-0.233-0.861-0.233-1.342v-0.258c0-0.553,0.082-1.053,0.246-1.498
				c0.164-0.447,0.389-0.828,0.674-1.141s0.62-0.555,1.006-0.725c0.387-0.17,0.803-0.256,1.246-0.256
				c0.51,0,0.952,0.086,1.328,0.256c0.375,0.17,0.686,0.408,0.932,0.715s0.431,0.672,0.551,1.094
				c0.121,0.424,0.183,0.887,0.183,1.393v0.674H24.22c0.021,0.271,0.079,0.521,0.172,0.75c0.093,0.23,0.219,0.426,0.379,0.594
				c0.16,0.166,0.35,0.295,0.566,0.393c0.217,0.096,0.465,0.143,0.741,0.143c0.389,0,0.726-0.078,1.013-0.232
				c0.287-0.156,0.537-0.369,0.748-0.641l0.848,0.809c-0.11,0.168-0.251,0.33-0.417,0.488s-0.359,0.299-0.583,0.422
				c-0.222,0.123-0.473,0.221-0.754,0.297C26.65,70.182,26.335,70.219,25.986,70.219z M25.798,64.217
				c-0.432,0-0.78,0.152-1.045,0.453c-0.267,0.303-0.437,0.725-0.509,1.264h2.996v-0.117c-0.013-0.207-0.046-0.404-0.1-0.6
				c-0.055-0.191-0.138-0.361-0.25-0.51c-0.111-0.15-0.258-0.268-0.437-0.357C26.277,64.262,26.057,64.217,25.798,64.217z"/>
			<path fill="#CBCDCF" d="M32.894,68.963c0.189,0,0.367-0.029,0.533-0.088s0.312-0.141,0.434-0.246
				c0.123-0.105,0.224-0.23,0.3-0.379c0.074-0.146,0.116-0.305,0.125-0.479h1.482c-0.013,0.336-0.097,0.654-0.249,0.951
				c-0.153,0.299-0.358,0.559-0.615,0.781c-0.257,0.221-0.556,0.395-0.896,0.521c-0.342,0.129-0.706,0.191-1.094,0.191
				c-0.54,0-1.011-0.094-1.408-0.277c-0.399-0.186-0.732-0.438-0.998-0.758c-0.266-0.318-0.463-0.691-0.592-1.121
				c-0.129-0.428-0.194-0.881-0.194-1.357v-0.229c0-0.479,0.065-0.932,0.194-1.357c0.129-0.428,0.326-0.803,0.592-1.123
				c0.266-0.322,0.598-0.574,0.994-0.762c0.396-0.186,0.865-0.277,1.404-0.277c0.424,0,0.809,0.063,1.155,0.191
				c0.349,0.133,0.646,0.314,0.895,0.545c0.248,0.232,0.441,0.514,0.583,0.834c0.14,0.324,0.217,0.682,0.229,1.068h-1.481
				c-0.01-0.186-0.046-0.361-0.113-0.529c-0.067-0.17-0.159-0.314-0.278-0.439s-0.262-0.227-0.431-0.297
				c-0.169-0.074-0.358-0.111-0.569-0.111c-0.319,0-0.583,0.066-0.79,0.197c-0.208,0.133-0.372,0.305-0.491,0.516
				c-0.121,0.211-0.204,0.453-0.25,0.725c-0.045,0.271-0.067,0.547-0.067,0.822v0.227c0,0.285,0.022,0.563,0.067,0.832
				c0.046,0.27,0.129,0.51,0.25,0.723c0.119,0.211,0.283,0.381,0.488,0.512C32.306,68.898,32.568,68.963,32.894,68.963z"/>
			<path fill="#CBCDCF" d="M40.04,70.219c-0.519,0-0.984-0.086-1.398-0.26c-0.414-0.172-0.766-0.408-1.055-0.711
				s-0.512-0.66-0.667-1.074c-0.155-0.416-0.233-0.861-0.233-1.342v-0.258c0-0.553,0.082-1.053,0.246-1.498
				c0.164-0.447,0.39-0.828,0.674-1.141c0.285-0.313,0.62-0.555,1.006-0.725c0.388-0.17,0.804-0.256,1.246-0.256
				c0.511,0,0.952,0.086,1.328,0.256c0.375,0.17,0.687,0.408,0.933,0.715c0.245,0.307,0.43,0.672,0.551,1.094
				c0.121,0.424,0.182,0.887,0.182,1.393v0.674h-4.578c0.021,0.271,0.079,0.521,0.172,0.75c0.094,0.23,0.22,0.426,0.379,0.594
				c0.16,0.166,0.35,0.295,0.566,0.393c0.217,0.096,0.465,0.143,0.741,0.143c0.389,0,0.726-0.078,1.013-0.232
				c0.287-0.156,0.537-0.369,0.748-0.641L42.74,68.9c-0.11,0.168-0.25,0.33-0.416,0.488s-0.36,0.299-0.584,0.422
				c-0.222,0.123-0.473,0.221-0.754,0.297C40.705,70.182,40.39,70.219,40.04,70.219z M39.853,64.217
				c-0.432,0-0.779,0.152-1.045,0.453c-0.266,0.303-0.436,0.725-0.509,1.264h2.997v-0.117c-0.013-0.207-0.046-0.404-0.101-0.6
				c-0.055-0.191-0.138-0.361-0.25-0.51c-0.11-0.15-0.258-0.268-0.437-0.357C40.331,64.262,40.111,64.217,39.853,64.217z"/>
			<path fill="#CBCDCF" d="M50.003,70.09h-1.572v-2.83h-2.726v2.83h-1.573v-7.006h1.573v2.92h2.726v-2.92h1.572V70.09z"/>
			<path fill="#CBCDCF" d="M56.05,63.084h1.567v7.006H56.05v-4.674l-2.744,4.674H51.74v-7.006h1.565v4.674L56.05,63.084z"/>
			<path fill="#CBCDCF" d="M64.9,63.084v7.006h-1.566v-2.57h-1.469l-1.496,2.57h-1.631l1.649-2.83
				c-0.432-0.182-0.763-0.439-0.993-0.777c-0.23-0.336-0.347-0.723-0.347-1.156c0-0.324,0.063-0.621,0.193-0.895
				c0.13-0.27,0.314-0.508,0.558-0.709c0.241-0.201,0.538-0.355,0.891-0.471c0.352-0.111,0.75-0.168,1.194-0.168H64.9L64.9,63.084z
				 M60.62,65.363c0,0.121,0.022,0.24,0.067,0.359s0.117,0.225,0.215,0.316c0.097,0.094,0.22,0.17,0.365,0.227
				c0.146,0.059,0.323,0.088,0.53,0.088h1.534v-2.02h-1.449c-0.221,0-0.41,0.027-0.57,0.09c-0.159,0.061-0.291,0.141-0.392,0.236
				c-0.103,0.098-0.177,0.207-0.228,0.33C60.645,65.113,60.62,65.238,60.62,65.363z"/>
		</g>
	</g>
	<g>
		<polygon fill="#CBCDCF" points="23.886,11.871 16.07,11.871 17.116,0 8.636,0 9.681,11.871 1.866,11.871 1.866,19.477 
			23.886,19.477 		"/>
		<rect x="1.815" y="20.828" fill="#CBCDCF" width="22.087" height="2.803"/>
		<polygon fill="#CBCDCF" points="24.222,25.215 1.931,25.215 1.07,38 25.083,38 		"/>
	</g>
</g>
</svg>
