<?xml version="1.0" encoding="utf-8"?>
<!-- Generator: Adobe Illustrator 15.1.0, SVG Export Plug-In . SVG Version: 6.00 Build 0)  -->
<!DOCTYPE svg PUBLIC "-//W3C//DTD SVG 1.1//EN" "http://www.w3.org/Graphics/SVG/1.1/DTD/svg11.dtd">
<svg version="1.1" id="Layer_1" xmlns="http://www.w3.org/2000/svg" xmlns:xlink="http://www.w3.org/1999/xlink" x="0px" y="0px"
	 width="71.484px" height="61.23px" viewBox="0 0 71.484 61.23" enable-background="new 0 0 71.484 61.23" xml:space="preserve">
<g id="Галерея_интерьеров_1_">
	<g>
		<g>
			<path fill="#CBCDCF" d="M6.215,37.17H1.863v8.105H0.231V35.85h5.981v1.32H6.215z"/>
			<path fill="#CBCDCF" d="M10.563,45.277c-0.043-0.082-0.078-0.18-0.104-0.291c-0.029-0.113-0.055-0.234-0.076-0.363
				c-0.104,0.107-0.219,0.209-0.347,0.305c-0.127,0.094-0.268,0.178-0.42,0.248c-0.153,0.072-0.319,0.129-0.499,0.17
				c-0.179,0.041-0.37,0.063-0.572,0.063c-0.351,0-0.672-0.055-0.966-0.16c-0.293-0.105-0.545-0.252-0.754-0.439
				S6.452,44.4,6.334,44.145c-0.119-0.254-0.179-0.529-0.179-0.828c0-0.375,0.071-0.707,0.214-0.996s0.35-0.531,0.622-0.727
				c0.271-0.193,0.604-0.342,1-0.441C8.387,41.049,8.836,41,9.342,41h0.989v-0.461c0-0.361-0.102-0.652-0.305-0.869
				c-0.203-0.219-0.511-0.328-0.927-0.328c-0.186,0-0.354,0.025-0.504,0.074c-0.151,0.051-0.279,0.117-0.386,0.201
				c-0.105,0.084-0.188,0.186-0.245,0.301c-0.059,0.117-0.088,0.242-0.088,0.375H6.303c0-0.275,0.068-0.541,0.205-0.799
				c0.135-0.256,0.328-0.486,0.579-0.688c0.25-0.201,0.554-0.359,0.909-0.48s0.754-0.184,1.195-0.184
				c0.393,0,0.754,0.053,1.087,0.152c0.333,0.102,0.619,0.254,0.86,0.453c0.241,0.201,0.43,0.451,0.563,0.752
				c0.133,0.301,0.2,0.65,0.2,1.053v3.107c0,0.629,0.089,1.133,0.266,1.508v0.109H10.563L10.563,45.277z M8.836,44.143
				c0.182,0,0.352-0.021,0.508-0.07c0.158-0.047,0.301-0.109,0.428-0.188c0.128-0.078,0.238-0.168,0.334-0.27
				c0.095-0.102,0.17-0.203,0.227-0.309v-1.32H9.484c-0.583,0-1.021,0.102-1.314,0.305s-0.439,0.49-0.439,0.861
				c0,0.143,0.023,0.273,0.071,0.395c0.047,0.123,0.118,0.227,0.214,0.314c0.095,0.088,0.21,0.156,0.347,0.207
				C8.495,44.117,8.654,44.143,8.836,44.143z"/>
			<path fill="#CBCDCF" d="M19.506,38.271v7.006h-1.573v-5.736h-1.968l-0.071,1.715c-0.03,0.666-0.091,1.25-0.183,1.752
				c-0.091,0.502-0.232,0.922-0.431,1.26c-0.196,0.336-0.455,0.588-0.776,0.756c-0.32,0.17-0.729,0.254-1.221,0.254h-0.337
				l0.007-1.326h0.233c0.229,0,0.413-0.051,0.553-0.148c0.142-0.1,0.25-0.258,0.328-0.473c0.077-0.217,0.133-0.494,0.168-0.836
				c0.034-0.342,0.063-0.754,0.084-1.236l0.129-2.984h5.058V38.271z"/>
			<path fill="#CBCDCF" d="M24.262,45.406c-0.518,0-0.982-0.088-1.396-0.262c-0.415-0.172-0.767-0.408-1.056-0.711
				s-0.513-0.66-0.666-1.074c-0.156-0.414-0.234-0.861-0.234-1.342V41.76c0-0.553,0.082-1.053,0.246-1.498
				c0.164-0.447,0.39-0.828,0.674-1.141c0.285-0.313,0.621-0.555,1.007-0.727c0.387-0.17,0.803-0.256,1.246-0.256
				c0.51,0,0.952,0.086,1.327,0.256c0.375,0.172,0.687,0.41,0.933,0.717c0.245,0.307,0.43,0.672,0.551,1.094
				c0.121,0.424,0.182,0.887,0.182,1.393v0.674h-4.577c0.021,0.271,0.079,0.521,0.171,0.75c0.094,0.23,0.221,0.428,0.379,0.594
				c0.16,0.166,0.351,0.297,0.566,0.393c0.219,0.094,0.465,0.143,0.742,0.143c0.389,0,0.726-0.078,1.013-0.232
				c0.287-0.156,0.536-0.369,0.747-0.641l0.849,0.809c-0.112,0.168-0.251,0.33-0.417,0.488s-0.361,0.299-0.583,0.422
				s-0.474,0.221-0.755,0.297C24.928,45.367,24.612,45.406,24.262,45.406z M24.075,39.404c-0.432,0-0.778,0.15-1.045,0.451
				c-0.267,0.305-0.437,0.725-0.508,1.264h2.997v-0.115c-0.014-0.209-0.047-0.408-0.102-0.6c-0.054-0.191-0.137-0.363-0.249-0.512
				s-0.259-0.268-0.437-0.355C24.553,39.449,24.336,39.404,24.075,39.404z"/>
			<path fill="#CBCDCF" d="M34.426,41.844c0,0.51-0.059,0.982-0.178,1.418c-0.119,0.438-0.293,0.814-0.522,1.131
				c-0.231,0.316-0.517,0.564-0.854,0.744c-0.339,0.18-0.728,0.27-1.162,0.27c-0.4,0-0.754-0.064-1.056-0.193
				c-0.303-0.131-0.565-0.318-0.79-0.563v3.32h-1.572v-9.697h1.449l0.064,0.711c0.225-0.271,0.49-0.479,0.8-0.623
				c0.309-0.146,0.67-0.219,1.084-0.219c0.444,0,0.838,0.086,1.179,0.26c0.341,0.172,0.627,0.416,0.857,0.729
				s0.404,0.688,0.523,1.127s0.178,0.922,0.178,1.453V41.844z M32.86,41.709c0-0.314-0.031-0.611-0.094-0.887
				c-0.063-0.277-0.158-0.52-0.288-0.727s-0.296-0.369-0.498-0.488c-0.203-0.117-0.446-0.178-0.73-0.178
				c-0.347,0-0.632,0.07-0.855,0.213c-0.225,0.143-0.4,0.336-0.53,0.582v3.107c0.13,0.246,0.306,0.443,0.528,0.594
				c0.222,0.148,0.512,0.223,0.869,0.223c0.285,0,0.527-0.061,0.729-0.184s0.367-0.289,0.496-0.5
				c0.129-0.209,0.225-0.453,0.285-0.734c0.061-0.279,0.09-0.574,0.09-0.887L32.86,41.709L32.86,41.709z"/>
			<path fill="#CBCDCF" d="M38.842,45.406c-0.518,0-0.983-0.088-1.397-0.262c-0.414-0.172-0.767-0.408-1.056-0.711
				s-0.512-0.66-0.668-1.074c-0.153-0.414-0.231-0.861-0.231-1.342V41.76c0-0.553,0.082-1.053,0.246-1.498
				c0.164-0.447,0.389-0.828,0.673-1.141c0.285-0.313,0.62-0.555,1.007-0.727c0.388-0.17,0.802-0.256,1.246-0.256
				c0.51,0,0.951,0.086,1.327,0.256c0.376,0.172,0.688,0.41,0.933,0.717c0.246,0.307,0.431,0.672,0.55,1.094
				c0.121,0.424,0.183,0.887,0.183,1.393v0.674h-4.577c0.021,0.271,0.078,0.521,0.172,0.75c0.092,0.23,0.219,0.428,0.379,0.594
				c0.159,0.166,0.348,0.297,0.566,0.393c0.217,0.094,0.465,0.143,0.74,0.143c0.389,0,0.727-0.078,1.014-0.232
				c0.287-0.156,0.536-0.369,0.748-0.641l0.848,0.809c-0.111,0.168-0.252,0.33-0.418,0.488s-0.358,0.299-0.582,0.422
				c-0.223,0.123-0.474,0.221-0.754,0.297C39.508,45.367,39.192,45.406,38.842,45.406z M38.655,39.404
				c-0.432,0-0.78,0.15-1.046,0.451c-0.266,0.305-0.436,0.725-0.509,1.264h2.998v-0.115c-0.015-0.209-0.048-0.408-0.101-0.6
				c-0.055-0.191-0.139-0.363-0.25-0.512s-0.258-0.268-0.438-0.355C39.133,39.449,38.913,39.404,38.655,39.404z"/>
			<path fill="#CBCDCF" d="M48.481,38.271v7.006h-1.566v-2.57h-1.469l-1.496,2.57h-1.631l1.649-2.83
				c-0.432-0.182-0.762-0.439-0.993-0.777c-0.23-0.336-0.347-0.723-0.347-1.158c0-0.324,0.064-0.621,0.193-0.893
				c0.13-0.271,0.314-0.508,0.559-0.709c0.24-0.201,0.537-0.357,0.89-0.471c0.353-0.111,0.75-0.168,1.194-0.168H48.481
				L48.481,38.271z M44.202,40.551c0,0.119,0.023,0.24,0.068,0.359c0.045,0.117,0.116,0.223,0.214,0.314s0.22,0.17,0.366,0.229
				c0.146,0.059,0.323,0.088,0.53,0.088h1.533V39.52h-1.449c-0.221,0-0.409,0.029-0.569,0.092c-0.16,0.061-0.291,0.139-0.392,0.234
				c-0.103,0.1-0.178,0.207-0.228,0.33S44.202,40.424,44.202,40.551z"/>
			<path fill="#CBCDCF" d="M4.407,51.529h1.567v7.006H4.407v-4.674l-2.744,4.674H0.098v-7.006h1.565v4.674L4.407,51.529z"/>
			<path fill="#CBCDCF" d="M13.581,58.535h-1.573v-2.83H9.282v2.83H7.711v-7.006h1.571v2.92h2.726v-2.92h1.573V58.535z"/>
			<path fill="#CBCDCF" d="M20.767,52.779h-2.271v5.756h-1.573v-5.756h-2.246v-1.25h6.092L20.767,52.779L20.767,52.779z"/>
			<path fill="#CBCDCF" d="M24.483,58.664c-0.519,0-0.984-0.086-1.397-0.26c-0.414-0.172-0.767-0.408-1.057-0.711
				c-0.289-0.303-0.511-0.66-0.667-1.074c-0.154-0.416-0.231-0.861-0.231-1.342v-0.26c0-0.551,0.082-1.051,0.245-1.498
				c0.164-0.445,0.39-0.826,0.673-1.139c0.285-0.313,0.62-0.555,1.008-0.727c0.387-0.17,0.802-0.256,1.246-0.256
				c0.51,0,0.95,0.086,1.326,0.256c0.376,0.172,0.688,0.408,0.934,0.717c0.246,0.307,0.43,0.67,0.55,1.094
				c0.121,0.422,0.182,0.887,0.182,1.393v0.674h-4.577c0.021,0.27,0.078,0.521,0.172,0.75c0.093,0.229,0.22,0.426,0.379,0.594
				c0.16,0.166,0.349,0.295,0.566,0.391c0.217,0.096,0.465,0.143,0.74,0.143c0.389,0,0.727-0.076,1.014-0.232
				c0.287-0.154,0.536-0.369,0.748-0.641l0.849,0.809c-0.112,0.17-0.252,0.332-0.418,0.49c-0.166,0.156-0.359,0.297-0.582,0.42
				c-0.224,0.123-0.474,0.223-0.755,0.299C25.147,58.627,24.834,58.664,24.483,58.664z M24.297,52.662
				c-0.433,0-0.781,0.15-1.047,0.453s-0.435,0.725-0.509,1.264h2.998v-0.117c-0.014-0.207-0.047-0.406-0.101-0.6
				c-0.055-0.191-0.139-0.361-0.249-0.51c-0.112-0.15-0.259-0.27-0.438-0.357C24.773,52.707,24.553,52.662,24.297,52.662z"/>
			<path fill="#CBCDCF" d="M34.647,55.104c0,0.51-0.06,0.982-0.179,1.418c-0.118,0.438-0.295,0.813-0.524,1.131
				c-0.229,0.316-0.517,0.564-0.854,0.742c-0.34,0.182-0.727,0.271-1.162,0.271c-0.401,0-0.754-0.066-1.057-0.195
				c-0.301-0.129-0.563-0.316-0.789-0.563v3.322H28.51v-9.699h1.449l0.064,0.713c0.225-0.271,0.49-0.48,0.8-0.625
				s0.67-0.217,1.085-0.217c0.443,0,0.837,0.086,1.178,0.26c0.342,0.172,0.627,0.414,0.857,0.727
				c0.23,0.314,0.406,0.689,0.525,1.127c0.117,0.439,0.178,0.924,0.178,1.453L34.647,55.104L34.647,55.104z M33.081,54.967
				c0-0.313-0.032-0.609-0.095-0.887s-0.158-0.518-0.288-0.725c-0.129-0.209-0.295-0.369-0.498-0.488s-0.446-0.18-0.731-0.18
				c-0.346,0-0.629,0.072-0.854,0.215s-0.401,0.336-0.531,0.582v3.107c0.13,0.246,0.306,0.443,0.527,0.592
				c0.223,0.148,0.513,0.225,0.871,0.225c0.284,0,0.526-0.063,0.729-0.186c0.2-0.123,0.365-0.289,0.495-0.498
				s0.225-0.455,0.284-0.734c0.062-0.281,0.092-0.576,0.092-0.889V54.967z"/>
			<path fill="#CBCDCF" d="M37.549,53.758h1.533c0.453,0,0.854,0.059,1.204,0.178c0.351,0.117,0.646,0.281,0.884,0.492
				c0.239,0.209,0.422,0.459,0.545,0.75s0.185,0.611,0.185,0.961c0,0.342-0.062,0.658-0.185,0.949s-0.306,0.543-0.545,0.758
				c-0.238,0.213-0.533,0.381-0.884,0.504c-0.35,0.123-0.751,0.186-1.204,0.186h-3.106v-7.004h1.573V53.758z M37.549,55.02v2.26
				h1.533c0.229,0,0.422-0.031,0.579-0.094c0.158-0.063,0.286-0.145,0.386-0.246s0.172-0.219,0.215-0.354
				c0.043-0.133,0.063-0.271,0.063-0.414s-0.021-0.283-0.063-0.422c-0.043-0.137-0.115-0.26-0.215-0.367s-0.228-0.195-0.386-0.264
				c-0.157-0.066-0.35-0.102-0.579-0.102h-1.533V55.02z"/>
			<path fill="#CBCDCF" d="M46.242,58.664c-0.518,0-0.982-0.086-1.396-0.26c-0.416-0.172-0.768-0.408-1.058-0.711
				c-0.288-0.303-0.511-0.66-0.666-1.074c-0.155-0.416-0.233-0.861-0.233-1.342v-0.26c0-0.551,0.082-1.051,0.246-1.498
				c0.164-0.445,0.39-0.826,0.674-1.139c0.285-0.313,0.621-0.555,1.008-0.727c0.386-0.17,0.801-0.256,1.246-0.256
				c0.509,0,0.951,0.086,1.326,0.256c0.375,0.172,0.688,0.408,0.934,0.717c0.245,0.307,0.429,0.67,0.549,1.094
				c0.121,0.422,0.182,0.887,0.182,1.393v0.674h-4.576c0.021,0.27,0.078,0.521,0.172,0.75c0.093,0.229,0.22,0.426,0.379,0.594
				c0.159,0.166,0.349,0.295,0.566,0.391s0.465,0.143,0.74,0.143c0.389,0,0.728-0.076,1.014-0.232
				c0.287-0.154,0.535-0.369,0.748-0.641l0.849,0.809c-0.113,0.17-0.252,0.332-0.418,0.49c-0.166,0.156-0.36,0.297-0.582,0.42
				c-0.224,0.123-0.476,0.223-0.755,0.299C46.907,58.627,46.592,58.664,46.242,58.664z M46.055,52.662
				c-0.433,0-0.78,0.15-1.047,0.453c-0.266,0.303-0.435,0.725-0.508,1.264h2.998v-0.117c-0.014-0.207-0.047-0.406-0.102-0.6
				c-0.053-0.191-0.137-0.361-0.248-0.51c-0.113-0.15-0.26-0.27-0.438-0.357C46.532,52.707,46.313,52.662,46.055,52.662z"/>
			<path fill="#CBCDCF" d="M56.405,55.104c0,0.51-0.059,0.982-0.178,1.418c-0.119,0.438-0.293,0.813-0.522,1.131
				c-0.231,0.316-0.518,0.564-0.855,0.742c-0.338,0.182-0.727,0.271-1.162,0.271c-0.4,0-0.753-0.066-1.055-0.195
				c-0.303-0.129-0.566-0.316-0.791-0.563v3.322H50.27v-9.699h1.449l0.065,0.713c0.224-0.271,0.49-0.48,0.799-0.625
				c0.31-0.145,0.671-0.217,1.084-0.217c0.445,0,0.839,0.086,1.179,0.26c0.342,0.172,0.627,0.414,0.858,0.727
				c0.229,0.314,0.404,0.689,0.522,1.127c0.119,0.439,0.179,0.924,0.179,1.453V55.104z M54.84,54.967
				c0-0.313-0.031-0.609-0.095-0.887c-0.063-0.277-0.157-0.518-0.288-0.725c-0.13-0.209-0.296-0.369-0.498-0.488
				c-0.203-0.119-0.445-0.18-0.73-0.18c-0.346,0-0.631,0.072-0.855,0.215s-0.399,0.336-0.529,0.582v3.107
				c0.13,0.246,0.306,0.443,0.527,0.592c0.223,0.148,0.512,0.225,0.87,0.225c0.284,0,0.527-0.063,0.728-0.186
				c0.201-0.123,0.367-0.289,0.496-0.498s0.226-0.455,0.285-0.734c0.062-0.281,0.09-0.576,0.09-0.889V54.967L54.84,54.967z"/>
			<path fill="#CBCDCF" d="M57.442,54.967c0-0.508,0.074-0.979,0.224-1.414c0.148-0.434,0.362-0.811,0.641-1.129
				c0.279-0.32,0.619-0.57,1.021-0.752c0.402-0.182,0.856-0.271,1.366-0.271c0.514,0,0.973,0.092,1.379,0.271
				c0.405,0.182,0.748,0.432,1.025,0.752c0.279,0.318,0.49,0.695,0.639,1.129c0.146,0.436,0.221,0.906,0.221,1.414v0.137
				c0,0.51-0.074,0.982-0.221,1.418c-0.146,0.438-0.359,0.813-0.639,1.131c-0.277,0.316-0.619,0.564-1.022,0.742
				c-0.403,0.182-0.86,0.271-1.368,0.271c-0.515,0-0.973-0.09-1.377-0.271c-0.402-0.178-0.744-0.426-1.022-0.742
				c-0.277-0.318-0.491-0.693-0.642-1.131c-0.147-0.436-0.223-0.908-0.223-1.418L57.442,54.967L57.442,54.967z M59.014,55.104
				c0,0.314,0.033,0.613,0.099,0.895c0.063,0.281,0.166,0.523,0.306,0.734c0.137,0.209,0.313,0.373,0.526,0.494
				c0.213,0.121,0.467,0.182,0.761,0.182c0.289,0,0.54-0.061,0.754-0.182c0.215-0.121,0.39-0.285,0.524-0.494
				c0.137-0.211,0.237-0.453,0.306-0.734c0.065-0.281,0.1-0.578,0.1-0.895v-0.137c0-0.311-0.033-0.604-0.1-0.883
				c-0.067-0.279-0.171-0.521-0.309-0.732c-0.138-0.209-0.313-0.375-0.527-0.502c-0.214-0.125-0.468-0.188-0.761-0.188
				c-0.294,0-0.545,0.063-0.754,0.188c-0.21,0.127-0.384,0.293-0.521,0.502c-0.14,0.211-0.24,0.453-0.306,0.732
				c-0.065,0.277-0.098,0.572-0.098,0.883L59.014,55.104L59.014,55.104z"/>
			<path fill="#CBCDCF" d="M65.405,58.535v-7.006h2.843c0.452,0,0.86,0.039,1.224,0.115c0.362,0.078,0.671,0.199,0.926,0.359
				c0.255,0.162,0.45,0.365,0.586,0.609c0.136,0.242,0.204,0.529,0.204,0.857c0,0.322-0.102,0.613-0.301,0.871
				c-0.201,0.256-0.498,0.453-0.891,0.592c0.25,0.051,0.469,0.131,0.653,0.236c0.185,0.104,0.34,0.229,0.463,0.369
				c0.123,0.139,0.216,0.295,0.278,0.463s0.094,0.346,0.094,0.531c0,0.332-0.063,0.623-0.188,0.873s-0.308,0.459-0.547,0.625
				s-0.53,0.291-0.873,0.375c-0.345,0.084-0.735,0.127-1.177,0.127h-3.295V58.535z M66.979,54.424h1.295
				c0.457,0,0.795-0.066,1.013-0.201c0.22-0.133,0.327-0.33,0.327-0.588c0-0.295-0.113-0.51-0.34-0.646
				c-0.227-0.141-0.568-0.207-1.025-0.207h-1.27V54.424z M66.979,55.551v1.74H68.7c0.419,0,0.726-0.074,0.921-0.227
				c0.192-0.15,0.291-0.363,0.291-0.641c0-0.268-0.097-0.48-0.289-0.639c-0.191-0.158-0.498-0.236-0.922-0.236h-1.723V55.551z"/>
		</g>
	</g>
	<path id="Иконка_Галерея_Интерьеров_3_" fill="#CBCDCF" d="M14.62,3.652V0H0v4.205h0.014V25.73H40.58V3.652
		H14.62z M11.545,8.957H2.23V4.203V3.65V2.59h9.314V3.65v0.553V8.957z M27.028,23.342c-4.461,0-8.078-3.617-8.078-8.078
		s3.617-8.078,8.078-8.078s8.076,3.617,8.076,8.078S31.489,23.342,27.028,23.342z"/>
</g>
</svg>
