<?xml version="1.0" encoding="utf-8"?>
<!-- Generator: Adobe Illustrator 15.1.0, SVG Export Plug-In . SVG Version: 6.00 Build 0)  -->
<!DOCTYPE svg PUBLIC "-//W3C//DTD SVG 1.1//EN" "http://www.w3.org/Graphics/SVG/1.1/DTD/svg11.dtd">
<svg version="1.1" id="Layer_1" xmlns="http://www.w3.org/2000/svg" xmlns:xlink="http://www.w3.org/1999/xlink" x="0px" y="0px"
	 width="64.888px" height="72.125px" viewBox="0 0 64.888 72.125" enable-background="new 0 0 64.888 72.125" xml:space="preserve">
<g id="Карточки_колеровки_1_">
	<g>
		<g>
			<path fill="#CBCDCF" d="M2.822,52.131H1.709v4.041H0.077v-9.426h1.632v3.963h0.899l2.771-3.963h2.007l-3.236,4.512l3.521,4.914
				H5.702L2.822,52.131z"/>
			<path fill="#CBCDCF" d="M12.61,56.17c-0.043-0.082-0.077-0.178-0.105-0.291c-0.028-0.111-0.054-0.232-0.075-0.363
				c-0.104,0.109-0.219,0.211-0.346,0.305c-0.127,0.098-0.269,0.18-0.421,0.25c-0.153,0.07-0.319,0.129-0.499,0.17
				s-0.369,0.063-0.572,0.063c-0.35,0-0.672-0.055-0.965-0.16s-0.545-0.252-0.754-0.439S8.5,55.295,8.381,55.039
				c-0.119-0.254-0.178-0.531-0.178-0.828c0-0.375,0.07-0.707,0.213-0.998c0.143-0.289,0.35-0.529,0.622-0.725
				c0.271-0.195,0.604-0.342,1-0.443c0.396-0.102,0.845-0.152,1.351-0.152h0.99v-0.459c0-0.361-0.102-0.652-0.305-0.871
				c-0.203-0.217-0.512-0.326-0.926-0.326c-0.187,0-0.354,0.023-0.506,0.074c-0.15,0.049-0.279,0.115-0.386,0.201
				c-0.104,0.084-0.188,0.184-0.246,0.301c-0.058,0.115-0.087,0.24-0.087,0.375H8.352c0-0.275,0.067-0.543,0.203-0.799
				c0.137-0.258,0.33-0.486,0.58-0.688s0.554-0.361,0.909-0.482s0.754-0.182,1.194-0.182c0.393,0,0.755,0.051,1.087,0.152
				c0.333,0.102,0.619,0.252,0.861,0.453c0.241,0.201,0.43,0.451,0.563,0.75c0.134,0.301,0.2,0.652,0.2,1.053v3.109
				c0,0.629,0.089,1.133,0.266,1.508v0.109H12.61V56.17z M10.882,55.037c0.182,0,0.351-0.023,0.508-0.07
				c0.158-0.049,0.301-0.111,0.428-0.188c0.127-0.078,0.238-0.168,0.334-0.27c0.095-0.102,0.17-0.203,0.228-0.307v-1.322h-0.85
				c-0.583,0-1.021,0.102-1.313,0.305c-0.294,0.203-0.441,0.49-0.441,0.861c0,0.143,0.024,0.271,0.072,0.395
				c0.047,0.121,0.118,0.227,0.213,0.314c0.096,0.088,0.211,0.158,0.347,0.207S10.701,55.037,10.882,55.037z"/>
			<path fill="#CBCDCF" d="M21.732,52.738c0,0.512-0.06,0.982-0.178,1.418c-0.119,0.438-0.294,0.813-0.523,1.131
				c-0.23,0.316-0.517,0.564-0.854,0.744s-0.728,0.27-1.162,0.27c-0.401,0-0.753-0.066-1.056-0.195s-0.565-0.314-0.789-0.563v3.32
				h-1.574v-9.697h1.451l0.063,0.711c0.226-0.271,0.49-0.479,0.8-0.623c0.309-0.146,0.67-0.219,1.084-0.219
				c0.444,0,0.838,0.088,1.18,0.26c0.34,0.172,0.627,0.416,0.856,0.729c0.23,0.313,0.405,0.688,0.524,1.127
				c0.117,0.438,0.178,0.922,0.178,1.453V52.738L21.732,52.738z M20.166,52.604c0-0.314-0.032-0.609-0.096-0.887
				c-0.063-0.277-0.158-0.52-0.287-0.725c-0.13-0.209-0.296-0.371-0.498-0.49c-0.203-0.117-0.447-0.178-0.731-0.178
				c-0.347,0-0.63,0.07-0.854,0.213s-0.4,0.338-0.529,0.584v3.107c0.129,0.246,0.305,0.443,0.526,0.592
				c0.223,0.148,0.513,0.223,0.871,0.223c0.284,0,0.527-0.061,0.729-0.184c0.2-0.123,0.366-0.289,0.495-0.498
				c0.13-0.209,0.225-0.455,0.285-0.734c0.061-0.281,0.091-0.576,0.091-0.889L20.166,52.604L20.166,52.604z"/>
			<path fill="#CBCDCF" d="M28.304,50.416h-2.272v5.754h-1.572v-5.754h-2.246v-1.25h6.092L28.304,50.416L28.304,50.416z"/>
			<path fill="#CBCDCF" d="M28.86,52.604c0-0.51,0.074-0.98,0.224-1.414c0.148-0.434,0.362-0.811,0.641-1.131
				c0.279-0.318,0.619-0.568,1.021-0.75c0.401-0.182,0.855-0.271,1.365-0.271c0.514,0,0.973,0.09,1.379,0.271
				c0.405,0.182,0.748,0.432,1.025,0.75c0.279,0.32,0.49,0.697,0.639,1.131c0.146,0.434,0.22,0.904,0.22,1.414v0.135
				c0,0.512-0.073,0.982-0.22,1.418c-0.146,0.438-0.359,0.813-0.639,1.131c-0.277,0.316-0.619,0.564-1.022,0.744
				s-0.86,0.27-1.368,0.27c-0.515,0-0.973-0.09-1.377-0.27c-0.402-0.18-0.743-0.428-1.022-0.744
				c-0.277-0.318-0.491-0.693-0.642-1.131c-0.147-0.436-0.223-0.908-0.223-1.418L28.86,52.604L28.86,52.604z M30.433,52.738
				c0,0.316,0.033,0.613,0.098,0.895s0.166,0.527,0.306,0.736c0.138,0.209,0.313,0.375,0.526,0.494
				c0.213,0.121,0.468,0.182,0.761,0.182c0.289,0,0.541-0.061,0.754-0.182c0.215-0.119,0.39-0.285,0.524-0.494
				c0.137-0.209,0.237-0.455,0.305-0.736c0.066-0.279,0.101-0.578,0.101-0.895v-0.135c0-0.311-0.033-0.605-0.101-0.885
				c-0.066-0.277-0.17-0.52-0.308-0.73c-0.139-0.209-0.313-0.377-0.528-0.502c-0.213-0.125-0.467-0.188-0.76-0.188
				c-0.294,0-0.545,0.063-0.754,0.188c-0.21,0.125-0.384,0.293-0.521,0.502c-0.139,0.211-0.239,0.453-0.305,0.73
				c-0.065,0.279-0.098,0.574-0.098,0.885V52.738L30.433,52.738z"/>
			<path fill="#CBCDCF" d="M42.319,56.17h-1.571v-2.336c-0.203,0.047-0.412,0.084-0.625,0.105c-0.215,0.025-0.435,0.037-0.657,0.037
				c-0.454,0-0.862-0.055-1.229-0.162c-0.364-0.107-0.674-0.271-0.929-0.492s-0.45-0.496-0.589-0.832
				c-0.14-0.334-0.207-0.729-0.207-1.182V49.16h1.571v2.148c0,0.51,0.113,0.869,0.342,1.08c0.227,0.213,0.572,0.318,1.039,0.318
				c0.232,0,0.453-0.014,0.66-0.039s0.414-0.063,0.621-0.109v-3.393h1.572L42.319,56.17L42.319,56.17z"/>
			<path fill="#CBCDCF" d="M46.482,53.4h-0.796v2.77h-1.573v-7.004h1.573v2.797h0.692l1.936-2.797h1.942l-2.531,3.354l2.744,3.652
				h-2.045L46.482,53.4z"/>
			<path fill="#CBCDCF" d="M55.707,49.166h1.566v7.004h-1.566v-4.672l-2.746,4.672h-1.565v-7.004h1.565v4.674L55.707,49.166z"/>
			<path fill="#CBCDCF" d="M2.369,66.658H1.574v2.771H0v-7.006h1.574v2.797h0.691l1.936-2.797h1.942l-2.531,3.354l2.744,3.652H4.312
				L2.369,66.658z"/>
			<path fill="#CBCDCF" d="M6.558,65.861c0-0.508,0.074-0.979,0.223-1.412c0.149-0.436,0.363-0.813,0.642-1.131
				C7.701,63,8.041,62.75,8.442,62.566c0.402-0.182,0.856-0.27,1.366-0.27c0.514,0,0.973,0.09,1.379,0.27
				c0.405,0.184,0.748,0.434,1.025,0.752c0.278,0.318,0.49,0.695,0.639,1.131c0.146,0.434,0.22,0.904,0.22,1.412V66
				c0,0.51-0.073,0.98-0.22,1.418c-0.147,0.436-0.359,0.813-0.639,1.129c-0.277,0.318-0.619,0.566-1.022,0.744
				c-0.403,0.18-0.86,0.27-1.369,0.27c-0.514,0-0.972-0.09-1.376-0.27c-0.402-0.178-0.744-0.426-1.022-0.744
				c-0.277-0.316-0.491-0.693-0.642-1.129C6.634,66.98,6.559,66.51,6.559,66L6.558,65.861L6.558,65.861z M8.13,65.998
				c0,0.314,0.032,0.613,0.098,0.893c0.063,0.281,0.166,0.525,0.305,0.736C8.67,67.836,8.846,68,9.06,68.121
				c0.213,0.121,0.467,0.182,0.761,0.182c0.289,0,0.54-0.061,0.754-0.182s0.389-0.285,0.524-0.494
				c0.137-0.211,0.237-0.455,0.305-0.736c0.065-0.279,0.101-0.578,0.101-0.893v-0.137c0-0.311-0.033-0.605-0.101-0.883
				c-0.067-0.279-0.17-0.521-0.308-0.732c-0.139-0.209-0.313-0.375-0.528-0.502c-0.213-0.125-0.468-0.188-0.761-0.188
				s-0.545,0.063-0.754,0.188c-0.209,0.127-0.384,0.293-0.521,0.502c-0.139,0.211-0.24,0.453-0.305,0.732
				c-0.064,0.277-0.099,0.572-0.099,0.883L8.13,65.998L8.13,65.998z"/>
			<path fill="#CBCDCF" d="M20.25,62.424v7.006h-1.573v-5.736h-1.968l-0.071,1.717c-0.03,0.666-0.091,1.25-0.183,1.752
				c-0.09,0.502-0.233,0.922-0.43,1.26c-0.197,0.336-0.456,0.588-0.777,0.756c-0.321,0.17-0.729,0.254-1.221,0.254h-0.336
				l0.006-1.328h0.233c0.229,0,0.413-0.049,0.554-0.148s0.249-0.256,0.326-0.473c0.078-0.215,0.135-0.494,0.168-0.836
				c0.035-0.34,0.063-0.752,0.085-1.236l0.13-2.984h5.057V62.424z"/>
			<path fill="#CBCDCF" d="M25.009,69.559c-0.519,0-0.984-0.086-1.398-0.26c-0.414-0.172-0.766-0.408-1.056-0.711
				c-0.289-0.303-0.511-0.66-0.667-1.074c-0.154-0.416-0.231-0.861-0.231-1.342v-0.258c0-0.553,0.082-1.053,0.246-1.498
				c0.164-0.447,0.389-0.828,0.673-1.141s0.62-0.555,1.007-0.725s0.802-0.256,1.246-0.256c0.51,0,0.951,0.086,1.327,0.256
				s0.687,0.408,0.933,0.715s0.43,0.672,0.551,1.094c0.121,0.424,0.182,0.887,0.182,1.393v0.674h-4.577
				c0.021,0.271,0.078,0.521,0.172,0.75c0.093,0.23,0.22,0.426,0.379,0.594c0.159,0.166,0.349,0.295,0.566,0.393
				c0.217,0.096,0.465,0.143,0.739,0.143c0.39,0,0.728-0.078,1.015-0.232c0.287-0.156,0.536-0.369,0.748-0.641l0.848,0.809
				c-0.112,0.168-0.252,0.33-0.418,0.488s-0.358,0.299-0.582,0.422s-0.474,0.221-0.754,0.297
				C25.673,69.521,25.358,69.559,25.009,69.559z M24.821,63.557c-0.432,0-0.78,0.152-1.046,0.453
				c-0.266,0.303-0.435,0.725-0.509,1.264h2.998v-0.117c-0.014-0.205-0.047-0.404-0.101-0.6c-0.055-0.189-0.139-0.361-0.25-0.51
				c-0.111-0.15-0.258-0.268-0.438-0.357C25.299,63.602,25.08,63.557,24.821,63.557z"/>
			<path fill="#CBCDCF" d="M35.173,65.998c0,0.51-0.061,0.982-0.179,1.418s-0.295,0.813-0.524,1.129
				c-0.229,0.318-0.517,0.566-0.854,0.744c-0.34,0.18-0.727,0.27-1.162,0.27c-0.401,0-0.754-0.063-1.057-0.191
				c-0.301-0.131-0.563-0.318-0.789-0.564v3.322h-1.572v-9.699h1.449l0.064,0.713c0.225-0.271,0.49-0.48,0.8-0.625
				s0.67-0.217,1.085-0.217c0.443,0,0.837,0.086,1.178,0.26c0.342,0.172,0.627,0.414,0.857,0.727
				c0.229,0.314,0.406,0.689,0.524,1.127c0.118,0.439,0.179,0.924,0.179,1.453L35.173,65.998L35.173,65.998z M33.606,65.861
				c0-0.313-0.032-0.607-0.095-0.887c-0.063-0.273-0.158-0.518-0.288-0.725c-0.129-0.207-0.295-0.369-0.498-0.488
				s-0.447-0.178-0.731-0.178c-0.346,0-0.629,0.07-0.854,0.213s-0.402,0.336-0.531,0.582v3.107c0.129,0.246,0.306,0.443,0.527,0.594
				c0.223,0.148,0.513,0.223,0.871,0.223c0.285,0,0.527-0.061,0.729-0.184c0.199-0.123,0.364-0.289,0.494-0.5
				c0.131-0.209,0.225-0.453,0.284-0.734s0.093-0.576,0.093-0.887L33.606,65.861L33.606,65.861z"/>
			<path fill="#CBCDCF" d="M36.207,65.861c0-0.508,0.074-0.979,0.225-1.412c0.15-0.436,0.362-0.813,0.641-1.131
				s0.618-0.568,1.021-0.752c0.4-0.182,0.855-0.27,1.365-0.27c0.514,0,0.973,0.09,1.379,0.27c0.406,0.182,0.748,0.434,1.025,0.752
				c0.278,0.318,0.491,0.695,0.639,1.131c0.146,0.434,0.221,0.904,0.221,1.412V66c0,0.51-0.074,0.98-0.221,1.418
				c-0.147,0.436-0.359,0.813-0.639,1.129c-0.277,0.318-0.62,0.566-1.021,0.744c-0.404,0.18-0.86,0.27-1.369,0.27
				c-0.514,0-0.973-0.09-1.377-0.27c-0.402-0.178-0.744-0.426-1.021-0.744c-0.278-0.316-0.491-0.693-0.642-1.129
				c-0.15-0.438-0.224-0.908-0.224-1.418v-0.139H36.207z M37.781,65.998c0,0.314,0.032,0.613,0.098,0.893
				c0.064,0.281,0.166,0.525,0.305,0.736c0.139,0.209,0.313,0.373,0.527,0.494s0.468,0.182,0.762,0.182
				c0.289,0,0.54-0.061,0.754-0.182c0.213-0.121,0.389-0.285,0.522-0.494c0.138-0.211,0.238-0.455,0.306-0.736
				c0.065-0.279,0.101-0.578,0.101-0.893v-0.137c0-0.311-0.034-0.605-0.101-0.883c-0.066-0.279-0.17-0.521-0.308-0.732
				c-0.139-0.209-0.313-0.375-0.528-0.502c-0.214-0.125-0.468-0.188-0.761-0.188s-0.545,0.063-0.754,0.188
				c-0.209,0.127-0.383,0.293-0.521,0.502c-0.139,0.211-0.239,0.453-0.305,0.732c-0.064,0.277-0.098,0.572-0.098,0.883V65.998z"/>
			<path fill="#CBCDCF" d="M44.171,69.43v-7.006h2.843c0.453,0,0.86,0.039,1.225,0.117c0.361,0.078,0.67,0.197,0.926,0.359
				c0.254,0.162,0.449,0.365,0.586,0.607c0.136,0.244,0.203,0.531,0.203,0.859c0,0.32-0.101,0.611-0.302,0.869
				c-0.2,0.258-0.497,0.453-0.891,0.594c0.251,0.051,0.469,0.131,0.653,0.234c0.186,0.105,0.341,0.23,0.463,0.369
				c0.123,0.141,0.217,0.295,0.279,0.463c0.063,0.168,0.094,0.348,0.094,0.531c0,0.332-0.063,0.623-0.188,0.873
				s-0.309,0.459-0.547,0.625c-0.239,0.166-0.53,0.291-0.874,0.375c-0.345,0.084-0.734,0.127-1.175,0.127h-3.296V69.43z
				 M45.746,65.318h1.295c0.457,0,0.795-0.064,1.013-0.199s0.327-0.33,0.327-0.59c0-0.295-0.113-0.51-0.341-0.646
				c-0.227-0.139-0.569-0.207-1.025-0.207h-1.27L45.746,65.318L45.746,65.318z M45.746,66.445v1.74h1.722
				c0.419,0,0.726-0.074,0.919-0.227c0.193-0.15,0.291-0.363,0.291-0.641c0-0.268-0.096-0.48-0.287-0.637
				c-0.192-0.158-0.5-0.236-0.924-0.236H45.746L45.746,66.445z"/>
			<path fill="#CBCDCF" d="M54.097,66.658H53.3v2.771h-1.573v-7.006H53.3v2.797h0.692l1.937-2.797h1.94l-2.53,3.354l2.745,3.652
				h-2.046L54.097,66.658z"/>
			<path fill="#CBCDCF" d="M63.321,62.424h1.566v7.006h-1.566v-4.674l-2.745,4.674h-1.565v-7.006h1.565v4.674L63.321,62.424z"/>
		</g>
	</g>
	<g id="Иконка_Карточки_колеровки_1_">
		<path fill="#CBCDCF" d="M33.076,8.588L29.61,5.627c0.076,0.355,0.107,0.725,0.099,1.092c-0.021,0.637-0.175,1.273-0.478,1.877
			L18.489,29.941l14.894-17.443C34.378,11.334,34.241,9.582,33.076,8.588z"/>
		<path fill="#CBCDCF" d="M27.323,4.779c-0.231-0.275-0.524-0.516-0.871-0.689l-2.217-1.113l-1.34-0.676
			c0.188,0.418,0.311,0.867,0.362,1.33c0.021,0.154,0.025,0.313,0.027,0.473c0.004,0.359-0.029,0.723-0.117,1.086l-5.354,22.232
			l9.867-19.605C28.198,6.795,28.019,5.602,27.323,4.779z"/>
		<path fill="#CBCDCF" d="M15.767,12.389v16.137l5.41-22.469l0.305-1.273c0.252-1.049-0.127-2.098-0.894-2.758
			c-0.323-0.273-0.715-0.482-1.155-0.592l-2.896-0.697L15.07,0.385c0.268,0.42,0.463,0.885,0.578,1.385
			c0.074,0.322,0.117,0.658,0.117,1.006v0.104L15.767,12.389L15.767,12.389z"/>
		<path fill="#CBCDCF" d="M13.187,0.793C12.687,0.307,12.009,0,11.255,0H9.511H7.197H3.342C1.809,0,0.564,1.244,0.564,2.775v23.947
			v1.16v5.596v0.375c0,0.824,0.369,1.559,0.941,2.066c0.49,0.436,1.129,0.705,1.836,0.705h2.434h3.351H9.54h0.09h1.627
			c1.533,0,2.777-1.242,2.777-2.771V14.422V4.984V2.775c0-0.412-0.093-0.799-0.252-1.148C13.638,1.311,13.431,1.029,13.187,0.793z
			 M9.64,33.676c-0.916,0-1.658-0.74-1.658-1.658c0-0.916,0.742-1.656,1.658-1.656s1.658,0.74,1.658,1.656
			S10.556,33.676,9.64,33.676z M12.192,23.064H2.453v-1.771h9.739V23.064z M12.192,13.449H2.453v-1.77h9.739V13.449z M12.192,3.836
			H2.453V2.064h9.739V3.836z"/>
	</g>
</g>
</svg>
