<?xml version="1.0" encoding="utf-8"?>
<!-- Generator: Adobe Illustrator 15.1.0, SVG Export Plug-In . SVG Version: 6.00 Build 0)  -->
<!DOCTYPE svg PUBLIC "-//W3C//DTD SVG 1.1//EN" "http://www.w3.org/Graphics/SVG/1.1/DTD/svg11.dtd">
<svg version="1.1" id="Layer_1" xmlns="http://www.w3.org/2000/svg" xmlns:xlink="http://www.w3.org/1999/xlink" x="0px" y="0px"
	 width="75.218px" height="72.893px" viewBox="0 0 75.218 72.893" enable-background="new 0 0 75.218 72.893" xml:space="preserve">
<g id="Закладки_Визуализатора_1_">
	<g>
		<g>
			<path fill="#CBCDCF" d="M7.918,57.549H6.287v-8.105h-4.15v8.105H0.506v-9.428h7.412V57.549z"/>
			<path fill="#CBCDCF" d="M9.445,53.98c0-0.51,0.074-0.98,0.224-1.414s0.363-0.811,0.642-1.131c0.279-0.318,0.618-0.568,1.021-0.75
				c0.401-0.184,0.855-0.273,1.366-0.273c0.514,0,0.973,0.092,1.379,0.273c0.404,0.182,0.746,0.432,1.024,0.75
				c0.279,0.318,0.491,0.697,0.638,1.131C15.886,53,15.96,53.471,15.96,53.98v0.135c0,0.51-0.073,0.982-0.222,1.418
				c-0.146,0.438-0.357,0.814-0.638,1.131c-0.277,0.316-0.619,0.564-1.021,0.744c-0.403,0.18-0.86,0.27-1.369,0.27
				c-0.515,0-0.974-0.09-1.376-0.27c-0.403-0.18-0.744-0.428-1.022-0.744c-0.277-0.316-0.491-0.693-0.642-1.131
				c-0.148-0.436-0.223-0.908-0.223-1.418V53.98H9.445z M11.02,54.115c0,0.316,0.032,0.613,0.098,0.895
				c0.063,0.281,0.166,0.525,0.305,0.734c0.138,0.209,0.313,0.375,0.527,0.496c0.214,0.121,0.467,0.18,0.761,0.18
				c0.289,0,0.54-0.059,0.754-0.18s0.389-0.287,0.524-0.496s0.236-0.453,0.305-0.734c0.066-0.279,0.101-0.578,0.101-0.895V53.98
				c0-0.313-0.034-0.605-0.101-0.885c-0.067-0.277-0.17-0.521-0.308-0.73c-0.14-0.209-0.314-0.377-0.527-0.502
				c-0.214-0.125-0.468-0.188-0.761-0.188c-0.294,0-0.545,0.063-0.755,0.188c-0.209,0.125-0.384,0.293-0.521,0.502
				c-0.139,0.209-0.24,0.453-0.305,0.73c-0.065,0.277-0.098,0.572-0.098,0.885L11.02,54.115L11.02,54.115z"/>
			<path fill="#CBCDCF" d="M20.167,56.42c0.189,0,0.368-0.027,0.534-0.086s0.311-0.141,0.434-0.246s0.223-0.23,0.298-0.379
				c0.075-0.146,0.117-0.307,0.126-0.479h1.483c-0.015,0.336-0.098,0.652-0.25,0.951c-0.153,0.297-0.358,0.557-0.614,0.779
				c-0.257,0.223-0.557,0.396-0.896,0.523c-0.341,0.127-0.705,0.191-1.095,0.191c-0.54,0-1.009-0.094-1.407-0.277
				c-0.399-0.188-0.731-0.439-0.997-0.758c-0.267-0.32-0.464-0.693-0.593-1.121c-0.13-0.428-0.193-0.881-0.193-1.359v-0.227
				c0-0.479,0.063-0.934,0.193-1.359c0.129-0.428,0.326-0.801,0.593-1.123c0.266-0.322,0.597-0.574,0.993-0.76
				c0.396-0.188,0.865-0.279,1.404-0.279c0.423,0,0.81,0.064,1.156,0.193c0.347,0.131,0.645,0.313,0.895,0.545
				c0.248,0.232,0.441,0.512,0.582,0.834c0.141,0.324,0.217,0.68,0.229,1.068h-1.483c-0.009-0.186-0.046-0.361-0.112-0.529
				c-0.066-0.17-0.159-0.316-0.278-0.441c-0.118-0.125-0.262-0.225-0.431-0.297c-0.168-0.074-0.357-0.109-0.569-0.109
				c-0.319,0-0.583,0.064-0.79,0.195c-0.207,0.133-0.371,0.305-0.492,0.516c-0.12,0.213-0.203,0.453-0.249,0.727
				c-0.045,0.271-0.066,0.545-0.066,0.822v0.227c0,0.285,0.021,0.563,0.066,0.832c0.046,0.27,0.129,0.51,0.249,0.723
				c0.121,0.211,0.284,0.381,0.489,0.512C19.579,56.355,19.844,56.42,20.167,56.42z"/>
			<path fill="#CBCDCF" d="M28.39,55.611l2.071-5.068h1.968v7.006h-1.573v-4.637l-1.929,4.637h-1.067l-1.937-4.662v4.662H24.35
				v-7.006h1.981L28.39,55.611z"/>
			<path fill="#CBCDCF" d="M33.899,53.98c0-0.51,0.074-0.98,0.224-1.414c0.148-0.434,0.363-0.811,0.642-1.131
				c0.279-0.318,0.618-0.568,1.021-0.75c0.401-0.184,0.855-0.273,1.365-0.273c0.515,0,0.974,0.092,1.379,0.273
				s0.747,0.432,1.025,0.75c0.279,0.318,0.491,0.697,0.638,1.131c0.147,0.434,0.222,0.904,0.222,1.414v0.135
				c0,0.51-0.073,0.982-0.222,1.418c-0.146,0.438-0.357,0.814-0.638,1.131c-0.277,0.316-0.619,0.564-1.021,0.744
				c-0.403,0.18-0.86,0.27-1.369,0.27c-0.515,0-0.974-0.09-1.376-0.27c-0.403-0.18-0.744-0.428-1.022-0.744
				c-0.277-0.316-0.492-0.693-0.642-1.131c-0.148-0.436-0.224-0.908-0.224-1.418L33.899,53.98L33.899,53.98z M35.473,54.115
				c0,0.316,0.032,0.613,0.098,0.895c0.063,0.281,0.166,0.525,0.305,0.734c0.138,0.209,0.313,0.375,0.527,0.496
				c0.214,0.121,0.467,0.18,0.761,0.18c0.289,0,0.54-0.059,0.754-0.18s0.389-0.287,0.524-0.496s0.236-0.453,0.305-0.734
				c0.066-0.279,0.101-0.578,0.101-0.895V53.98c0-0.313-0.034-0.605-0.101-0.885c-0.067-0.277-0.17-0.521-0.309-0.73
				s-0.313-0.377-0.526-0.502c-0.214-0.125-0.468-0.188-0.761-0.188c-0.294,0-0.545,0.063-0.756,0.188
				c-0.209,0.125-0.383,0.293-0.521,0.502c-0.139,0.209-0.24,0.453-0.305,0.73c-0.065,0.277-0.098,0.572-0.098,0.885L35.473,54.115
				L35.473,54.115z"/>
			<path fill="#CBCDCF" d="M47.061,51.793h-2.271v5.756h-1.573v-5.756H40.97v-1.25h6.092L47.061,51.793L47.061,51.793z"/>
			<path fill="#CBCDCF" d="M54.241,54.115c0,0.51-0.061,0.982-0.18,1.418c-0.118,0.438-0.293,0.814-0.523,1.131
				s-0.517,0.564-0.854,0.744c-0.339,0.18-0.726,0.27-1.162,0.27c-0.4,0-0.753-0.064-1.055-0.193
				c-0.303-0.131-0.564-0.318-0.79-0.563v3.32h-1.573v-9.697h1.45l0.063,0.711c0.226-0.271,0.491-0.479,0.801-0.623
				c0.309-0.146,0.67-0.219,1.084-0.219c0.444,0,0.838,0.086,1.179,0.26c0.341,0.172,0.627,0.416,0.857,0.729
				s0.405,0.688,0.523,1.127c0.119,0.438,0.179,0.922,0.179,1.453L54.241,54.115L54.241,54.115z M52.674,53.98
				c0-0.314-0.031-0.611-0.094-0.887c-0.063-0.277-0.158-0.52-0.288-0.727c-0.129-0.207-0.296-0.369-0.498-0.488
				c-0.203-0.117-0.447-0.178-0.731-0.178c-0.346,0-0.631,0.07-0.854,0.213c-0.225,0.143-0.401,0.336-0.531,0.582v3.107
				c0.13,0.246,0.307,0.443,0.527,0.594c0.223,0.148,0.513,0.223,0.871,0.223c0.285,0,0.526-0.061,0.729-0.184
				c0.2-0.123,0.365-0.289,0.495-0.5c0.129-0.209,0.225-0.453,0.285-0.734c0.06-0.279,0.09-0.574,0.09-0.887L52.674,53.98
				L52.674,53.98z"/>
			<path fill="#CBCDCF" d="M58.656,57.678c-0.519,0-0.983-0.088-1.398-0.262c-0.414-0.172-0.766-0.408-1.055-0.711
				s-0.513-0.66-0.667-1.074c-0.155-0.414-0.233-0.861-0.233-1.342v-0.258c0-0.553,0.082-1.053,0.246-1.498
				c0.164-0.447,0.389-0.828,0.674-1.141c0.284-0.313,0.62-0.555,1.006-0.727c0.387-0.17,0.802-0.256,1.247-0.256
				c0.509,0,0.951,0.086,1.327,0.256c0.375,0.172,0.686,0.41,0.932,0.717s0.431,0.672,0.551,1.094
				c0.12,0.424,0.182,0.887,0.182,1.393v0.674H56.89c0.021,0.271,0.079,0.521,0.172,0.75c0.093,0.23,0.219,0.428,0.379,0.594
				c0.159,0.166,0.35,0.297,0.566,0.393c0.218,0.094,0.465,0.143,0.741,0.143c0.389,0,0.727-0.078,1.014-0.232
				c0.286-0.156,0.536-0.369,0.747-0.641l0.849,0.809c-0.111,0.168-0.252,0.33-0.418,0.488s-0.359,0.299-0.583,0.422
				c-0.222,0.123-0.474,0.221-0.754,0.297C59.32,57.639,59.006,57.678,58.656,57.678z M58.469,51.676
				c-0.432,0-0.78,0.15-1.046,0.451c-0.265,0.305-0.436,0.725-0.508,1.264h2.997v-0.115c-0.014-0.209-0.047-0.408-0.101-0.6
				c-0.055-0.191-0.138-0.363-0.25-0.512s-0.258-0.268-0.437-0.355C58.945,51.721,58.728,51.676,58.469,51.676z"/>
			<path fill="#CBCDCF" d="M68.128,51.793h-2.272v5.756h-1.572v-5.756h-2.246v-1.25h6.092L68.128,51.793L68.128,51.793z"/>
			<path fill="#CBCDCF" d="M70.867,52.77H72.4c0.453,0,0.854,0.059,1.204,0.178c0.351,0.119,0.646,0.283,0.885,0.492
				c0.238,0.209,0.421,0.459,0.544,0.752c0.123,0.291,0.185,0.611,0.185,0.961c0,0.34-0.062,0.656-0.185,0.947
				c-0.123,0.293-0.306,0.545-0.544,0.758c-0.239,0.215-0.534,0.383-0.885,0.506c-0.35,0.123-0.751,0.184-1.204,0.184h-3.106v-7.004
				h1.573V52.77z M70.867,54.031v2.26H72.4c0.229,0,0.423-0.029,0.579-0.094c0.158-0.063,0.286-0.145,0.387-0.246
				c0.099-0.102,0.17-0.219,0.214-0.352c0.043-0.135,0.063-0.273,0.063-0.416s-0.021-0.281-0.063-0.42
				c-0.044-0.139-0.115-0.262-0.214-0.369c-0.101-0.107-0.229-0.195-0.387-0.262c-0.156-0.066-0.351-0.102-0.579-0.102H70.867
				L70.867,54.031z"/>
			<path fill="#CBCDCF" d="M5.613,65.717c0,0.313-0.095,0.598-0.281,0.857c-0.188,0.262-0.452,0.469-0.793,0.625
				c0.393,0.139,0.69,0.344,0.896,0.615s0.309,0.607,0.309,1.01c0,0.332-0.07,0.629-0.212,0.891
				c-0.14,0.262-0.338,0.482-0.592,0.662c-0.255,0.184-0.56,0.32-0.913,0.416s-0.741,0.143-1.165,0.143
				c-0.35,0-0.695-0.043-1.039-0.129s-0.649-0.221-0.92-0.398C0.633,70.229,0.416,70,0.25,69.723C0.084,69.443,0,69.111,0,68.729
				h1.566c0,0.129,0.03,0.254,0.092,0.375c0.06,0.121,0.147,0.229,0.265,0.32c0.117,0.094,0.258,0.168,0.425,0.223
				c0.166,0.057,0.354,0.086,0.566,0.086c0.216,0,0.401-0.027,0.56-0.082c0.157-0.055,0.288-0.127,0.393-0.217
				c0.104-0.09,0.181-0.193,0.229-0.313c0.049-0.115,0.074-0.236,0.074-0.361c0-0.342-0.1-0.586-0.298-0.738
				c-0.199-0.15-0.505-0.227-0.92-0.227H1.826v-1.133h1.126c0.202,0,0.374-0.021,0.512-0.063c0.139-0.041,0.25-0.102,0.337-0.178
				c0.086-0.078,0.148-0.168,0.188-0.275c0.039-0.105,0.06-0.223,0.06-0.354c0-0.111-0.021-0.223-0.06-0.334
				c-0.038-0.107-0.104-0.205-0.193-0.291c-0.09-0.084-0.208-0.15-0.354-0.203c-0.145-0.053-0.321-0.076-0.533-0.076
				c-0.178,0-0.341,0.021-0.488,0.066C2.271,65,2.141,65.063,2.03,65.143c-0.109,0.08-0.195,0.176-0.259,0.285
				c-0.063,0.109-0.095,0.229-0.095,0.357H0.11c0-0.328,0.073-0.621,0.222-0.883c0.146-0.262,0.344-0.482,0.592-0.664
				s0.54-0.32,0.874-0.418c0.335-0.096,0.688-0.145,1.064-0.145c0.423,0,0.806,0.043,1.146,0.133
				c0.341,0.088,0.63,0.217,0.866,0.389c0.237,0.17,0.421,0.383,0.549,0.637C5.55,65.092,5.613,65.385,5.613,65.717z"/>
			<path fill="#CBCDCF" d="M11.265,70.807c-0.043-0.082-0.078-0.18-0.105-0.291c-0.028-0.113-0.054-0.234-0.074-0.363
				c-0.104,0.107-0.22,0.209-0.347,0.305c-0.128,0.096-0.269,0.178-0.422,0.248c-0.152,0.072-0.318,0.129-0.498,0.17
				s-0.369,0.063-0.572,0.063c-0.351,0-0.672-0.055-0.965-0.16c-0.295-0.104-0.546-0.252-0.755-0.439
				c-0.21-0.188-0.374-0.408-0.491-0.662c-0.119-0.256-0.179-0.531-0.179-0.83c0-0.375,0.071-0.707,0.214-0.996
				s0.35-0.531,0.621-0.727c0.271-0.193,0.605-0.342,1-0.441c0.396-0.102,0.846-0.152,1.351-0.152h0.991v-0.461
				c0-0.361-0.103-0.652-0.306-0.869c-0.203-0.219-0.512-0.328-0.926-0.328c-0.187,0-0.354,0.025-0.505,0.074
				c-0.151,0.051-0.279,0.117-0.387,0.201c-0.104,0.084-0.188,0.186-0.244,0.301c-0.06,0.117-0.088,0.242-0.088,0.375H7.005
				c0-0.273,0.067-0.541,0.204-0.799c0.136-0.256,0.328-0.486,0.578-0.688c0.252-0.199,0.555-0.359,0.91-0.48
				s0.754-0.182,1.194-0.182c0.393,0,0.755,0.051,1.088,0.15c0.332,0.104,0.619,0.254,0.86,0.453
				c0.242,0.201,0.43,0.451,0.563,0.752c0.135,0.301,0.2,0.65,0.2,1.053v3.107c0,0.629,0.089,1.133,0.266,1.508v0.109H11.265
				L11.265,70.807z M9.536,69.674c0.182,0,0.351-0.023,0.509-0.072c0.157-0.047,0.3-0.109,0.427-0.188s0.238-0.168,0.334-0.27
				c0.095-0.102,0.17-0.203,0.228-0.307v-1.322h-0.85c-0.583,0-1.021,0.102-1.313,0.305s-0.439,0.49-0.439,0.861
				c0,0.143,0.023,0.273,0.07,0.395c0.048,0.121,0.119,0.227,0.214,0.314s0.211,0.158,0.347,0.207
				C9.195,69.648,9.355,69.674,9.536,69.674z"/>
			<path fill="#CBCDCF" d="M16.741,68.035h-0.796v2.771h-1.573v-7.004h1.573V66.6h0.691l1.937-2.797h1.941l-2.53,3.354l2.744,3.65
				h-2.046L16.741,68.035z"/>
			<path fill="#CBCDCF" d="M27.547,63.801v7.006h-1.573V65.07h-1.968l-0.071,1.715c-0.03,0.666-0.091,1.25-0.182,1.752
				s-0.234,0.922-0.432,1.26c-0.196,0.338-0.454,0.59-0.775,0.758s-0.729,0.252-1.222,0.252h-0.336l0.006-1.326h0.233
				c0.229,0,0.413-0.051,0.554-0.148c0.141-0.1,0.249-0.258,0.326-0.473c0.078-0.217,0.135-0.494,0.169-0.836
				s0.063-0.754,0.084-1.236l0.13-2.984h5.057V63.801z"/>
			<path fill="#CBCDCF" d="M33.404,70.807c-0.043-0.082-0.077-0.18-0.105-0.291c-0.028-0.113-0.053-0.234-0.074-0.363
				c-0.104,0.107-0.22,0.209-0.347,0.305s-0.269,0.178-0.421,0.248c-0.153,0.072-0.319,0.129-0.498,0.17
				c-0.181,0.041-0.37,0.063-0.573,0.063c-0.35,0-0.671-0.055-0.965-0.16c-0.294-0.104-0.545-0.252-0.754-0.439
				c-0.21-0.188-0.374-0.408-0.492-0.662c-0.119-0.256-0.178-0.531-0.178-0.83c0-0.375,0.071-0.707,0.213-0.996
				c0.143-0.289,0.35-0.531,0.622-0.727c0.271-0.193,0.604-0.342,1-0.441c0.395-0.102,0.845-0.152,1.35-0.152h0.991v-0.461
				c0-0.361-0.103-0.652-0.306-0.869c-0.202-0.219-0.512-0.328-0.926-0.328c-0.186,0-0.354,0.025-0.505,0.074
				c-0.151,0.051-0.279,0.117-0.386,0.201c-0.105,0.084-0.188,0.186-0.245,0.301c-0.059,0.117-0.088,0.242-0.088,0.375h-1.573
				c0-0.273,0.068-0.541,0.204-0.799c0.136-0.256,0.329-0.486,0.579-0.688c0.251-0.199,0.554-0.359,0.91-0.48
				c0.354-0.121,0.754-0.182,1.193-0.182c0.394,0,0.756,0.051,1.088,0.15c0.332,0.104,0.619,0.254,0.86,0.453
				c0.242,0.201,0.431,0.451,0.563,0.752c0.134,0.301,0.199,0.65,0.199,1.053v3.107c0,0.629,0.09,1.133,0.267,1.508v0.109H33.404
				L33.404,70.807z M31.677,69.674c0.182,0,0.351-0.023,0.509-0.072c0.157-0.047,0.301-0.109,0.428-0.188s0.237-0.168,0.334-0.27
				c0.095-0.102,0.17-0.203,0.227-0.307v-1.322h-0.849c-0.583,0-1.021,0.102-1.314,0.305s-0.438,0.49-0.438,0.861
				c0,0.143,0.022,0.273,0.069,0.395c0.048,0.121,0.119,0.227,0.214,0.314c0.096,0.088,0.211,0.158,0.348,0.207
				C31.337,69.648,31.496,69.674,31.677,69.674z"/>
			<path fill="#CBCDCF" d="M36.422,69.543c0.182-0.197,0.34-0.395,0.476-0.592c0.138-0.195,0.252-0.418,0.348-0.664
				c0.095-0.246,0.171-0.525,0.227-0.844c0.058-0.318,0.095-0.701,0.116-1.148l0.071-2.492h4.861v5.748h0.972v3.342h-1.566v-2.086
				h-4.493v2.086h-1.592l0.006-3.348h0.575V69.543z M39.16,66.293c-0.038,0.752-0.139,1.395-0.299,1.924
				c-0.158,0.531-0.359,0.977-0.602,1.334h2.693v-4.396h-1.762L39.16,66.293z"/>
			<path fill="#CBCDCF" d="M46.988,68.035h-0.797v2.771h-1.572v-7.004h1.572V66.6h0.692l1.937-2.797h1.941l-2.531,3.354l2.745,3.65
				H48.93L46.988,68.035z"/>
			<path fill="#CBCDCF" d="M56.213,63.801h1.566v7.006h-1.566v-4.674l-2.744,4.674h-1.567v-7.006h1.567v4.674L56.213,63.801z"/>
		</g>
	</g>
	<g>
		<path fill="#CBCDCF" d="M27.79,2.723h-0.604C26.579,1.131,25.038,0,23.232,0H5.368C3.029,0,1.136,1.896,1.136,4.23V33.77
			c0,2.336,1.896,4.23,4.232,4.23H27.79c2.338,0,4.229-1.895,4.229-4.23V6.953C32.021,4.615,30.128,2.723,27.79,2.723z
			 M16.456,7.025l2.303-4.67l2.305,4.67l5.152,0.75l-3.728,3.633l0.88,5.133l-4.609-2.424l-4.609,2.424l0.882-5.133l-3.729-3.633
			L16.456,7.025z M29.063,34.18c0,0.586-0.475,1.059-1.057,1.059H8.618c-1.359,0-2.566-0.641-3.341-1.637V33.58
			c0.029,0,0.06,0.002,0.091,0.002h17.864c2.338,0,4.232-1.895,4.232-4.232V5.715h0.541c0.582,0,1.057,0.473,1.057,1.057
			L29.063,34.18L29.063,34.18z"/>
		<path fill="#93B7E2" d="M45.072,6.326c-5.795,0-10.489,4.697-10.489,10.49s4.694,10.49,10.489,10.49
			c5.796,0,10.492-4.697,10.492-10.49C55.565,11.023,50.868,6.326,45.072,6.326z"/>
	</g>
</g>
<g id="Закладки_визуализатора_hover_1_">
	<g>
		<rect x="-0.499" y="47.604" fill="none" width="78.721" height="25.205"/>
		<path fill="#93B7E2" d="M7.918,57.549H6.287v-8.105h-4.15v8.105H0.506v-9.428h7.412V57.549z"/>
		<path fill="#93B7E2" d="M9.445,53.98c0-0.51,0.074-0.98,0.224-1.414s0.363-0.811,0.642-1.131c0.279-0.318,0.618-0.568,1.021-0.75
			c0.401-0.184,0.855-0.273,1.366-0.273c0.514,0,0.973,0.092,1.379,0.273c0.404,0.182,0.746,0.432,1.024,0.75
			c0.279,0.318,0.491,0.697,0.638,1.131C15.886,53,15.96,53.471,15.96,53.98v0.135c0,0.51-0.073,0.982-0.222,1.418
			c-0.146,0.438-0.357,0.814-0.638,1.131c-0.277,0.316-0.619,0.564-1.021,0.744c-0.403,0.18-0.86,0.27-1.369,0.27
			c-0.515,0-0.974-0.09-1.376-0.27c-0.403-0.18-0.744-0.428-1.022-0.744c-0.277-0.316-0.491-0.693-0.642-1.131
			c-0.148-0.436-0.223-0.908-0.223-1.418V53.98H9.445z M11.02,54.115c0,0.316,0.032,0.613,0.098,0.895
			c0.063,0.281,0.166,0.525,0.305,0.734c0.138,0.209,0.313,0.375,0.527,0.496c0.214,0.121,0.467,0.18,0.761,0.18
			c0.289,0,0.54-0.059,0.754-0.18s0.389-0.287,0.524-0.496s0.236-0.453,0.305-0.734c0.066-0.279,0.101-0.578,0.101-0.895V53.98
			c0-0.313-0.034-0.605-0.101-0.885c-0.067-0.277-0.17-0.521-0.308-0.73c-0.14-0.209-0.314-0.377-0.527-0.502
			c-0.214-0.125-0.468-0.188-0.761-0.188c-0.294,0-0.545,0.063-0.755,0.188c-0.209,0.125-0.384,0.293-0.521,0.502
			c-0.139,0.209-0.24,0.453-0.305,0.73c-0.065,0.277-0.098,0.572-0.098,0.885L11.02,54.115L11.02,54.115z"/>
		<path fill="#93B7E2" d="M20.167,56.42c0.189,0,0.368-0.027,0.534-0.086s0.311-0.141,0.434-0.246s0.223-0.23,0.298-0.379
			c0.075-0.146,0.117-0.307,0.126-0.479h1.483c-0.015,0.336-0.098,0.652-0.25,0.951c-0.153,0.297-0.358,0.557-0.614,0.779
			c-0.257,0.223-0.557,0.396-0.896,0.523c-0.341,0.127-0.705,0.191-1.095,0.191c-0.54,0-1.009-0.094-1.407-0.277
			c-0.399-0.188-0.731-0.439-0.997-0.758c-0.267-0.32-0.464-0.693-0.593-1.121c-0.13-0.428-0.193-0.881-0.193-1.359v-0.227
			c0-0.479,0.063-0.934,0.193-1.359c0.129-0.428,0.326-0.801,0.593-1.123c0.266-0.322,0.597-0.574,0.993-0.76
			c0.396-0.188,0.865-0.279,1.404-0.279c0.423,0,0.81,0.064,1.156,0.193c0.347,0.131,0.645,0.313,0.895,0.545
			c0.248,0.232,0.441,0.512,0.582,0.834c0.141,0.324,0.217,0.68,0.229,1.068h-1.483c-0.009-0.186-0.046-0.361-0.112-0.529
			c-0.066-0.17-0.159-0.316-0.278-0.441c-0.118-0.125-0.262-0.225-0.431-0.297c-0.168-0.074-0.357-0.109-0.569-0.109
			c-0.319,0-0.583,0.064-0.79,0.195c-0.207,0.133-0.371,0.305-0.492,0.516c-0.12,0.213-0.203,0.453-0.249,0.727
			c-0.045,0.271-0.066,0.545-0.066,0.822v0.227c0,0.285,0.021,0.563,0.066,0.832c0.046,0.27,0.129,0.51,0.249,0.723
			c0.121,0.211,0.284,0.381,0.489,0.512C19.579,56.355,19.844,56.42,20.167,56.42z"/>
		<path fill="#93B7E2" d="M28.39,55.611l2.071-5.068h1.968v7.006h-1.573v-4.637l-1.929,4.637h-1.067l-1.937-4.662v4.662H24.35
			v-7.006h1.981L28.39,55.611z"/>
		<path fill="#93B7E2" d="M33.899,53.98c0-0.51,0.074-0.98,0.224-1.414c0.148-0.434,0.363-0.811,0.642-1.131
			c0.279-0.318,0.618-0.568,1.021-0.75c0.401-0.184,0.855-0.273,1.365-0.273c0.515,0,0.974,0.092,1.379,0.273
			s0.747,0.432,1.025,0.75c0.279,0.318,0.491,0.697,0.638,1.131c0.147,0.434,0.222,0.904,0.222,1.414v0.135
			c0,0.51-0.073,0.982-0.222,1.418c-0.146,0.438-0.357,0.814-0.638,1.131c-0.277,0.316-0.619,0.564-1.021,0.744
			c-0.403,0.18-0.86,0.27-1.369,0.27c-0.515,0-0.974-0.09-1.376-0.27c-0.403-0.18-0.744-0.428-1.022-0.744
			c-0.277-0.316-0.492-0.693-0.642-1.131c-0.148-0.436-0.224-0.908-0.224-1.418L33.899,53.98L33.899,53.98z M35.473,54.115
			c0,0.316,0.032,0.613,0.098,0.895c0.063,0.281,0.166,0.525,0.305,0.734c0.138,0.209,0.313,0.375,0.527,0.496
			c0.214,0.121,0.467,0.18,0.761,0.18c0.289,0,0.54-0.059,0.754-0.18s0.389-0.287,0.524-0.496s0.236-0.453,0.305-0.734
			c0.066-0.279,0.101-0.578,0.101-0.895V53.98c0-0.313-0.034-0.605-0.101-0.885c-0.067-0.277-0.17-0.521-0.309-0.73
			s-0.313-0.377-0.526-0.502c-0.214-0.125-0.468-0.188-0.761-0.188c-0.294,0-0.545,0.063-0.756,0.188
			c-0.209,0.125-0.383,0.293-0.521,0.502c-0.139,0.209-0.24,0.453-0.305,0.73c-0.065,0.277-0.098,0.572-0.098,0.885L35.473,54.115
			L35.473,54.115z"/>
		<path fill="#93B7E2" d="M47.061,51.793h-2.271v5.756h-1.573v-5.756H40.97v-1.25h6.092L47.061,51.793L47.061,51.793z"/>
		<path fill="#93B7E2" d="M54.241,54.115c0,0.51-0.061,0.982-0.18,1.418c-0.118,0.438-0.293,0.814-0.523,1.131
			s-0.517,0.564-0.854,0.744c-0.339,0.18-0.726,0.27-1.162,0.27c-0.4,0-0.753-0.064-1.055-0.193
			c-0.303-0.131-0.564-0.318-0.79-0.563v3.32h-1.573v-9.697h1.45l0.063,0.711c0.226-0.271,0.491-0.479,0.801-0.623
			c0.309-0.146,0.67-0.219,1.084-0.219c0.444,0,0.838,0.086,1.179,0.26c0.341,0.172,0.627,0.416,0.857,0.729
			s0.405,0.688,0.523,1.127c0.119,0.438,0.179,0.922,0.179,1.453L54.241,54.115L54.241,54.115z M52.674,53.98
			c0-0.314-0.031-0.611-0.094-0.887c-0.063-0.277-0.158-0.52-0.288-0.727c-0.129-0.207-0.296-0.369-0.498-0.488
			c-0.203-0.117-0.447-0.178-0.731-0.178c-0.346,0-0.631,0.07-0.854,0.213c-0.225,0.143-0.401,0.336-0.531,0.582v3.107
			c0.13,0.246,0.307,0.443,0.527,0.594c0.223,0.148,0.513,0.223,0.871,0.223c0.285,0,0.526-0.061,0.729-0.184
			c0.2-0.123,0.365-0.289,0.495-0.5c0.129-0.209,0.225-0.453,0.285-0.734c0.06-0.279,0.09-0.574,0.09-0.887L52.674,53.98
			L52.674,53.98z"/>
		<path fill="#93B7E2" d="M58.656,57.678c-0.519,0-0.983-0.088-1.398-0.262c-0.414-0.172-0.766-0.408-1.055-0.711
			s-0.513-0.66-0.667-1.074c-0.155-0.414-0.233-0.861-0.233-1.342v-0.258c0-0.553,0.082-1.053,0.246-1.498
			c0.164-0.447,0.389-0.828,0.674-1.141c0.284-0.313,0.62-0.555,1.006-0.727c0.387-0.17,0.802-0.256,1.247-0.256
			c0.509,0,0.951,0.086,1.327,0.256c0.375,0.172,0.686,0.41,0.932,0.717s0.431,0.672,0.551,1.094
			c0.12,0.424,0.182,0.887,0.182,1.393v0.674H56.89c0.021,0.271,0.079,0.521,0.172,0.75c0.093,0.23,0.219,0.428,0.379,0.594
			c0.159,0.166,0.35,0.297,0.566,0.393c0.218,0.094,0.465,0.143,0.741,0.143c0.389,0,0.727-0.078,1.014-0.232
			c0.286-0.156,0.536-0.369,0.747-0.641l0.849,0.809c-0.111,0.168-0.252,0.33-0.418,0.488s-0.359,0.299-0.583,0.422
			c-0.222,0.123-0.474,0.221-0.754,0.297C59.32,57.639,59.006,57.678,58.656,57.678z M58.469,51.676c-0.432,0-0.78,0.15-1.046,0.451
			c-0.265,0.305-0.436,0.725-0.508,1.264h2.997v-0.115c-0.014-0.209-0.047-0.408-0.101-0.6c-0.055-0.191-0.138-0.363-0.25-0.512
			s-0.258-0.268-0.437-0.355C58.945,51.721,58.728,51.676,58.469,51.676z"/>
		<path fill="#93B7E2" d="M68.128,51.793h-2.272v5.756h-1.572v-5.756h-2.246v-1.25h6.092L68.128,51.793L68.128,51.793z"/>
		<path fill="#93B7E2" d="M70.867,52.77H72.4c0.453,0,0.854,0.059,1.204,0.178c0.351,0.119,0.646,0.283,0.885,0.492
			c0.238,0.209,0.421,0.459,0.544,0.752c0.123,0.291,0.185,0.611,0.185,0.961c0,0.34-0.062,0.656-0.185,0.947
			c-0.123,0.293-0.306,0.545-0.544,0.758c-0.239,0.215-0.534,0.383-0.885,0.506c-0.35,0.123-0.751,0.184-1.204,0.184h-3.106v-7.004
			h1.573V52.77z M70.867,54.031v2.26H72.4c0.229,0,0.423-0.029,0.579-0.094c0.158-0.063,0.286-0.145,0.387-0.246
			c0.099-0.102,0.17-0.219,0.214-0.352c0.043-0.135,0.063-0.273,0.063-0.416s-0.021-0.281-0.063-0.42
			c-0.044-0.139-0.115-0.262-0.214-0.369c-0.101-0.107-0.229-0.195-0.387-0.262c-0.156-0.066-0.351-0.102-0.579-0.102H70.867
			L70.867,54.031z"/>
		<path fill="#93B7E2" d="M5.613,65.717c0,0.313-0.095,0.598-0.281,0.857c-0.188,0.262-0.452,0.469-0.793,0.625
			c0.393,0.139,0.69,0.344,0.896,0.615s0.309,0.607,0.309,1.01c0,0.332-0.07,0.629-0.212,0.891c-0.14,0.262-0.338,0.482-0.592,0.662
			c-0.255,0.184-0.56,0.32-0.913,0.416s-0.741,0.143-1.165,0.143c-0.35,0-0.695-0.043-1.039-0.129s-0.649-0.221-0.92-0.398
			C0.633,70.229,0.416,70,0.25,69.723C0.084,69.443,0,69.111,0,68.729h1.566c0,0.129,0.03,0.254,0.092,0.375
			c0.06,0.121,0.147,0.229,0.265,0.32c0.117,0.094,0.258,0.168,0.425,0.223c0.166,0.057,0.354,0.086,0.566,0.086
			c0.216,0,0.401-0.027,0.56-0.082c0.157-0.055,0.288-0.127,0.393-0.217c0.104-0.09,0.181-0.193,0.229-0.313
			c0.049-0.115,0.074-0.236,0.074-0.361c0-0.342-0.1-0.586-0.298-0.738c-0.199-0.15-0.505-0.227-0.92-0.227H1.826v-1.133h1.126
			c0.202,0,0.374-0.021,0.512-0.063c0.139-0.041,0.25-0.102,0.337-0.178c0.086-0.078,0.148-0.168,0.188-0.275
			c0.039-0.105,0.06-0.223,0.06-0.354c0-0.111-0.021-0.223-0.06-0.334c-0.038-0.107-0.104-0.205-0.193-0.291
			c-0.09-0.084-0.208-0.15-0.354-0.203c-0.145-0.053-0.321-0.076-0.533-0.076c-0.178,0-0.341,0.021-0.488,0.066
			C2.271,65,2.141,65.063,2.03,65.143c-0.109,0.08-0.195,0.176-0.259,0.285c-0.063,0.109-0.095,0.229-0.095,0.357H0.11
			c0-0.328,0.073-0.621,0.222-0.883c0.146-0.262,0.344-0.482,0.592-0.664s0.54-0.32,0.874-0.418
			c0.335-0.096,0.688-0.145,1.064-0.145c0.423,0,0.806,0.043,1.146,0.133c0.341,0.088,0.63,0.217,0.866,0.389
			c0.237,0.17,0.421,0.383,0.549,0.637C5.55,65.092,5.613,65.385,5.613,65.717z"/>
		<path fill="#93B7E2" d="M11.265,70.807c-0.043-0.082-0.078-0.18-0.105-0.291c-0.028-0.113-0.054-0.234-0.074-0.363
			c-0.104,0.107-0.22,0.209-0.347,0.305c-0.128,0.096-0.269,0.178-0.422,0.248c-0.152,0.072-0.318,0.129-0.498,0.17
			s-0.369,0.063-0.572,0.063c-0.351,0-0.672-0.055-0.965-0.16c-0.295-0.104-0.546-0.252-0.755-0.439
			c-0.21-0.188-0.374-0.408-0.491-0.662c-0.119-0.256-0.179-0.531-0.179-0.83c0-0.375,0.071-0.707,0.214-0.996
			s0.35-0.531,0.621-0.727c0.271-0.193,0.605-0.342,1-0.441c0.396-0.102,0.846-0.152,1.351-0.152h0.991v-0.461
			c0-0.361-0.103-0.652-0.306-0.869c-0.203-0.219-0.512-0.328-0.926-0.328c-0.187,0-0.354,0.025-0.505,0.074
			c-0.151,0.051-0.279,0.117-0.387,0.201c-0.104,0.084-0.188,0.186-0.244,0.301c-0.06,0.117-0.088,0.242-0.088,0.375H7.005
			c0-0.273,0.067-0.541,0.204-0.799c0.136-0.256,0.328-0.486,0.578-0.688c0.252-0.199,0.555-0.359,0.91-0.48
			s0.754-0.182,1.194-0.182c0.393,0,0.755,0.051,1.088,0.15c0.332,0.104,0.619,0.254,0.86,0.453c0.242,0.201,0.43,0.451,0.563,0.752
			c0.135,0.301,0.2,0.65,0.2,1.053v3.107c0,0.629,0.089,1.133,0.266,1.508v0.109H11.265L11.265,70.807z M9.536,69.674
			c0.182,0,0.351-0.023,0.509-0.072c0.157-0.047,0.3-0.109,0.427-0.188s0.238-0.168,0.334-0.27c0.095-0.102,0.17-0.203,0.228-0.307
			v-1.322h-0.85c-0.583,0-1.021,0.102-1.313,0.305s-0.439,0.49-0.439,0.861c0,0.143,0.023,0.273,0.07,0.395
			c0.048,0.121,0.119,0.227,0.214,0.314s0.211,0.158,0.347,0.207C9.195,69.648,9.355,69.674,9.536,69.674z"/>
		<path fill="#93B7E2" d="M16.741,68.035h-0.796v2.771h-1.573v-7.004h1.573V66.6h0.691l1.937-2.797h1.941l-2.53,3.354l2.744,3.65
			h-2.046L16.741,68.035z"/>
		<path fill="#93B7E2" d="M27.547,63.801v7.006h-1.573V65.07h-1.968l-0.071,1.715c-0.03,0.666-0.091,1.25-0.182,1.752
			s-0.234,0.922-0.432,1.26c-0.196,0.338-0.454,0.59-0.775,0.758s-0.729,0.252-1.222,0.252h-0.336l0.006-1.326h0.233
			c0.229,0,0.413-0.051,0.554-0.148c0.141-0.1,0.249-0.258,0.326-0.473c0.078-0.217,0.135-0.494,0.169-0.836
			s0.063-0.754,0.084-1.236l0.13-2.984h5.057V63.801z"/>
		<path fill="#93B7E2" d="M33.404,70.807c-0.043-0.082-0.077-0.18-0.105-0.291c-0.028-0.113-0.053-0.234-0.074-0.363
			c-0.104,0.107-0.22,0.209-0.347,0.305s-0.269,0.178-0.421,0.248c-0.153,0.072-0.319,0.129-0.498,0.17
			c-0.181,0.041-0.37,0.063-0.573,0.063c-0.35,0-0.671-0.055-0.965-0.16c-0.294-0.104-0.545-0.252-0.754-0.439
			c-0.21-0.188-0.374-0.408-0.492-0.662c-0.119-0.256-0.178-0.531-0.178-0.83c0-0.375,0.071-0.707,0.213-0.996
			c0.143-0.289,0.35-0.531,0.622-0.727c0.271-0.193,0.604-0.342,1-0.441c0.395-0.102,0.845-0.152,1.35-0.152h0.991v-0.461
			c0-0.361-0.103-0.652-0.306-0.869c-0.202-0.219-0.512-0.328-0.926-0.328c-0.186,0-0.354,0.025-0.505,0.074
			c-0.151,0.051-0.279,0.117-0.386,0.201c-0.105,0.084-0.188,0.186-0.245,0.301c-0.059,0.117-0.088,0.242-0.088,0.375h-1.573
			c0-0.273,0.068-0.541,0.204-0.799c0.136-0.256,0.329-0.486,0.579-0.688c0.251-0.199,0.554-0.359,0.91-0.48
			c0.354-0.121,0.754-0.182,1.193-0.182c0.394,0,0.756,0.051,1.088,0.15c0.332,0.104,0.619,0.254,0.86,0.453
			c0.242,0.201,0.431,0.451,0.563,0.752c0.134,0.301,0.199,0.65,0.199,1.053v3.107c0,0.629,0.09,1.133,0.267,1.508v0.109H33.404
			L33.404,70.807z M31.677,69.674c0.182,0,0.351-0.023,0.509-0.072c0.157-0.047,0.301-0.109,0.428-0.188s0.237-0.168,0.334-0.27
			c0.095-0.102,0.17-0.203,0.227-0.307v-1.322h-0.849c-0.583,0-1.021,0.102-1.314,0.305s-0.438,0.49-0.438,0.861
			c0,0.143,0.022,0.273,0.069,0.395c0.048,0.121,0.119,0.227,0.214,0.314c0.096,0.088,0.211,0.158,0.348,0.207
			C31.337,69.648,31.496,69.674,31.677,69.674z"/>
		<path fill="#93B7E2" d="M36.422,69.543c0.182-0.197,0.34-0.395,0.476-0.592c0.138-0.195,0.252-0.418,0.348-0.664
			c0.095-0.246,0.171-0.525,0.227-0.844c0.058-0.318,0.095-0.701,0.116-1.148l0.071-2.492h4.861v5.748h0.972v3.342h-1.566v-2.086
			h-4.493v2.086h-1.592l0.006-3.348h0.575V69.543z M39.16,66.293c-0.038,0.752-0.139,1.395-0.299,1.924
			c-0.158,0.531-0.359,0.977-0.602,1.334h2.693v-4.396h-1.762L39.16,66.293z"/>
		<path fill="#93B7E2" d="M46.988,68.035h-0.797v2.771h-1.572v-7.004h1.572V66.6h0.692l1.937-2.797h1.941l-2.531,3.354l2.745,3.65
			H48.93L46.988,68.035z"/>
		<path fill="#93B7E2" d="M56.213,63.801h1.566v7.006h-1.566v-4.674l-2.744,4.674h-1.567v-7.006h1.567v4.674L56.213,63.801z"/>
	</g>
	<g>
		<path fill="#93B7E2" d="M27.79,2.723h-0.604C26.579,1.131,25.038,0,23.232,0H5.368C3.029,0,1.136,1.896,1.136,4.23V33.77
			c0,2.336,1.896,4.23,4.232,4.23H27.79c2.338,0,4.229-1.895,4.229-4.23V6.953C32.021,4.615,30.128,2.723,27.79,2.723z
			 M16.456,7.025l2.303-4.67l2.305,4.67l5.152,0.75l-3.728,3.633l0.88,5.133l-4.609-2.424l-4.609,2.424l0.882-5.133l-3.729-3.633
			L16.456,7.025z M29.063,34.18c0,0.586-0.475,1.059-1.057,1.059H8.618c-1.359,0-2.566-0.641-3.341-1.637V33.58
			c0.029,0,0.06,0.002,0.091,0.002h17.864c2.338,0,4.232-1.895,4.232-4.232V5.715h0.541c0.582,0,1.057,0.473,1.057,1.057
			L29.063,34.18L29.063,34.18z"/>
	</g>
</g>
</svg>
