<?xml version="1.0" encoding="utf-8"?>
<!-- Generator: Adobe Illustrator 15.1.0, SVG Export Plug-In . SVG Version: 6.00 Build 0)  -->
<!DOCTYPE svg PUBLIC "-//W3C//DTD SVG 1.1//EN" "http://www.w3.org/Graphics/SVG/1.1/DTD/svg11.dtd">
<svg version="1.1" id="Layer_1" xmlns="http://www.w3.org/2000/svg" xmlns:xlink="http://www.w3.org/1999/xlink" x="0px" y="0px"
	 width="137.527px" height="38px" viewBox="0 0 137.527 38" enable-background="new 0 0 137.527 38" xml:space="preserve">
<g id="Добавить_в_закладки_hover_2_">
	<g>
		<path fill="#93B7E2" d="M47.766,2.721h-0.604C46.555,1.131,45.014,0,43.208,0H25.344c-2.339,0-4.23,1.896-4.23,4.229v29.539
			c0,2.338,1.894,4.232,4.23,4.232h22.422c2.338,0,4.229-1.896,4.229-4.232V6.951C51.996,4.617,50.104,2.721,47.766,2.721z
			 M36.432,7.025l2.303-4.672l2.305,4.672l5.154,0.746l-3.729,3.637l0.881,5.133l-4.611-2.424l-4.606,2.424l0.881-5.133
			l-3.729-3.637L36.432,7.025z M49.037,34.178c0,0.586-0.471,1.059-1.055,1.059h-19.39c-1.356,0-2.563-0.643-3.338-1.637v-0.021
			c0.029,0.002,0.06,0.002,0.088,0.002h17.865c2.338,0,4.232-1.895,4.232-4.23V5.713h0.541c0.584,0,1.055,0.475,1.055,1.059
			L49.037,34.178L49.037,34.178z"/>
		<polygon fill="#93B7E2" points="11.102,10.715 5.926,10.715 5.926,16.486 0,16.486 0,21.518 5.926,21.518 5.926,26.525 
			5.926,27.283 11.102,27.283 11.102,21.518 17.027,21.518 17.027,16.486 11.102,16.486 		"/>
	</g>
	<g>
		<g>
			<path fill="#93B7E2" d="M74.691,23.891h-1.641v-2.447h-6.557v2.447h-1.668l-0.055-3.828h0.8c0.123-0.117,0.264-0.283,0.42-0.494
				c0.158-0.213,0.307-0.492,0.445-0.846c0.139-0.35,0.26-0.781,0.361-1.295c0.104-0.512,0.166-1.131,0.188-1.854l0.253-4.082h6.275
				v8.57h1.265L74.691,23.891z M68.716,15.574c-0.018,0.541-0.061,1.035-0.127,1.48c-0.064,0.447-0.149,0.855-0.252,1.225
				c-0.104,0.369-0.222,0.701-0.354,0.994c-0.135,0.295-0.279,0.559-0.435,0.789h4.244v-7.178H68.88L68.716,15.574z"/>
			<path fill="#93B7E2" d="M75.607,17.678c0-0.539,0.078-1.035,0.235-1.494c0.156-0.457,0.384-0.854,0.677-1.191
				c0.295-0.338,0.652-0.604,1.077-0.795c0.424-0.189,0.904-0.285,1.441-0.285c0.543,0,1.027,0.096,1.456,0.285
				c0.43,0.191,0.79,0.457,1.083,0.795c0.295,0.338,0.521,0.734,0.674,1.191c0.154,0.459,0.232,0.955,0.232,1.494v0.143
				c0,0.539-0.078,1.037-0.232,1.498c-0.153,0.459-0.379,0.857-0.674,1.193c-0.293,0.334-0.652,0.596-1.08,0.785
				c-0.426,0.189-0.907,0.283-1.444,0.283c-0.543,0-1.026-0.094-1.453-0.283c-0.426-0.189-0.785-0.451-1.08-0.785
				c-0.293-0.336-0.521-0.734-0.676-1.193c-0.158-0.461-0.236-0.959-0.236-1.498V17.678L75.607,17.678z M77.269,17.82
				c0,0.334,0.034,0.648,0.103,0.943c0.068,0.297,0.177,0.555,0.321,0.777c0.146,0.221,0.331,0.395,0.558,0.521
				c0.226,0.129,0.492,0.191,0.804,0.191c0.305,0,0.569-0.064,0.797-0.191c0.225-0.127,0.41-0.301,0.553-0.521
				c0.145-0.223,0.251-0.48,0.322-0.777c0.069-0.295,0.104-0.609,0.104-0.943v-0.143c0-0.328-0.035-0.639-0.104-0.934
				c-0.071-0.293-0.181-0.551-0.325-0.771c-0.146-0.223-0.331-0.396-0.558-0.531c-0.226-0.131-0.492-0.195-0.804-0.195
				c-0.311,0-0.574,0.064-0.797,0.195c-0.221,0.135-0.403,0.311-0.55,0.531s-0.253,0.48-0.321,0.771
				c-0.067,0.295-0.103,0.605-0.103,0.934V17.82z"/>
			<path fill="#93B7E2" d="M87.372,14.457c0.492,0,0.93,0.088,1.311,0.26c0.38,0.174,0.701,0.412,0.963,0.715
				c0.263,0.303,0.462,0.664,0.599,1.08c0.138,0.418,0.205,0.867,0.205,1.35v0.146c0,0.514-0.075,0.99-0.226,1.426
				c-0.15,0.434-0.369,0.813-0.656,1.135c-0.287,0.32-0.642,0.57-1.063,0.752c-0.423,0.18-0.904,0.27-1.446,0.27
				s-1.022-0.096-1.442-0.283s-0.775-0.449-1.066-0.777c-0.291-0.332-0.513-0.725-0.662-1.178c-0.15-0.455-0.227-0.945-0.227-1.479
				v-0.146v-0.02v-0.369c0-0.871,0.081-1.629,0.242-2.273c0.162-0.645,0.391-1.189,0.684-1.637c0.295-0.447,0.646-0.801,1.054-1.063
				c0.407-0.264,0.862-0.447,1.363-0.551c0.246-0.051,0.464-0.102,0.653-0.15c0.188-0.051,0.348-0.111,0.479-0.186
				c0.13-0.072,0.229-0.162,0.298-0.266c0.067-0.105,0.103-0.238,0.103-0.396h1.34c0,0.414-0.06,0.754-0.178,1.018
				c-0.118,0.266-0.288,0.48-0.509,0.65c-0.223,0.168-0.489,0.301-0.804,0.4c-0.314,0.098-0.668,0.188-1.061,0.27
				c-0.287,0.063-0.555,0.15-0.803,0.26c-0.249,0.109-0.471,0.254-0.667,0.438s-0.362,0.406-0.499,0.674s-0.239,0.584-0.309,0.953
				c0.307-0.313,0.65-0.563,1.036-0.746C86.469,14.549,86.898,14.457,87.372,14.457z M87.044,15.791
				c-0.306,0-0.566,0.055-0.785,0.168c-0.22,0.111-0.397,0.262-0.537,0.451c-0.14,0.188-0.24,0.408-0.305,0.658
				c-0.063,0.252-0.096,0.516-0.096,0.793v0.145c0,0.309,0.032,0.602,0.096,0.875c0.064,0.273,0.165,0.512,0.305,0.717
				s0.318,0.367,0.541,0.486c0.221,0.117,0.485,0.178,0.796,0.178c0.306,0,0.567-0.061,0.79-0.178
				c0.221-0.119,0.399-0.281,0.539-0.486s0.241-0.441,0.309-0.717c0.064-0.273,0.099-0.566,0.099-0.875v-0.145
				c0-0.277-0.032-0.541-0.099-0.793c-0.066-0.25-0.169-0.471-0.309-0.658c-0.14-0.189-0.318-0.34-0.539-0.451
				C87.626,15.846,87.358,15.791,87.044,15.791z"/>
			<path fill="#93B7E2" d="M96.163,21.443c-0.046-0.086-0.083-0.188-0.111-0.307c-0.03-0.119-0.058-0.246-0.079-0.383
				c-0.109,0.113-0.231,0.221-0.366,0.32c-0.134,0.102-0.282,0.189-0.443,0.264c-0.162,0.076-0.338,0.135-0.526,0.178
				s-0.392,0.064-0.604,0.064c-0.369,0-0.708-0.055-1.019-0.166c-0.312-0.113-0.575-0.268-0.798-0.465
				c-0.221-0.199-0.394-0.434-0.52-0.701c-0.125-0.27-0.188-0.561-0.188-0.875c0-0.396,0.074-0.748,0.226-1.053
				c0.149-0.307,0.369-0.561,0.656-0.766c0.286-0.205,0.64-0.361,1.056-0.469c0.418-0.107,0.893-0.16,1.426-0.16h1.046v-0.486
				c0-0.383-0.105-0.689-0.32-0.918c-0.216-0.23-0.54-0.346-0.979-0.346c-0.196,0-0.374,0.025-0.533,0.078
				c-0.158,0.053-0.295,0.123-0.406,0.213c-0.111,0.088-0.197,0.193-0.261,0.314c-0.061,0.123-0.092,0.258-0.092,0.396h-1.661
				c0-0.291,0.071-0.572,0.216-0.844c0.144-0.271,0.349-0.512,0.611-0.725c0.264-0.211,0.584-0.381,0.961-0.51
				c0.375-0.127,0.796-0.191,1.261-0.191c0.415,0,0.798,0.055,1.148,0.162c0.351,0.105,0.653,0.266,0.909,0.479
				c0.256,0.211,0.453,0.475,0.595,0.793c0.142,0.316,0.212,0.686,0.212,1.109v3.281c0,0.666,0.094,1.197,0.28,1.594v0.115h-1.696
				V21.443z M94.339,20.248c0.19,0,0.369-0.025,0.536-0.076c0.166-0.049,0.316-0.115,0.451-0.197
				c0.134-0.082,0.252-0.178,0.353-0.283c0.1-0.105,0.18-0.217,0.238-0.324v-1.396h-0.896c-0.615,0-1.078,0.107-1.388,0.322
				c-0.311,0.213-0.465,0.518-0.465,0.908c0,0.15,0.023,0.289,0.074,0.418c0.052,0.127,0.125,0.238,0.227,0.332
				c0.101,0.092,0.222,0.166,0.365,0.219C93.979,20.221,94.146,20.248,94.339,20.248z"/>
			<path fill="#93B7E2" d="M99.444,21.443v-7.395h3.001c0.479,0,0.909,0.041,1.292,0.123s0.708,0.209,0.979,0.381
				c0.27,0.17,0.475,0.385,0.618,0.643c0.144,0.256,0.216,0.559,0.216,0.904c0,0.342-0.105,0.648-0.318,0.92
				c-0.211,0.271-0.525,0.48-0.939,0.625c0.265,0.055,0.494,0.139,0.69,0.25s0.358,0.242,0.489,0.391
				c0.129,0.146,0.228,0.311,0.293,0.488s0.1,0.363,0.1,0.561c0,0.35-0.066,0.658-0.198,0.922c-0.132,0.266-0.325,0.484-0.577,0.66
				c-0.254,0.176-0.561,0.309-0.924,0.396c-0.36,0.09-0.774,0.133-1.24,0.133h-3.48V21.443z M101.105,17.104h1.367
				c0.481,0,0.84-0.068,1.069-0.213c0.229-0.141,0.346-0.348,0.346-0.621c0-0.311-0.12-0.539-0.358-0.684
				c-0.24-0.146-0.603-0.219-1.084-0.219h-1.34V17.104L101.105,17.104z M101.105,18.293v1.838h1.817c0.441,0,0.767-0.08,0.972-0.238
				c0.205-0.16,0.308-0.385,0.308-0.678c0-0.281-0.102-0.506-0.304-0.672c-0.203-0.168-0.527-0.25-0.976-0.25H101.105
				L101.105,18.293z"/>
			<path fill="#93B7E2" d="M111.913,14.047h1.654v7.396h-1.654v-4.936l-2.897,4.936h-1.654v-7.396h1.654v4.936L111.913,14.047z"/>
			<path fill="#93B7E2" d="M121.155,15.367h-2.398v6.076h-1.661v-6.076h-2.372v-1.32h6.433L121.155,15.367L121.155,15.367z"/>
			<path fill="#93B7E2" d="M124.048,16.398h1.619c0.479,0,0.902,0.064,1.271,0.189s0.681,0.297,0.933,0.52
				c0.254,0.223,0.445,0.484,0.574,0.793c0.131,0.309,0.195,0.646,0.195,1.016c0,0.359-0.064,0.693-0.195,1.002
				c-0.129,0.309-0.32,0.574-0.574,0.801c-0.252,0.225-0.563,0.402-0.933,0.533c-0.369,0.129-0.793,0.193-1.271,0.193h-3.28v-7.396
				h1.661V16.398z M124.048,17.732v2.387h1.619c0.241,0,0.445-0.033,0.612-0.1c0.166-0.064,0.301-0.152,0.406-0.26
				c0.104-0.107,0.18-0.232,0.226-0.373c0.046-0.143,0.068-0.287,0.068-0.438s-0.022-0.299-0.068-0.445
				c-0.046-0.145-0.12-0.275-0.226-0.389c-0.105-0.115-0.24-0.207-0.406-0.277c-0.167-0.07-0.371-0.105-0.612-0.105H124.048
				L124.048,17.732z"/>
			<path fill="#93B7E2" d="M65.505,34.703v-7.396h3c0.479,0,0.909,0.041,1.293,0.123c0.383,0.082,0.709,0.209,0.978,0.379
				c0.269,0.172,0.476,0.385,0.618,0.645c0.145,0.258,0.216,0.559,0.216,0.904c0,0.344-0.106,0.648-0.317,0.92
				c-0.213,0.271-0.524,0.48-0.939,0.625c0.265,0.057,0.495,0.139,0.689,0.25c0.195,0.111,0.359,0.24,0.488,0.391
				c0.131,0.146,0.229,0.311,0.295,0.486c0.065,0.18,0.1,0.365,0.1,0.563c0,0.352-0.065,0.658-0.198,0.924
				c-0.133,0.264-0.324,0.484-0.578,0.66c-0.252,0.174-0.562,0.307-0.922,0.395c-0.363,0.088-0.776,0.135-1.241,0.135h-3.48V34.703z
				 M67.165,30.361h1.367c0.483,0,0.84-0.068,1.069-0.211s0.346-0.35,0.346-0.623c0-0.309-0.119-0.535-0.359-0.684
				c-0.237-0.145-0.6-0.219-1.083-0.219h-1.34V30.361L67.165,30.361z M67.165,31.551v1.84h1.818c0.442,0,0.766-0.08,0.971-0.24
				c0.205-0.156,0.309-0.385,0.309-0.676c0-0.283-0.103-0.508-0.306-0.674c-0.202-0.166-0.526-0.25-0.974-0.25H67.165z"/>
			<path fill="#93B7E2" d="M82.443,29.33c0,0.328-0.1,0.629-0.297,0.906c-0.199,0.275-0.479,0.494-0.838,0.658
				c0.414,0.146,0.729,0.363,0.946,0.65s0.324,0.643,0.324,1.064c0,0.352-0.074,0.664-0.223,0.939
				c-0.147,0.275-0.355,0.51-0.625,0.701c-0.271,0.191-0.59,0.336-0.964,0.438s-0.784,0.15-1.23,0.15
				c-0.369,0-0.734-0.047-1.097-0.137c-0.363-0.092-0.688-0.232-0.971-0.42c-0.285-0.189-0.517-0.432-0.691-0.725
				c-0.175-0.295-0.263-0.645-0.263-1.051h1.653c0,0.137,0.032,0.27,0.097,0.395c0.063,0.131,0.157,0.24,0.28,0.342
				c0.123,0.098,0.271,0.176,0.446,0.232c0.177,0.063,0.375,0.09,0.6,0.09c0.228,0,0.425-0.027,0.591-0.086
				c0.167-0.057,0.305-0.133,0.414-0.229c0.108-0.096,0.189-0.205,0.241-0.328c0.054-0.123,0.079-0.252,0.079-0.383
				c0-0.361-0.104-0.621-0.313-0.779c-0.21-0.16-0.533-0.24-0.972-0.24h-1.188v-1.193h1.188c0.215,0,0.395-0.021,0.541-0.064
				c0.146-0.045,0.264-0.107,0.354-0.189s0.157-0.178,0.198-0.289c0.041-0.113,0.062-0.236,0.062-0.373
				c0-0.119-0.021-0.236-0.062-0.352c-0.041-0.117-0.109-0.219-0.205-0.309c-0.096-0.088-0.22-0.16-0.372-0.215
				c-0.153-0.057-0.342-0.082-0.563-0.082c-0.188,0-0.359,0.021-0.517,0.07c-0.158,0.049-0.295,0.113-0.41,0.197
				c-0.116,0.084-0.208,0.188-0.272,0.301c-0.066,0.117-0.101,0.242-0.101,0.381h-1.653c0-0.348,0.078-0.656,0.231-0.934
				c0.154-0.275,0.363-0.51,0.625-0.701c0.263-0.189,0.57-0.338,0.924-0.439c0.354-0.104,0.729-0.154,1.124-0.154
				c0.446,0,0.852,0.047,1.21,0.141c0.359,0.094,0.666,0.23,0.916,0.41s0.443,0.404,0.578,0.674
				C82.376,28.668,82.443,28.979,82.443,29.33z"/>
			<path fill="#93B7E2" d="M88.411,34.703c-0.046-0.088-0.083-0.189-0.111-0.309c-0.03-0.117-0.058-0.246-0.079-0.383
				c-0.109,0.115-0.231,0.221-0.366,0.322c-0.134,0.1-0.282,0.188-0.443,0.264c-0.162,0.074-0.338,0.133-0.526,0.178
				c-0.188,0.043-0.392,0.064-0.604,0.064c-0.369,0-0.708-0.059-1.019-0.168c-0.312-0.111-0.575-0.268-0.798-0.465
				c-0.221-0.197-0.394-0.434-0.52-0.701c-0.125-0.27-0.188-0.563-0.188-0.875c0-0.396,0.074-0.746,0.226-1.053
				c0.149-0.307,0.369-0.563,0.656-0.768c0.286-0.205,0.64-0.361,1.056-0.467c0.418-0.107,0.893-0.162,1.426-0.162h1.046v-0.484
				c0-0.383-0.105-0.688-0.32-0.92c-0.216-0.23-0.54-0.346-0.979-0.346c-0.196,0-0.374,0.027-0.533,0.08
				c-0.159,0.051-0.295,0.123-0.406,0.211c-0.111,0.09-0.197,0.195-0.261,0.318c-0.061,0.123-0.092,0.254-0.092,0.396h-1.661
				c0-0.293,0.071-0.574,0.216-0.844c0.144-0.271,0.349-0.514,0.611-0.725c0.264-0.215,0.584-0.385,0.961-0.512
				c0.375-0.129,0.796-0.189,1.261-0.189c0.415,0,0.798,0.053,1.148,0.16c0.35,0.105,0.653,0.268,0.909,0.479
				c0.256,0.213,0.453,0.477,0.595,0.793s0.212,0.688,0.212,1.111v3.281c0,0.664,0.094,1.193,0.28,1.592v0.117h-1.696V34.703z
				 M86.586,33.506c0.191,0,0.37-0.025,0.537-0.074c0.166-0.051,0.316-0.117,0.451-0.199c0.134-0.082,0.252-0.176,0.353-0.281
				c0.1-0.107,0.18-0.217,0.238-0.324V31.23H87.27c-0.615,0-1.078,0.107-1.388,0.32c-0.311,0.215-0.465,0.518-0.465,0.91
				c0,0.15,0.023,0.289,0.074,0.416c0.051,0.129,0.125,0.238,0.227,0.332c0.101,0.094,0.222,0.166,0.365,0.219
				S86.395,33.506,86.586,33.506z"/>
			<path fill="#93B7E2" d="M94.194,31.777h-0.841v2.928h-1.661v-7.396h1.661v2.953h0.73l2.044-2.953h2.052l-2.673,3.541l2.897,3.855
				h-2.16L94.194,31.777z"/>
			<path fill="#93B7E2" d="M105.604,27.307v7.396h-1.661v-6.057h-2.078l-0.075,1.811c-0.03,0.703-0.096,1.318-0.19,1.85
				c-0.096,0.533-0.247,0.975-0.455,1.33c-0.207,0.355-0.48,0.621-0.82,0.799c-0.339,0.178-0.769,0.27-1.288,0.27h-0.354
				l0.007-1.402h0.246c0.242,0,0.437-0.053,0.584-0.156c0.147-0.105,0.264-0.271,0.346-0.5c0.082-0.227,0.142-0.521,0.178-0.881
				c0.037-0.361,0.066-0.795,0.089-1.307l0.138-3.15h5.336V27.307z"/>
			<path fill="#93B7E2" d="M111.79,34.703c-0.046-0.088-0.083-0.189-0.111-0.309c-0.03-0.117-0.058-0.246-0.079-0.383
				c-0.109,0.115-0.231,0.221-0.366,0.322c-0.134,0.1-0.282,0.188-0.443,0.264c-0.162,0.074-0.338,0.133-0.526,0.178
				c-0.188,0.043-0.392,0.064-0.604,0.064c-0.369,0-0.708-0.059-1.019-0.168c-0.312-0.111-0.575-0.268-0.797-0.465
				s-0.395-0.434-0.521-0.701c-0.125-0.27-0.188-0.563-0.188-0.875c0-0.396,0.074-0.746,0.226-1.053
				c0.15-0.307,0.369-0.563,0.656-0.768s0.64-0.361,1.056-0.467c0.418-0.107,0.893-0.162,1.426-0.162h1.047v-0.484
				c0-0.383-0.106-0.688-0.321-0.92c-0.216-0.23-0.54-0.346-0.979-0.346c-0.196,0-0.374,0.027-0.532,0.08
				c-0.159,0.051-0.296,0.123-0.407,0.211c-0.111,0.09-0.197,0.195-0.261,0.318c-0.061,0.123-0.092,0.254-0.092,0.396h-1.661
				c0-0.293,0.071-0.574,0.216-0.844c0.144-0.271,0.349-0.514,0.611-0.725c0.264-0.215,0.584-0.385,0.961-0.512
				c0.375-0.129,0.796-0.189,1.262-0.189c0.414,0,0.798,0.053,1.147,0.16c0.35,0.105,0.653,0.268,0.909,0.479
				c0.256,0.213,0.453,0.477,0.595,0.793s0.212,0.688,0.212,1.111v3.281c0,0.664,0.094,1.193,0.28,1.592v0.117h-1.696V34.703z
				 M109.964,33.506c0.191,0,0.37-0.025,0.537-0.074c0.166-0.051,0.316-0.117,0.451-0.199s0.252-0.176,0.353-0.281
				c0.1-0.107,0.18-0.217,0.239-0.324V31.23h-0.896c-0.615,0-1.078,0.107-1.388,0.32c-0.311,0.215-0.465,0.518-0.465,0.91
				c0,0.15,0.023,0.289,0.074,0.416c0.052,0.129,0.125,0.238,0.227,0.332c0.101,0.094,0.222,0.166,0.366,0.219
				C109.605,33.48,109.773,33.506,109.964,33.506z"/>
			<path fill="#93B7E2" d="M114.976,33.369c0.19-0.209,0.357-0.418,0.503-0.625c0.143-0.207,0.266-0.441,0.365-0.701
				c0.099-0.26,0.18-0.557,0.238-0.891c0.061-0.336,0.102-0.74,0.123-1.215l0.075-2.631h5.134v6.07h1.025v3.525h-1.654v-2.199
				h-4.744v2.199h-1.682l0.007-3.533H114.976L114.976,33.369z M117.867,29.938c-0.041,0.793-0.146,1.473-0.313,2.031
				c-0.168,0.561-0.381,1.029-0.637,1.408h2.845v-4.643h-1.859L117.867,29.938z"/>
			<path fill="#93B7E2" d="M126.132,31.777h-0.842v2.928h-1.66v-7.396h1.66v2.953h0.731l2.044-2.953h2.051l-2.673,3.541l2.897,3.855
				h-2.159L126.132,31.777z"/>
			<path fill="#93B7E2" d="M135.873,27.307h1.654v7.396h-1.654v-4.936l-2.897,4.936h-1.654v-7.396h1.654v4.938L135.873,27.307z"/>
		</g>
	</g>
</g>
</svg>
