<?xml version="1.0" encoding="utf-8"?>
<!-- Generator: Adobe Illustrator 15.1.0, SVG Export Plug-In . SVG Version: 6.00 Build 0)  -->
<!DOCTYPE svg PUBLIC "-//W3C//DTD SVG 1.1//EN" "http://www.w3.org/Graphics/SVG/1.1/DTD/svg11.dtd">
<svg version="1.1" id="Layer_1" xmlns="http://www.w3.org/2000/svg" xmlns:xlink="http://www.w3.org/1999/xlink" x="0px" y="0px"
	 width="107.016px" height="31.547px" viewBox="0 0 107.016 31.547" enable-background="new 0 0 107.016 31.547"
	 xml:space="preserve">
<g id="Visualiser_Logo_1_">
	<path fill="#CAC264" d="M2.416,28.41c3.834-6.982,7.5-13.053,10.998-18.207c1.627-2.395,3.492-4.928,5.599-7.6
		c0.826-1.059,1.545-1.59,2.155-1.59c0.246,0,0.457,0.102,0.632,0.305c0.114,0.146,0.174,0.299,0.174,0.457
		c0,0.379-0.369,1.023-1.111,1.939C16.058,9.725,10.62,18.168,4.552,29.039c-0.554,0.988-0.966,1.643-1.242,1.963
		c-0.289,0.361-0.652,0.545-1.088,0.545C0.741,31.547,0,30.189,0,27.475c0-2.584,0.652-6.592,1.959-12.021
		C3.033,10.967,4.349,6.945,5.9,3.387c0.582-1.334,0.959-2.125,1.133-2.373c0.306-0.42,0.711-0.631,1.222-0.631
		c0.332,0,0.594,0.102,0.782,0.305C9.211,0.848,9.3,1.043,9.3,1.275c0,0.35-0.089,0.732-0.263,1.154L8.209,4.389
		c-1.553,3.703-2.838,7.428-3.854,11.172c-1.322,4.836-1.982,8.705-1.982,11.607L2.416,28.41z"/>
	<path fill="#CAC264" d="M20.361,15.148c0.246,0,0.449,0.094,0.608,0.283c0.117,0.158,0.175,0.318,0.175,0.479
		c0,0.262-0.212,0.697-0.632,1.307c-1.51,2.338-2.584,4.262-3.223,5.771c-0.684,1.553-1.285,3.15-1.809,4.791
		c-0.232,0.725-0.594,1.088-1.088,1.088c-0.291,0-0.523-0.115-0.697-0.348c-0.16-0.189-0.24-0.393-0.24-0.609
		c0-0.436,0.465-1.889,1.396-4.355c0.727-1.945,1.901-4.096,3.526-6.447c0.523-0.77,0.916-1.285,1.176-1.547
		C19.816,15.285,20.086,15.148,20.361,15.148z M24.498,7.068c0.654,0,0.98,0.334,0.98,1.002c0,0.609-0.318,1.285-0.957,2.025
		c-0.611,0.711-1.199,1.064-1.767,1.064c-0.274,0-0.5-0.102-0.674-0.305c-0.174-0.188-0.262-0.422-0.262-0.697
		c0-0.695,0.385-1.438,1.154-2.221C23.541,7.359,24.05,7.068,24.498,7.068z"/>
	<path fill="#CAC264" d="M30.531,13.732c0.9,0,1.574,0.16,2.025,0.479c0.448,0.32,0.676,0.807,0.676,1.459
		c0,0.857-0.32,1.686-0.959,2.482c-0.609,0.756-1.525,1.365-2.744,1.83c-0.668,0.246-1.228,0.369-1.678,0.369
		c-0.609,0-0.914-0.268-0.914-0.805c0-0.363,0.174-0.641,0.522-0.828c0.086-0.043,0.58-0.166,1.48-0.369
		c0.537-0.117,1.031-0.371,1.479-0.764c0.394-0.334,0.589-0.695,0.589-1.088c0-0.307-0.087-0.529-0.263-0.678
		c-0.174-0.145-0.436-0.217-0.782-0.217c-0.843,0-1.771,0.34-2.787,1.023c-1.177,0.77-1.765,1.684-1.765,2.744
		c0,0.754,0.386,1.697,1.154,2.83c0.854,1.234,1.283,2.279,1.283,3.137c0,1.277-0.564,2.279-1.697,3.006
		c-0.697,0.449-1.488,0.674-2.375,0.674c-1.393,0-2.453-0.5-3.18-1.502c-0.509-0.711-0.763-1.553-0.763-2.527
		c0-1.131,0.291-2.082,0.871-2.852c0.379-0.508,0.771-0.762,1.176-0.762c0.363,0,0.546,0.145,0.546,0.436
		c0,0.115-0.064,0.289-0.195,0.521c-0.334,0.625-0.502,1.357-0.502,2.199c0,0.713,0.254,1.314,0.764,1.809
		c0.449,0.436,0.966,0.652,1.546,0.652c0.565,0,1.01-0.188,1.327-0.566c0.263-0.318,0.394-0.725,0.394-1.219
		c0-0.609-0.349-1.4-1.045-2.373c-0.959-1.336-1.438-2.549-1.438-3.637c0-1.453,0.791-2.738,2.373-3.855
		C27.191,14.27,28.818,13.732,30.531,13.732z"/>
	<path fill="#CAC264" d="M37.957,24.861c-0.623,0.871-1.176,1.566-1.653,2.09c-0.843,0.93-1.679,1.395-2.505,1.395
		c-0.711,0-1.264-0.32-1.655-0.959c-0.275-0.449-0.414-0.986-0.414-1.611c0-1.873,0.799-4.02,2.396-6.445
		c0.74-1.133,1.474-1.996,2.199-2.592c0.566-0.479,1.031-0.719,1.396-0.719c0.202,0,0.391,0.086,0.565,0.26
		c0.146,0.16,0.217,0.32,0.217,0.48c0,0.275-0.268,0.725-0.805,1.35c-1.205,1.439-2.121,2.758-2.744,3.963
		c-0.727,1.408-1.09,2.514-1.09,3.313c0,0.203,0.047,0.357,0.143,0.469c0.095,0.109,0.229,0.164,0.402,0.164
		c0.74,0,1.771-1.061,3.092-3.18c0.685-1.105,1.271-2.324,1.765-3.66c0.262-0.727,0.604-1.371,1.024-1.939
		c0.406-0.508,0.806-0.762,1.197-0.762c0.217,0,0.414,0.094,0.588,0.283c0.188,0.203,0.283,0.428,0.283,0.674
		c0,0.523-0.502,1.699-1.504,3.529c-0.683,1.262-1.023,2.314-1.023,3.156c0,0.9,0.24,1.67,0.72,2.309
		c0.131,0.176,0.53,0.451,1.198,0.828c0.318,0.189,0.479,0.494,0.479,0.914c0,0.262-0.113,0.488-0.338,0.676
		c-0.226,0.189-0.498,0.283-0.816,0.283c-0.727,0-1.387-0.291-1.982-0.871c-0.537-0.523-0.879-1.277-1.022-2.266
		C38.037,25.861,38.002,25.484,37.957,24.861z"/>
	<path fill="#CAC264" d="M49.871,24.6c-0.479,0.842-0.951,1.553-1.416,2.133c-0.914,1.133-1.822,1.699-2.723,1.699
		c-0.783,0-1.394-0.369-1.828-1.109c-0.277-0.48-0.414-1.047-0.414-1.699c0-1.611,0.508-3.391,1.522-5.336
		c1.134-2.164,2.498-3.826,4.095-4.986c1.047-0.756,2.055-1.133,3.026-1.133c0.611,0,1.119,0.189,1.525,0.566
		c0.348,0.334,0.521,0.711,0.521,1.133c0,0.318-0.123,0.762-0.369,1.328c0.217,0.305,0.326,0.572,0.326,0.805
		c0,0.305-0.203,0.807-0.609,1.504c-0.422,0.711-0.842,1.654-1.264,2.83c-0.449,1.25-0.675,2.25-0.675,3.006
		c0,0.609,0.181,1.111,0.543,1.502c0.103,0.102,0.4,0.27,0.894,0.502c0.363,0.174,0.545,0.479,0.545,0.914
		c0,0.275-0.103,0.5-0.305,0.676c-0.218,0.189-0.474,0.283-0.763,0.283c-0.785,0-1.459-0.35-2.024-1.047
		c-0.465-0.566-0.697-1.277-0.697-2.133C49.783,25.746,49.813,25.268,49.871,24.6z M52.593,17.434
		c-0.175-0.318-0.361-0.555-0.564-0.707c-0.205-0.152-0.422-0.229-0.654-0.229c-1.104,0-2.301,0.965-3.594,2.895
		c-1.422,2.135-2.133,3.941-2.133,5.422c0,0.363,0.067,0.639,0.205,0.828c0.139,0.189,0.346,0.283,0.621,0.283
		c0.696,0,1.51-0.74,2.438-2.221c0.522-0.814,1.168-2.012,1.938-3.594c0.51-1.031,0.879-1.713,1.11-2.047
		C52.078,17.893,52.287,17.682,52.593,17.434z"/>
	<path fill="#CAC264" d="M58.582,20.963c-0.436,1.131-0.764,2.047-0.979,2.744c-0.219,0.693-0.326,1.184-0.326,1.459
		c0,0.361,0.174,0.543,0.521,0.543c0.523,0,1.199-0.492,2.025-1.48c0.393-0.479,0.973-1.342,1.742-2.592
		c0.305-0.492,0.625-0.74,0.959-0.74c0.377,0,0.565,0.182,0.565,0.545c0,0.625-0.719,1.887-2.155,3.789
		c-1.496,1.99-2.884,2.984-4.16,2.984c-0.552,0-1.002-0.232-1.351-0.697c-0.246-0.334-0.371-0.74-0.371-1.221
		c0-0.814,0.248-1.939,0.74-3.375c0.494-1.439,1.229-3.188,2.201-5.248c2.496-5.24,5.045-9.563,7.643-12.957
		c2.076-2.73,3.798-4.096,5.162-4.096c0.437,0,0.791,0.168,1.066,0.502C72.155,1.457,72.3,1.842,72.3,2.275
		c0,2.033-1.813,5.416-5.442,10.148c-1.627,2.105-3.572,4.211-5.838,6.314C60.427,19.293,59.611,20.033,58.582,20.963z M60.127,17.5
		c3.021-2.584,5.722-5.854,8.103-9.803c1.234-2.047,1.852-3.402,1.852-4.07c0-0.318-0.139-0.48-0.414-0.48
		c-0.799,0-2.25,1.59-4.354,4.771C63.568,10.531,61.84,13.725,60.127,17.5z"/>
	<path fill="#CAC264" d="M70.297,15.148c0.248,0,0.451,0.094,0.611,0.283c0.115,0.158,0.174,0.318,0.174,0.479
		c0,0.262-0.211,0.697-0.633,1.307c-1.51,2.338-2.584,4.262-3.224,5.771c-0.682,1.553-1.284,3.15-1.807,4.791
		c-0.232,0.725-0.596,1.088-1.09,1.088c-0.289,0-0.521-0.115-0.697-0.348c-0.158-0.189-0.238-0.393-0.238-0.609
		c0-0.436,0.466-1.889,1.394-4.355c0.727-1.945,1.901-4.096,3.529-6.447c0.521-0.77,0.913-1.285,1.176-1.547
		C69.754,15.285,70.021,15.148,70.297,15.148z M74.436,7.068c0.651,0,0.979,0.334,0.979,1.002c0,0.609-0.319,1.285-0.959,2.025
		c-0.608,0.711-1.197,1.064-1.764,1.064c-0.275,0-0.502-0.102-0.676-0.305c-0.174-0.188-0.263-0.422-0.263-0.697
		c0-0.695,0.386-1.438,1.154-2.221C73.477,7.359,73.984,7.068,74.436,7.068z"/>
	<path fill="#CAC264" d="M72.105,25.666c1.319-0.449,2.481-0.678,3.483-0.678c1.685,0,2.525,0.438,2.525,1.309
		c0,0.262-0.102,0.502-0.305,0.719c-0.203,0.219-0.437,0.328-0.697,0.328c-0.16,0-0.5-0.066-1.023-0.197
		c-0.305-0.086-0.602-0.131-0.893-0.131c-1.234,0-2.402,0.262-3.506,0.785c-0.783,0.377-1.307,0.564-1.568,0.564
		c-0.334,0-0.623-0.107-0.871-0.328c-0.231-0.201-0.348-0.428-0.348-0.674c0-0.596,0.711-1.793,2.133-3.594
		c2.135-2.656,4.394-4.922,6.773-6.795c-1.582,0.189-2.664,0.283-3.244,0.283c-1.396,0-2.092-0.414-2.092-1.24
		c0-0.262,0.088-0.48,0.262-0.654c0.16-0.16,0.342-0.238,0.545-0.238c0.174,0,0.559,0.053,1.154,0.15
		c0.231,0.045,0.588,0.066,1.065,0.066c1.248,0,2.462-0.139,3.638-0.414c0.451-0.102,0.836-0.152,1.153-0.152
		c0.363,0,0.668,0.131,0.916,0.395c0.188,0.188,0.283,0.42,0.283,0.695c0,0.48-0.408,1-1.221,1.566
		c-2.381,1.889-4.06,3.332-5.031,4.334C73.861,23.234,72.816,24.533,72.105,25.666z"/>
	<path fill="#CAC264" d="M81.949,24.012v0.391c0,0.32,0.08,0.596,0.238,0.828c0.362,0.537,0.959,0.807,1.787,0.807
		c1.813,0,3.911-1.395,6.292-4.182c0.423-0.479,0.777-0.719,1.066-0.719c0.16,0,0.307,0.08,0.437,0.24
		c0.088,0.113,0.131,0.225,0.131,0.324c0,0.566-0.695,1.523-2.09,2.875c-1.091,1.061-2.25,1.926-3.484,2.592
		c-1.233,0.668-2.381,1.002-3.44,1.002c-1.089,0-1.945-0.377-2.57-1.131c-0.42-0.523-0.631-1.234-0.631-2.137
		c0-2.453,1.154-4.855,3.463-7.209c1.873-1.916,3.506-2.875,4.9-2.875c0.377,0,0.719,0.117,1.022,0.352
		c0.377,0.305,0.565,0.703,0.565,1.195c0,0.771-0.354,1.715-1.067,2.832C87.104,21.521,84.896,23.125,81.949,24.012z M82.427,22.313
		c1.017-0.348,1.814-0.74,2.396-1.176c1.016-0.785,1.82-1.67,2.416-2.656c0.219-0.35,0.326-0.662,0.326-0.938
		c0-0.291-0.137-0.438-0.412-0.438c-0.379,0-0.916,0.283-1.611,0.852C84.293,18.959,83.256,20.41,82.427,22.313z"/>
	<path fill="#CAC264" d="M96.453,21.027c1.422-1.523,3.063-3.012,4.922-4.465c0.668-0.521,1.38-1.008,2.136-1.459
		c0.377-0.217,0.614-0.326,0.717-0.326c0.219,0,0.436,0.16,0.654,0.479c0.131,0.176,0.194,0.334,0.194,0.48
		c0,0.26-0.274,0.617-0.826,1.066c-1.481,1.176-2.223,2.063-2.223,2.656c0,0.334,0.188,0.502,0.565,0.502
		c0.625,0,1.699-0.518,3.224-1.549c0.262-0.174,0.479-0.262,0.653-0.262c0.115,0,0.232,0.061,0.349,0.176
		c0.131,0.131,0.197,0.27,0.197,0.412c0,0.438-0.609,1.105-1.83,2.004c-1.277,0.959-2.49,1.439-3.638,1.439
		c-0.465,0-0.893-0.123-1.284-0.369c-0.334-0.203-0.5-0.566-0.5-1.09c0-0.363,0.151-0.777,0.457-1.242
		c-1.146,0.814-2.498,2.207-4.052,4.182c-0.899,1.221-1.793,2.723-2.68,4.508c-0.332,0.668-0.746,1.002-1.24,1.002
		c-0.537,0-0.807-0.254-0.807-0.762c0-0.494,0.422-1.814,1.264-3.963c1.248-3.195,2.556-5.67,3.92-7.428
		c0.843-1.088,1.547-1.633,2.113-1.633c0.188,0,0.361,0.059,0.521,0.174c0.188,0.145,0.283,0.328,0.283,0.545
		c0,0.219-0.146,0.523-0.437,0.914c-0.06,0.074-0.442,0.561-1.154,1.461C97.302,19.336,96.802,20.186,96.453,21.027z"/>
</g>
</svg>
