<?xml version="1.0" encoding="utf-8"?>
<!-- Generator: Adobe Illustrator 15.1.0, SVG Export Plug-In . SVG Version: 6.00 Build 0)  -->
<!DOCTYPE svg PUBLIC "-//W3C//DTD SVG 1.1//EN" "http://www.w3.org/Graphics/SVG/1.1/DTD/svg11.dtd">
<svg version="1.1" id="Layer_1" xmlns="http://www.w3.org/2000/svg" xmlns:xlink="http://www.w3.org/1999/xlink" x="0px" y="0px"
	 width="85.846px" height="23.713px" viewBox="0 0 85.846 23.713" enable-background="new 0 0 85.846 23.713" xml:space="preserve">
<g>
	<rect x="-8.679" y="-4.82" display="none" fill="#CFD1D2" width="103.492" height="33.729"/>
	<g>
		<g>
			<path fill="#3E6837" d="M13.136,1.905V0.375L0,2.6v17.943l13.136,2.369v-1.389h5.859l0.332-0.219l0.689-0.48h-6.883v-0.029
				h-1.472v-4.057h1.472v-0.324h3.834v-2.705h-3.834v-0.664h3.834v-2.703h-3.834V9.676h3.834V6.973h-3.834V6.309h3.834V3.606h-3.834
				v-1h10.498v12.002l0.701,0.492V1.905H13.136z M7.836,15.87l-0.762-1.523c-0.312-0.586-0.512-1.021-0.749-1.51H6.302
				c-0.177,0.486-0.389,0.924-0.663,1.51L4.951,15.87H2.779l2.435-4.258L2.866,7.454h2.187l0.735,1.537
				c0.249,0.512,0.438,0.924,0.639,1.396h0.022C6.65,9.85,6.813,9.477,7.024,8.991l0.712-1.537h2.173l-2.372,4.107l2.496,4.309
				H7.836L7.836,15.87z"/>
			<rect x="17.925" y="3.606" fill="#3E6837" width="3.899" height="2.703"/>
			<rect x="17.925" y="6.973" fill="#3E6837" width="3.899" height="2.703"/>
			<polygon fill="#3E6837" points="17.925,13.045 19.328,13.045 19.328,11.592 21.402,13.045 21.825,13.045 21.825,10.342 
				17.925,10.342 			"/>
			<polygon fill="#3E6837" points="17.925,13.709 17.925,16.415 19.596,16.415 19.328,16.225 19.328,13.709 			"/>
		</g>
		<polygon fill="#6482C0" points="26.264,17.864 24.335,16.514 23.634,16.022 21.825,14.756 20.487,13.819 20.487,15.624 
			21.616,16.415 23.634,17.827 23.734,17.897 23.634,17.897 21.825,17.897 17.925,17.897 16.968,17.897 13.136,17.897 
			13.069,17.897 12.822,17.897 12.822,19.635 13.069,19.635 13.136,19.635 16.968,19.635 17.925,19.635 21.825,19.635 
			23.634,19.635 23.734,19.635 23.634,19.706 22.038,20.825 21.036,21.526 20.487,21.911 20.487,23.713 23.612,21.526 
			24.335,21.018 26.264,19.668 27.552,18.766 		"/>
	</g>
	<g>
		<rect x="33.16" y="1.711" fill="none" width="53.133" height="19.865"/>
		<path fill="#424243" d="M39.053,8.551h-1.357V3.26h-2.364v5.291H33.97V2.125h5.084L39.053,8.551L39.053,8.551z"/>
		<path fill="#424243" d="M45.034,6.084c0,0.801-0.211,1.426-0.633,1.877s-1.01,0.678-1.763,0.678c-0.473,0-0.888-0.104-1.248-0.311
			c-0.359-0.207-0.638-0.504-0.83-0.891c-0.193-0.387-0.29-0.838-0.29-1.354c0-0.803,0.209-1.426,0.628-1.871
			s1.008-0.668,1.768-0.668c0.472,0,0.888,0.102,1.248,0.307c0.359,0.205,0.638,0.5,0.83,0.885
			C44.938,5.12,45.034,5.571,45.034,6.084z M41.637,6.084c0,0.488,0.079,0.854,0.239,1.104c0.159,0.25,0.42,0.373,0.779,0.373
			c0.357,0,0.615-0.123,0.771-0.371c0.156-0.246,0.234-0.613,0.234-1.104c0-0.486-0.079-0.852-0.236-1.094
			c-0.158-0.244-0.418-0.365-0.777-0.365c-0.358,0-0.615,0.121-0.773,0.363C41.716,5.231,41.637,5.596,41.637,6.084z"/>
		<path fill="#424243" d="M50.541,8.551H49.2V4.643h-1.234c-0.095,1.102-0.209,1.92-0.343,2.459
			c-0.136,0.541-0.313,0.934-0.539,1.176c-0.224,0.24-0.518,0.361-0.881,0.361c-0.311,0-0.564-0.047-0.765-0.141V7.426
			c0.144,0.059,0.287,0.088,0.431,0.088c0.167,0,0.308-0.121,0.42-0.359c0.112-0.24,0.214-0.643,0.304-1.203
			s0.166-1.332,0.229-2.313h3.719V8.551L50.541,8.551z"/>
		<path fill="#424243" d="M51.244,3.637h1.468l0.928,2.764c0.08,0.242,0.134,0.525,0.162,0.855h0.026
			c0.032-0.303,0.095-0.586,0.189-0.855l0.909-2.764h1.437l-2.078,5.541c-0.189,0.514-0.462,0.896-0.814,1.152
			c-0.354,0.254-0.767,0.383-1.237,0.383c-0.231,0-0.458-0.025-0.682-0.076V9.575c0.161,0.037,0.338,0.057,0.527,0.057
			c0.237,0,0.444-0.072,0.622-0.217c0.177-0.146,0.315-0.365,0.415-0.658l0.079-0.24L51.244,3.637z"/>
		<path fill="#424243" d="M58.244,3.637v1.797c0,0.43,0.197,0.645,0.594,0.645c0.257,0,0.497-0.029,0.719-0.088
			C59.778,5.93,60,5.854,60.228,5.76V3.637h1.34v4.914h-1.34V6.6c-0.313,0.164-0.601,0.279-0.866,0.348
			c-0.267,0.066-0.524,0.102-0.772,0.102c-0.536,0-0.951-0.137-1.243-0.412c-0.294-0.271-0.439-0.664-0.439-1.17V3.639h1.338V3.637z
			"/>
		<path fill="#424243" d="M64.266,3.637v1.943c0,0.205-0.034,0.705-0.103,1.502l2.268-3.445h1.613v4.914h-1.297V6.59
			c0-0.348,0.029-0.84,0.088-1.477l-2.259,3.438h-1.608V3.637H64.266z"/>
		<path fill="#424243" d="M73.516,3.637v1.006h-1.607v3.908h-1.341V4.643h-1.612V3.637H73.516z"/>
		<path fill="#424243" d="M75.77,5.536h0.944c0.756,0,1.315,0.121,1.68,0.359c0.363,0.24,0.545,0.605,0.545,1.092
			c0,1.043-0.725,1.563-2.171,1.563h-2.339V3.637h1.341V5.536L75.77,5.536z M77.598,7.004c0-0.191-0.076-0.328-0.229-0.414
			c-0.152-0.084-0.379-0.127-0.681-0.127h-0.919v1.16h0.937C77.3,7.624,77.598,7.417,77.598,7.004z"/>
		<path fill="#424243" d="M38.328,14.438v4.912h-1.345v-3.904h-1.78v3.904h-1.34v-4.912H38.328z"/>
		<path fill="#424243" d="M42.429,19.438c-0.577,0-1.03-0.209-1.358-0.629H41c0.048,0.412,0.07,0.648,0.07,0.713v1.99h-1.34v-7.074
			h1.09l0.188,0.639h0.062c0.313-0.486,0.778-0.73,1.394-0.73c0.58,0,1.034,0.225,1.362,0.672c0.328,0.449,0.492,1.072,0.492,1.869
			c0,0.523-0.077,0.979-0.229,1.365c-0.154,0.387-0.373,0.682-0.657,0.885C43.146,19.336,42.813,19.438,42.429,19.438z
			 M42.033,15.417c-0.331,0-0.573,0.104-0.725,0.307c-0.153,0.203-0.232,0.539-0.238,1.008v0.146c0,0.527,0.079,0.906,0.235,1.135
			s0.404,0.342,0.744,0.342c0.602,0,0.9-0.494,0.9-1.484c0-0.484-0.073-0.848-0.222-1.088C42.582,15.538,42.35,15.417,42.033,15.417
			z"/>
		<path fill="#424243" d="M48.546,19.35l-0.259-0.668h-0.035c-0.227,0.285-0.458,0.482-0.696,0.592s-0.551,0.164-0.935,0.164
			c-0.472,0-0.843-0.135-1.114-0.402c-0.271-0.271-0.405-0.654-0.405-1.152c0-0.52,0.183-0.906,0.547-1.152
			c0.364-0.248,0.915-0.385,1.649-0.412l0.854-0.025v-0.215c0-0.498-0.255-0.748-0.766-0.748c-0.393,0-0.854,0.119-1.384,0.355
			l-0.443-0.904c0.564-0.297,1.191-0.443,1.881-0.443c0.659,0,1.165,0.145,1.517,0.43c0.353,0.289,0.527,0.727,0.527,1.313v3.271
			h-0.938V19.35z M48.15,17.075l-0.52,0.018c-0.39,0.012-0.68,0.082-0.87,0.211c-0.189,0.129-0.284,0.324-0.284,0.588
			c0,0.379,0.216,0.566,0.649,0.566c0.311,0,0.56-0.088,0.744-0.268c0.188-0.18,0.279-0.416,0.279-0.713L48.15,17.075L48.15,17.075z
			"/>
		<path fill="#424243" d="M52.158,14.438v1.941c0,0.205-0.034,0.707-0.102,1.504l2.268-3.445h1.613v4.912h-1.297v-1.959
			c0-0.35,0.028-0.842,0.088-1.477L52.47,19.35h-1.608v-4.912H52.158z M55.541,12.323c-0.056,0.549-0.262,0.947-0.619,1.197
			c-0.356,0.25-0.873,0.377-1.547,0.377c-0.693,0-1.208-0.121-1.54-0.361c-0.333-0.238-0.52-0.645-0.561-1.213h1.199
			c0.021,0.303,0.097,0.514,0.227,0.637c0.131,0.121,0.364,0.182,0.701,0.182c0.296,0,0.517-0.066,0.661-0.199
			c0.146-0.135,0.232-0.34,0.266-0.617h1.213V12.323z"/>
		<path fill="#424243" d="M59.339,19.438c-1.528,0-2.293-0.84-2.293-2.518c0-0.836,0.207-1.473,0.623-1.914s1.013-0.662,1.788-0.662
			c0.568,0,1.078,0.113,1.529,0.334l-0.395,1.037c-0.212-0.084-0.408-0.154-0.591-0.207c-0.182-0.055-0.362-0.082-0.545-0.082
			c-0.696,0-1.045,0.496-1.045,1.484c0,0.963,0.349,1.441,1.045,1.441c0.259,0,0.497-0.035,0.718-0.104
			c0.22-0.068,0.438-0.176,0.659-0.322v1.146c-0.218,0.139-0.437,0.232-0.657,0.285C59.955,19.413,59.675,19.438,59.339,19.438z"/>
		<path fill="#424243" d="M61.535,17.487v-1.1h2.36v1.1H61.535z"/>
		<path fill="#424243" d="M69.266,19.35h-1.341v-3.904h-1.233c-0.095,1.098-0.209,1.918-0.344,2.457
			c-0.136,0.541-0.313,0.932-0.538,1.174s-0.519,0.361-0.881,0.361c-0.312,0-0.565-0.047-0.766-0.141v-1.072
			c0.145,0.061,0.287,0.088,0.432,0.088c0.167,0,0.307-0.119,0.42-0.359c0.111-0.24,0.214-0.641,0.303-1.201
			c0.09-0.563,0.166-1.332,0.23-2.314h3.718V19.35L69.266,19.35z"/>
		<path fill="#424243" d="M71.968,14.438v1.941c0,0.205-0.033,0.707-0.102,1.504l2.268-3.445h1.613v4.912H74.45v-1.959
			c0-0.35,0.029-0.842,0.088-1.477l-2.259,3.436h-1.608v-4.912H71.968z"/>
		<path fill="#424243" d="M79.149,19.438c-1.529,0-2.294-0.84-2.294-2.518c0-0.836,0.208-1.473,0.624-1.914s1.012-0.662,1.788-0.662
			c0.567,0,1.078,0.113,1.528,0.334l-0.395,1.037c-0.211-0.084-0.408-0.154-0.59-0.207c-0.182-0.055-0.363-0.082-0.545-0.082
			c-0.697,0-1.045,0.496-1.045,1.484c0,0.963,0.348,1.441,1.045,1.441c0.258,0,0.497-0.035,0.717-0.104s0.439-0.176,0.659-0.322
			v1.146c-0.217,0.139-0.437,0.232-0.657,0.285C79.766,19.413,79.486,19.438,79.149,19.438z"/>
		<path fill="#424243" d="M85.846,14.438v1.008h-1.607v3.904h-1.341v-3.904h-1.612v-1.008H85.846z"/>
	</g>
</g>
</svg>
