<?xml version="1.0" encoding="utf-8"?>
<!-- Generator: Adobe Illustrator 15.1.0, SVG Export Plug-In . SVG Version: 6.00 Build 0)  -->
<!DOCTYPE svg PUBLIC "-//W3C//DTD SVG 1.1//EN" "http://www.w3.org/Graphics/SVG/1.1/DTD/svg11.dtd">
<svg version="1.1" id="Layer_1" xmlns="http://www.w3.org/2000/svg" xmlns:xlink="http://www.w3.org/1999/xlink" x="0px" y="0px"
	 width="60.896px" height="63.01px" viewBox="0 0 60.896 63.01" enable-background="new 0 0 60.896 63.01" xml:space="preserve">
<g id="Калькулятор_2_">
	<path fill="#938379" d="M20.668,0H1.023C0.459,0,0,0.508,0,1.135v29.662c0,0.627,0.459,1.133,1.023,1.133h19.645
		c0.564,0,1.021-0.506,1.021-1.133V1.135C21.689,0.508,21.232,0,20.668,0z M7.422,28.762c0,0.23-0.159,0.416-0.362,0.416H4.198
		c-0.201,0-0.363-0.186-0.363-0.416v-2.061c0-0.23,0.162-0.414,0.363-0.414H7.06c0.203,0,0.362,0.186,0.362,0.414V28.762z
		 M7.422,24.152c0,0.229-0.159,0.418-0.362,0.418H4.198c-0.201,0-0.363-0.189-0.363-0.418V22.09c0-0.229,0.162-0.416,0.363-0.416
		H7.06c0.203,0,0.362,0.188,0.362,0.416V24.152z M7.422,19.539c0,0.23-0.159,0.416-0.362,0.416H4.198
		c-0.201,0-0.363-0.186-0.363-0.416v-2.063c0-0.227,0.162-0.416,0.363-0.416H7.06c0.203,0,0.362,0.189,0.362,0.416V19.539z
		 M7.422,14.928c0,0.229-0.159,0.416-0.362,0.416H4.198c-0.201,0-0.363-0.188-0.363-0.416v-2.061c0-0.23,0.162-0.416,0.363-0.416
		H7.06c0.203,0,0.362,0.186,0.362,0.416V14.928z M12.611,28.762c0,0.23-0.164,0.416-0.365,0.416H9.388
		c-0.201,0-0.363-0.186-0.363-0.416v-2.061c0-0.23,0.162-0.414,0.363-0.414h2.858c0.201,0,0.365,0.186,0.365,0.414V28.762z
		 M12.611,24.152c0,0.229-0.164,0.418-0.365,0.418H9.388c-0.201,0-0.363-0.189-0.363-0.418V22.09c0-0.229,0.162-0.416,0.363-0.416
		h2.858c0.201,0,0.365,0.188,0.365,0.416V24.152z M12.611,19.539c0,0.23-0.164,0.416-0.365,0.416H9.388
		c-0.201,0-0.363-0.186-0.363-0.416v-2.063c0-0.227,0.162-0.416,0.363-0.416h2.858c0.201,0,0.365,0.189,0.365,0.416V19.539z
		 M12.611,14.928c0,0.229-0.164,0.416-0.365,0.416H9.388c-0.201,0-0.363-0.188-0.363-0.416v-2.061c0-0.23,0.162-0.416,0.363-0.416
		h2.858c0.201,0,0.365,0.186,0.365,0.416V14.928z M17.8,28.762c0,0.23-0.161,0.416-0.364,0.416h-2.861
		c-0.201,0-0.363-0.186-0.363-0.416v-2.061c0-0.23,0.162-0.414,0.363-0.414h2.861c0.203,0,0.364,0.186,0.364,0.414V28.762z
		 M17.8,24.152c0,0.229-0.161,0.418-0.364,0.418h-2.861c-0.201,0-0.363-0.189-0.363-0.418V22.09c0-0.229,0.162-0.416,0.363-0.416
		h2.861c0.203,0,0.364,0.188,0.364,0.416V24.152z M17.8,19.539c0,0.23-0.161,0.416-0.364,0.416h-2.861
		c-0.201,0-0.363-0.186-0.363-0.416v-2.063c0-0.227,0.162-0.416,0.363-0.416h2.861c0.203,0,0.364,0.189,0.364,0.416V19.539z
		 M17.8,14.928c0,0.229-0.161,0.416-0.364,0.416h-2.861c-0.201,0-0.363-0.188-0.363-0.416v-2.061c0-0.23,0.162-0.416,0.363-0.416
		h2.861c0.203,0,0.364,0.186,0.364,0.416V14.928z M19.318,7.918c0,0.629-0.461,1.139-1.029,1.139H3.166
		c-0.567,0-1.026-0.51-1.026-1.139V3.617c0-0.629,0.459-1.145,1.026-1.145h15.123c0.568,0,1.029,0.516,1.029,1.145V7.918z"/>
	<g>
		<g>
			<path fill="#938379" d="M7.627,46.91H6.882v-8.186H1.891v8.186H1.146v-8.82h6.482L7.627,46.91L7.627,46.91z"/>
			<path fill="#938379" d="M9.322,43.535c0-0.477,0.07-0.916,0.209-1.32c0.14-0.404,0.336-0.752,0.591-1.045
				s0.563-0.521,0.921-0.689c0.359-0.164,0.761-0.246,1.199-0.246c0.449,0,0.854,0.082,1.215,0.246
				c0.361,0.166,0.67,0.396,0.924,0.689s0.45,0.641,0.588,1.045s0.205,0.844,0.205,1.32v0.199c0,0.477-0.067,0.916-0.205,1.32
				s-0.334,0.752-0.588,1.045s-0.562,0.521-0.921,0.686s-0.761,0.246-1.206,0.246c-0.442,0-0.846-0.082-1.205-0.246
				c-0.358-0.164-0.667-0.393-0.924-0.686c-0.256-0.293-0.454-0.641-0.594-1.045s-0.209-0.844-0.209-1.32V43.535L9.322,43.535z
				 M10.05,43.736c0,0.359,0.049,0.701,0.146,1.025c0.097,0.326,0.238,0.609,0.424,0.855c0.187,0.244,0.416,0.438,0.69,0.584
				c0.273,0.145,0.589,0.219,0.943,0.219c0.355,0,0.67-0.074,0.943-0.219c0.271-0.146,0.501-0.342,0.688-0.584
				c0.187-0.246,0.326-0.529,0.424-0.855c0.098-0.324,0.146-0.666,0.146-1.025v-0.199c0-0.354-0.048-0.689-0.146-1.016
				c-0.098-0.324-0.237-0.611-0.424-0.857s-0.418-0.443-0.693-0.59c-0.276-0.148-0.594-0.223-0.948-0.223
				c-0.353,0-0.663,0.074-0.937,0.223c-0.272,0.146-0.502,0.344-0.688,0.59s-0.327,0.533-0.424,0.857
				c-0.098,0.324-0.146,0.662-0.146,1.016v0.199H10.05z"/>
			<path fill="#938379" d="M19.093,46.42c0.23,0,0.451-0.035,0.664-0.102c0.211-0.066,0.4-0.164,0.566-0.295
				c0.165-0.129,0.301-0.287,0.408-0.479c0.106-0.189,0.168-0.408,0.185-0.66h0.696c-0.016,0.313-0.094,0.6-0.232,0.861
				c-0.14,0.262-0.322,0.486-0.551,0.678c-0.229,0.189-0.492,0.338-0.791,0.445c-0.299,0.105-0.614,0.16-0.945,0.16
				c-0.461,0-0.863-0.084-1.211-0.25c-0.348-0.168-0.64-0.4-0.876-0.695c-0.235-0.293-0.413-0.641-0.532-1.039
				c-0.119-0.396-0.18-0.826-0.18-1.287v-0.254c0-0.461,0.061-0.889,0.18-1.287c0.119-0.396,0.296-0.742,0.529-1.035
				c0.234-0.293,0.525-0.523,0.875-0.693c0.351-0.17,0.752-0.254,1.209-0.254c0.353,0,0.679,0.055,0.979,0.162
				c0.301,0.109,0.563,0.266,0.787,0.467c0.224,0.201,0.401,0.447,0.536,0.736c0.134,0.289,0.208,0.609,0.224,0.967h-0.696
				c-0.017-0.268-0.072-0.506-0.173-0.717c-0.099-0.209-0.229-0.389-0.394-0.539c-0.164-0.148-0.354-0.264-0.569-0.342
				s-0.447-0.117-0.693-0.117c-0.376,0-0.692,0.072-0.954,0.219c-0.261,0.145-0.474,0.342-0.64,0.588s-0.285,0.527-0.358,0.848
				c-0.076,0.318-0.113,0.652-0.113,1v0.254c0,0.352,0.037,0.688,0.113,1.008c0.073,0.322,0.192,0.605,0.356,0.85
				c0.163,0.244,0.377,0.438,0.642,0.584C18.399,46.348,18.718,46.42,19.093,46.42z"/>
			<path fill="#938379" d="M27.727,46.91h-0.728v-2.758c-0.255,0.094-0.531,0.172-0.828,0.232c-0.297,0.063-0.592,0.094-0.887,0.094
				c-0.408,0-0.768-0.041-1.078-0.127c-0.312-0.084-0.572-0.223-0.781-0.418c-0.211-0.191-0.369-0.447-0.479-0.762
				c-0.109-0.316-0.164-0.701-0.164-1.158v-1.66h0.721v1.66c0,0.354,0.037,0.646,0.109,0.881c0.072,0.236,0.182,0.428,0.326,0.566
				c0.146,0.143,0.331,0.242,0.555,0.303c0.226,0.063,0.488,0.092,0.791,0.092c0.308-0.008,0.609-0.041,0.905-0.1
				c0.297-0.061,0.566-0.131,0.81-0.215v-3.188h0.728V46.91L27.727,46.91z"/>
			<path fill="#938379" d="M33.973,40.355h0.727v6.555h-0.727v-5.387l-3.539,5.387h-0.722v-6.555h0.722v5.393L33.973,40.355z"/>
			<path fill="#938379" d="M41.343,40.973h-2.387v5.938h-0.727v-5.938h-2.296v-0.617h5.409V40.973L41.343,40.973z"/>
			<path fill="#938379" d="M46.572,46.91c-0.041-0.113-0.072-0.252-0.094-0.416c-0.022-0.162-0.037-0.33-0.045-0.5
				c-0.109,0.143-0.238,0.275-0.39,0.4c-0.147,0.125-0.315,0.234-0.502,0.326c-0.187,0.094-0.391,0.168-0.611,0.225
				c-0.222,0.057-0.463,0.086-0.722,0.086c-0.318,0-0.607-0.047-0.87-0.141c-0.26-0.094-0.481-0.223-0.666-0.391
				c-0.184-0.168-0.326-0.365-0.427-0.592s-0.151-0.473-0.151-0.738c0-0.318,0.068-0.605,0.205-0.863
				c0.14-0.256,0.336-0.475,0.595-0.652c0.26-0.182,0.572-0.318,0.942-0.412c0.369-0.096,0.783-0.145,1.244-0.145h1.345v-0.744
				c0-0.469-0.144-0.838-0.433-1.105s-0.71-0.402-1.264-0.402c-0.254,0-0.488,0.035-0.703,0.104
				c-0.213,0.068-0.398,0.164-0.555,0.285c-0.154,0.121-0.275,0.262-0.362,0.422c-0.087,0.158-0.13,0.33-0.13,0.512l-0.729-0.006
				c0-0.248,0.062-0.486,0.182-0.715c0.122-0.23,0.293-0.438,0.514-0.615c0.219-0.18,0.483-0.324,0.793-0.434
				c0.309-0.109,0.65-0.164,1.026-0.164c0.348,0,0.667,0.045,0.959,0.133c0.293,0.09,0.546,0.223,0.755,0.4
				c0.211,0.178,0.375,0.398,0.491,0.666c0.117,0.268,0.177,0.578,0.177,0.934v3.174c0,0.113,0.004,0.23,0.012,0.354
				c0.008,0.121,0.021,0.236,0.039,0.352c0.018,0.111,0.039,0.221,0.063,0.324c0.024,0.102,0.053,0.191,0.085,0.27v0.072h-0.773
				V46.91z M44.295,46.389c0.263,0,0.507-0.033,0.729-0.1c0.223-0.068,0.427-0.158,0.607-0.275c0.182-0.117,0.341-0.254,0.474-0.41
				c0.134-0.154,0.24-0.322,0.321-0.506v-1.439h-1.241c-0.372,0-0.704,0.031-0.997,0.1c-0.293,0.066-0.54,0.162-0.742,0.287
				c-0.201,0.125-0.355,0.277-0.464,0.457c-0.105,0.18-0.16,0.383-0.16,0.609c0,0.178,0.035,0.344,0.104,0.5
				c0.067,0.154,0.166,0.291,0.293,0.404c0.128,0.115,0.281,0.207,0.464,0.273C43.865,46.354,44.068,46.389,44.295,46.389z"/>
			<path fill="#938379" d="M53.69,40.973h-2.387v5.938h-0.729v-5.938H48.28v-0.617h5.409L53.69,40.973L53.69,40.973z"/>
			<path fill="#938379" d="M55.677,42.736h1.879c0.388,0,0.73,0.053,1.029,0.156c0.299,0.105,0.551,0.25,0.754,0.434
				s0.357,0.402,0.462,0.656c0.103,0.256,0.153,0.531,0.153,0.83c0,0.301-0.052,0.576-0.153,0.83
				c-0.104,0.254-0.259,0.477-0.462,0.664s-0.454,0.334-0.754,0.441c-0.299,0.105-0.643,0.16-1.029,0.16h-2.6v-6.555h0.721V42.736z
				 M55.677,43.354v2.943h1.879c0.303,0,0.561-0.041,0.771-0.123c0.212-0.082,0.385-0.191,0.518-0.328
				c0.135-0.135,0.23-0.291,0.291-0.469c0.062-0.178,0.092-0.361,0.092-0.551c0-0.184-0.03-0.361-0.092-0.537
				c-0.061-0.176-0.156-0.332-0.291-0.473c-0.133-0.139-0.306-0.252-0.518-0.336c-0.212-0.086-0.47-0.127-0.771-0.127H55.677
				L55.677,43.354z"/>
			<path fill="#938379" d="M0,48.121v-0.605h60.572v0.605H0z"/>
			<path fill="#938379" d="M3.367,61.307c0.23,0,0.451-0.033,0.664-0.1c0.212-0.066,0.4-0.164,0.566-0.295
				c0.166-0.129,0.302-0.287,0.407-0.479c0.107-0.189,0.169-0.41,0.187-0.66h0.696c-0.018,0.313-0.095,0.598-0.233,0.859
				c-0.139,0.264-0.322,0.488-0.551,0.68c-0.229,0.189-0.492,0.338-0.791,0.445c-0.299,0.105-0.613,0.16-0.945,0.16
				c-0.46,0-0.863-0.084-1.211-0.252s-0.639-0.398-0.875-0.693s-0.414-0.641-0.533-1.039c-0.119-0.396-0.18-0.826-0.18-1.287v-0.254
				c0-0.461,0.061-0.891,0.18-1.287c0.119-0.398,0.295-0.742,0.529-1.035s0.526-0.525,0.876-0.693
				c0.349-0.17,0.752-0.256,1.208-0.256c0.353,0,0.678,0.055,0.979,0.164c0.301,0.107,0.563,0.264,0.786,0.467
				c0.226,0.201,0.403,0.447,0.537,0.736s0.207,0.609,0.225,0.965H5.192c-0.018-0.268-0.074-0.504-0.173-0.715
				c-0.1-0.209-0.23-0.391-0.395-0.539s-0.354-0.264-0.569-0.342c-0.215-0.078-0.447-0.117-0.693-0.117
				c-0.375,0-0.693,0.07-0.953,0.217c-0.262,0.146-0.475,0.342-0.64,0.588c-0.166,0.246-0.286,0.529-0.36,0.848
				c-0.075,0.32-0.112,0.652-0.112,1v0.256c0,0.352,0.037,0.688,0.112,1.008c0.074,0.32,0.193,0.604,0.357,0.85
				c0.164,0.244,0.377,0.438,0.643,0.584C2.672,61.234,2.992,61.307,3.367,61.307z"/>
			<path fill="#938379" d="M12.043,55.861H9.656v5.936H8.929v-5.936H6.632v-0.619h5.41L12.043,55.861L12.043,55.861z"/>
			<path fill="#938379" d="M12.576,58.424c0-0.477,0.069-0.918,0.209-1.322c0.14-0.402,0.336-0.752,0.59-1.045
				c0.255-0.291,0.563-0.52,0.922-0.688c0.359-0.164,0.76-0.248,1.199-0.248c0.448,0,0.854,0.084,1.215,0.248
				c0.361,0.166,0.669,0.396,0.924,0.688c0.255,0.293,0.449,0.643,0.589,1.045c0.137,0.404,0.204,0.846,0.204,1.322v0.199
				c0,0.477-0.067,0.916-0.204,1.32c-0.14,0.402-0.334,0.752-0.589,1.045s-0.563,0.521-0.922,0.686
				c-0.358,0.162-0.761,0.244-1.205,0.244c-0.443,0-0.846-0.082-1.204-0.244c-0.359-0.164-0.668-0.393-0.925-0.686
				s-0.454-0.643-0.594-1.045c-0.14-0.404-0.209-0.846-0.209-1.32V58.424z M13.302,58.623c0,0.359,0.05,0.701,0.146,1.025
				c0.097,0.326,0.238,0.609,0.425,0.855c0.187,0.244,0.415,0.438,0.689,0.584c0.274,0.145,0.59,0.219,0.944,0.219
				c0.355,0,0.67-0.074,0.942-0.219c0.272-0.146,0.501-0.34,0.688-0.584c0.186-0.246,0.326-0.529,0.424-0.855
				c0.097-0.324,0.146-0.666,0.146-1.025v-0.199c0-0.352-0.049-0.689-0.146-1.016c-0.098-0.326-0.238-0.611-0.424-0.857
				c-0.188-0.246-0.418-0.441-0.694-0.59c-0.275-0.148-0.592-0.221-0.947-0.221c-0.352,0-0.664,0.072-0.936,0.221
				c-0.273,0.146-0.502,0.344-0.688,0.59s-0.328,0.533-0.425,0.857c-0.097,0.326-0.146,0.664-0.146,1.016L13.302,58.623
				L13.302,58.623z"/>
			<path fill="#938379" d="M24.231,55.242h0.727v6.555h-0.727v-5.385l-3.538,5.385h-0.721v-6.555h0.721v5.393L24.231,55.242z"/>
			<path fill="#938379" d="M30.525,60.816l2.604-5.572h0.896v6.555h-0.729v-5.381l-2.521,5.381h-0.515l-2.568-5.502v5.502h-0.721
				v-6.555h0.951L30.525,60.816z"/>
			<path fill="#938379" d="M35.566,58.424c0-0.477,0.067-0.918,0.209-1.322c0.139-0.402,0.336-0.752,0.59-1.045
				c0.254-0.291,0.562-0.52,0.921-0.688c0.359-0.164,0.759-0.248,1.2-0.248c0.447,0,0.853,0.084,1.214,0.248
				c0.361,0.166,0.669,0.396,0.924,0.688c0.255,0.293,0.45,0.643,0.588,1.045c0.139,0.404,0.206,0.846,0.206,1.322v0.199
				c0,0.477-0.067,0.916-0.206,1.32c-0.138,0.402-0.333,0.752-0.588,1.045s-0.562,0.521-0.921,0.686
				c-0.359,0.162-0.762,0.244-1.205,0.244c-0.444,0-0.846-0.082-1.206-0.244c-0.359-0.164-0.667-0.393-0.924-0.686
				s-0.454-0.643-0.593-1.045c-0.142-0.404-0.209-0.846-0.209-1.32V58.424L35.566,58.424z M36.293,58.623
				c0,0.359,0.05,0.701,0.146,1.025c0.098,0.326,0.238,0.609,0.425,0.855c0.187,0.244,0.415,0.438,0.69,0.584
				c0.273,0.145,0.59,0.219,0.944,0.219c0.355,0,0.669-0.074,0.941-0.219c0.272-0.146,0.502-0.34,0.688-0.584
				c0.187-0.246,0.328-0.529,0.425-0.855c0.098-0.324,0.146-0.666,0.146-1.025v-0.199c0-0.352-0.049-0.689-0.146-1.016
				c-0.097-0.324-0.238-0.611-0.425-0.857c-0.186-0.246-0.416-0.441-0.692-0.59s-0.594-0.221-0.947-0.221
				c-0.352,0-0.664,0.072-0.938,0.221c-0.272,0.148-0.502,0.344-0.688,0.59c-0.188,0.246-0.327,0.533-0.425,0.857
				c-0.097,0.326-0.146,0.664-0.146,1.016L36.293,58.623L36.293,58.623z"/>
			<path fill="#938379" d="M45.337,61.307c0.23,0,0.451-0.033,0.663-0.1c0.213-0.066,0.4-0.164,0.566-0.295
				c0.166-0.129,0.303-0.287,0.409-0.479c0.105-0.189,0.169-0.41,0.185-0.66h0.697c-0.017,0.313-0.094,0.598-0.233,0.859
				c-0.139,0.262-0.322,0.488-0.552,0.68c-0.229,0.189-0.492,0.338-0.791,0.445c-0.299,0.105-0.613,0.16-0.944,0.16
				c-0.459,0-0.863-0.084-1.212-0.252c-0.348-0.168-0.639-0.398-0.875-0.693c-0.235-0.295-0.413-0.641-0.532-1.039
				c-0.119-0.396-0.18-0.826-0.18-1.287v-0.254c0-0.461,0.061-0.891,0.18-1.287c0.119-0.398,0.296-0.742,0.529-1.035
				s0.526-0.525,0.876-0.693c0.35-0.17,0.752-0.256,1.208-0.256c0.352,0,0.678,0.055,0.979,0.164
				c0.301,0.107,0.563,0.264,0.788,0.467c0.224,0.201,0.402,0.447,0.536,0.736c0.133,0.289,0.208,0.609,0.225,0.965h-0.697
				c-0.016-0.268-0.074-0.504-0.172-0.715c-0.1-0.209-0.229-0.391-0.395-0.539s-0.354-0.264-0.569-0.342
				c-0.216-0.078-0.447-0.117-0.693-0.117c-0.376,0-0.693,0.07-0.954,0.217s-0.474,0.342-0.639,0.588
				c-0.166,0.246-0.287,0.529-0.361,0.848c-0.073,0.32-0.11,0.652-0.11,1v0.256c0,0.352,0.037,0.688,0.11,1.008
				c0.074,0.32,0.194,0.604,0.357,0.85c0.164,0.244,0.378,0.438,0.643,0.584C44.641,61.234,44.961,61.307,45.337,61.307z"/>
			<path fill="#938379" d="M54.012,55.861h-2.388v5.936h-0.727v-5.936h-2.297v-0.619h5.41L54.012,55.861L54.012,55.861z"/>
			<path fill="#938379" d="M55.999,57.623h1.878c0.389,0,0.73,0.053,1.029,0.158c0.299,0.104,0.551,0.25,0.755,0.434
				s0.357,0.402,0.46,0.656c0.104,0.254,0.154,0.531,0.154,0.83s-0.051,0.576-0.154,0.83c-0.103,0.254-0.256,0.475-0.46,0.664
				c-0.204,0.188-0.456,0.334-0.755,0.441c-0.299,0.105-0.642,0.16-1.029,0.16h-2.599v-6.555h0.721V57.623z M55.999,58.242v2.941
				h1.878c0.304,0,0.562-0.041,0.772-0.123c0.212-0.082,0.385-0.191,0.519-0.328c0.134-0.135,0.229-0.291,0.29-0.469
				c0.062-0.178,0.092-0.361,0.092-0.551c0-0.182-0.03-0.361-0.092-0.537c-0.061-0.176-0.156-0.332-0.29-0.473
				c-0.134-0.139-0.307-0.25-0.519-0.336c-0.212-0.084-0.47-0.127-0.772-0.127h-1.878V58.242z"/>
			<path fill="#938379" d="M0,63.01v-0.605h60.896v0.605H0z"/>
		</g>
	</g>
</g>
</svg>
