<?xml version="1.0" encoding="utf-8"?>
<!-- Generator: Adobe Illustrator 15.1.0, SVG Export Plug-In . SVG Version: 6.00 Build 0)  -->
<!DOCTYPE svg PUBLIC "-//W3C//DTD SVG 1.1//EN" "http://www.w3.org/Graphics/SVG/1.1/DTD/svg11.dtd">
<svg version="1.1" id="Layer_1" xmlns="http://www.w3.org/2000/svg" xmlns:xlink="http://www.w3.org/1999/xlink" x="0px" y="0px"
	 width="66.583px" height="67.023px" viewBox="0 0 66.583 67.023" enable-background="new 0 0 66.583 67.023" xml:space="preserve">
<g id="Отложить_в_избранное_1_">
	<g>
		<g>
			<path fill="#938379" d="M7.633,45.682c0,0.617-0.081,1.176-0.242,1.674c-0.161,0.5-0.391,0.924-0.688,1.275
				s-0.657,0.623-1.081,0.814c-0.425,0.191-0.896,0.287-1.418,0.287c-0.519,0-0.986-0.096-1.408-0.287s-0.785-0.463-1.088-0.814
				c-0.304-0.352-0.537-0.775-0.703-1.275c-0.165-0.498-0.248-1.057-0.248-1.674v-0.945c0-0.617,0.083-1.178,0.248-1.678
				c0.166-0.502,0.397-0.928,0.697-1.281c0.299-0.354,0.659-0.627,1.082-0.816c0.422-0.193,0.891-0.289,1.407-0.289
				c0.521,0,0.993,0.096,1.418,0.289c0.424,0.189,0.785,0.463,1.086,0.816c0.303,0.354,0.533,0.779,0.694,1.281
				c0.161,0.5,0.242,1.061,0.242,1.678L7.633,45.682L7.633,45.682z M6.888,44.725c0-0.521-0.062-0.992-0.182-1.412
				c-0.121-0.42-0.298-0.775-0.527-1.068s-0.513-0.52-0.848-0.68c-0.337-0.158-0.716-0.238-1.14-0.238
				c-0.416,0-0.791,0.08-1.124,0.238c-0.333,0.16-0.616,0.387-0.849,0.68c-0.233,0.293-0.41,0.648-0.533,1.068
				s-0.184,0.891-0.184,1.412v0.957c0,0.523,0.063,0.998,0.188,1.418s0.306,0.777,0.539,1.072c0.234,0.295,0.518,0.52,0.853,0.678
				c0.332,0.158,0.707,0.236,1.123,0.236c0.428,0,0.809-0.078,1.143-0.236c0.332-0.158,0.613-0.383,0.842-0.678
				C6.418,47.877,6.59,47.52,6.71,47.1s0.179-0.895,0.179-1.418L6.888,44.725L6.888,44.725z"/>
			<path fill="#938379" d="M14.048,43.676h-2.387v5.938h-0.728v-5.938H8.638v-0.617h5.409L14.048,43.676L14.048,43.676z"/>
			<path fill="#938379" d="M19.786,43.059v6.555h-0.729v-5.932h-2.684l-0.091,2.271c-0.028,0.629-0.079,1.176-0.151,1.637
				c-0.073,0.461-0.183,0.84-0.331,1.139c-0.146,0.299-0.341,0.52-0.581,0.666s-0.542,0.219-0.905,0.219h-0.261l0.013-0.648
				l0.225-0.006c0.218,0,0.4-0.051,0.552-0.15c0.147-0.102,0.272-0.27,0.372-0.5c0.099-0.232,0.175-0.541,0.228-0.924
				c0.054-0.385,0.09-0.861,0.115-1.432l0.121-2.895H19.786L19.786,43.059z"/>
			<path fill="#938379" d="M21.331,46.238c0-0.477,0.067-0.916,0.209-1.32c0.139-0.402,0.336-0.752,0.59-1.045
				c0.254-0.291,0.562-0.521,0.921-0.688s0.759-0.248,1.2-0.248c0.446,0,0.853,0.082,1.214,0.248
				c0.36,0.166,0.669,0.396,0.924,0.688c0.255,0.293,0.45,0.643,0.588,1.045c0.138,0.404,0.206,0.846,0.206,1.32v0.199
				c0,0.477-0.068,0.918-0.206,1.322c-0.138,0.402-0.333,0.752-0.588,1.045s-0.563,0.52-0.921,0.684
				c-0.359,0.164-0.763,0.246-1.205,0.246c-0.445,0-0.846-0.082-1.206-0.246c-0.359-0.164-0.667-0.391-0.924-0.684
				s-0.454-0.643-0.594-1.045c-0.141-0.404-0.209-0.846-0.209-1.322L21.331,46.238L21.331,46.238z M22.058,46.438
				c0,0.361,0.049,0.703,0.146,1.027c0.098,0.324,0.237,0.609,0.425,0.854c0.186,0.244,0.415,0.439,0.689,0.584
				c0.274,0.146,0.591,0.219,0.945,0.219s0.669-0.072,0.941-0.219c0.272-0.145,0.502-0.34,0.688-0.584
				c0.187-0.244,0.328-0.529,0.424-0.854c0.099-0.324,0.146-0.666,0.146-1.027v-0.199c0-0.352-0.049-0.688-0.146-1.014
				c-0.096-0.326-0.237-0.611-0.424-0.857c-0.186-0.246-0.416-0.443-0.692-0.592c-0.276-0.146-0.594-0.221-0.947-0.221
				c-0.353,0-0.664,0.074-0.938,0.221c-0.272,0.148-0.502,0.346-0.688,0.592c-0.188,0.246-0.327,0.531-0.426,0.857
				c-0.096,0.324-0.145,0.662-0.145,1.014L22.058,46.438L22.058,46.438z"/>
			<path fill="#938379" d="M33.562,46.584h-0.873v3.027h-0.727v-3.027h-0.866l-2.423,3.027h-0.921l2.714-3.361l-2.411-3.191h0.878
				l2.15,2.877h0.879v-2.877h0.727v2.877h0.886l2.149-2.877h0.892l-2.424,3.191l2.721,3.361h-0.928L33.562,46.584z"/>
			<path fill="#938379" d="M42.376,43.059h0.727v6.555h-0.727v-5.387l-3.539,5.387h-0.721v-6.555h0.721v5.391L42.376,43.059z"/>
			<path fill="#938379" d="M49.747,43.676h-2.388v5.938h-0.727v-5.938h-2.296v-0.617h5.409L49.747,43.676L49.747,43.676z"/>
			<path fill="#938379" d="M51.735,45.439h1.877c0.39,0,0.731,0.053,1.03,0.156c0.299,0.105,0.55,0.25,0.755,0.434
				c0.203,0.186,0.357,0.402,0.46,0.658c0.104,0.254,0.154,0.531,0.154,0.83s-0.052,0.574-0.154,0.83
				c-0.103,0.254-0.257,0.475-0.46,0.662c-0.205,0.188-0.456,0.336-0.755,0.441c-0.299,0.107-0.642,0.16-1.03,0.16h-2.598v-6.555
				h0.721V45.439L51.735,45.439z M51.735,46.057V49h1.877c0.304,0,0.562-0.041,0.773-0.123c0.211-0.082,0.385-0.191,0.518-0.328
				c0.134-0.135,0.23-0.291,0.291-0.469c0.062-0.178,0.09-0.361,0.09-0.553c0-0.182-0.028-0.359-0.09-0.535
				c-0.061-0.176-0.157-0.334-0.291-0.473c-0.133-0.139-0.307-0.252-0.518-0.336c-0.213-0.086-0.471-0.127-0.773-0.127H51.735
				L51.735,46.057z"/>
			<path fill="#938379" d="M60.671,49.613v-6.555h2.403c0.4,0,0.759,0.035,1.075,0.105c0.317,0.07,0.588,0.178,0.813,0.32
				c0.225,0.145,0.396,0.324,0.516,0.545c0.119,0.221,0.178,0.48,0.178,0.779c0,0.326-0.098,0.619-0.297,0.875
				c-0.196,0.256-0.485,0.443-0.864,0.561c0.218,0.039,0.413,0.109,0.59,0.205c0.176,0.098,0.326,0.215,0.448,0.354
				c0.123,0.137,0.219,0.289,0.284,0.459c0.067,0.17,0.102,0.348,0.102,0.533c0,0.303-0.06,0.566-0.174,0.795
				c-0.114,0.225-0.277,0.414-0.49,0.564c-0.212,0.152-0.467,0.268-0.765,0.344c-0.297,0.076-0.629,0.113-0.995,0.113h-2.823V49.613
				z M61.392,45.99h1.835c0.565-0.008,0.991-0.109,1.278-0.307c0.287-0.195,0.43-0.48,0.43-0.857c0-0.398-0.156-0.689-0.469-0.875
				c-0.313-0.184-0.777-0.273-1.392-0.273h-1.684L61.392,45.99L61.392,45.99z M61.392,46.596v2.412h2.103
				c0.545,0,0.965-0.105,1.26-0.316c0.295-0.209,0.441-0.512,0.441-0.908c0-0.363-0.146-0.65-0.441-0.865s-0.715-0.32-1.26-0.32
				h-2.103V46.596z"/>
			<path fill="#938379" d="M0,50.824v-0.605h66.583v0.605H0z"/>
			<path fill="#938379" d="M5.253,57.945h0.727v6.557H5.253v-5.387l-3.539,5.387H0.993v-6.557h0.721v5.393L5.253,57.945z"/>
			<path fill="#938379" d="M10.129,60.842c0.303,0,0.558-0.027,0.763-0.082c0.207-0.055,0.374-0.133,0.504-0.236
				c0.129-0.104,0.222-0.225,0.278-0.367c0.056-0.141,0.085-0.301,0.085-0.479c0-0.17-0.031-0.328-0.093-0.479
				c-0.061-0.15-0.155-0.279-0.289-0.391c-0.135-0.113-0.307-0.201-0.516-0.268c-0.211-0.066-0.465-0.1-0.764-0.1
				c-0.23,0-0.448,0.031-0.654,0.094s-0.387,0.148-0.542,0.262c-0.155,0.109-0.278,0.244-0.37,0.4
				c-0.09,0.158-0.136,0.33-0.136,0.516H7.674c0-0.285,0.065-0.545,0.196-0.777s0.31-0.43,0.53-0.594
				c0.222-0.164,0.479-0.289,0.771-0.379c0.293-0.088,0.602-0.135,0.925-0.135c0.37,0,0.704,0.041,1,0.121
				c0.295,0.082,0.545,0.201,0.75,0.357c0.207,0.158,0.363,0.352,0.473,0.582c0.109,0.229,0.164,0.496,0.164,0.801
				c0,0.314-0.097,0.6-0.291,0.854c-0.193,0.256-0.478,0.451-0.849,0.594c0.425,0.117,0.74,0.309,0.947,0.572
				c0.209,0.266,0.313,0.596,0.313,0.99c0,0.305-0.062,0.572-0.183,0.811c-0.121,0.236-0.292,0.436-0.512,0.6
				c-0.221,0.162-0.484,0.289-0.791,0.375s-0.646,0.131-1.018,0.131c-0.303,0-0.605-0.039-0.908-0.119
				c-0.303-0.078-0.574-0.199-0.814-0.361c-0.24-0.164-0.438-0.371-0.588-0.621c-0.151-0.252-0.228-0.547-0.228-0.891h0.728
				c0,0.188,0.044,0.367,0.134,0.537c0.088,0.172,0.214,0.318,0.375,0.443s0.354,0.223,0.575,0.297
				c0.223,0.072,0.465,0.109,0.728,0.109c0.291,0,0.547-0.033,0.771-0.1c0.223-0.064,0.405-0.152,0.555-0.27
				c0.146-0.115,0.258-0.25,0.332-0.408c0.075-0.158,0.113-0.332,0.113-0.52c0-0.441-0.146-0.758-0.432-0.951
				s-0.726-0.291-1.313-0.291H9.129V60.84h1V60.842z"/>
			<path fill="#938379" d="M16.841,58.383c0.428,0,0.813,0.072,1.16,0.221c0.346,0.148,0.639,0.352,0.882,0.611
				c0.242,0.26,0.429,0.568,0.56,0.928c0.132,0.357,0.197,0.748,0.197,1.172v0.199c0,0.449-0.067,0.863-0.203,1.246
				c-0.135,0.381-0.328,0.709-0.578,0.982c-0.25,0.275-0.555,0.49-0.911,0.646c-0.357,0.156-0.759,0.232-1.202,0.232
				c-0.444,0-0.846-0.078-1.202-0.232c-0.357-0.156-0.662-0.371-0.912-0.646c-0.25-0.273-0.444-0.604-0.582-0.982
				c-0.137-0.383-0.205-0.797-0.205-1.246v-0.199v-0.049v-0.395c0-0.705,0.069-1.336,0.209-1.887
				c0.139-0.553,0.338-1.021,0.597-1.416c0.26-0.391,0.568-0.703,0.931-0.938c0.361-0.234,0.765-0.389,1.208-0.461
				c0.303-0.047,0.561-0.104,0.772-0.166c0.211-0.063,0.385-0.139,0.519-0.225c0.133-0.088,0.229-0.188,0.291-0.301
				c0.061-0.111,0.09-0.242,0.09-0.387h0.625c0,0.303-0.056,0.555-0.161,0.754c-0.106,0.199-0.257,0.363-0.448,0.49
				c-0.19,0.127-0.419,0.227-0.682,0.297s-0.549,0.131-0.859,0.18c-0.304,0.049-0.588,0.139-0.852,0.27
				c-0.266,0.131-0.5,0.309-0.706,0.529c-0.206,0.223-0.381,0.492-0.524,0.811c-0.143,0.316-0.247,0.684-0.312,1.1
				c0.259-0.34,0.582-0.615,0.972-0.824C15.901,58.486,16.345,58.383,16.841,58.383z M16.731,58.994
				c-0.351,0-0.662,0.063-0.932,0.191c-0.271,0.127-0.498,0.297-0.681,0.512c-0.182,0.213-0.317,0.461-0.41,0.742
				c-0.094,0.279-0.141,0.572-0.141,0.875v0.199c0,0.336,0.047,0.654,0.141,0.955c0.093,0.301,0.23,0.564,0.415,0.793
				c0.184,0.229,0.409,0.41,0.682,0.545c0.271,0.135,0.583,0.203,0.938,0.203c0.354,0,0.668-0.068,0.938-0.203
				c0.271-0.135,0.498-0.316,0.68-0.545c0.183-0.229,0.318-0.492,0.411-0.793s0.141-0.619,0.141-0.955v-0.199
				c0-0.307-0.048-0.602-0.141-0.883c-0.093-0.279-0.23-0.525-0.415-0.738c-0.184-0.211-0.412-0.381-0.684-0.508
				C17.401,59.057,17.087,58.994,16.731,58.994z"/>
			<path fill="#938379" d="M26.194,61.291c0,0.492-0.056,0.941-0.166,1.352c-0.11,0.406-0.272,0.758-0.487,1.051
				s-0.477,0.521-0.784,0.686c-0.311,0.162-0.661,0.244-1.059,0.244c-0.469,0-0.873-0.084-1.215-0.25
				c-0.341-0.17-0.623-0.4-0.845-0.695v3.346h-0.721v-9.076h0.673l0.036,0.928c0.222-0.326,0.503-0.582,0.842-0.77
				c0.339-0.186,0.743-0.279,1.212-0.279c0.399,0,0.756,0.08,1.068,0.236c0.313,0.158,0.577,0.383,0.791,0.672
				c0.215,0.291,0.377,0.643,0.487,1.053s0.166,0.869,0.166,1.379L26.194,61.291L26.194,61.291z M25.468,61.162
				c0-0.379-0.039-0.734-0.119-1.064c-0.078-0.332-0.197-0.619-0.357-0.861c-0.157-0.242-0.36-0.432-0.606-0.57
				c-0.247-0.141-0.535-0.209-0.867-0.209c-0.262,0-0.494,0.033-0.696,0.104c-0.202,0.068-0.379,0.16-0.53,0.275
				c-0.15,0.113-0.28,0.248-0.388,0.398c-0.106,0.15-0.193,0.311-0.264,0.477v3.145c0.077,0.164,0.173,0.318,0.288,0.459
				c0.115,0.143,0.25,0.266,0.406,0.367c0.153,0.104,0.332,0.184,0.528,0.242c0.198,0.059,0.42,0.088,0.666,0.088
				c0.332,0,0.619-0.07,0.861-0.209s0.442-0.332,0.602-0.576c0.16-0.244,0.279-0.531,0.357-0.863c0.08-0.33,0.119-0.688,0.119-1.07
				V61.162z"/>
			<path fill="#938379" d="M31.937,64.5c-0.04-0.113-0.071-0.25-0.094-0.414c-0.021-0.164-0.037-0.33-0.045-0.5
				c-0.109,0.141-0.238,0.273-0.388,0.398c-0.15,0.125-0.317,0.234-0.504,0.328c-0.186,0.092-0.39,0.166-0.61,0.223
				c-0.224,0.059-0.463,0.086-0.721,0.086c-0.32,0-0.609-0.047-0.87-0.141c-0.262-0.092-0.482-0.223-0.667-0.391
				c-0.185-0.166-0.326-0.363-0.427-0.59c-0.102-0.227-0.151-0.473-0.151-0.738c0-0.32,0.067-0.607,0.206-0.863
				c0.138-0.258,0.335-0.475,0.594-0.654s0.573-0.316,0.942-0.412s0.784-0.143,1.244-0.143h1.346v-0.746
				c0-0.469-0.146-0.836-0.435-1.104c-0.288-0.27-0.709-0.404-1.263-0.404c-0.255,0-0.489,0.035-0.703,0.105
				c-0.214,0.068-0.398,0.162-0.554,0.283c-0.156,0.121-0.277,0.262-0.363,0.422c-0.088,0.158-0.131,0.33-0.131,0.512l-0.727-0.006
				c0-0.246,0.061-0.484,0.182-0.715s0.291-0.436,0.512-0.615s0.484-0.324,0.793-0.434c0.311-0.107,0.652-0.164,1.027-0.164
				c0.348,0,0.668,0.047,0.96,0.135c0.293,0.088,0.544,0.223,0.755,0.398c0.209,0.18,0.373,0.4,0.49,0.666
				c0.117,0.268,0.176,0.578,0.176,0.936v3.174c0,0.113,0.004,0.229,0.012,0.352c0.008,0.121,0.021,0.238,0.039,0.352
				c0.02,0.111,0.04,0.221,0.064,0.324c0.022,0.104,0.053,0.191,0.084,0.27v0.072h-0.774V64.5z M29.658,63.98
				c0.264,0,0.507-0.035,0.73-0.102s0.427-0.158,0.608-0.275c0.181-0.117,0.339-0.254,0.473-0.408s0.24-0.324,0.321-0.506v-1.441
				h-1.242c-0.371,0-0.703,0.033-0.996,0.1s-0.541,0.164-0.742,0.289s-0.356,0.275-0.464,0.457c-0.106,0.18-0.161,0.383-0.161,0.607
				c0,0.18,0.035,0.346,0.104,0.5c0.067,0.156,0.167,0.291,0.294,0.406c0.128,0.115,0.282,0.205,0.464,0.271
				S29.433,63.98,29.658,63.98z"/>
			<path fill="#938379" d="M39.479,64.5h-0.727v-3.006H35.22V64.5h-0.728v-6.555h0.728v2.938h3.533v-2.938h0.727V64.5z"/>
			<path fill="#938379" d="M46.451,64.5h-0.727v-3.006h-3.533V64.5h-0.727v-6.555h0.727v2.938h3.533v-2.938h0.727V64.5z"/>
			<path fill="#938379" d="M47.992,61.127c0-0.479,0.067-0.918,0.209-1.322c0.139-0.402,0.336-0.752,0.59-1.045
				c0.254-0.291,0.562-0.521,0.921-0.688c0.358-0.166,0.759-0.248,1.2-0.248c0.446,0,0.853,0.082,1.214,0.248
				c0.36,0.166,0.669,0.396,0.924,0.688c0.255,0.293,0.45,0.643,0.588,1.045c0.138,0.404,0.206,0.846,0.206,1.322v0.197
				c0,0.479-0.068,0.918-0.206,1.322c-0.138,0.402-0.333,0.752-0.588,1.045s-0.563,0.521-0.921,0.686
				c-0.359,0.162-0.763,0.244-1.205,0.244c-0.445,0-0.846-0.082-1.206-0.244c-0.359-0.164-0.667-0.393-0.924-0.686
				s-0.454-0.643-0.594-1.045c-0.141-0.404-0.209-0.846-0.209-1.322L47.992,61.127L47.992,61.127z M48.718,61.326
				c0,0.359,0.049,0.701,0.145,1.027c0.099,0.324,0.238,0.609,0.426,0.854c0.186,0.244,0.415,0.438,0.689,0.584
				s0.59,0.219,0.945,0.219c0.354,0,0.669-0.072,0.94-0.219c0.273-0.146,0.502-0.34,0.688-0.584
				c0.186-0.244,0.328-0.529,0.424-0.854c0.098-0.326,0.146-0.668,0.146-1.027v-0.199c0-0.352-0.049-0.689-0.146-1.016
				c-0.096-0.324-0.238-0.609-0.424-0.855c-0.187-0.246-0.416-0.443-0.693-0.592c-0.275-0.146-0.593-0.221-0.946-0.221
				c-0.353,0-0.664,0.072-0.938,0.221s-0.502,0.346-0.688,0.592c-0.188,0.246-0.327,0.531-0.426,0.855
				c-0.096,0.326-0.145,0.664-0.145,1.016L48.718,61.326L48.718,61.326z"/>
			<path fill="#938379" d="M57.877,64.621c-0.43,0-0.821-0.078-1.182-0.238c-0.359-0.158-0.67-0.381-0.931-0.666
				s-0.464-0.623-0.608-1.016c-0.146-0.391-0.219-0.82-0.219-1.291v-0.26c0-0.504,0.076-0.963,0.229-1.371
				c0.15-0.41,0.355-0.76,0.613-1.049c0.26-0.289,0.558-0.512,0.896-0.67c0.337-0.156,0.692-0.236,1.067-0.236
				c0.416,0,0.785,0.076,1.109,0.225c0.322,0.15,0.594,0.357,0.814,0.625c0.22,0.266,0.387,0.584,0.5,0.949
				c0.112,0.369,0.17,0.771,0.17,1.207v0.441h-4.678v0.139c0,0.359,0.055,0.699,0.163,1.016c0.109,0.316,0.264,0.594,0.462,0.828
				c0.196,0.232,0.434,0.418,0.707,0.555c0.274,0.135,0.579,0.203,0.916,0.203c0.388,0,0.729-0.072,1.026-0.213
				c0.297-0.143,0.566-0.367,0.81-0.68l0.453,0.346c-0.108,0.158-0.234,0.309-0.379,0.447c-0.144,0.143-0.31,0.266-0.499,0.371
				c-0.189,0.104-0.403,0.188-0.643,0.248S58.171,64.621,57.877,64.621z M57.742,58.443c-0.273,0-0.528,0.051-0.763,0.156
				c-0.233,0.105-0.44,0.256-0.621,0.449c-0.18,0.193-0.327,0.426-0.441,0.699c-0.115,0.271-0.193,0.574-0.232,0.904h3.931v-0.078
				c-0.008-0.273-0.052-0.541-0.133-0.797s-0.199-0.482-0.354-0.682c-0.156-0.197-0.35-0.355-0.578-0.477
				C58.319,58.502,58.05,58.443,57.742,58.443z"/>
			<path fill="#938379" d="M0,65.713v-0.607h60.803v0.607H0z"/>
		</g>
	</g>
	<path fill="#938379" d="M0.625,0v32.07l7.771-12.443l7.771,12.443V0H0.625z M11.414,12.412l-3.018-1.586L5.38,12.412l0.575-3.357
		l-2.44-2.381l3.374-0.488l1.508-3.057l1.509,3.057l3.373,0.488l-2.441,2.381L11.414,12.412z"/>
</g>
</svg>
