<?xml version="1.0" encoding="utf-8"?>
<!-- Generator: Adobe Illustrator 15.1.0, SVG Export Plug-In . SVG Version: 6.00 Build 0)  -->
<!DOCTYPE svg PUBLIC "-//W3C//DTD SVG 1.1//EN" "http://www.w3.org/Graphics/SVG/1.1/DTD/svg11.dtd">
<svg version="1.1" id="Layer_1" xmlns="http://www.w3.org/2000/svg" xmlns:xlink="http://www.w3.org/1999/xlink" x="0px" y="0px"
	 width="69.648px" height="60.164px" viewBox="0 0 69.648 60.164" enable-background="new 0 0 69.648 60.164" xml:space="preserve">
<g>
	<g>
		<path fill="#938379" d="M7.627,42.754H6.883V34.57H1.892v8.184H1.146v-8.818h6.48V42.754z"/>
		<path fill="#938379" d="M9.324,39.381c0-0.477,0.068-0.918,0.209-1.32c0.139-0.404,0.336-0.752,0.59-1.045
			s0.563-0.521,0.921-0.689c0.359-0.164,0.76-0.248,1.2-0.248c0.447,0,0.853,0.084,1.214,0.248c0.361,0.166,0.669,0.396,0.924,0.689
			s0.45,0.641,0.588,1.045c0.139,0.402,0.206,0.844,0.206,1.32v0.199c0,0.477-0.067,0.916-0.206,1.32
			c-0.138,0.402-0.333,0.752-0.588,1.045s-0.562,0.521-0.921,0.686c-0.358,0.162-0.762,0.244-1.205,0.244
			c-0.444,0-0.846-0.082-1.206-0.244c-0.358-0.164-0.667-0.393-0.924-0.686S9.672,41.303,9.533,40.9
			c-0.142-0.404-0.209-0.844-0.209-1.32V39.381L9.324,39.381z M10.051,39.58c0,0.359,0.05,0.701,0.146,1.027
			c0.098,0.324,0.238,0.607,0.425,0.854c0.187,0.244,0.415,0.438,0.69,0.584c0.273,0.146,0.59,0.219,0.944,0.219
			c0.355,0,0.669-0.072,0.941-0.219s0.502-0.34,0.688-0.584c0.187-0.246,0.328-0.529,0.425-0.854
			c0.098-0.326,0.146-0.668,0.146-1.027v-0.199c0-0.352-0.049-0.689-0.146-1.016c-0.097-0.324-0.238-0.611-0.425-0.857
			c-0.186-0.244-0.416-0.441-0.692-0.59c-0.276-0.146-0.594-0.221-0.947-0.221c-0.352,0-0.664,0.072-0.938,0.221
			c-0.272,0.148-0.502,0.346-0.688,0.59c-0.188,0.246-0.327,0.533-0.425,0.857c-0.097,0.326-0.146,0.664-0.146,1.016L10.051,39.58
			L10.051,39.58z"/>
		<path fill="#938379" d="M19.095,42.264c0.23,0,0.451-0.033,0.663-0.102c0.214-0.064,0.4-0.164,0.566-0.293
			s0.303-0.289,0.409-0.479c0.105-0.189,0.169-0.41,0.185-0.66h0.697c-0.017,0.311-0.094,0.598-0.233,0.859
			c-0.139,0.262-0.322,0.488-0.552,0.68c-0.229,0.188-0.491,0.338-0.791,0.443c-0.299,0.107-0.612,0.16-0.943,0.16
			c-0.46,0-0.864-0.084-1.212-0.25c-0.349-0.168-0.64-0.398-0.875-0.693c-0.236-0.295-0.414-0.643-0.533-1.039
			c-0.119-0.398-0.18-0.826-0.18-1.287V39.35c0-0.461,0.061-0.891,0.18-1.287c0.119-0.398,0.296-0.744,0.529-1.037
			s0.526-0.523,0.877-0.693c0.349-0.17,0.752-0.254,1.207-0.254c0.352,0,0.678,0.055,0.979,0.162
			c0.301,0.109,0.564,0.266,0.788,0.467c0.224,0.203,0.403,0.447,0.536,0.736s0.208,0.611,0.225,0.967h-0.697
			c-0.016-0.268-0.073-0.506-0.172-0.715c-0.1-0.211-0.229-0.391-0.395-0.539c-0.165-0.15-0.354-0.264-0.569-0.342
			c-0.216-0.08-0.447-0.119-0.692-0.119c-0.377,0-0.694,0.072-0.954,0.219c-0.262,0.146-0.475,0.342-0.64,0.588
			c-0.166,0.246-0.287,0.529-0.36,0.848c-0.074,0.318-0.111,0.652-0.111,1v0.254c0,0.352,0.037,0.688,0.111,1.01
			c0.073,0.32,0.193,0.604,0.356,0.848c0.164,0.244,0.378,0.439,0.644,0.584C18.398,42.191,18.719,42.264,19.095,42.264z"/>
		<path fill="#938379" d="M26.691,41.773l2.604-5.574h0.896v6.555h-0.729v-5.379l-2.521,5.379h-0.516l-2.567-5.5v5.5H23.14v-6.555
			h0.95L26.691,41.773z"/>
		<path fill="#938379" d="M31.732,39.381c0-0.477,0.067-0.918,0.209-1.32c0.139-0.404,0.336-0.752,0.59-1.045
			s0.562-0.521,0.921-0.689c0.359-0.164,0.759-0.248,1.2-0.248c0.446,0,0.853,0.084,1.214,0.248
			c0.361,0.166,0.669,0.396,0.924,0.689s0.45,0.641,0.588,1.045c0.138,0.402,0.206,0.844,0.206,1.32v0.199
			c0,0.477-0.067,0.916-0.206,1.32c-0.138,0.402-0.333,0.752-0.588,1.045s-0.563,0.521-0.921,0.686
			c-0.359,0.162-0.762,0.244-1.205,0.244c-0.445,0-0.846-0.082-1.206-0.244c-0.359-0.164-0.667-0.393-0.924-0.686
			s-0.454-0.643-0.593-1.045c-0.142-0.404-0.209-0.844-0.209-1.32V39.381L31.732,39.381z M32.459,39.58
			c0,0.359,0.049,0.701,0.146,1.027c0.098,0.324,0.238,0.607,0.425,0.854c0.187,0.244,0.415,0.438,0.69,0.584
			c0.273,0.146,0.59,0.219,0.944,0.219c0.355,0,0.669-0.072,0.941-0.219s0.502-0.34,0.688-0.584
			c0.187-0.246,0.328-0.529,0.424-0.854c0.099-0.326,0.146-0.668,0.146-1.027v-0.199c0-0.352-0.049-0.689-0.146-1.016
			c-0.096-0.324-0.237-0.611-0.424-0.857c-0.186-0.244-0.416-0.441-0.692-0.59c-0.276-0.146-0.594-0.221-0.947-0.221
			c-0.353,0-0.664,0.072-0.938,0.221c-0.272,0.148-0.502,0.346-0.688,0.59c-0.188,0.246-0.327,0.533-0.425,0.857
			c-0.097,0.326-0.146,0.664-0.146,1.016L32.459,39.58L32.459,39.58z"/>
		<path fill="#938379" d="M43.653,36.818h-2.387v5.936h-0.729v-5.936h-2.295v-0.619h5.409L43.653,36.818L43.653,36.818z"/>
		<path fill="#938379" d="M50.111,39.543c0,0.494-0.056,0.943-0.166,1.354c-0.111,0.406-0.273,0.758-0.488,1.051
			c-0.214,0.293-0.476,0.52-0.784,0.684c-0.31,0.164-0.661,0.246-1.058,0.246c-0.469,0-0.873-0.084-1.215-0.252
			c-0.341-0.168-0.623-0.398-0.845-0.693v3.346h-0.722v-9.076h0.673l0.036,0.928c0.223-0.328,0.503-0.584,0.843-0.77
			c0.339-0.188,0.742-0.279,1.212-0.279c0.398,0,0.756,0.08,1.067,0.236c0.313,0.158,0.577,0.383,0.791,0.672
			c0.215,0.291,0.377,0.643,0.488,1.053c0.11,0.41,0.166,0.869,0.166,1.377L50.111,39.543L50.111,39.543z M49.385,39.416
			c0-0.379-0.038-0.734-0.118-1.064c-0.078-0.332-0.197-0.619-0.357-0.861c-0.158-0.242-0.361-0.432-0.607-0.572
			c-0.247-0.139-0.535-0.209-0.867-0.209c-0.262,0-0.493,0.035-0.695,0.105c-0.202,0.066-0.379,0.16-0.53,0.273
			c-0.151,0.115-0.281,0.248-0.388,0.4c-0.107,0.15-0.194,0.311-0.265,0.475v3.146c0.077,0.164,0.173,0.318,0.288,0.459
			c0.115,0.143,0.25,0.264,0.406,0.367c0.154,0.104,0.332,0.184,0.529,0.242s0.42,0.088,0.666,0.088c0.332,0,0.619-0.07,0.86-0.209
			c0.242-0.141,0.443-0.332,0.603-0.576c0.16-0.244,0.279-0.531,0.357-0.863c0.079-0.33,0.118-0.688,0.118-1.072V39.416z"/>
		<path fill="#938379" d="M54.255,42.875c-0.429,0-0.82-0.08-1.181-0.238s-0.67-0.383-0.931-0.666
			c-0.262-0.285-0.465-0.623-0.608-1.016c-0.146-0.391-0.219-0.822-0.219-1.291v-0.26c0-0.504,0.075-0.963,0.228-1.371
			c0.151-0.41,0.356-0.76,0.614-1.049c0.259-0.289,0.557-0.514,0.895-0.67c0.337-0.156,0.693-0.236,1.068-0.236
			c0.416,0,0.785,0.076,1.109,0.225c0.321,0.15,0.594,0.357,0.813,0.623c0.22,0.268,0.387,0.584,0.5,0.951
			c0.113,0.369,0.17,0.771,0.17,1.207v0.441h-4.678v0.139c0,0.359,0.055,0.699,0.164,1.016s0.263,0.594,0.461,0.826
			c0.197,0.234,0.434,0.42,0.708,0.557c0.274,0.135,0.579,0.201,0.915,0.201c0.388,0,0.73-0.07,1.027-0.213
			c0.297-0.141,0.565-0.365,0.809-0.678l0.454,0.346c-0.109,0.158-0.235,0.309-0.379,0.447c-0.145,0.143-0.311,0.266-0.499,0.371
			c-0.19,0.104-0.404,0.188-0.644,0.248C54.814,42.844,54.549,42.875,54.255,42.875z M54.121,36.697
			c-0.274,0-0.529,0.051-0.763,0.156c-0.234,0.105-0.441,0.256-0.621,0.447c-0.18,0.195-0.327,0.428-0.442,0.701
			c-0.114,0.271-0.192,0.574-0.231,0.904h3.931v-0.078c-0.008-0.273-0.052-0.541-0.133-0.797s-0.199-0.484-0.354-0.682
			s-0.349-0.355-0.578-0.477C54.697,36.756,54.429,36.697,54.121,36.697z"/>
		<path fill="#938379" d="M62.765,36.818h-2.387v5.936h-0.727v-5.936h-2.296v-0.619h5.409V36.818L62.765,36.818z"/>
		<path fill="#938379" d="M64.754,38.58h1.877c0.39,0,0.731,0.053,1.03,0.158c0.299,0.104,0.55,0.25,0.755,0.434
			c0.203,0.184,0.357,0.402,0.46,0.656c0.104,0.254,0.154,0.531,0.154,0.83s-0.052,0.576-0.154,0.83s-0.257,0.475-0.46,0.664
			c-0.205,0.188-0.456,0.334-0.755,0.441c-0.299,0.105-0.642,0.16-1.03,0.16h-2.598v-6.555h0.721V38.58L64.754,38.58z
			 M64.754,39.199v2.943h1.877c0.304,0,0.562-0.041,0.773-0.125c0.211-0.082,0.385-0.191,0.518-0.326
			c0.133-0.137,0.23-0.291,0.291-0.471c0.062-0.178,0.09-0.361,0.09-0.551c0-0.182-0.028-0.359-0.09-0.537
			c-0.061-0.176-0.158-0.332-0.291-0.473c-0.133-0.139-0.307-0.25-0.518-0.336c-0.213-0.084-0.472-0.127-0.773-0.127h-1.877V39.199z
			"/>
		<path fill="#938379" d="M0,43.967v-0.605h69.648v0.605H0z"/>
		<path fill="#938379" d="M1.024,57.643v-6.557h2.404c0.399,0,0.759,0.035,1.074,0.107c0.318,0.07,0.588,0.178,0.813,0.32
			c0.225,0.143,0.396,0.324,0.515,0.545s0.179,0.479,0.179,0.777c0,0.328-0.099,0.619-0.297,0.875
			c-0.196,0.258-0.485,0.443-0.866,0.563c0.219,0.039,0.416,0.107,0.592,0.205s0.324,0.215,0.447,0.352
			c0.123,0.139,0.219,0.291,0.284,0.461c0.067,0.17,0.102,0.348,0.102,0.533c0,0.303-0.059,0.566-0.173,0.793
			c-0.115,0.227-0.278,0.416-0.49,0.566c-0.213,0.15-0.467,0.266-0.765,0.342c-0.297,0.078-0.629,0.115-0.995,0.115H1.024V57.643z
			 M1.745,54.02H3.58c0.566-0.01,0.992-0.109,1.279-0.307c0.286-0.195,0.43-0.48,0.43-0.857c0-0.398-0.156-0.691-0.47-0.875
			c-0.314-0.184-0.776-0.275-1.391-0.275H1.744L1.745,54.02L1.745,54.02z M1.745,54.625v2.412h2.104c0.545,0,0.965-0.105,1.26-0.314
			c0.295-0.211,0.44-0.514,0.44-0.908c0-0.365-0.146-0.652-0.44-0.867s-0.715-0.32-1.26-0.32H1.745V54.625z"/>
		<path fill="#938379" d="M15.206,51.088h0.728v6.555h-0.728v-5.387l-3.538,5.387h-0.721v-6.555h0.721v5.393L15.206,51.088z"/>
		<path fill="#938379" d="M22.905,57.643h-0.728v-3.006h-3.531v3.006h-0.728v-6.557h0.728v2.939h3.531v-2.939h0.728V57.643z"/>
		<path fill="#938379" d="M29.551,51.705h-2.387v5.938h-0.727v-5.938H24.14v-0.617h5.41L29.551,51.705L29.551,51.705z"/>
		<path fill="#938379" d="M32.792,57.764c-0.429,0-0.821-0.08-1.181-0.24c-0.36-0.158-0.67-0.381-0.932-0.666
			c-0.261-0.285-0.464-0.623-0.607-1.016c-0.146-0.391-0.22-0.82-0.22-1.291v-0.26c0-0.504,0.076-0.963,0.229-1.371
			c0.151-0.41,0.355-0.76,0.614-1.049s0.557-0.512,0.895-0.67c0.337-0.156,0.693-0.236,1.068-0.236c0.416,0,0.785,0.076,1.108,0.225
			c0.322,0.15,0.595,0.357,0.814,0.625c0.22,0.266,0.387,0.584,0.5,0.949c0.113,0.369,0.17,0.771,0.17,1.207v0.441h-4.678v0.139
			c0,0.359,0.055,0.699,0.164,1.016c0.108,0.316,0.263,0.594,0.461,0.828c0.197,0.232,0.434,0.418,0.708,0.555
			c0.274,0.135,0.579,0.203,0.915,0.203c0.388,0,0.729-0.072,1.027-0.213c0.297-0.143,0.565-0.367,0.809-0.68l0.454,0.346
			c-0.109,0.158-0.235,0.309-0.379,0.447c-0.145,0.143-0.311,0.266-0.499,0.371c-0.19,0.104-0.404,0.188-0.644,0.248
			C33.352,57.732,33.086,57.764,32.792,57.764z M32.658,51.584c-0.274,0-0.529,0.053-0.763,0.158
			c-0.234,0.105-0.441,0.254-0.621,0.447s-0.327,0.428-0.442,0.701c-0.114,0.271-0.192,0.572-0.231,0.904h3.931v-0.08
			c-0.008-0.273-0.052-0.539-0.133-0.795c-0.081-0.258-0.199-0.484-0.354-0.682c-0.156-0.199-0.349-0.357-0.578-0.477
			C33.234,51.645,32.965,51.584,32.658,51.584z"/>
		<path fill="#938379" d="M41.934,54.432c0,0.492-0.058,0.941-0.167,1.352c-0.111,0.406-0.273,0.758-0.487,1.051
			c-0.215,0.293-0.478,0.521-0.785,0.686c-0.309,0.162-0.661,0.244-1.057,0.244c-0.47,0-0.873-0.084-1.216-0.25
			c-0.342-0.168-0.623-0.4-0.846-0.695v3.346h-0.721v-9.076h0.673l0.036,0.928c0.223-0.326,0.503-0.582,0.842-0.77
			c0.34-0.186,0.744-0.279,1.212-0.279c0.399,0,0.757,0.08,1.069,0.236c0.313,0.158,0.576,0.383,0.791,0.672
			c0.214,0.291,0.376,0.643,0.487,1.053c0.109,0.41,0.167,0.869,0.167,1.379L41.934,54.432L41.934,54.432z M41.206,54.305
			c0-0.381-0.039-0.734-0.118-1.066c-0.078-0.33-0.196-0.617-0.356-0.859c-0.159-0.242-0.362-0.434-0.608-0.572
			c-0.247-0.141-0.535-0.209-0.866-0.209c-0.263,0-0.495,0.033-0.697,0.104c-0.2,0.068-0.379,0.16-0.528,0.275
			c-0.152,0.115-0.281,0.248-0.39,0.398c-0.105,0.152-0.193,0.313-0.264,0.477v3.145c0.077,0.166,0.174,0.318,0.289,0.461
			c0.114,0.143,0.25,0.264,0.405,0.365c0.154,0.105,0.332,0.186,0.529,0.244s0.421,0.088,0.666,0.088c0.331,0,0.618-0.07,0.86-0.209
			c0.242-0.141,0.443-0.332,0.604-0.576c0.159-0.244,0.278-0.533,0.356-0.863c0.079-0.33,0.118-0.688,0.118-1.072V54.305
			L41.206,54.305z"/>
		<path fill="#938379" d="M44.338,53.469h1.878c0.389,0,0.731,0.053,1.03,0.156c0.299,0.105,0.55,0.25,0.754,0.436
			c0.203,0.184,0.357,0.4,0.461,0.656c0.104,0.254,0.154,0.531,0.154,0.83s-0.052,0.574-0.154,0.83
			c-0.104,0.254-0.258,0.475-0.461,0.662c-0.204,0.189-0.455,0.336-0.754,0.443c-0.299,0.105-0.643,0.16-1.03,0.16h-2.599v-6.557
			h0.721V53.469z M44.338,54.086v2.943h1.878c0.304,0,0.562-0.041,0.772-0.123c0.212-0.082,0.385-0.191,0.518-0.328
			c0.134-0.135,0.23-0.291,0.291-0.469c0.062-0.178,0.091-0.361,0.091-0.551c0-0.184-0.029-0.361-0.091-0.537
			c-0.061-0.176-0.157-0.332-0.291-0.473c-0.133-0.139-0.306-0.252-0.518-0.336c-0.212-0.086-0.47-0.127-0.772-0.127H44.338
			L44.338,54.086z"/>
		<path fill="#938379" d="M52.717,57.764c-0.429,0-0.821-0.08-1.182-0.24c-0.36-0.158-0.67-0.381-0.93-0.666
			c-0.262-0.285-0.464-0.623-0.609-1.016c-0.146-0.391-0.218-0.82-0.218-1.291v-0.26c0-0.504,0.074-0.963,0.228-1.371
			c0.15-0.41,0.355-0.76,0.614-1.049s0.556-0.512,0.895-0.67c0.338-0.156,0.692-0.236,1.068-0.236c0.416,0,0.785,0.076,1.108,0.225
			c0.323,0.15,0.595,0.357,0.813,0.625c0.221,0.266,0.387,0.584,0.5,0.949c0.113,0.369,0.17,0.771,0.17,1.207v0.441h-4.677v0.139
			c0,0.359,0.056,0.699,0.163,1.016c0.109,0.316,0.264,0.594,0.461,0.828c0.197,0.232,0.434,0.418,0.709,0.555
			c0.274,0.135,0.579,0.203,0.914,0.203c0.389,0,0.73-0.072,1.027-0.213c0.297-0.143,0.565-0.367,0.809-0.68l0.455,0.346
			c-0.109,0.158-0.236,0.309-0.379,0.447c-0.146,0.143-0.312,0.266-0.5,0.371c-0.189,0.104-0.404,0.188-0.644,0.248
			C53.275,57.732,53.011,57.764,52.717,57.764z M52.583,51.584c-0.273,0-0.529,0.053-0.763,0.158
			c-0.234,0.105-0.441,0.254-0.621,0.447s-0.328,0.428-0.443,0.701c-0.113,0.271-0.191,0.572-0.231,0.904h3.932v-0.08
			c-0.008-0.273-0.053-0.539-0.133-0.795c-0.082-0.258-0.199-0.484-0.355-0.682c-0.154-0.199-0.348-0.357-0.578-0.477
			C53.16,51.643,52.89,51.584,52.583,51.584z"/>
		<path fill="#938379" d="M61.857,54.432c0,0.492-0.057,0.941-0.166,1.352c-0.111,0.406-0.273,0.758-0.488,1.051
			c-0.214,0.293-0.476,0.521-0.784,0.686c-0.31,0.162-0.661,0.244-1.058,0.244c-0.47,0-0.873-0.084-1.215-0.25
			c-0.341-0.168-0.623-0.4-0.846-0.695v3.346H56.58v-9.076h0.673l0.036,0.928c0.222-0.326,0.503-0.582,0.842-0.77
			c0.339-0.186,0.743-0.279,1.212-0.279c0.399,0,0.757,0.08,1.068,0.236c0.313,0.158,0.577,0.383,0.791,0.672
			c0.215,0.291,0.377,0.643,0.488,1.053c0.109,0.41,0.166,0.869,0.166,1.379L61.857,54.432L61.857,54.432z M61.131,54.305
			c0-0.381-0.038-0.734-0.118-1.066c-0.078-0.33-0.197-0.617-0.357-0.859c-0.158-0.242-0.361-0.434-0.607-0.572
			c-0.247-0.141-0.535-0.209-0.867-0.209c-0.262,0-0.493,0.033-0.695,0.104c-0.202,0.068-0.379,0.16-0.53,0.275
			s-0.281,0.248-0.388,0.398c-0.107,0.152-0.194,0.313-0.265,0.477v3.145c0.077,0.166,0.173,0.318,0.288,0.461
			s0.25,0.264,0.406,0.365c0.154,0.105,0.332,0.186,0.529,0.244s0.42,0.088,0.666,0.088c0.332,0,0.619-0.07,0.86-0.209
			c0.242-0.141,0.443-0.332,0.603-0.576c0.16-0.244,0.279-0.533,0.357-0.863c0.079-0.33,0.118-0.688,0.118-1.072V54.305z"/>
		<path fill="#938379" d="M66.001,57.764c-0.429,0-0.82-0.08-1.181-0.24c-0.36-0.158-0.67-0.381-0.931-0.666
			c-0.262-0.285-0.465-0.623-0.608-1.016c-0.146-0.391-0.219-0.82-0.219-1.291v-0.26c0-0.504,0.075-0.963,0.228-1.371
			c0.151-0.41,0.356-0.76,0.614-1.049c0.259-0.289,0.557-0.512,0.895-0.67c0.337-0.156,0.693-0.236,1.068-0.236
			c0.416,0,0.785,0.076,1.109,0.225c0.321,0.15,0.594,0.357,0.813,0.625c0.22,0.266,0.387,0.584,0.5,0.949
			c0.113,0.369,0.17,0.771,0.17,1.207v0.441h-4.678v0.139c0,0.359,0.055,0.699,0.164,1.016s0.263,0.594,0.461,0.828
			c0.197,0.232,0.434,0.418,0.708,0.555c0.274,0.135,0.579,0.203,0.915,0.203c0.388,0,0.73-0.072,1.027-0.213
			c0.297-0.143,0.565-0.367,0.809-0.68l0.454,0.346c-0.109,0.158-0.235,0.309-0.379,0.447c-0.145,0.143-0.311,0.266-0.499,0.371
			c-0.19,0.104-0.404,0.188-0.644,0.248C66.561,57.732,66.295,57.764,66.001,57.764z M65.867,51.584
			c-0.274,0-0.529,0.053-0.763,0.158c-0.234,0.105-0.441,0.254-0.621,0.447s-0.327,0.428-0.442,0.701
			c-0.114,0.271-0.192,0.572-0.231,0.904h3.931v-0.08c-0.008-0.273-0.052-0.539-0.133-0.795c-0.081-0.258-0.199-0.484-0.354-0.682
			c-0.156-0.199-0.349-0.357-0.578-0.477C66.443,51.645,66.174,51.584,65.867,51.584z"/>
		<path fill="#938379" d="M0,58.854v-0.605h68.927v0.605H0z"/>
	</g>
</g>
<path id="Иконка_Галерея_Интерьеров_2_" fill="#938379" d="M14.621,3.652V0H0v4.205h0.015v21.527H40.58
	V3.652H14.621z M11.545,8.959H2.231V4.205V3.652V2.592h9.313v1.061v0.553V8.959z M27.029,23.346c-4.461,0-8.078-3.617-8.078-8.078
	s3.617-8.078,8.078-8.078s8.076,3.617,8.076,8.078S31.49,23.346,27.029,23.346z"/>
</svg>
