<?xml version="1.0" encoding="utf-8"?>
<!-- Generator: Adobe Illustrator 15.1.0, SVG Export Plug-In . SVG Version: 6.00 Build 0)  -->
<!DOCTYPE svg PUBLIC "-//W3C//DTD SVG 1.1//EN" "http://www.w3.org/Graphics/SVG/1.1/DTD/svg11.dtd">
<svg version="1.1" id="Layer_1" xmlns="http://www.w3.org/2000/svg" xmlns:xlink="http://www.w3.org/1999/xlink" x="0px" y="0px"
	 width="40.291px" height="63.646px" viewBox="0 0 40.291 63.646" enable-background="new 0 0 40.291 63.646" xml:space="preserve">
<g>
	<g>
		<path fill="#938379" d="M1.114,46.238v-8.82h2.604c0.449,0,0.852,0.047,1.206,0.137c0.354,0.092,0.657,0.23,0.905,0.418
			c0.248,0.189,0.438,0.428,0.572,0.719c0.134,0.289,0.199,0.637,0.199,1.035c0,0.227-0.03,0.439-0.094,0.641
			c-0.063,0.199-0.154,0.383-0.275,0.547c-0.121,0.166-0.269,0.311-0.438,0.434c-0.172,0.123-0.366,0.221-0.585,0.295
			c0.259,0.057,0.493,0.15,0.703,0.281s0.39,0.291,0.539,0.479c0.148,0.188,0.265,0.396,0.346,0.627
			c0.08,0.23,0.121,0.473,0.121,0.729c0,0.402-0.068,0.76-0.203,1.068s-0.327,0.568-0.576,0.777
			c-0.248,0.211-0.546,0.369-0.893,0.477c-0.349,0.105-0.731,0.16-1.151,0.16H1.114V46.238z M1.86,41.373h2.034
			c0.622-0.014,1.104-0.158,1.445-0.439c0.341-0.279,0.512-0.688,0.512-1.227c0-0.564-0.177-0.982-0.53-1.25
			c-0.353-0.27-0.888-0.404-1.603-0.404H1.859L1.86,41.373L1.86,41.373z M1.86,41.998v3.609h2.234c0.323,0,0.612-0.043,0.869-0.127
			c0.257-0.086,0.475-0.207,0.654-0.365c0.18-0.156,0.316-0.35,0.412-0.576c0.095-0.229,0.142-0.486,0.142-0.773
			c0-0.246-0.039-0.477-0.121-0.693c-0.08-0.215-0.205-0.402-0.372-0.563c-0.167-0.158-0.378-0.285-0.63-0.375
			c-0.252-0.092-0.551-0.137-0.894-0.137H1.86L1.86,41.998z"/>
		<path fill="#938379" d="M12.854,39.684h0.728v6.555h-0.728v-5.387l-3.537,5.387H8.596v-6.555h0.722v5.393L12.854,39.684z"/>
		<path fill="#938379" d="M17.73,42.578c0.304,0,0.559-0.027,0.765-0.082s0.373-0.133,0.503-0.234
			c0.129-0.104,0.222-0.227,0.278-0.367s0.084-0.301,0.084-0.479c0-0.17-0.029-0.33-0.091-0.48
			c-0.061-0.148-0.156-0.277-0.291-0.391c-0.133-0.111-0.305-0.199-0.515-0.268c-0.21-0.066-0.464-0.1-0.763-0.1
			c-0.23,0-0.449,0.031-0.654,0.094c-0.207,0.064-0.387,0.15-0.543,0.262c-0.155,0.109-0.278,0.244-0.369,0.402
			c-0.091,0.156-0.137,0.328-0.137,0.516h-0.721c0-0.287,0.065-0.547,0.196-0.779c0.131-0.23,0.309-0.43,0.529-0.594
			c0.223-0.162,0.48-0.289,0.773-0.377c0.292-0.09,0.6-0.135,0.924-0.135c0.371,0,0.704,0.041,0.999,0.121s0.545,0.199,0.751,0.357
			s0.363,0.352,0.473,0.582c0.109,0.229,0.164,0.496,0.164,0.799c0,0.314-0.098,0.6-0.291,0.854
			c-0.194,0.256-0.477,0.453-0.848,0.596c0.424,0.115,0.738,0.309,0.946,0.57c0.208,0.266,0.313,0.596,0.313,0.992
			c0,0.303-0.062,0.572-0.182,0.809c-0.121,0.236-0.293,0.436-0.513,0.6c-0.221,0.164-0.483,0.289-0.791,0.375
			c-0.307,0.088-0.646,0.131-1.018,0.131c-0.303,0-0.605-0.039-0.909-0.117c-0.303-0.08-0.574-0.199-0.814-0.363
			s-0.437-0.371-0.588-0.621c-0.15-0.25-0.228-0.547-0.228-0.891h0.728c0,0.189,0.044,0.369,0.135,0.539
			c0.088,0.17,0.213,0.316,0.375,0.441s0.354,0.225,0.574,0.297c0.223,0.072,0.465,0.109,0.729,0.109
			c0.291,0,0.547-0.033,0.77-0.098s0.406-0.154,0.555-0.27c0.147-0.117,0.259-0.252,0.333-0.408
			c0.073-0.158,0.111-0.332,0.111-0.521c0-0.439-0.144-0.758-0.431-0.951c-0.286-0.193-0.725-0.291-1.314-0.291h-0.998v-0.629H17.73
			L17.73,42.578z"/>
		<path fill="#938379" d="M23.88,45.195l1.914-5.512h0.782l-2.775,7.604c-0.057,0.148-0.128,0.316-0.215,0.502
			s-0.199,0.359-0.34,0.521c-0.14,0.16-0.313,0.297-0.521,0.408s-0.462,0.166-0.761,0.166c-0.039,0-0.086-0.002-0.139-0.008
			c-0.054-0.008-0.105-0.016-0.158-0.021c-0.052-0.01-0.103-0.018-0.147-0.027c-0.047-0.01-0.084-0.02-0.111-0.027l-0.007-0.6
			c0.05,0.008,0.113,0.016,0.197,0.023c0.082,0.008,0.143,0.014,0.178,0.014c0.194,0,0.365-0.025,0.517-0.076
			c0.147-0.051,0.279-0.125,0.391-0.225c0.112-0.1,0.209-0.225,0.293-0.373c0.086-0.148,0.162-0.32,0.23-0.516l0.314-0.865
			l-2.472-6.5h0.793L23.88,45.195z"/>
		<path fill="#938379" d="M31.743,46.238c-0.04-0.113-0.071-0.252-0.095-0.416c-0.021-0.162-0.038-0.328-0.046-0.5
			c-0.108,0.143-0.238,0.275-0.387,0.4c-0.15,0.125-0.318,0.234-0.504,0.328c-0.187,0.092-0.389,0.166-0.611,0.223
			c-0.222,0.059-0.463,0.086-0.721,0.086c-0.319,0-0.609-0.047-0.869-0.141c-0.261-0.092-0.482-0.223-0.667-0.391
			c-0.184-0.166-0.326-0.363-0.427-0.592c-0.103-0.225-0.151-0.471-0.151-0.736c0-0.32,0.068-0.607,0.206-0.863
			c0.137-0.258,0.335-0.475,0.594-0.654s0.572-0.316,0.941-0.412s0.785-0.143,1.245-0.143h1.345v-0.746
			c0-0.469-0.145-0.836-0.434-1.104c-0.288-0.27-0.709-0.404-1.262-0.404c-0.256,0-0.489,0.035-0.703,0.105
			c-0.215,0.066-0.399,0.162-0.556,0.283c-0.154,0.121-0.275,0.262-0.362,0.422c-0.088,0.158-0.131,0.33-0.131,0.512l-0.728-0.006
			c0-0.246,0.062-0.484,0.182-0.715c0.121-0.23,0.292-0.436,0.513-0.615s0.483-0.324,0.794-0.434c0.31-0.107,0.65-0.164,1.025-0.164
			c0.349,0,0.668,0.045,0.961,0.135c0.293,0.088,0.544,0.223,0.755,0.398c0.21,0.178,0.373,0.4,0.489,0.666
			c0.117,0.268,0.177,0.578,0.177,0.936v3.174c0,0.111,0.004,0.229,0.013,0.352c0.008,0.121,0.021,0.238,0.039,0.352
			c0.019,0.111,0.04,0.221,0.063,0.324c0.024,0.104,0.053,0.191,0.085,0.27v0.072h-0.773V46.238z M29.465,45.717
			c0.264,0,0.506-0.033,0.729-0.102c0.225-0.066,0.429-0.156,0.609-0.273c0.182-0.117,0.339-0.254,0.473-0.41
			c0.134-0.154,0.24-0.324,0.32-0.506v-1.441h-1.242c-0.371,0-0.703,0.033-0.996,0.102c-0.293,0.066-0.539,0.162-0.741,0.287
			c-0.201,0.125-0.356,0.277-0.463,0.457c-0.107,0.18-0.161,0.383-0.161,0.609c0,0.178,0.034,0.344,0.103,0.498
			c0.069,0.156,0.168,0.291,0.295,0.406c0.128,0.115,0.281,0.207,0.464,0.271C29.036,45.682,29.239,45.717,29.465,45.717z"/>
		<path fill="#938379" d="M39.291,39.684v6.555h-0.728v-5.932H35.88l-0.091,2.271c-0.028,0.631-0.079,1.176-0.151,1.637
			s-0.184,0.84-0.33,1.139c-0.147,0.299-0.342,0.521-0.582,0.666c-0.239,0.146-0.542,0.219-0.904,0.219H33.56l0.013-0.648
			l0.225-0.006c0.219,0,0.402-0.051,0.551-0.15c0.15-0.102,0.273-0.268,0.373-0.5c0.101-0.232,0.175-0.541,0.228-0.924
			c0.053-0.385,0.092-0.861,0.115-1.43l0.12-2.896H39.291L39.291,39.684z"/>
		<path fill="#938379" d="M0,47.451v-0.607h40.291v0.607H0z"/>
		<path fill="#938379" d="M5.252,54.57h0.727v6.557H5.252V55.74l-3.538,5.387H0.993V54.57h0.721v5.393L5.252,54.57z"/>
		<path fill="#938379" d="M10.129,57.467c0.303,0,0.557-0.027,0.763-0.082s0.374-0.133,0.503-0.236s0.224-0.225,0.279-0.365
			c0.056-0.143,0.084-0.303,0.084-0.48c0-0.17-0.03-0.328-0.091-0.479s-0.157-0.279-0.29-0.391
			c-0.134-0.111-0.306-0.201-0.517-0.268c-0.209-0.066-0.465-0.1-0.764-0.1c-0.229,0-0.447,0.031-0.654,0.094
			c-0.205,0.063-0.387,0.148-0.541,0.262c-0.155,0.109-0.278,0.244-0.369,0.4c-0.092,0.158-0.137,0.33-0.137,0.516H7.674
			c0-0.285,0.064-0.545,0.196-0.777c0.132-0.23,0.309-0.43,0.53-0.594c0.223-0.164,0.479-0.289,0.771-0.379
			c0.292-0.088,0.602-0.133,0.924-0.133c0.372,0,0.705,0.041,1,0.121s0.545,0.199,0.751,0.355c0.206,0.158,0.364,0.354,0.473,0.582
			c0.108,0.23,0.163,0.496,0.163,0.801c0,0.314-0.096,0.6-0.291,0.854c-0.192,0.256-0.477,0.453-0.848,0.594
			c0.424,0.117,0.74,0.309,0.948,0.572c0.208,0.266,0.312,0.596,0.312,0.992c0,0.303-0.061,0.57-0.182,0.809
			c-0.121,0.236-0.291,0.436-0.513,0.6c-0.22,0.162-0.482,0.289-0.789,0.375c-0.309,0.086-0.646,0.131-1.02,0.131
			c-0.303,0-0.605-0.039-0.908-0.117c-0.303-0.08-0.574-0.201-0.813-0.363c-0.24-0.164-0.438-0.371-0.588-0.621
			c-0.151-0.252-0.228-0.547-0.228-0.891h0.728c0,0.188,0.045,0.369,0.133,0.539c0.089,0.17,0.215,0.316,0.376,0.441
			s0.353,0.225,0.575,0.297s0.465,0.109,0.727,0.109c0.291,0,0.548-0.033,0.771-0.098s0.406-0.154,0.555-0.271
			c0.148-0.115,0.258-0.25,0.333-0.408c0.075-0.156,0.112-0.332,0.112-0.52c0-0.441-0.145-0.758-0.431-0.951
			s-0.726-0.291-1.313-0.291h-1v-0.631h1.001V57.467z"/>
		<path fill="#938379" d="M18.337,61.125c-0.04-0.113-0.071-0.25-0.094-0.414s-0.038-0.33-0.047-0.5
			c-0.108,0.141-0.237,0.273-0.387,0.398s-0.317,0.234-0.504,0.328c-0.186,0.094-0.389,0.166-0.611,0.225
			c-0.222,0.057-0.463,0.084-0.721,0.084c-0.318,0-0.608-0.047-0.869-0.141c-0.261-0.092-0.481-0.223-0.667-0.391
			c-0.184-0.166-0.325-0.363-0.427-0.59s-0.15-0.473-0.15-0.738c0-0.32,0.067-0.607,0.205-0.863
			c0.138-0.258,0.336-0.475,0.595-0.654c0.258-0.18,0.571-0.316,0.94-0.412c0.369-0.094,0.785-0.143,1.245-0.143h1.345V56.57
			c0-0.471-0.145-0.838-0.434-1.105c-0.288-0.27-0.709-0.404-1.262-0.404c-0.256,0-0.489,0.035-0.703,0.105
			c-0.215,0.066-0.399,0.162-0.555,0.285c-0.155,0.121-0.276,0.26-0.363,0.42s-0.131,0.33-0.131,0.512l-0.728-0.006
			c0-0.246,0.062-0.484,0.183-0.715s0.292-0.436,0.512-0.615c0.221-0.18,0.484-0.324,0.794-0.434
			c0.31-0.107,0.651-0.162,1.026-0.162c0.348,0,0.668,0.045,0.961,0.133s0.544,0.223,0.754,0.398c0.21,0.178,0.373,0.4,0.49,0.666
			c0.116,0.268,0.176,0.578,0.176,0.936v3.174c0,0.113,0.004,0.23,0.013,0.352c0.008,0.121,0.021,0.238,0.039,0.352
			s0.04,0.221,0.063,0.324c0.024,0.104,0.054,0.191,0.085,0.27v0.072h-0.773V61.125z M16.059,60.605c0.265,0,0.506-0.035,0.73-0.102
			c0.224-0.066,0.428-0.158,0.608-0.275c0.182-0.117,0.34-0.254,0.474-0.408c0.133-0.154,0.239-0.324,0.319-0.506v-1.441h-1.241
			c-0.371,0-0.703,0.033-0.996,0.1c-0.293,0.068-0.54,0.164-0.742,0.289c-0.201,0.125-0.356,0.277-0.463,0.457
			c-0.107,0.18-0.161,0.383-0.161,0.609c0,0.178,0.034,0.344,0.104,0.498c0.068,0.156,0.168,0.291,0.295,0.406
			s0.28,0.205,0.463,0.271C15.63,60.57,15.833,60.605,16.059,60.605z"/>
		<path fill="#938379" d="M25.455,55.189h-2.388v5.938H22.34v-5.938h-2.296V54.57h5.41L25.455,55.189L25.455,55.189z"/>
		<path fill="#938379" d="M25.987,57.752c0-0.479,0.069-0.918,0.209-1.322c0.14-0.402,0.337-0.752,0.591-1.045
			c0.255-0.291,0.563-0.521,0.922-0.688c0.358-0.164,0.759-0.248,1.198-0.248c0.448,0,0.854,0.084,1.216,0.248
			c0.36,0.166,0.669,0.396,0.924,0.688c0.254,0.293,0.448,0.643,0.588,1.045c0.137,0.404,0.205,0.846,0.205,1.322v0.197
			c0,0.479-0.068,0.918-0.205,1.322c-0.14,0.402-0.334,0.752-0.588,1.045c-0.255,0.293-0.563,0.521-0.922,0.686
			c-0.359,0.162-0.762,0.244-1.205,0.244c-0.444,0-0.847-0.082-1.205-0.244c-0.359-0.164-0.668-0.393-0.924-0.686
			c-0.257-0.293-0.455-0.643-0.595-1.045c-0.14-0.404-0.209-0.846-0.209-1.322V57.752z M26.715,57.951
			c0,0.359,0.049,0.701,0.146,1.027c0.098,0.324,0.238,0.609,0.426,0.854c0.186,0.244,0.415,0.438,0.688,0.584
			c0.275,0.146,0.59,0.219,0.945,0.219c0.354,0,0.67-0.072,0.942-0.219c0.271-0.146,0.5-0.34,0.688-0.584
			c0.186-0.244,0.327-0.529,0.424-0.854c0.097-0.326,0.146-0.668,0.146-1.027v-0.199c0-0.352-0.049-0.689-0.146-1.016
			c-0.097-0.324-0.238-0.609-0.424-0.855c-0.188-0.246-0.417-0.443-0.694-0.592c-0.274-0.146-0.592-0.221-0.946-0.221
			c-0.353,0-0.664,0.072-0.937,0.221c-0.272,0.146-0.502,0.346-0.688,0.592c-0.188,0.246-0.328,0.531-0.426,0.855
			c-0.097,0.326-0.146,0.664-0.146,1.016L26.715,57.951L26.715,57.951z"/>
		<path fill="#938379" d="M38.606,57.914c0,0.492-0.056,0.943-0.167,1.352c-0.11,0.408-0.272,0.758-0.486,1.051
			c-0.215,0.293-0.477,0.521-0.784,0.686c-0.31,0.164-0.662,0.246-1.058,0.246c-0.469,0-0.874-0.084-1.215-0.252
			c-0.342-0.168-0.623-0.398-0.846-0.693v3.344H33.33v-9.074h0.672l0.037,0.928c0.222-0.328,0.502-0.584,0.842-0.771
			c0.34-0.186,0.743-0.277,1.211-0.277c0.4,0,0.757,0.078,1.07,0.236c0.313,0.156,0.576,0.381,0.79,0.672s0.376,0.643,0.486,1.053
			c0.111,0.408,0.168,0.867,0.168,1.377V57.914L38.606,57.914z M37.879,57.787c0-0.381-0.039-0.734-0.117-1.066
			c-0.079-0.33-0.198-0.617-0.356-0.859c-0.16-0.242-0.363-0.434-0.609-0.572s-0.535-0.209-0.866-0.209
			c-0.263,0-0.495,0.033-0.696,0.104c-0.201,0.068-0.379,0.16-0.529,0.275c-0.151,0.115-0.28,0.248-0.389,0.398
			c-0.107,0.152-0.194,0.313-0.264,0.477v3.145c0.076,0.166,0.173,0.318,0.288,0.461c0.114,0.143,0.25,0.264,0.405,0.365
			c0.155,0.105,0.332,0.186,0.53,0.244c0.197,0.059,0.421,0.088,0.666,0.088c0.33,0,0.617-0.07,0.859-0.209
			c0.242-0.141,0.443-0.332,0.604-0.576c0.158-0.244,0.277-0.531,0.356-0.863c0.078-0.33,0.117-0.688,0.117-1.072V57.787z"/>
		<path fill="#938379" d="M0,62.338V61.73h39.267v0.607H0z"/>
	</g>
</g>
<g>
	<path fill="#938379" d="M19.455,18.041H7.746c-0.82-4.193-2.563-4.832-5.806-4.801v13.469h23.521V13.242
		C21.852,13.24,20.496,13.566,19.455,18.041z"/>
	<path fill="#938379" d="M18.762,0H8.739C5.675,0,4.483,1.738,4.483,3.02v7.678c1.344,0.041,3.827,0.871,4.549,4.771h9.065
		c0.818-3.693,3.615-4.73,4.918-4.771V3.02C23.016,1.74,21.824,0,18.762,0z"/>
	<rect x="1.908" y="28.645" fill="#938379" width="6.704" height="2.801"/>
	<rect x="18.758" y="28.645" fill="#938379" width="6.705" height="2.801"/>
</g>
</svg>
