<?xml version="1.0" encoding="utf-8"?>
<!-- Generator: Adobe Illustrator 15.1.0, SVG Export Plug-In . SVG Version: 6.00 Build 0)  -->
<!DOCTYPE svg PUBLIC "-//W3C//DTD SVG 1.1//EN" "http://www.w3.org/Graphics/SVG/1.1/DTD/svg11.dtd">
<svg version="1.1" id="Layer_1" xmlns="http://www.w3.org/2000/svg" xmlns:xlink="http://www.w3.org/1999/xlink" x="0px" y="0px"
	 width="37.126px" height="37.127px" viewBox="0 0 37.126 37.127" enable-background="new 0 0 37.126 37.127" xml:space="preserve">
<g>
	<path fill="#FFFFFF" d="M32.13,32.154c0.004-0.004,0.011-0.004,0.015-0.01c0.004-0.002,0.004-0.006,0.008-0.008
		c0.103-0.105,0.187-0.23,0.242-0.367c0.062-0.143,0.092-0.293,0.092-0.443v-9.281c0-0.641-0.521-1.16-1.16-1.16
		c-0.641,0-1.159,0.52-1.159,1.16v6.48l-7.302-7.301c-0.453-0.451-1.188-0.451-1.641,0c-0.451,0.453-0.451,1.189,0,1.641
		l7.301,7.301h-6.481c-0.64,0-1.16,0.52-1.16,1.16s0.521,1.16,1.16,1.16h9.282h0.004c0.148,0,0.298-0.033,0.437-0.09
		C31.902,32.34,32.025,32.256,32.13,32.154z"/>
	<path fill="#FFFFFF" d="M6.962,15.084V8.602l7.303,7.301c0.453,0.453,1.188,0.453,1.641,0c0.453-0.451,0.453-1.188,0-1.641
		L8.603,6.961h6.48c0.641,0,1.159-0.521,1.159-1.16s-0.52-1.16-1.159-1.16H5.802c-0.15,0-0.302,0.031-0.443,0.092
		C5.075,4.848,4.851,5.076,4.731,5.359C4.671,5.5,4.642,5.65,4.642,5.801v9.283c0,0.639,0.52,1.16,1.16,1.16
		C6.441,16.244,6.962,15.723,6.962,15.084z"/>
	<path fill="#6E707C" d="M0,2.32v32.486c0,1.281,1.039,2.32,2.32,2.32h32.485c1.279,0,2.32-1.039,2.32-2.32V2.32
		c0-1.279-1.041-2.32-2.32-2.32H2.32C1.039,0,0,1.041,0,2.32z M32.486,22.045v9.281c0,0.148-0.031,0.301-0.092,0.441
		c-0.058,0.139-0.142,0.262-0.242,0.367c-0.004,0.002-0.004,0.006-0.008,0.008c-0.005,0.006-0.011,0.006-0.015,0.01
		c-0.104,0.104-0.229,0.188-0.365,0.242c-0.139,0.059-0.286,0.09-0.436,0.09c0,0-0.002,0-0.004,0h-9.283
		c-0.639,0-1.16-0.52-1.16-1.158c0-0.641,0.521-1.16,1.16-1.16h6.482l-7.301-7.301c-0.451-0.451-0.451-1.189,0-1.643
		c0.451-0.451,1.188-0.451,1.641,0l7.301,7.301v-6.479c0-0.641,0.521-1.16,1.16-1.16C31.964,20.885,32.486,21.404,32.486,22.045z
		 M15.083,4.641c0.641,0,1.159,0.521,1.159,1.16c0,0.641-0.52,1.16-1.159,1.16h-6.48l7.303,7.301c0.453,0.453,0.453,1.189,0,1.641
		c-0.453,0.453-1.188,0.453-1.641,0L6.962,8.602v6.482c0,0.639-0.521,1.158-1.16,1.158c-0.641,0-1.16-0.52-1.16-1.158V5.801
		c0-0.15,0.029-0.301,0.09-0.441c0.119-0.283,0.344-0.512,0.627-0.627c0.143-0.061,0.293-0.092,0.443-0.092H15.083L15.083,4.641z"/>
</g>
</svg>
