<?xml version="1.0" encoding="utf-8"?>
<!-- Generator: Adobe Illustrator 15.1.0, SVG Export Plug-In . SVG Version: 6.00 Build 0)  -->
<!DOCTYPE svg PUBLIC "-//W3C//DTD SVG 1.1//EN" "http://www.w3.org/Graphics/SVG/1.1/DTD/svg11.dtd">
<svg version="1.1" id="Layer_1" xmlns="http://www.w3.org/2000/svg" xmlns:xlink="http://www.w3.org/1999/xlink" x="0px" y="0px"
	 width="14.065px" height="20px" viewBox="0 0 14.065 20" enable-background="new 0 0 14.065 20" xml:space="preserve">
<g>
	<path fill="#A9A9AA" d="M4.496,4.078c0-0.115,0.015-0.23,0.019-0.344H0V20l4.553-6.311L9.11,20V9.471
		C6.496,9.059,4.496,6.805,4.496,4.078z"/>
	<path fill="#A9A9AA" d="M9.965,0C7.82,0,6.06,1.652,5.883,3.758C5.873,3.869,5.869,3.984,5.869,4.1c0,1.971,1.389,3.615,3.242,4.01
		c0.274,0.059,0.561,0.092,0.854,0.092c2.265,0,4.101-1.834,4.101-4.1C14.064,1.836,12.229,0,9.965,0z M11.963,4.588h-1.442v1.633
		H9.416V4.588H7.969V3.543h1.447V1.98h1.104v1.563h1.442V4.588z"/>
</g>
</svg>
