<svg xmlns="http://www.w3.org/2000/svg" viewBox="0 0 26.21 38.59">
  <defs>
    <style>
      .a {
        fill: #9a8479;
      }
    </style>
  </defs>
  <title>calculator</title>
  <path class="a" d="M4492.93,548.44h-23.74a1.31,1.31,0,0,0-1.24,1.37v35.85a1.31,1.31,0,0,0,1.24,1.37h23.74a1.31,1.31,0,0,0,1.24-1.37V549.81A1.31,1.31,0,0,0,4492.93,548.44Zm-16,34.76a0.47,0.47,0,0,1-.44.5H4473a0.48,0.48,0,0,1-.44-0.5V580.7a0.47,0.47,0,0,1,.44-0.5h3.46a0.47,0.47,0,0,1,.44.5v2.49Zm0-5.57a0.47,0.47,0,0,1-.44.5H4473a0.47,0.47,0,0,1-.44-0.5v-2.49a0.47,0.47,0,0,1,.44-0.5h3.46a0.47,0.47,0,0,1,.44.5v2.49Zm0-5.57a0.47,0.47,0,0,1-.44.5H4473a0.47,0.47,0,0,1-.44-0.5v-2.49a0.48,0.48,0,0,1,.44-0.5h3.46a0.47,0.47,0,0,1,.44.5v2.49Zm0-5.57a0.47,0.47,0,0,1-.44.5H4473a0.48,0.48,0,0,1-.44-0.5V564a0.47,0.47,0,0,1,.44-0.5h3.46a0.47,0.47,0,0,1,.44.5v2.49Zm6.27,16.72a0.47,0.47,0,0,1-.44.5h-3.46a0.47,0.47,0,0,1-.44-0.5V580.7a0.47,0.47,0,0,1,.44-0.5h3.46a0.47,0.47,0,0,1,.44.5v2.49Zm0-5.57a0.47,0.47,0,0,1-.44.5h-3.46a0.47,0.47,0,0,1-.44-0.5v-2.49a0.47,0.47,0,0,1,.44-0.5h3.46a0.47,0.47,0,0,1,.44.5v2.49Zm0-5.57a0.47,0.47,0,0,1-.44.5h-3.46a0.47,0.47,0,0,1-.44-0.5v-2.49a0.47,0.47,0,0,1,.44-0.5h3.46a0.48,0.48,0,0,1,.44.5v2.49Zm0-5.57a0.48,0.48,0,0,1-.44.5h-3.46a0.47,0.47,0,0,1-.44-0.5V564a0.47,0.47,0,0,1,.44-0.5h3.46a0.47,0.47,0,0,1,.44.5v2.49Zm6.27,16.72a0.47,0.47,0,0,1-.44.5h-3.46a0.48,0.48,0,0,1-.44-0.5V580.7a0.47,0.47,0,0,1,.44-0.5H4489a0.47,0.47,0,0,1,.44.5v2.49Zm0-5.57a0.47,0.47,0,0,1-.44.5h-3.46a0.47,0.47,0,0,1-.44-0.5v-2.49a0.47,0.47,0,0,1,.44-0.5H4489a0.47,0.47,0,0,1,.44.5v2.49Zm0-5.57a0.47,0.47,0,0,1-.44.5h-3.46a0.47,0.47,0,0,1-.44-0.5v-2.49a0.48,0.48,0,0,1,.44-0.5H4489a0.48,0.48,0,0,1,.44.5v2.49Zm0-5.57a0.48,0.48,0,0,1-.44.5h-3.46a0.48,0.48,0,0,1-.44-0.5V564a0.47,0.47,0,0,1,.44-0.5H4489a0.47,0.47,0,0,1,.44.5v2.49Zm1.83-8.47a1.32,1.32,0,0,1-1.24,1.38h-18.28a1.32,1.32,0,0,1-1.24-1.38v-5.2a1.32,1.32,0,0,1,1.24-1.38h18.28a1.32,1.32,0,0,1,1.24,1.38V558Z" transform="translate(-4467.95 -548.44)"/>
</svg>
