<svg id="_01_Notebook" data-name="01_Notebook" xmlns="http://www.w3.org/2000/svg" viewBox="0 0 14.07 20"><defs><style>.cls-1{fill:#f1f1f2;}</style></defs><title>favourite</title><g id="Body"><g id="Эффекты"><g id="Hover"><path class="cls-1" d="M4465.56,1076.14c0-.11,0-0.23,0-0.34h-4.51v16.27l4.55-6.31,4.56,6.31v-10.53A5.47,5.47,0,0,1,4465.56,1076.14Z" transform="translate(-4461.07 -1072.06)"/><path class="cls-1" d="M4471,1072.06a4.1,4.1,0,0,0-4.08,3.76c0,0.11,0,.23,0,0.34A4.1,4.1,0,1,0,4471,1072.06Zm2,4.59h-1.44v1.63h-1.1v-1.63H4469v-1h1.45V1074h1.1v1.56H4473v1Z" transform="translate(-4461.07 -1072.06)"/></g></g></g></svg>