<svg xmlns="http://www.w3.org/2000/svg" viewBox="0 0 150.01 38">
  <defs>
    <style>
      .a {
        fill: #e0e0e0;
      }

      .b {
        fill: #bbb692;
      }

      .c {
        fill: #6280bf;
      }

      .d, .f {
        fill: #fff;
      }

      .e {
        fill: #6d6e70;
      }

      .f {
        fill-rule: evenodd;
      }
    </style>
  </defs>
  <title>logo-dark</title>
  <g>
    <g>
      <polygon class="a" points="0 9.99 1.33 38 71.6 32.09 71.6 9.99 0 9.99"/>
      <polygon class="b" points="4.55 4.66 5.57 33.67 79.59 28.98 79.59 6.77 4.55 4.66"/>
      <polygon class="c" points="9.33 0 85.25 3.22 85.25 27.2 9.33 28.42 9.33 0"/>
      <path class="d" d="M1396.37,102c-0.56-2,.86-3.67,2.54-3.29a2.93,2.93,0,0,1,2.14,3.34l0.53,0.36,2.14-2.71-0.27-.62c-4.39-3-7.61-1.32-8.9.18-4.68,5.42,2.6,8.47,3.9,11.23,1.51,3.2-3.77,6.41-6-.42a5.52,5.52,0,0,0-2.36,2.94c0.64,4,8.69,5,11.57-.18S1397,104.42,1396.37,102Z" transform="translate(-1370.68 -93.18)"/>
      <path class="d" d="M1442.38,108.31a33.57,33.57,0,0,1,1.42-3.38,3.92,3.92,0,0,0-2.22.4l-1.11.85c-2.88-3.87-9.29,1-9.66,7-0.24.43-1,1.08-1.55,0.63-1.5-1.37,3.12-7.76.84-8.81-2.44-1.12-4.35,1.25-6.48,3.4a21.82,21.82,0,0,1,1.17-3.31h-0.09l-3.2.13a26.29,26.29,0,0,0-1.79,6.68l-0.1.09c-3.47,3-5.62,2.75-5.76,1.1,4.65-2.42,8-7.32,2.83-8.08-4-.59-7.21,3.59-6.45,8.28-1,.61-3.15,1.62-3.61-0.13-0.15-.6.19-1.88,1.6-6l2.18-.23,0.18-1.89h-1.63l1.59-4.58-4.27.49c-0.16.57-.64,2.22-1.17,4.12l-1.91,0-0.09,2.61,1.32-.14a40.41,40.41,0,0,0-1.21,5.28c-0.09,4.58,3.3,3.85,7.43,1.91,0.4,1.24,3.44,3.33,8.92-.7,0,0.66,0,1.33,0,2a8.31,8.31,0,0,0,3.38-.67,37.9,37.9,0,0,1,.46-5.14c1.38-1.56,2.76-2.86,3.56-2.7,1.05,0.21-4.66,9.38,1.63,8.41a3.4,3.4,0,0,0,2.53-1.76c1.93,3.61,4.62,1.88,7.36-1.13-0.26,3,1.78,5.17,6.59.35v-2.18C1441.77,115.52,1440.8,113.22,1442.38,108.31Zm-29,3.3c-0.72-4,1.9-5.88,2.72-5.39C1417.22,106.88,1416.39,110,1413.42,111.61Zm21.13,0.13c0.46-5.72,5.06-6.72,4.51-3.28C1438.47,112.11,1434.25,115.38,1434.54,111.73Z" transform="translate(-1370.68 -93.18)"/>
    </g>
    <g>
      <path class="e" d="M1463,102.67a2.31,2.31,0,0,1-3.08-3.44,2.31,2.31,0,0,1,3.95,1.64v2.3a1.72,1.72,0,0,1-.09.56,1.77,1.77,0,0,1-.25.49,2.16,2.16,0,0,1-.38.4,2.51,2.51,0,0,1-.47.3,2.59,2.59,0,0,1-.53.19,2.37,2.37,0,0,1-.55.07,2.56,2.56,0,0,1-.65-0.08,2.37,2.37,0,0,1-.6-0.25,2.28,2.28,0,0,1-.52-0.41,2.39,2.39,0,0,1-.4-0.54,0.39,0.39,0,0,1-.06-0.23,0.41,0.41,0,0,1,.12-0.31,0.42,0.42,0,0,1,.31-0.12,0.36,0.36,0,0,1,.2.05,1.22,1.22,0,0,1,.22.26,2.23,2.23,0,0,0,.25.3,1.61,1.61,0,0,0,2.27,0,1.07,1.07,0,0,0,.29-0.67v-0.49Zm-1.45-3.25a1.41,1.41,0,0,0-.57.11,1.46,1.46,0,0,0-.46.31,1.51,1.51,0,0,0-.31.46,1.44,1.44,0,0,0,0,1.12,1.5,1.5,0,0,0,.31.46,1.48,1.48,0,0,0,.46.31,1.45,1.45,0,0,0,1.13,0,1.5,1.5,0,0,0,.46-0.31,1.45,1.45,0,0,0,.31-0.46,1.43,1.43,0,0,0,0-1.12,1.48,1.48,0,0,0-.31-0.46,1.5,1.5,0,0,0-.46-0.31A1.41,1.41,0,0,0,1461.59,99.42Z" transform="translate(-1370.68 -93.18)"/>
      <path class="e" d="M1468.08,101.87a0.42,0.42,0,0,1,.31.12,0.41,0.41,0,0,1,.12.31,0.42,0.42,0,0,1-.12.31,2.31,2.31,0,0,1-3.15-3.39,2.31,2.31,0,0,1,3.27,0,2.23,2.23,0,0,1,.68,1.64,0.4,0.4,0,0,1-.13.31,0.42,0.42,0,0,1-.31.12h-3.27a1.45,1.45,0,0,0,.21.42,1.38,1.38,0,0,0,.32.32,1.41,1.41,0,0,0,.41.21,1.39,1.39,0,0,0,.46.08,1.51,1.51,0,0,0,.5-0.08,1.4,1.4,0,0,0,.42-0.25A0.45,0.45,0,0,1,1468.08,101.87Zm0.19-1.44a1.42,1.42,0,0,0-.21-0.41,1.58,1.58,0,0,0-.32-0.32,1.49,1.49,0,0,0-.4-0.21,1.45,1.45,0,0,0-.91,0,1.49,1.49,0,0,0-.41.21,1.43,1.43,0,0,0-.32.32,1.34,1.34,0,0,0-.2.41h2.79Z" transform="translate(-1370.68 -93.18)"/>
      <path class="e" d="M1469.84,99a0.4,0.4,0,0,1,0-.17,0.48,0.48,0,0,1,.09-0.14,0.38,0.38,0,0,1,.14-0.09,0.43,0.43,0,0,1,.34,0,0.37,0.37,0,0,1,.14.09,0.45,0.45,0,0,1,.09.14,0.43,0.43,0,0,1,0,.17v1.46l2.11-1.78a0.41,0.41,0,0,1,.29-0.11,0.42,0.42,0,0,1,.17,0,0.4,0.4,0,0,1,.14.09,0.46,0.46,0,0,1,.09.14,0.4,0.4,0,0,1,0,.17,0.42,0.42,0,0,1-.13.31l-1.85,1.56,1.85,1.59a0.42,0.42,0,0,1,.12.31,0.4,0.4,0,0,1,0,.17,0.42,0.42,0,0,1-.09.14,0.38,0.38,0,0,1-.14.09,0.42,0.42,0,0,1-.17,0,0.41,0.41,0,0,1-.28-0.1l-1.93-1.65-0.18.15v1.17a0.44,0.44,0,0,1,0,.17,0.41,0.41,0,0,1-.09.14,0.35,0.35,0,0,1-.14.09,0.45,0.45,0,0,1-.34,0A0.36,0.36,0,0,1,1470,103a0.44,0.44,0,0,1-.09-0.14,0.41,0.41,0,0,1,0-.17V99Z" transform="translate(-1370.68 -93.18)"/>
      <path class="e" d="M1478.58,100.86a2.21,2.21,0,0,1-.68,1.63,2.31,2.31,0,1,1,0-3.27,2.3,2.3,0,0,1,.5.75A2.38,2.38,0,0,1,1478.58,100.86Zm-2.31-1.45a1.43,1.43,0,0,0-.57.11,1.46,1.46,0,0,0-.76.77,1.44,1.44,0,0,0,0,1.12,1.45,1.45,0,0,0,.76.77,1.42,1.42,0,0,0,.57.12,1.39,1.39,0,0,0,.57-0.12,1.5,1.5,0,0,0,.46-0.31,1.44,1.44,0,0,0,.31-0.46,1.41,1.41,0,0,0,0-1.12,1.47,1.47,0,0,0-.31-0.46,1.5,1.5,0,0,0-.46-0.31A1.41,1.41,0,0,0,1476.26,99.42Z" transform="translate(-1370.68 -93.18)"/>
      <path class="e" d="M1481.55,103.18a2.21,2.21,0,0,1-1.45-.51v2.06a0.41,0.41,0,0,1-.13.31,0.42,0.42,0,0,1-.31.12,0.42,0.42,0,0,1-.43-0.43v-3.86a2.31,2.31,0,0,1,3.95-1.64,2.27,2.27,0,0,1,.51.75,2.33,2.33,0,0,1,.17.89,2.21,2.21,0,0,1-.68,1.63A2.22,2.22,0,0,1,1481.55,103.18Zm-1.45-2.31a1.38,1.38,0,0,0,.11.56,1.43,1.43,0,0,0,.31.46,1.47,1.47,0,0,0,.46.31,1.46,1.46,0,0,0,1.14,0,1.5,1.5,0,0,0,.46-0.31,1.43,1.43,0,0,0,.31-0.46,1.42,1.42,0,0,0,0-1.12,1.46,1.46,0,0,0-.31-0.46,1.5,1.5,0,0,0-.46-0.31,1.48,1.48,0,0,0-1.14,0,1.46,1.46,0,0,0-.46.31,1.44,1.44,0,0,0-.31.46A1.38,1.38,0,0,0,1480.1,100.86Z" transform="translate(-1370.68 -93.18)"/>
      <path class="e" d="M1488.28,102.75v-0.08a2.35,2.35,0,0,1-.67.38,2.25,2.25,0,0,1-.78.13,2.31,2.31,0,0,1,0-4.63,2.31,2.31,0,0,1,2.31,2.31v1.88a0.43,0.43,0,0,1-.43.43,0.42,0.42,0,0,1-.31-0.13A0.42,0.42,0,0,1,1488.28,102.75Zm-1.45-3.33a1.43,1.43,0,0,0-.57.11,1.47,1.47,0,0,0-.76.77,1.44,1.44,0,0,0,0,1.12,1.45,1.45,0,0,0,.31.46,1.48,1.48,0,0,0,.46.31,1.46,1.46,0,0,0,1.14,0,1.47,1.47,0,0,0,.46-0.31,1.43,1.43,0,0,0,.31-1.58,1.42,1.42,0,0,0-.31-0.46,1.47,1.47,0,0,0-.46-0.31A1.41,1.41,0,0,0,1486.83,99.42Z" transform="translate(-1370.68 -93.18)"/>
      <path class="e" d="M1496.34,102.74a0.42,0.42,0,0,1-.13.31,0.43,0.43,0,0,1-.61,0,0.42,0.42,0,0,1-.12-0.31v-2.35a0.93,0.93,0,0,0-.08-0.37,1,1,0,0,0-.21-0.31,1,1,0,0,0-.31-0.21,0.92,0.92,0,0,0-.39-0.08,0.9,0.9,0,0,0-.38.08,1,1,0,0,0-.31.21,0.9,0.9,0,0,0-.21.31,1,1,0,0,0-.08.38v2.35a0.42,0.42,0,0,1-.12.31,0.43,0.43,0,0,1-.61,0,0.42,0.42,0,0,1-.12-0.31v-2.35a0.91,0.91,0,0,0-.08-0.38,1,1,0,0,0-.21-0.31,1,1,0,0,0-.31-0.21,0.88,0.88,0,0,0-.38-0.08,1,1,0,0,0-.38.08,1,1,0,0,0-.52.52,1,1,0,0,0-.08.38v2.35a0.42,0.42,0,0,1-.13.31,0.43,0.43,0,0,1-.74-0.31V99a0.41,0.41,0,0,1,.13-0.3,0.42,0.42,0,0,1,.3-0.13,0.41,0.41,0,0,1,.26.08,0.4,0.4,0,0,1,.15.21,1.78,1.78,0,0,1,1-.29,1.88,1.88,0,0,1,.78.17,1.15,1.15,0,0,0,2-.17,1.75,1.75,0,0,1,.71.15,1.86,1.86,0,0,1,.59.4,1.89,1.89,0,0,1,.4.59,1.76,1.76,0,0,1,.15.71v2.35Z" transform="translate(-1370.68 -93.18)"/>
      <path class="e" d="M1500.95,103.18a0.4,0.4,0,0,1-.3-0.12,0.43,0.43,0,0,1-.13-0.3,1.92,1.92,0,0,1-.6.32,2.25,2.25,0,0,1-.69.1,2.06,2.06,0,0,1-.83-0.17,2.2,2.2,0,0,1-.68-0.46,2.17,2.17,0,0,1-.46-0.69,2,2,0,0,1-.17-0.83V99a0.41,0.41,0,0,1,.13-0.3,0.42,0.42,0,0,1,.31-0.13,0.43,0.43,0,0,1,.43.43v2a1.25,1.25,0,0,0,.1.5,1.26,1.26,0,0,0,.28.41,1.29,1.29,0,0,0,.91.38,1.25,1.25,0,0,0,.5-0.1,1.27,1.27,0,0,0,.41-0.28,1.37,1.37,0,0,0,.28-0.41,1.25,1.25,0,0,0,.1-0.5V99a0.43,0.43,0,1,1,.86,0v3.77A0.43,0.43,0,0,1,1500.95,103.18Z" transform="translate(-1370.68 -93.18)"/>
      <path class="e" d="M1504,98.55a1.29,1.29,0,0,1,.53.11,1.44,1.44,0,0,1,.44.29,1.46,1.46,0,0,1,.3.44,1.31,1.31,0,0,1,.11.53,1.32,1.32,0,0,1-.23.78,2.8,2.8,0,0,1,.24.25,1.45,1.45,0,0,1,.17.26,1.11,1.11,0,0,1,.1.28,1.35,1.35,0,0,1,0,.33,1.33,1.33,0,0,1-.11.53,1.39,1.39,0,0,1-.29.44,1.42,1.42,0,0,1-.44.3,1.33,1.33,0,0,1-.54.11h-1.88a0.41,0.41,0,0,1-.17,0,0.38,0.38,0,0,1-.14-0.09,0.42,0.42,0,0,1-.09-0.14,0.46,0.46,0,0,1,0-.17V99a0.45,0.45,0,0,1,0-.17,0.46,0.46,0,0,1,.09-0.14,0.4,0.4,0,0,1,.14-0.09,0.41,0.41,0,0,1,.17,0H1504Zm0,1.88a0.52,0.52,0,0,0,.19,0,0.51,0.51,0,0,0,.16-0.11,0.5,0.5,0,0,0,.11-0.16,0.48,0.48,0,0,0,0-.2,0.47,0.47,0,0,0,0-.2,0.53,0.53,0,0,0-.11-0.16,0.56,0.56,0,0,0-.16-0.11,0.49,0.49,0,0,0-.2,0h-1.14v1H1504Zm0.31,1.88a0.5,0.5,0,0,0,.2,0,0.47,0.47,0,0,0,.16-0.11,0.61,0.61,0,0,0,.11-0.16,0.45,0.45,0,0,0,0-.2,0.47,0.47,0,0,0,0-.2,0.54,0.54,0,0,0-.11-0.16,0.51,0.51,0,0,0-.16-0.11,0.5,0.5,0,0,0-.19,0h-1.45v1h1.45Z" transform="translate(-1370.68 -93.18)"/>
      <path class="e" d="M1507.17,101.29v1.46a0.46,0.46,0,0,1,0,.17,0.41,0.41,0,0,1-.1.14,0.39,0.39,0,0,1-.14.09,0.42,0.42,0,0,1-.17,0,0.43,0.43,0,0,1-.17,0,0.41,0.41,0,0,1-.14-0.09,0.43,0.43,0,0,1-.09-0.14,0.47,0.47,0,0,1,0-.17V99a0.46,0.46,0,0,1,0-.17,0.47,0.47,0,0,1,.09-0.14,0.45,0.45,0,0,1,.31-0.13,0.42,0.42,0,0,1,.17,0,0.41,0.41,0,0,1,.14.09,0.44,0.44,0,0,1,.1.14,0.44,0.44,0,0,1,0,.17v1.45h2.12V99a0.43,0.43,0,0,1,0-.17,0.47,0.47,0,0,1,.09-0.14,0.41,0.41,0,0,1,.14-0.09,0.42,0.42,0,0,1,.17,0,0.43,0.43,0,0,1,.17,0,0.39,0.39,0,0,1,.14.09,0.44,0.44,0,0,1,.13.3v3.77a0.47,0.47,0,0,1,0,.17,0.43,0.43,0,0,1-.09.14,0.37,0.37,0,0,1-.14.09,0.43,0.43,0,0,1-.17,0,0.42,0.42,0,0,1-.17,0,0.39,0.39,0,0,1-.14-0.09,0.43,0.43,0,0,1-.09-0.14,0.44,0.44,0,0,1,0-.17v-1.46h-2.12Z" transform="translate(-1370.68 -93.18)"/>
      <path class="e" d="M1511.63,100.43h1.29a1.29,1.29,0,0,1,.53.11,1.4,1.4,0,0,1,.44.3,1.36,1.36,0,0,1,.29.43,1.36,1.36,0,0,1,0,1.07,1.4,1.4,0,0,1-.73.73,1.39,1.39,0,0,1-.53.11h-1.72a0.44,0.44,0,0,1-.17,0,0.39,0.39,0,0,1-.14-0.09,0.41,0.41,0,0,1-.1-0.14,0.49,0.49,0,0,1,0-.17V99a0.43,0.43,0,0,1,0-.16,0.51,0.51,0,0,1,.09-0.14,0.47,0.47,0,0,1,.14-0.09,0.39,0.39,0,0,1,.17,0,0.4,0.4,0,0,1,.16,0,0.41,0.41,0,0,1,.14.09,0.45,0.45,0,0,1,.09.14,0.41,0.41,0,0,1,0,.17v1.45Zm1.29,1.88a0.53,0.53,0,0,0,.2,0,0.57,0.57,0,0,0,.16-0.11,0.51,0.51,0,0,0,.11-0.16,0.48,0.48,0,0,0,0-.19,0.46,0.46,0,0,0,0-.2,0.56,0.56,0,0,0-.11-0.16,0.52,0.52,0,0,0-.16-0.11,0.46,0.46,0,0,0-.19,0h-1.29v1h1.29Zm1.77,0.43V99a0.42,0.42,0,0,1,.13-0.31,0.42,0.42,0,0,1,.3-0.13,0.42,0.42,0,0,1,.3.13,0.44,0.44,0,0,1,.13.31v3.76a0.43,0.43,0,0,1-.13.31,0.41,0.41,0,0,1-.3.13,0.41,0.41,0,0,1-.3-0.13A0.42,0.42,0,0,1,1514.69,102.74Z" transform="translate(-1370.68 -93.18)"/>
      <path class="e" d="M1519.58,101.87a0.43,0.43,0,0,1,.31.12,0.41,0.41,0,0,1,.12.31,0.42,0.42,0,0,1-.12.31,2.31,2.31,0,1,1-1.51-4.06,2.35,2.35,0,0,1,2.14,1.42,2.34,2.34,0,0,1,.17.89,0.4,0.4,0,0,1-.13.31,0.42,0.42,0,0,1-.31.12H1517a1.51,1.51,0,0,0,.21.42,1.49,1.49,0,0,0,.32.32,1.45,1.45,0,0,0,.4.21,1.41,1.41,0,0,0,.46.08,1.51,1.51,0,0,0,.5-0.08,1.38,1.38,0,0,0,.42-0.25A0.45,0.45,0,0,1,1519.58,101.87Zm0.19-1.44a1.35,1.35,0,0,0-.21-0.41,1.53,1.53,0,0,0-.32-0.32,1.45,1.45,0,0,0-.4-0.21,1.36,1.36,0,0,0-.46-0.07,1.37,1.37,0,0,0-.46.07,1.46,1.46,0,0,0-.41.21,1.52,1.52,0,0,0-.32.32,1.36,1.36,0,0,0-.2.41h2.78Z" transform="translate(-1370.68 -93.18)"/>
      <path class="e" d="M1462.8,110.77a0.41,0.41,0,0,1,.43.43,0.43,0.43,0,0,1-.13.32,2.31,2.31,0,1,1,0-3.5,0.42,0.42,0,0,1,.15.33,0.42,0.42,0,0,1-.12.31,0.41,0.41,0,0,1-.31.13,0.44,0.44,0,0,1-.28-0.1,1.58,1.58,0,0,0-.44-0.27,1.36,1.36,0,0,0-.5-0.09,1.39,1.39,0,0,0-.57.11,1.43,1.43,0,0,0-.46.31,1.45,1.45,0,0,0-.31.46,1.41,1.41,0,0,0-.12.57,1.39,1.39,0,0,0,.12.57,1.41,1.41,0,0,0,.31.46,1.55,1.55,0,0,0,.46.31,1.44,1.44,0,0,0,.57.11,1.38,1.38,0,0,0,.5-0.09,1.46,1.46,0,0,0,.44-0.27A0.48,0.48,0,0,1,1462.8,110.77Z" transform="translate(-1370.68 -93.18)"/>
      <path class="e" d="M1470.43,111.64a0.43,0.43,0,0,1-.73.31,0.42,0.42,0,0,1-.12-0.31v-2.35a1,1,0,0,0-.08-0.37,1,1,0,0,0-.21-0.31,1,1,0,0,0-.31-0.21,1,1,0,0,0-.39-0.08,0.93,0.93,0,0,0-.38.08,1,1,0,0,0-.52.52,1,1,0,0,0-.08.38v2.35a0.43,0.43,0,0,1-.43.43,0.43,0.43,0,0,1-.44-0.43v-2.35a0.93,0.93,0,0,0-.08-0.38,1.08,1.08,0,0,0-.21-0.31,1,1,0,0,0-.31-0.21,1,1,0,0,0-.76,0,1,1,0,0,0-.31.21,1,1,0,0,0-.29.69v2.35a0.43,0.43,0,0,1-.74.31,0.42,0.42,0,0,1-.13-0.31v-3.76a0.41,0.41,0,0,1,.13-0.3,0.44,0.44,0,0,1,.56,0,0.39,0.39,0,0,1,.15.21,1.78,1.78,0,0,1,1-.29,1.86,1.86,0,0,1,.78.16,1.72,1.72,0,0,1,.64.49,1.8,1.8,0,0,1,1.41-.66,1.74,1.74,0,0,1,.71.15,1.84,1.84,0,0,1,1,1,1.76,1.76,0,0,1,.15.71v2.35Z" transform="translate(-1370.68 -93.18)"/>
      <path class="e" d="M1474.69,110.78a0.41,0.41,0,0,1,.31.12,0.42,0.42,0,0,1,.12.31,0.43,0.43,0,0,1-.12.31,2.31,2.31,0,1,1-1.51-4.06,2.34,2.34,0,0,1,2.14,1.42,2.28,2.28,0,0,1,.17.89,0.41,0.41,0,0,1-.13.31,0.43,0.43,0,0,1-.31.12h-3.27a1.34,1.34,0,0,0,.21.41,1.42,1.42,0,0,0,.32.33,1.61,1.61,0,0,0,.41.21,1.44,1.44,0,0,0,.46.07,1.4,1.4,0,0,0,.5-0.08,1.32,1.32,0,0,0,.42-0.25A0.44,0.44,0,0,1,1474.69,110.78Zm0.18-1.44a1.4,1.4,0,0,0-.21-0.41,1.5,1.5,0,0,0-.32-0.32,1.47,1.47,0,0,0-.86-0.28,1.45,1.45,0,0,0-.46.07,1.5,1.5,0,0,0-.41.21,1.48,1.48,0,0,0-.32.32,1.36,1.36,0,0,0-.2.41h2.78Z" transform="translate(-1370.68 -93.18)"/>
      <path class="e" d="M1477.31,110.19v1.45a0.42,0.42,0,0,1,0,.17,0.45,0.45,0,0,1-.09.14,0.45,0.45,0,0,1-.14.09,0.43,0.43,0,0,1-.33,0,0.43,0.43,0,0,1-.23-0.23,0.42,0.42,0,0,1,0-.17v-3.77a0.41,0.41,0,0,1,0-.17,0.41,0.41,0,0,1,.09-0.14,0.42,0.42,0,0,1,.14-0.09,0.43,0.43,0,0,1,.47.09,0.45,0.45,0,0,1,.09.14,0.41,0.41,0,0,1,0,.17v1.45h2.12v-1.45a0.44,0.44,0,0,1,0-.17,0.44,0.44,0,0,1,.09-0.14,0.41,0.41,0,0,1,.14-0.09,0.48,0.48,0,0,1,.17,0,0.5,0.5,0,0,1,.17,0,0.44,0.44,0,0,1,.14.09,0.45,0.45,0,0,1,.12.3v3.77a0.41,0.41,0,0,1,0,.17,0.41,0.41,0,0,1-.09.14,0.42,0.42,0,0,1-.31.13,0.41,0.41,0,0,1-.17,0,0.4,0.4,0,0,1-.14-0.09,0.43,0.43,0,0,1-.12-0.3v-1.45h-2.12Z" transform="translate(-1370.68 -93.18)"/>
      <path class="e" d="M1485.54,109.76a2.21,2.21,0,0,1-.68,1.64,2.31,2.31,0,0,1-3.27,0,2.31,2.31,0,1,1,3.27-3.27,2.26,2.26,0,0,1,.51.75A2.36,2.36,0,0,1,1485.54,109.76Zm-2.31-1.45a1.42,1.42,0,0,0-.57.11,1.45,1.45,0,0,0-.46.31,1.49,1.49,0,0,0-.31.46,1.44,1.44,0,0,0,0,1.12,1.44,1.44,0,0,0,.77.77,1.45,1.45,0,0,0,1.14,0,1.46,1.46,0,0,0,.46-0.31,1.57,1.57,0,0,0,.31-0.46,1.46,1.46,0,0,0,0-1.12,1.53,1.53,0,0,0-.31-0.46,1.48,1.48,0,0,0-.46-0.32A1.41,1.41,0,0,0,1483.23,108.31Z" transform="translate(-1370.68 -93.18)"/>
      <path class="e" d="M1488.19,107.45a1.29,1.29,0,0,1,.53.11,1.39,1.39,0,0,1,.44.3,1.41,1.41,0,0,1,.29.43,1.33,1.33,0,0,1,.11.53,1.31,1.31,0,0,1-.24.78,2.3,2.3,0,0,1,.24.25,1.44,1.44,0,0,1,.17.26,1.25,1.25,0,0,1,.1.28,1.41,1.41,0,0,1,0,.32,1.37,1.37,0,0,1-1.37,1.37h-1.88a0.42,0.42,0,0,1-.17,0,0.41,0.41,0,0,1-.13-0.09,0.4,0.4,0,0,1-.09-0.14,0.42,0.42,0,0,1,0-.17v-3.77a0.41,0.41,0,0,1,0-.17,0.4,0.4,0,0,1,.09-0.14,0.43,0.43,0,0,1,.13-0.09,0.49,0.49,0,0,1,.17,0h1.57Zm0,1.88a0.51,0.51,0,0,0,.19,0,0.55,0.55,0,0,0,.16-0.11,0.51,0.51,0,0,0,.11-0.16,0.5,0.5,0,0,0,0-.4,0.51,0.51,0,0,0-.11-0.16,0.54,0.54,0,0,0-.16-0.11,0.48,0.48,0,0,0-.2,0H1487v1h1.14Zm0.31,1.88a0.49,0.49,0,0,0,.2,0,0.46,0.46,0,0,0,.16-0.11,0.56,0.56,0,0,0,.11-0.16,0.46,0.46,0,0,0,0-.2,0.49,0.49,0,0,0,0-.2,0.5,0.5,0,0,0-.28-0.27,0.46,0.46,0,0,0-.19,0H1487v1h1.45Z" transform="translate(-1370.68 -93.18)"/>
      <path class="e" d="M1491.34,109.33h1.29a1.31,1.31,0,0,1,.53.11,1.4,1.4,0,0,1,.73.73,1.36,1.36,0,0,1,0,1.06,1.44,1.44,0,0,1-.3.44,1.37,1.37,0,0,1-.44.29,1.35,1.35,0,0,1-.53.11h-1.72a0.41,0.41,0,0,1-.17,0,0.42,0.42,0,0,1-.14-0.09,0.45,0.45,0,0,1-.1-0.14,0.43,0.43,0,0,1,0-.17v-3.77a0.44,0.44,0,0,1,0-.16,0.46,0.46,0,0,1,.09-0.13,0.43,0.43,0,0,1,.13-0.09,0.43,0.43,0,0,1,.17,0,0.46,0.46,0,0,1,.16,0,0.47,0.47,0,0,1,.14.09,0.4,0.4,0,0,1,.09.14,0.43,0.43,0,0,1,0,.17v1.45Zm1.29,1.88a0.5,0.5,0,0,0,.2,0,0.53,0.53,0,0,0,.16-0.11,0.54,0.54,0,0,0,.11-0.16,0.48,0.48,0,0,0,0-.19,0.46,0.46,0,0,0,0-.19,0.57,0.57,0,0,0-.11-0.17,0.5,0.5,0,0,0-.16-0.11,0.44,0.44,0,0,0-.2,0h-1.29v1h1.29Zm1.77,0.43v-3.76a0.43,0.43,0,0,1,.73-0.31,0.43,0.43,0,0,1,.13.31v3.76a0.43,0.43,0,0,1-.13.31A0.43,0.43,0,0,1,1494.41,111.64Z" transform="translate(-1370.68 -93.18)"/>
      <path class="e" d="M1499.3,110.78a0.41,0.41,0,0,1,.31.12,0.42,0.42,0,0,1,.12.31,0.43,0.43,0,0,1-.12.31,2.31,2.31,0,1,1,.12-3.38,2.19,2.19,0,0,1,.51.75,2.3,2.3,0,0,1,.17.89,0.41,0.41,0,0,1-.13.31,0.43,0.43,0,0,1-.31.12h-3.27a1.49,1.49,0,0,0,.53.74,1.6,1.6,0,0,0,.4.21,1.46,1.46,0,0,0,.46.07,1.39,1.39,0,0,0,.5-0.08,1.31,1.31,0,0,0,.42-0.25A0.44,0.44,0,0,1,1499.3,110.78Zm0.18-1.44a1.37,1.37,0,0,0-.21-0.41,1.49,1.49,0,0,0-.32-0.32,1.48,1.48,0,0,0-1.73,0,1.41,1.41,0,0,0-.32.32,1.33,1.33,0,0,0-.2.41h2.78Z" transform="translate(-1370.68 -93.18)"/>
      <path class="e" d="M1460.14,116.78a2.14,2.14,0,0,1,2.12-.26,2.29,2.29,0,0,1,.69.46,2.17,2.17,0,0,1,.47.69,2.07,2.07,0,0,1,.17.84v2a0.42,0.42,0,0,1-.12.31,0.43,0.43,0,0,1-.61,0,0.41,0.41,0,0,1-.13-0.31v-2a1.22,1.22,0,0,0-.1-0.5,1.32,1.32,0,0,0-.28-0.41,1.35,1.35,0,0,0-.41-0.28,1.25,1.25,0,0,0-.5-0.1,1.29,1.29,0,0,0-.5.1,1.35,1.35,0,0,0-.41.28,1.32,1.32,0,0,0-.28.41,1.25,1.25,0,0,0-.1.5v2a0.42,0.42,0,0,1-.12.31,0.43,0.43,0,0,1-.61,0,0.41,0.41,0,0,1-.13-0.31v-3.76a0.43,0.43,0,0,1,.13-0.31A0.43,0.43,0,0,1,1460.14,116.78Z" transform="translate(-1370.68 -93.18)"/>
      <path class="e" d="M1468.86,118.66a2.21,2.21,0,0,1-.68,1.63,2.31,2.31,0,1,1,0-3.27,2.33,2.33,0,0,1,.51.75A2.4,2.4,0,0,1,1468.86,118.66Zm-2.31-1.45a1.42,1.42,0,0,0-.57.11,1.49,1.49,0,0,0-.46.31,1.43,1.43,0,0,0-.31.46,1.38,1.38,0,0,0-.11.56,1.4,1.4,0,0,0,.11.56,1.44,1.44,0,0,0,2.36.46,1.45,1.45,0,0,0,.31-0.46,1.43,1.43,0,0,0,0-1.12,1.47,1.47,0,0,0-.77-0.78A1.42,1.42,0,0,0,1466.55,117.21Z" transform="translate(-1370.68 -93.18)"/>
      <path class="e" d="M1469.51,116.78a0.44,0.44,0,0,1,0-.16,0.44,0.44,0,0,1,.23-0.23,0.44,0.44,0,0,1,.34,0,0.42,0.42,0,0,1,.23.23,0.39,0.39,0,0,1,0,.16v1.46l2.11-1.79a0.41,0.41,0,0,1,.28-0.11,0.43,0.43,0,0,1,.17,0,0.41,0.41,0,0,1,.14.09,0.42,0.42,0,0,1,.09.14,0.38,0.38,0,0,1,0,.16,0.41,0.41,0,0,1-.13.31l-1.85,1.57,1.85,1.58a0.42,0.42,0,0,1,.12.31,0.39,0.39,0,0,1,0,.17,0.46,0.46,0,0,1-.09.14,0.42,0.42,0,0,1-.14.09,0.47,0.47,0,0,1-.17,0,0.42,0.42,0,0,1-.28-0.1l-1.93-1.65-0.18.15v1.17a0.39,0.39,0,0,1,0,.17,0.42,0.42,0,0,1-.09.14,0.4,0.4,0,0,1-.14.09,0.45,0.45,0,0,1-.34,0,0.4,0.4,0,0,1-.14-0.09,0.43,0.43,0,0,1-.09-0.14,0.45,0.45,0,0,1,0-.17v-3.77Z" transform="translate(-1370.68 -93.18)"/>
      <path class="e" d="M1476.13,121a2.21,2.21,0,0,1-1.45-.51v2.06a0.4,0.4,0,0,1-.13.31,0.45,0.45,0,0,1-.62,0,0.42,0.42,0,0,1-.12-0.31v-3.87a2.31,2.31,0,0,1,3.95-1.64,2.23,2.23,0,0,1,.68,1.64,2.21,2.21,0,0,1-.68,1.63,2.34,2.34,0,0,1-.75.51A2.3,2.3,0,0,1,1476.13,121Zm-1.45-2.31a1.4,1.4,0,0,0,.11.56,1.48,1.48,0,0,0,.31.46,1.42,1.42,0,0,0,1,.43,1.41,1.41,0,0,0,.57-0.12,1.47,1.47,0,0,0,.77-0.77,1.45,1.45,0,0,0,0-1.12,1.46,1.46,0,0,0-.77-0.78,1.41,1.41,0,0,0-.57-0.11,1.43,1.43,0,0,0-.57.11,1.46,1.46,0,0,0-.77.77A1.38,1.38,0,0,0,1474.68,118.66Z" transform="translate(-1370.68 -93.18)"/>
      <path class="e" d="M1479.95,118.23h1.29a1.28,1.28,0,0,1,.53.11,1.38,1.38,0,0,1,.43.3,1.43,1.43,0,0,1,.3.43,1.34,1.34,0,0,1,.11.53,1.37,1.37,0,0,1-.11.54,1.42,1.42,0,0,1-.3.43,1.37,1.37,0,0,1-.43.29,1.3,1.3,0,0,1-.53.11h-1.72a0.48,0.48,0,0,1-.17,0,0.46,0.46,0,0,1-.14-0.09,0.44,0.44,0,0,1-.09-0.14,0.42,0.42,0,0,1,0-.17v-3.77a0.45,0.45,0,0,1,0-.16,0.47,0.47,0,0,1,.09-0.13,0.49,0.49,0,0,1,.13-0.09,0.42,0.42,0,0,1,.17,0,0.4,0.4,0,0,1,.16,0,0.39,0.39,0,0,1,.14.09,0.41,0.41,0,0,1,.09.14,0.43,0.43,0,0,1,0,.16v1.45Zm1.29,1.88a0.49,0.49,0,0,0,.36-0.15,0.53,0.53,0,0,0,.11-0.16,0.5,0.5,0,0,0,0-.19,0.48,0.48,0,0,0,0-.2,0.6,0.6,0,0,0-.11-0.16,0.49,0.49,0,0,0-.16-0.11,0.45,0.45,0,0,0-.2,0h-1.29v1h1.29Zm1.77,0.43v-3.76a0.43,0.43,0,0,1,.43-0.43,0.42,0.42,0,0,1,.3.13,0.42,0.42,0,0,1,.13.31v3.76a0.42,0.42,0,0,1-.13.31,0.41,0.41,0,0,1-.3.13,0.4,0.4,0,0,1-.3-0.13A0.41,0.41,0,0,1,1483,120.54Z" transform="translate(-1370.68 -93.18)"/>
      <path class="e" d="M1490.91,120.54a0.41,0.41,0,0,1-.13.31,0.43,0.43,0,0,1-.61,0,0.42,0.42,0,0,1-.12-0.31v-2.35a1,1,0,0,0-.07-0.38,1,1,0,0,0-.21-0.31,0.91,0.91,0,0,0-.31-0.21,0.89,0.89,0,0,0-.39-0.08,0.87,0.87,0,0,0-.38.08,1,1,0,0,0-.52.52,1,1,0,0,0-.08.38v2.35a0.43,0.43,0,0,1-.12.31,0.41,0.41,0,0,1-.3.13,0.41,0.41,0,0,1-.31-0.13,0.41,0.41,0,0,1-.13-0.31v-2.35a0.93,0.93,0,0,0-.08-0.38,1,1,0,0,0-.21-0.31,1,1,0,0,0-.31-0.21,0.87,0.87,0,0,0-.38-0.08,0.93,0.93,0,0,0-.38.08,1,1,0,0,0-.31.21,1,1,0,0,0-.21.31,1,1,0,0,0-.08.38v2.35a0.41,0.41,0,0,1-.13.31,0.4,0.4,0,0,1-.3.13,0.41,0.41,0,0,1-.31-0.13,0.42,0.42,0,0,1-.13-0.31v-3.76a0.43,0.43,0,0,1,.43-0.43,0.42,0.42,0,0,1,.26.08,0.4,0.4,0,0,1,.15.21,1.78,1.78,0,0,1,1-.29,1.88,1.88,0,0,1,.78.17,1.73,1.73,0,0,1,.64.49,1.79,1.79,0,0,1,1.41-.66,1.77,1.77,0,0,1,.71.15,1.93,1.93,0,0,1,.59.4,1.91,1.91,0,0,1,.39.59,1.77,1.77,0,0,1,.15.71v2.35Z" transform="translate(-1370.68 -93.18)"/>
      <path class="e" d="M1495.53,121a0.4,0.4,0,0,1-.31-0.12,0.44,0.44,0,0,1-.13-0.3,1.92,1.92,0,0,1-.6.33,2.28,2.28,0,0,1-.69.1,2,2,0,0,1-.83-0.17,2.13,2.13,0,0,1-.69-0.46,2.22,2.22,0,0,1-.47-0.68,2.06,2.06,0,0,1-.17-0.83v-2a0.43,0.43,0,0,1,.74-0.3,0.41,0.41,0,0,1,.13.3v2a1.26,1.26,0,0,0,.1.5,1.28,1.28,0,0,0,.28.41,1.33,1.33,0,0,0,.41.28,1.25,1.25,0,0,0,.5.1,1.23,1.23,0,0,0,.5-0.1,1.3,1.3,0,0,0,.41-0.28,1.32,1.32,0,0,0,.28-0.41,1.25,1.25,0,0,0,.1-0.5v-2a0.41,0.41,0,0,1,.13-0.3,0.42,0.42,0,0,1,.31-0.13,0.43,0.43,0,0,1,.43.43v3.77A0.43,0.43,0,0,1,1495.53,121Z" transform="translate(-1370.68 -93.18)"/>
      <path class="e" d="M1499.68,116.35a0.43,0.43,0,0,1,.17,0,0.42,0.42,0,0,1,.14.09,0.4,0.4,0,0,1,.09.14,0.41,0.41,0,0,1,0,.16v3.77a0.41,0.41,0,0,1,0,.17,0.43,0.43,0,0,1-.09.14,0.42,0.42,0,0,1-.14.09,0.46,0.46,0,0,1-.17,0,0.46,0.46,0,0,1-.17,0,0.45,0.45,0,0,1-.23-0.23,0.42,0.42,0,0,1,0-.17v-1.46h-0.82a0.51,0.51,0,0,0-.46.29l-0.72,1.34a0.43,0.43,0,0,1-.39.26,0.45,0.45,0,0,1-.17,0,0.39,0.39,0,0,1-.14-0.09,0.42,0.42,0,0,1-.09-0.14,0.41,0.41,0,0,1,0-.17,0.43,0.43,0,0,1,.06-0.23l0.71-1.35a0.77,0.77,0,0,1,.09-0.14,2.55,2.55,0,0,1-.24-0.25,1.39,1.39,0,0,1-.17-0.26,1.26,1.26,0,0,1-.1-0.28,1.33,1.33,0,0,1,0-.32,1.29,1.29,0,0,1,.11-0.53,1.41,1.41,0,0,1,.3-0.44,1.39,1.39,0,0,1,.43-0.29,1.33,1.33,0,0,1,.53-0.11h1.57Zm-0.43,1.88v-1h-1.14a0.49,0.49,0,0,0-.37.16,0.48,0.48,0,0,0-.1.16,0.51,0.51,0,0,0,0,.19,0.51,0.51,0,0,0,0,.2,0.54,0.54,0,0,0,.11.17,0.56,0.56,0,0,0,.16.11,0.48,0.48,0,0,0,.2,0h1.14Z" transform="translate(-1370.68 -93.18)"/>
    </g>
    <g>
      <path class="f" d="M1425.49,102.76a1.88,1.88,0,0,1-1.18-.39,1.43,1.43,0,0,1-.49-1,2.52,2.52,0,0,1,.15-1,2.13,2.13,0,0,1,.45-0.76,2,2,0,0,1,.71-0.49,2.53,2.53,0,0,1,2.21.11l-0.16.94h-0.11a1.41,1.41,0,0,0-1.31-.27,1.16,1.16,0,0,0-.82,1c-0.14.87,0.67,1.41,1.91,0.71H1427l-0.16.93a2.48,2.48,0,0,1-1.3.29h0Z" transform="translate(-1370.68 -93.18)"/>
      <polygon class="f" points="70.53 5.82 70.38 6.69 69.07 6.69 68.98 7.19 70.17 7.19 70.03 8.01 68.84 8.01 68.74 8.59 70.06 8.59 69.9 9.48 67.42 9.48 68.05 5.82 70.53 5.82 70.53 5.82"/>
      <polygon class="f" points="72.86 9.48 70.45 9.48 71.08 5.82 72.24 5.82 71.76 8.6 73.01 8.6 72.86 9.48 72.86 9.48"/>
      <polygon class="f" points="59.05 9.48 56.64 9.48 57.27 5.82 58.44 5.82 57.96 8.6 59.2 8.6 59.05 9.48 59.05 9.48"/>
      <polygon class="f" points="61.56 5.82 62.77 5.82 63.64 9.48 62.55 9.48 62.49 9.25 61.8 10.18 62.44 9.01 62.38 8.78 61.39 10.18 62.31 8.47 62.25 8.22 60.96 10.18 62.17 7.9 62.11 7.63 60.52 10.18 62.03 7.29 61.94 6.93 60.55 9.48 59.41 9.48 61.56 5.82 61.56 5.82"/>
      <polygon class="f" points="65.58 9.48 64.38 9.48 63.5 5.82 64.6 5.82 64.66 6.05 65.35 5.13 64.72 6.3 64.77 6.53 65.76 5.13 64.84 6.84 64.9 7.08 66.19 5.13 64.98 7.41 65.04 7.68 66.63 5.12 65.12 8.02 65.2 8.37 66.6 5.82 67.74 5.82 65.58 9.48 65.58 9.48"/>
    </g>
  </g>
</svg>
