<svg xmlns="http://www.w3.org/2000/svg" viewBox="0 0 16 16">
  <defs>
    <style>
      .a {
        fill: #646464;
      }
    </style>
  </defs>
  <title>phone</title>
  <path class="a" d="M3467.68,6357.13a2.25,2.25,0,0,0-1.37-1.3l-2.1-.58a2.06,2.06,0,0,0-1.8.47l-0.76.76a8.07,8.07,0,0,1-5.68-5.68l0.76-.76a2.07,2.07,0,0,0,.47-1.8l-0.57-2.1a2.25,2.25,0,0,0-1.3-1.37l-0.24-.08a1.9,1.9,0,0,0-1.78.42l-1.14,1.14a2.14,2.14,0,0,0-.33.78,13.43,13.43,0,0,0,13.55,13.59,2.1,2.1,0,0,0,.82-0.33l1.14-1.14a1.91,1.91,0,0,0,.42-1.78Z" transform="translate(-3451.83 -6344.62)"/>
</svg>
