<svg xmlns="http://www.w3.org/2000/svg" viewBox="0 0 29.12 22.27">
  <defs>
    <style>
      .a {
        fill: #fff;
        stroke: #282828;
        stroke-miterlimit: 10;
        stroke-width: 0.5px;
      }
    </style>
  </defs>
  <title>rotate</title>
  <g>
    <path class="a" d="M11046,1225c-4-.2-6.35-2.6-6.35-5.06,0-2.29,2.35-4.26,6.35-5.12v-1.55c-6,1.12-9.91,4.25-9.91,7.94s3.91,7,9.91,8v2.9l7.62-5.08L11046,1222v3Z" transform="translate(-11035.79 -1210.31)"/>
    <path class="a" d="M11053,1213v-2.23l-5,3.3,5,3.3v-2.69c3,0.79,7.21,2.83,7.21,5.23,0,1.8-1.25,3.4-3.67,4.43l4.48,2.8a6.66,6.66,0,0,0,3.68-6C11064.66,1217.18,11060,1213.83,11053,1213Z" transform="translate(-11035.79 -1210.31)"/>
  </g>
</svg>
