<svg xmlns="http://www.w3.org/2000/svg" viewBox="0 0 42.33 39.15">
  <defs>
    <style>
      .a {
        fill: #d3cfba;
      }
    </style>
  </defs>
  <title>testimonial</title>
  <path class="a" d="M5988.38,2138.65v-17h15.74v13.46q0,10.93-2.61,15.82a21.94,21.94,0,0,1-10.85,9.87l-3.59-5.71a13.14,13.14,0,0,0,6.61-5.59q2.12-3.71,2.37-10.81h-7.67Zm-25.29,0v-17h15.74v13.46q0,10.93-2.61,15.82a22,22,0,0,1-10.85,9.87l-3.59-5.71a13.14,13.14,0,0,0,6.61-5.59q2.12-3.71,2.37-10.81h-7.67Z" transform="translate(-5961.79 -2121.6)"/>
</svg>
