<svg xmlns="http://www.w3.org/2000/svg" viewBox="0 0 37.13 37.13">
  <defs>
    <style>
      .a {
        fill: #6c6f7c;
      }
    </style>
  </defs>
  <title>zoom</title>
  <path class="a" d="M3911.55,335.55V368a2.32,2.32,0,0,0,2.32,2.32h32.49a2.32,2.32,0,0,0,2.32-2.32V335.55a2.32,2.32,0,0,0-2.32-2.32h-32.49A2.32,2.32,0,0,0,3911.55,335.55ZM3944,355.28v9.28a1.12,1.12,0,0,1-.09.44,1.16,1.16,0,0,1-.24.37h0a1.17,1.17,0,0,1-.8.33h-9.29a1.16,1.16,0,0,1,0-2.32h6.48l-7.3-7.3a1.16,1.16,0,1,1,1.64-1.64l7.3,7.3v-6.48A1.16,1.16,0,1,1,3944,355.28Zm-17.4-17.4a1.16,1.16,0,1,1,0,2.32h-6.48l7.3,7.3a1.16,1.16,0,0,1-1.64,1.64l-7.3-7.3v6.48a1.16,1.16,0,0,1-2.32,0V339a1.12,1.12,0,0,1,.09-0.44,1.16,1.16,0,0,1,.63-0.63,1.12,1.12,0,0,1,.44-0.09h9.28Z" transform="translate(-3911.55 -333.23)"/>
</svg>
